G04 #@! TF.FileFunction,Copper,L2,Bot,Signal*
%FSLAX46Y46*%
G04 Gerber Fmt 4.6, Leading zero omitted, Abs format (unit mm)*
G04 Created by KiCad (PCBNEW 4.0.7-e1-6374~58~ubuntu16.04.1) date Wed Aug 30 16:27:54 2017*
%MOMM*%
%LPD*%
G01*
G04 APERTURE LIST*
%ADD10C,0.100000*%
%ADD11R,1.676400X0.304800*%
%ADD12R,3.610000X4.700001*%
%ADD13R,0.750000X1.200000*%
%ADD14R,1.200000X0.750000*%
%ADD15R,2.000000X2.600000*%
%ADD16O,2.000000X2.600000*%
%ADD17C,1.600000*%
%ADD18R,1.600000X1.600000*%
%ADD19C,0.600000*%
%ADD20C,0.250000*%
G04 APERTURE END LIST*
D10*
D11*
X71620300Y65699986D03*
X71620300Y65199988D03*
X71620300Y64699988D03*
X71620300Y64199990D03*
X71620300Y63699990D03*
X71620300Y63199991D03*
X71620300Y62699992D03*
X71620300Y62199994D03*
X71620300Y61699994D03*
X71620300Y61199996D03*
X71620300Y60699996D03*
X71620300Y60199997D03*
X71620300Y59699998D03*
X71620300Y59200000D03*
X71620300Y58700000D03*
X71620300Y58200002D03*
X71620300Y57700003D03*
X71620300Y57200004D03*
X71620300Y56700004D03*
X71620300Y56200006D03*
X71620300Y55700006D03*
X71620300Y55200008D03*
X71620300Y54700009D03*
X71620300Y54200010D03*
X71620300Y53700010D03*
X71620300Y53200012D03*
X71620300Y52700012D03*
X71620300Y52200014D03*
X64279700Y52200014D03*
X64279700Y52700012D03*
X64279700Y53200012D03*
X64279700Y53700010D03*
X64279700Y54200010D03*
X64279700Y54700009D03*
X64279700Y55200008D03*
X64279700Y55700006D03*
X64279700Y56200006D03*
X64279700Y56700004D03*
X64279700Y57200004D03*
X64279700Y57700003D03*
X64279700Y58200002D03*
X64279700Y58700000D03*
X64279700Y59200000D03*
X64279700Y59699998D03*
X64279700Y60199997D03*
X64279700Y60699996D03*
X64279700Y61199996D03*
X64279700Y61699994D03*
X64279700Y62199994D03*
X64279700Y62699992D03*
X64279700Y63199991D03*
X64279700Y63699990D03*
X64279700Y64199990D03*
X64279700Y64699988D03*
X64279700Y65199988D03*
X64279700Y65699986D03*
D12*
X67950000Y58950000D03*
D13*
X54578000Y8561000D03*
X54578000Y10461000D03*
D14*
X63275000Y16369000D03*
X61375000Y16369000D03*
D11*
X98279700Y26700014D03*
X98279700Y27200012D03*
X98279700Y27700012D03*
X98279700Y28200010D03*
X98279700Y28700010D03*
X98279700Y29200009D03*
X98279700Y29700008D03*
X98279700Y30200006D03*
X98279700Y30700006D03*
X98279700Y31200004D03*
X98279700Y31700004D03*
X98279700Y32200003D03*
X98279700Y32700002D03*
X98279700Y33200000D03*
X98279700Y33700000D03*
X98279700Y34199998D03*
X98279700Y34699997D03*
X98279700Y35199996D03*
X98279700Y35699996D03*
X98279700Y36199994D03*
X98279700Y36699994D03*
X98279700Y37199992D03*
X98279700Y37699991D03*
X98279700Y38199990D03*
X98279700Y38699990D03*
X98279700Y39199988D03*
X98279700Y39699988D03*
X98279700Y40199986D03*
X105620300Y40199986D03*
X105620300Y39699988D03*
X105620300Y39199988D03*
X105620300Y38699990D03*
X105620300Y38199990D03*
X105620300Y37699991D03*
X105620300Y37199992D03*
X105620300Y36699994D03*
X105620300Y36199994D03*
X105620300Y35699996D03*
X105620300Y35199996D03*
X105620300Y34699997D03*
X105620300Y34199998D03*
X105620300Y33700000D03*
X105620300Y33200000D03*
X105620300Y32700002D03*
X105620300Y32200003D03*
X105620300Y31700004D03*
X105620300Y31200004D03*
X105620300Y30700006D03*
X105620300Y30200006D03*
X105620300Y29700008D03*
X105620300Y29200009D03*
X105620300Y28700010D03*
X105620300Y28200010D03*
X105620300Y27700012D03*
X105620300Y27200012D03*
X105620300Y26700014D03*
D12*
X101950000Y33450000D03*
D11*
X37620300Y23199986D03*
X37620300Y22699988D03*
X37620300Y22199988D03*
X37620300Y21699990D03*
X37620300Y21199990D03*
X37620300Y20699991D03*
X37620300Y20199992D03*
X37620300Y19699994D03*
X37620300Y19199994D03*
X37620300Y18699996D03*
X37620300Y18199996D03*
X37620300Y17699997D03*
X37620300Y17199998D03*
X37620300Y16700000D03*
X37620300Y16200000D03*
X37620300Y15700002D03*
X37620300Y15200003D03*
X37620300Y14700004D03*
X37620300Y14200004D03*
X37620300Y13700006D03*
X37620300Y13200006D03*
X37620300Y12700008D03*
X37620300Y12200009D03*
X37620300Y11700010D03*
X37620300Y11200010D03*
X37620300Y10700012D03*
X37620300Y10200012D03*
X37620300Y9700014D03*
X30279700Y9700014D03*
X30279700Y10200012D03*
X30279700Y10700012D03*
X30279700Y11200010D03*
X30279700Y11700010D03*
X30279700Y12200009D03*
X30279700Y12700008D03*
X30279700Y13200006D03*
X30279700Y13700006D03*
X30279700Y14200004D03*
X30279700Y14700004D03*
X30279700Y15200003D03*
X30279700Y15700002D03*
X30279700Y16200000D03*
X30279700Y16700000D03*
X30279700Y17199998D03*
X30279700Y17699997D03*
X30279700Y18199996D03*
X30279700Y18699996D03*
X30279700Y19199994D03*
X30279700Y19699994D03*
X30279700Y20199992D03*
X30279700Y20699991D03*
X30279700Y21199990D03*
X30279700Y21699990D03*
X30279700Y22199988D03*
X30279700Y22699988D03*
X30279700Y23199986D03*
D12*
X33950000Y16450000D03*
D15*
X57325000Y16450000D03*
D16*
X54785000Y16450000D03*
X52245000Y16450000D03*
X49705000Y16450000D03*
D17*
X68830000Y2490000D03*
X84070000Y2490000D03*
X68830000Y5030000D03*
X68830000Y7570000D03*
X68830000Y10110000D03*
X68830000Y12650000D03*
X68830000Y15190000D03*
X68830000Y17730000D03*
X68830000Y20270000D03*
X68830000Y22810000D03*
X68830000Y25350000D03*
X68830000Y27890000D03*
X68830000Y30430000D03*
X68830000Y32970000D03*
X68830000Y35510000D03*
X84070000Y5030000D03*
X84070000Y7570000D03*
X84070000Y10110000D03*
X84070000Y12650000D03*
X84070000Y15190000D03*
X84070000Y17730000D03*
X84070000Y20270000D03*
X84070000Y22810000D03*
X84070000Y25350000D03*
X84070000Y27890000D03*
X84070000Y30430000D03*
X84070000Y32970000D03*
D18*
X84070000Y35510000D03*
D19*
X101950000Y33450000D03*
X101100000Y33450000D03*
X101950000Y34300000D03*
X101100000Y34300000D03*
X101950000Y32600000D03*
X101100000Y32600000D03*
X102800000Y32600000D03*
X102800000Y33450000D03*
X102800000Y34300000D03*
X67950000Y58100000D03*
X68800000Y58100000D03*
X67100000Y58100000D03*
X67100000Y58950000D03*
X67950000Y58950000D03*
X67950000Y59800000D03*
X67100000Y59800000D03*
X68800000Y59800000D03*
X68800000Y58950000D03*
X33950000Y17300000D03*
X34800000Y17300000D03*
X33100000Y17300000D03*
X34800000Y15600000D03*
X33100000Y15600000D03*
X33950000Y16450000D03*
X33950000Y15600000D03*
X33100000Y16450000D03*
X34800000Y16450000D03*
X29127100Y26274400D03*
X65405800Y26274400D03*
X60254700Y65275700D03*
X31543000Y66419800D03*
X72581700Y26298700D03*
X107292700Y23462600D03*
X1225000Y71700000D03*
X47727600Y65716800D03*
X1225000Y63200000D03*
X60378500Y56751000D03*
X23669500Y59300400D03*
X38283200Y59300400D03*
X1225000Y54700000D03*
X1225000Y46200000D03*
X1225000Y37700000D03*
X1225000Y29200000D03*
X1225000Y20700000D03*
X1225000Y12200000D03*
X1225000Y3700000D03*
X15675000Y71700000D03*
X51225000Y66376400D03*
X15675000Y63200000D03*
X45324600Y57233400D03*
X15675000Y54700000D03*
X36861300Y50584000D03*
X15675000Y46200000D03*
X15675000Y37700000D03*
X15675000Y29200000D03*
X15675000Y20700000D03*
X15675000Y12200000D03*
X15675000Y3700000D03*
X18225000Y71700000D03*
X51196700Y67337700D03*
X18225000Y63200000D03*
X57189400Y58545100D03*
X18225000Y54700000D03*
X58591600Y52520100D03*
X18225000Y46200000D03*
X18225000Y37700000D03*
X18225000Y29200000D03*
X18225000Y20700000D03*
X18225000Y12200000D03*
X18225000Y3700000D03*
X30448000Y69328000D03*
X50518300Y68629400D03*
X30448000Y60819000D03*
X59863900Y58566100D03*
X30448000Y52310000D03*
X57065600Y51850000D03*
X30448000Y43801000D03*
X30448000Y35292000D03*
X30448000Y31736000D03*
X30550000Y24950000D03*
X28403000Y24722900D03*
X30550000Y7950000D03*
X30575000Y6082000D03*
X37560000Y69328000D03*
X37560000Y60819000D03*
X37560000Y52310000D03*
X59726700Y51646600D03*
X37560000Y43801000D03*
X37560000Y35292000D03*
X37560000Y31736000D03*
X37350000Y24950000D03*
X39577200Y24948200D03*
X37350000Y7950000D03*
X37433000Y6082000D03*
X49675000Y71700000D03*
X49675000Y63200000D03*
X49675000Y54700000D03*
X49675000Y46200000D03*
X49675000Y37700000D03*
X51030300Y36918600D03*
X49675000Y29200000D03*
X49675000Y20700000D03*
X49675000Y12200000D03*
X47466000Y6590000D03*
X52225000Y71700000D03*
X52225000Y63200000D03*
X52225000Y54700000D03*
X52225000Y46200000D03*
X52225000Y37700000D03*
X52225000Y29200000D03*
X52225000Y20700000D03*
X52225000Y12200000D03*
X51403000Y8241000D03*
X64611000Y69328000D03*
X64550000Y67450000D03*
X62466000Y65455100D03*
X64550000Y50450000D03*
X66675000Y46200000D03*
X66675000Y37700000D03*
X66675000Y29200000D03*
X66675000Y20700000D03*
X66675000Y12200000D03*
X66675000Y3700000D03*
X43829700Y9657500D03*
X71342000Y69328000D03*
X71350000Y67450000D03*
X71350000Y50450000D03*
X69225000Y46200000D03*
X69225000Y37700000D03*
X71350000Y26650000D03*
X71350000Y23250000D03*
X71350000Y14750000D03*
X71350000Y6250000D03*
X83675000Y71700000D03*
X83675000Y63200000D03*
X83675000Y54700000D03*
X83675000Y46200000D03*
X83675000Y37700000D03*
X81550000Y26650000D03*
X81550000Y23250000D03*
X81550000Y14750000D03*
X81550000Y6250000D03*
X86225000Y71700000D03*
X68735400Y69383200D03*
X86225000Y63200000D03*
X86225000Y54700000D03*
X86225000Y46200000D03*
X86225000Y37700000D03*
X86225000Y29200000D03*
X86225000Y20700000D03*
X86225000Y12200000D03*
X86225000Y3700000D03*
X98393000Y69328000D03*
X100675000Y63200000D03*
X100675000Y54700000D03*
X100675000Y46200000D03*
X98550000Y41950000D03*
X98550000Y24950000D03*
X100675000Y20700000D03*
X100675000Y12200000D03*
X100675000Y3700000D03*
X100679000Y68058000D03*
X100679000Y60565000D03*
X100679000Y57644000D03*
X100679000Y49516000D03*
X105350000Y41950000D03*
X105350000Y24950000D03*
X103225000Y20700000D03*
X102175600Y19809200D03*
X103225000Y12200000D03*
X103225000Y3700000D03*
X117675000Y71700000D03*
X117675000Y63200000D03*
X117675000Y54700000D03*
X117675000Y46200000D03*
X117697000Y37705000D03*
X117675000Y29200000D03*
X117675000Y20700000D03*
X101986100Y24087900D03*
X117675000Y12200000D03*
X111318100Y9338500D03*
X117675000Y3700000D03*
X120225000Y71700000D03*
X120225000Y63200000D03*
X120225000Y54700000D03*
X120225000Y46200000D03*
X120225000Y37700000D03*
X120237000Y29196000D03*
X120225000Y20700000D03*
X120225000Y12200000D03*
X120225000Y3700000D03*
X134675000Y71700000D03*
X134675000Y63200000D03*
X134675000Y54700000D03*
X134675000Y46200000D03*
X134675000Y37700000D03*
X134675000Y29200000D03*
X134675000Y20700000D03*
X134675000Y12200000D03*
X134675000Y3700000D03*
X87485500Y25482900D03*
X39044300Y26949700D03*
X39644000Y9653300D03*
X97820200Y26015900D03*
X90636900Y26015900D03*
X86674000Y5069800D03*
X75338100Y18664400D03*
X29920500Y25634100D03*
X106667400Y15237200D03*
X57749300Y66472700D03*
X30726100Y66636600D03*
X86658300Y24345200D03*
X67000600Y25918600D03*
X63533800Y24087300D03*
X39481900Y24087300D03*
X105910800Y16551300D03*
D20*
X52245000Y16450000D02*
X49705000Y16450000D01*
X54578000Y8561000D02*
X54578000Y8528000D01*
X54578000Y8528000D02*
X54578000Y8495000D01*
X53330800Y15364200D02*
X52245000Y16450000D01*
X53330800Y9775200D02*
X53330800Y15364200D01*
X54578000Y8528000D02*
X53330800Y9775200D01*
X101187000Y74789000D02*
X68040000Y74789000D01*
X104235000Y71741000D02*
X101187000Y74789000D01*
X104235000Y40200000D02*
X104235000Y71741000D01*
X101950000Y38468000D02*
X101950000Y33450000D01*
X35020000Y72757000D02*
X66008000Y72757000D01*
X35020000Y23989000D02*
X35020000Y72757000D01*
X33950000Y22919000D02*
X35020000Y23989000D01*
X33950000Y22900000D02*
X33950000Y22919000D01*
X68040000Y74789000D02*
X66008000Y74789000D01*
X32861000Y74789000D02*
X66008000Y74789000D01*
X32861000Y23989000D02*
X32861000Y74789000D01*
X33650000Y23200000D02*
X32861000Y23989000D01*
X59851000Y14845000D02*
X61375000Y16369000D01*
X59150000Y14845000D02*
X59851000Y14845000D01*
X59150000Y2145000D02*
X59150000Y14845000D01*
X31718000Y2145000D02*
X59150000Y2145000D01*
X31718000Y9700000D02*
X31718000Y2145000D01*
X67950000Y52855000D02*
X67950000Y58950000D01*
X67295000Y52200000D02*
X67950000Y52855000D01*
X64279700Y52200000D02*
X67295000Y52200000D01*
X69564000Y60564000D02*
X67950000Y58950000D01*
X66262000Y60638000D02*
X67950000Y58950000D01*
X67950000Y59639000D02*
X67950000Y58950000D01*
X57406000Y16369000D02*
X57325000Y16450000D01*
X56356000Y15481000D02*
X57325000Y16450000D01*
X54578000Y10461000D02*
X54578000Y10577000D01*
X54785000Y16450000D02*
X57325000Y16450000D01*
X57406000Y16369000D02*
X57325000Y16450000D01*
X58195000Y15580000D02*
X57406000Y16369000D01*
X57406000Y16369000D02*
X57325000Y16450000D01*
X53943000Y11096000D02*
X54578000Y10461000D01*
X53943000Y15353000D02*
X53943000Y11096000D01*
X55040000Y16450000D02*
X53943000Y15353000D01*
X57325000Y16450000D02*
X55040000Y16450000D01*
X67950000Y59967000D02*
X67950000Y59639000D01*
X67950000Y59639000D02*
X67950000Y58950000D01*
X67950000Y59639000D02*
X67950000Y58950000D01*
X67950000Y59967000D02*
X67950000Y59639000D01*
X33950000Y22900000D02*
X33650000Y23200000D01*
X30279700Y23200000D02*
X33650000Y23200000D01*
X33650000Y23200000D02*
X33950000Y22900000D01*
X33950000Y22900000D02*
X33950000Y16450000D01*
X33950000Y16450000D02*
X33950000Y22900000D01*
X30279700Y9700000D02*
X31718000Y9700000D01*
X36163000Y9892000D02*
X33950000Y12105000D01*
X36163000Y5193000D02*
X36163000Y9892000D01*
X56229000Y5193000D02*
X36163000Y5193000D01*
X56229000Y9765000D02*
X56229000Y5193000D01*
X55274000Y9765000D02*
X56229000Y9765000D01*
X54578000Y10461000D02*
X55274000Y9765000D01*
X33950000Y12105000D02*
X33950000Y16450000D01*
X33950000Y10724000D02*
X33950000Y12105000D01*
X32926000Y9700000D02*
X33950000Y10724000D01*
X31718000Y9700000D02*
X32926000Y9700000D01*
X33950000Y12105000D02*
X33950000Y16450000D01*
X101950000Y33450000D02*
X101886000Y33450000D01*
X61563000Y16369000D02*
X61375000Y16369000D01*
X61375000Y16369000D02*
X57406000Y16369000D01*
X68040000Y74789000D02*
X68040000Y72757000D01*
X68040000Y64174000D02*
X67950000Y64084000D01*
X68040000Y72757000D02*
X68040000Y64174000D01*
X67950000Y64084000D02*
X67950000Y59967000D01*
X64279700Y65700000D02*
X66008000Y65700000D01*
X66334000Y65700000D02*
X67950000Y64084000D01*
X66008000Y65700000D02*
X66334000Y65700000D01*
X68040000Y72757000D02*
X66008000Y72757000D01*
X66008000Y65700000D02*
X66008000Y72757000D01*
X66008000Y72757000D02*
X66008000Y74789000D01*
X101950000Y70470000D02*
X101950000Y38468000D01*
X99663000Y72757000D02*
X101950000Y70470000D01*
X68040000Y72757000D02*
X99663000Y72757000D01*
X101950000Y38468000D02*
X101950000Y33450000D01*
X103682000Y40200000D02*
X101950000Y38468000D01*
X104235000Y40200000D02*
X103682000Y40200000D01*
X101950000Y26909000D02*
X101950000Y33450000D01*
X102159000Y26700000D02*
X101950000Y26909000D01*
X105620000Y26700000D02*
X102159000Y26700000D01*
X105620000Y26700000D02*
X105620300Y26700000D01*
X105620000Y40200000D02*
X104235000Y40200000D01*
X105620000Y40200000D02*
X105620300Y40200000D01*
X63275000Y16369000D02*
X63275000Y17069300D01*
X30279700Y22200000D02*
X29116200Y22200000D01*
X28665900Y22650300D02*
X29116200Y22200000D01*
X28665900Y24074300D02*
X28665900Y22650300D01*
X29127100Y24535500D02*
X28665900Y24074300D01*
X29127100Y26274400D02*
X29127100Y24535500D01*
X60830400Y64700000D02*
X60254700Y65275700D01*
X64279700Y64700000D02*
X60830400Y64700000D01*
X65675300Y26543900D02*
X65405800Y26274400D01*
X67356400Y26543900D02*
X65675300Y26543900D01*
X67356400Y28956400D02*
X67356400Y26543900D01*
X68830000Y30430000D02*
X67356400Y28956400D01*
X106964600Y27700000D02*
X105620300Y27700000D01*
X107292700Y27371900D02*
X106964600Y27700000D01*
X107292700Y23462600D02*
X107292700Y27371900D01*
X67356400Y26543900D02*
X67625900Y26274400D01*
X63975300Y17069300D02*
X63275000Y17069300D01*
X67625900Y20719900D02*
X63975300Y17069300D01*
X67625900Y26274400D02*
X67625900Y20719900D01*
X72307600Y26024600D02*
X72581700Y26298700D01*
X70609400Y26024600D02*
X72307600Y26024600D01*
X70154100Y26479900D02*
X70609400Y26024600D01*
X67831400Y26479900D02*
X70154100Y26479900D01*
X67625900Y26274400D02*
X67831400Y26479900D01*
X31543000Y28690300D02*
X29127100Y26274400D01*
X31543000Y66419800D02*
X31543000Y28690300D01*
X51145500Y65716800D02*
X47727600Y65716800D01*
X56320000Y60542300D02*
X51145500Y65716800D01*
X60682800Y60542300D02*
X56320000Y60542300D01*
X61025100Y60200000D02*
X60682800Y60542300D01*
X64279700Y60200000D02*
X61025100Y60200000D01*
X60429500Y56700000D02*
X64279700Y56700000D01*
X60378500Y56751000D02*
X60429500Y56700000D01*
X23669500Y50484500D02*
X23669500Y59300400D01*
X21685000Y48500000D02*
X23669500Y50484500D01*
X3143000Y48500000D02*
X21685000Y48500000D01*
X1225000Y50418000D02*
X3143000Y48500000D01*
X1225000Y54700000D02*
X1225000Y50418000D01*
X38283200Y59300400D02*
X40975600Y56608000D01*
X40975600Y56608000D02*
X59637200Y56608000D01*
X59637200Y56608000D02*
X60119500Y56125700D01*
X60119500Y56125700D02*
X60637600Y56125700D01*
X60637600Y56125700D02*
X60711900Y56200000D01*
X64279700Y56200000D02*
X60711900Y56200000D01*
X27794800Y18700000D02*
X30279700Y18700000D01*
X25460600Y21034200D02*
X27794800Y18700000D01*
X25460600Y31394200D02*
X25460600Y21034200D01*
X10654800Y46200000D02*
X25460600Y31394200D01*
X1225000Y46200000D02*
X10654800Y46200000D01*
X27384100Y17200000D02*
X30279700Y17200000D01*
X24109700Y20474400D02*
X27384100Y17200000D01*
X24109700Y24202400D02*
X24109700Y20474400D01*
X10612100Y37700000D02*
X24109700Y24202400D01*
X1225000Y37700000D02*
X10612100Y37700000D01*
X26973400Y15700000D02*
X30279700Y15700000D01*
X13473400Y29200000D02*
X26973400Y15700000D01*
X1225000Y29200000D02*
X13473400Y29200000D01*
X7725000Y14200000D02*
X30279700Y14200000D01*
X1225000Y20700000D02*
X7725000Y14200000D01*
X25311800Y12700000D02*
X30279700Y12700000D01*
X23713400Y11101600D02*
X25311800Y12700000D01*
X2323400Y11101600D02*
X23713400Y11101600D01*
X1225000Y12200000D02*
X2323400Y11101600D01*
X25448700Y12200000D02*
X30279700Y12200000D01*
X23734100Y10485400D02*
X25448700Y12200000D01*
X8010400Y10485400D02*
X23734100Y10485400D01*
X1225000Y3700000D02*
X8010400Y10485400D01*
X56608800Y60992600D02*
X51225000Y66376400D01*
X60869400Y60992600D02*
X56608800Y60992600D01*
X61162000Y60700000D02*
X60869400Y60992600D01*
X64279700Y60700000D02*
X61162000Y60700000D01*
X45467500Y57376300D02*
X45324600Y57233400D01*
X60637600Y57376300D02*
X45467500Y57376300D01*
X60813900Y57200000D02*
X60637600Y57376300D01*
X64279700Y57200000D02*
X60813900Y57200000D01*
X60848800Y55700000D02*
X64279700Y55700000D01*
X60824200Y55675400D02*
X60848800Y55700000D01*
X59932900Y55675400D02*
X60824200Y55675400D01*
X59790900Y55817400D02*
X59932900Y55675400D01*
X42094700Y55817400D02*
X59790900Y55817400D01*
X36861300Y50584000D02*
X42094700Y55817400D01*
X28005100Y19200000D02*
X30279700Y19200000D01*
X25910900Y21294200D02*
X28005100Y19200000D01*
X25910900Y35964100D02*
X25910900Y21294200D01*
X15675000Y46200000D02*
X25910900Y35964100D01*
X27521000Y17700000D02*
X30279700Y17700000D01*
X24560000Y20661000D02*
X27521000Y17700000D01*
X24560000Y28815000D02*
X24560000Y20661000D01*
X15675000Y37700000D02*
X24560000Y28815000D01*
X27110300Y16200000D02*
X30279700Y16200000D01*
X15675000Y27635300D02*
X27110300Y16200000D01*
X15675000Y29200000D02*
X15675000Y27635300D01*
X21675000Y14700000D02*
X30279700Y14700000D01*
X15675000Y20700000D02*
X21675000Y14700000D01*
X24856700Y13200000D02*
X30279700Y13200000D01*
X23227900Y11571200D02*
X24856700Y13200000D01*
X16303800Y11571200D02*
X23227900Y11571200D01*
X15675000Y12200000D02*
X16303800Y11571200D01*
X25585600Y11700000D02*
X30279700Y11700000D01*
X23695800Y9810200D02*
X25585600Y11700000D01*
X21785200Y9810200D02*
X23695800Y9810200D01*
X15675000Y3700000D02*
X21785200Y9810200D01*
X57091500Y61442900D02*
X51196700Y67337700D01*
X61056000Y61442900D02*
X57091500Y61442900D01*
X61298900Y61200000D02*
X61056000Y61442900D01*
X64279700Y61200000D02*
X61298900Y61200000D01*
X57907900Y57826600D02*
X57189400Y58545100D01*
X60824200Y57826600D02*
X57907900Y57826600D01*
X60950800Y57700000D02*
X60824200Y57826600D01*
X64279700Y57700000D02*
X60950800Y57700000D01*
X61271500Y55200000D02*
X64279700Y55200000D01*
X58591600Y52520100D02*
X61271500Y55200000D01*
X28206800Y19700000D02*
X30279700Y19700000D01*
X26361200Y21545600D02*
X28206800Y19700000D01*
X26361200Y38063800D02*
X26361200Y21545600D01*
X18225000Y46200000D02*
X26361200Y38063800D01*
X30279700Y18200000D02*
X29116200Y18200000D01*
X27657900Y18200000D02*
X29116200Y18200000D01*
X25010300Y20847600D02*
X27657900Y18200000D01*
X25010300Y30914700D02*
X25010300Y20847600D01*
X18225000Y37700000D02*
X25010300Y30914700D01*
X30279700Y16700000D02*
X29116200Y16700000D01*
X27247200Y16700000D02*
X29116200Y16700000D01*
X18225000Y25722200D02*
X27247200Y16700000D01*
X18225000Y29200000D02*
X18225000Y25722200D01*
X23725000Y15200000D02*
X30279700Y15200000D01*
X18225000Y20700000D02*
X23725000Y15200000D01*
X19725000Y13700000D02*
X30279700Y13700000D01*
X18225000Y12200000D02*
X19725000Y13700000D01*
X25725000Y11200000D02*
X30279700Y11200000D01*
X18225000Y3700000D02*
X25725000Y11200000D01*
X50789400Y68629400D02*
X50518300Y68629400D01*
X57525600Y61893200D02*
X50789400Y68629400D01*
X61242600Y61893200D02*
X57525600Y61893200D01*
X61435800Y61700000D02*
X61242600Y61893200D01*
X64279700Y61700000D02*
X61435800Y61700000D01*
X60153100Y58276900D02*
X59863900Y58566100D01*
X61010800Y58276900D02*
X60153100Y58276900D01*
X61087700Y58200000D02*
X61010800Y58276900D01*
X64279700Y58200000D02*
X61087700Y58200000D01*
X64279700Y54700000D02*
X63116200Y54700000D01*
X58967800Y51850000D02*
X57065600Y51850000D01*
X61817800Y54700000D02*
X58967800Y51850000D01*
X63116200Y54700000D02*
X61817800Y54700000D01*
X28404200Y20200000D02*
X30279700Y20200000D01*
X26811500Y21792700D02*
X28404200Y20200000D01*
X26811500Y40164500D02*
X26811500Y21792700D01*
X30448000Y43801000D02*
X26811500Y40164500D01*
X30279700Y20700000D02*
X29116200Y20700000D01*
X28593500Y20700000D02*
X29116200Y20700000D01*
X27261800Y22031700D02*
X28593500Y20700000D01*
X27261800Y32105800D02*
X27261800Y22031700D01*
X30448000Y35292000D02*
X27261800Y32105800D01*
X30279700Y21200000D02*
X29116200Y21200000D01*
X28802700Y21200000D02*
X29116200Y21200000D01*
X27765000Y22237700D02*
X28802700Y21200000D01*
X27765000Y29053000D02*
X27765000Y22237700D01*
X30448000Y31736000D02*
X27765000Y29053000D01*
X28963400Y21700000D02*
X30279700Y21700000D01*
X28215600Y22447800D02*
X28963400Y21700000D01*
X28215600Y24535500D02*
X28215600Y22447800D01*
X28403000Y24722900D02*
X28215600Y24535500D01*
X29329000Y10200000D02*
X30279700Y10200000D01*
X29116200Y9987200D02*
X29329000Y10200000D01*
X29116200Y9383800D02*
X29116200Y9987200D01*
X30550000Y7950000D02*
X29116200Y9383800D01*
X30279700Y10700000D02*
X29116200Y10700000D01*
X28665900Y7991100D02*
X30575000Y6082000D01*
X28665900Y10249700D02*
X28665900Y7991100D01*
X29116200Y10700000D02*
X28665900Y10249700D01*
X50750100Y69328000D02*
X37560000Y69328000D01*
X57734600Y62343500D02*
X50750100Y69328000D01*
X61429200Y62343500D02*
X57734600Y62343500D01*
X61572700Y62200000D02*
X61429200Y62343500D01*
X64279700Y62200000D02*
X61572700Y62200000D01*
X40122400Y60819000D02*
X37560000Y60819000D01*
X41750000Y59191400D02*
X40122400Y60819000D01*
X60123000Y59191400D02*
X41750000Y59191400D01*
X60587200Y58727200D02*
X60123000Y59191400D01*
X61197400Y58727200D02*
X60587200Y58727200D01*
X61224600Y58700000D02*
X61197400Y58727200D01*
X64279700Y58700000D02*
X61224600Y58700000D01*
X62280100Y54200000D02*
X64279700Y54200000D01*
X59726700Y51646600D02*
X62280100Y54200000D01*
X41459200Y39901800D02*
X37560000Y43801000D01*
X41459200Y22122200D02*
X41459200Y39901800D01*
X39537000Y20200000D02*
X41459200Y22122200D01*
X37620300Y20200000D02*
X39537000Y20200000D01*
X41008900Y31843100D02*
X37560000Y35292000D01*
X41008900Y22308800D02*
X41008900Y31843100D01*
X39400100Y20700000D02*
X41008900Y22308800D01*
X37620300Y20700000D02*
X39400100Y20700000D01*
X40558600Y28737400D02*
X37560000Y31736000D01*
X40558600Y22495400D02*
X40558600Y28737400D01*
X39263200Y21200000D02*
X40558600Y22495400D01*
X38783800Y21200000D02*
X39263200Y21200000D01*
X37620300Y21200000D02*
X38783800Y21200000D01*
X39126300Y21700000D02*
X37620300Y21700000D01*
X40108300Y22682000D02*
X39126300Y21700000D01*
X40108300Y24417100D02*
X40108300Y22682000D01*
X39577200Y24948200D02*
X40108300Y24417100D01*
X38842600Y7950000D02*
X37350000Y7950000D01*
X40311300Y9418700D02*
X38842600Y7950000D01*
X40311300Y9928800D02*
X40311300Y9418700D01*
X39961400Y10278700D02*
X40311300Y9928800D01*
X39381400Y10278700D02*
X39961400Y10278700D01*
X39302700Y10200000D02*
X39381400Y10278700D01*
X37620300Y10200000D02*
X39302700Y10200000D01*
X39107600Y10700000D02*
X37620300Y10700000D01*
X39136600Y10729000D02*
X39107600Y10700000D01*
X40148600Y10729000D02*
X39136600Y10729000D01*
X40787000Y10090600D02*
X40148600Y10729000D01*
X40787000Y9242500D02*
X40787000Y10090600D01*
X37626500Y6082000D02*
X40787000Y9242500D01*
X37433000Y6082000D02*
X37626500Y6082000D01*
X58581200Y62793800D02*
X49675000Y71700000D01*
X61615800Y62793800D02*
X58581200Y62793800D01*
X61709600Y62700000D02*
X61615800Y62793800D01*
X64279700Y62700000D02*
X61709600Y62700000D01*
X64279700Y59200000D02*
X63116200Y59200000D01*
X53233300Y59641700D02*
X49675000Y63200000D01*
X60309600Y59641700D02*
X53233300Y59641700D01*
X60751300Y59200000D02*
X60309600Y59641700D01*
X63116200Y59200000D02*
X60751300Y59200000D01*
X62753100Y53700000D02*
X64279700Y53700000D01*
X60039800Y50986700D02*
X62753100Y53700000D01*
X56855500Y50986700D02*
X60039800Y50986700D01*
X52479900Y55362300D02*
X56855500Y50986700D01*
X50337300Y55362300D02*
X52479900Y55362300D01*
X49675000Y54700000D02*
X50337300Y55362300D01*
X41909500Y38434500D02*
X49675000Y46200000D01*
X41909500Y21935600D02*
X41909500Y38434500D01*
X39673900Y19700000D02*
X41909500Y21935600D01*
X37620300Y19700000D02*
X39673900Y19700000D01*
X43260400Y29148700D02*
X51030300Y36918600D01*
X43260400Y21375800D02*
X43260400Y29148700D01*
X40084600Y18200000D02*
X43260400Y21375800D01*
X37620300Y18200000D02*
X40084600Y18200000D01*
X37620300Y16700000D02*
X38783800Y16700000D01*
X49675000Y25879700D02*
X49675000Y29200000D01*
X40495300Y16700000D02*
X49675000Y25879700D01*
X38783800Y16700000D02*
X40495300Y16700000D01*
X41107400Y15200000D02*
X37620300Y15200000D01*
X46607400Y20700000D02*
X41107400Y15200000D01*
X49675000Y20700000D02*
X46607400Y20700000D01*
X48175000Y13700000D02*
X37620300Y13700000D01*
X49675000Y12200000D02*
X48175000Y13700000D01*
X40606700Y11200000D02*
X37620300Y11200000D01*
X45216700Y6590000D02*
X40606700Y11200000D01*
X47466000Y6590000D02*
X45216700Y6590000D01*
X61846500Y63200000D02*
X64279700Y63200000D01*
X61802400Y63244100D02*
X61846500Y63200000D01*
X60044000Y63244100D02*
X61802400Y63244100D01*
X52225000Y71063100D02*
X60044000Y63244100D01*
X52225000Y71700000D02*
X52225000Y71063100D01*
X55333000Y60092000D02*
X52225000Y63200000D01*
X60496200Y60092000D02*
X55333000Y60092000D01*
X60888200Y59700000D02*
X60496200Y60092000D01*
X64279700Y59700000D02*
X60888200Y59700000D01*
X62934400Y53200000D02*
X64279700Y53200000D01*
X60269300Y50534900D02*
X62934400Y53200000D01*
X56390100Y50534900D02*
X60269300Y50534900D01*
X52225000Y54700000D02*
X56390100Y50534900D01*
X37620300Y19200000D02*
X38783800Y19200000D01*
X42359800Y36334800D02*
X52225000Y46200000D01*
X42359800Y21749000D02*
X42359800Y36334800D01*
X39810800Y19200000D02*
X42359800Y21749000D01*
X38783800Y19200000D02*
X39810800Y19200000D01*
X37620300Y17700000D02*
X38783800Y17700000D01*
X52225000Y37063100D02*
X52225000Y37700000D01*
X43710700Y28548800D02*
X52225000Y37063100D01*
X43710700Y21189200D02*
X43710700Y28548800D01*
X40221500Y17700000D02*
X43710700Y21189200D01*
X38783800Y17700000D02*
X40221500Y17700000D01*
X52225000Y27792800D02*
X52225000Y29200000D01*
X40632200Y16200000D02*
X52225000Y27792800D01*
X37620300Y16200000D02*
X40632200Y16200000D01*
X51599600Y20074600D02*
X52225000Y20700000D01*
X46699700Y20074600D02*
X51599600Y20074600D01*
X41325100Y14700000D02*
X46699700Y20074600D01*
X37620300Y14700000D02*
X41325100Y14700000D01*
X47323500Y13200000D02*
X37620300Y13200000D01*
X48965700Y11557800D02*
X47323500Y13200000D01*
X51582800Y11557800D02*
X48965700Y11557800D01*
X52225000Y12200000D02*
X51582800Y11557800D01*
X40743600Y11700000D02*
X37620300Y11700000D01*
X44202600Y8241000D02*
X40743600Y11700000D01*
X51403000Y8241000D02*
X44202600Y8241000D01*
X60304800Y63700000D02*
X64279700Y63700000D01*
X59133200Y64871600D02*
X60304800Y63700000D01*
X59133200Y65745400D02*
X59133200Y64871600D01*
X62715700Y69327900D02*
X59133200Y65745400D01*
X64611000Y69327900D02*
X62715700Y69327900D01*
X64611000Y69328000D02*
X64611000Y69327900D01*
X61981500Y65939600D02*
X62466000Y65455100D01*
X59964300Y65939600D02*
X61981500Y65939600D01*
X59583500Y65558800D02*
X59964300Y65939600D01*
X59583500Y65058200D02*
X59583500Y65558800D01*
X60441700Y64200000D02*
X59583500Y65058200D01*
X64279700Y64200000D02*
X60441700Y64200000D01*
X63116200Y51883800D02*
X63116200Y52700000D01*
X64550000Y50450000D02*
X63116200Y51883800D01*
X64279700Y52700000D02*
X63116200Y52700000D01*
X59427400Y46200000D02*
X66675000Y46200000D01*
X42810100Y29582700D02*
X59427400Y46200000D01*
X42810100Y21562400D02*
X42810100Y29582700D01*
X39947700Y18700000D02*
X42810100Y21562400D01*
X37620300Y18700000D02*
X39947700Y18700000D01*
X57246300Y37700000D02*
X66675000Y37700000D01*
X44161000Y24614700D02*
X57246300Y37700000D01*
X44161000Y21002600D02*
X44161000Y24614700D01*
X40358400Y17200000D02*
X44161000Y21002600D01*
X37620300Y17200000D02*
X40358400Y17200000D01*
X54287900Y29200000D02*
X66675000Y29200000D01*
X40787900Y15700000D02*
X54287900Y29200000D01*
X37620300Y15700000D02*
X40787900Y15700000D01*
X65419000Y19444000D02*
X66675000Y20700000D01*
X48875600Y19444000D02*
X65419000Y19444000D01*
X43631600Y14200000D02*
X48875600Y19444000D01*
X37620300Y14200000D02*
X43631600Y14200000D01*
X41971300Y12700000D02*
X37620300Y12700000D01*
X43578000Y11093300D02*
X41971300Y12700000D01*
X52055100Y11093300D02*
X43578000Y11093300D01*
X52865400Y11903600D02*
X52055100Y11093300D01*
X52865400Y12451900D02*
X52865400Y11903600D01*
X51609400Y13707900D02*
X52865400Y12451900D01*
X50225700Y13707900D02*
X51609400Y13707900D01*
X48375200Y15558400D02*
X50225700Y13707900D01*
X48375200Y17352300D02*
X48375200Y15558400D01*
X49113500Y18090600D02*
X48375200Y17352300D01*
X61137800Y18090600D02*
X49113500Y18090600D01*
X62349600Y16878800D02*
X61137800Y18090600D01*
X62349600Y15830500D02*
X62349600Y16878800D01*
X65980100Y12200000D02*
X62349600Y15830500D01*
X66675000Y12200000D02*
X65980100Y12200000D01*
X41287200Y12200000D02*
X37620300Y12200000D01*
X43829700Y9657500D02*
X41287200Y12200000D01*
X70275100Y63700000D02*
X71620300Y63700000D01*
X69970900Y64004200D02*
X70275100Y63700000D01*
X69970900Y67956900D02*
X69970900Y64004200D01*
X71342000Y69328000D02*
X69970900Y67956900D01*
X70456800Y66556800D02*
X70456800Y64200000D01*
X71350000Y67450000D02*
X70456800Y66556800D01*
X71620300Y64200000D02*
X70456800Y64200000D01*
X70456800Y51343200D02*
X70456800Y52700000D01*
X71350000Y50450000D02*
X70456800Y51343200D01*
X71620300Y52700000D02*
X70456800Y52700000D01*
X72571000Y53200000D02*
X71620300Y53200000D01*
X72783800Y52987200D02*
X72571000Y53200000D01*
X72783800Y49758800D02*
X72783800Y52987200D01*
X69225000Y46200000D02*
X72783800Y49758800D01*
X71620300Y53700000D02*
X72783800Y53700000D01*
X73234100Y53249700D02*
X72783800Y53700000D01*
X73234100Y48907500D02*
X73234100Y53249700D01*
X69225000Y44898400D02*
X73234100Y48907500D01*
X69225000Y37700000D02*
X69225000Y44898400D01*
X72991400Y54200000D02*
X71620300Y54200000D01*
X73684400Y53507000D02*
X72991400Y54200000D01*
X73684400Y48720900D02*
X73684400Y53507000D01*
X71350000Y46386500D02*
X73684400Y48720900D01*
X71350000Y26650000D02*
X71350000Y46386500D01*
X73128300Y54700000D02*
X71620300Y54700000D01*
X74134700Y53693600D02*
X73128300Y54700000D01*
X74134700Y48534300D02*
X74134700Y53693600D01*
X73234100Y47633700D02*
X74134700Y48534300D01*
X73234100Y25134100D02*
X73234100Y47633700D01*
X71350000Y23250000D02*
X73234100Y25134100D01*
X71620300Y55200000D02*
X72783800Y55200000D01*
X73344800Y55200000D02*
X72783800Y55200000D01*
X74585000Y53959800D02*
X73344800Y55200000D01*
X74585000Y48347700D02*
X74585000Y53959800D01*
X73684400Y47447100D02*
X74585000Y48347700D01*
X73684400Y17084400D02*
X73684400Y47447100D01*
X71350000Y14750000D02*
X73684400Y17084400D01*
X73481700Y55700000D02*
X71620300Y55700000D01*
X75035300Y54146400D02*
X73481700Y55700000D01*
X75035300Y48161100D02*
X75035300Y54146400D01*
X74134700Y47260500D02*
X75035300Y48161100D01*
X74134700Y9034700D02*
X74134700Y47260500D01*
X71350000Y6250000D02*
X74134700Y9034700D01*
X72803900Y71700000D02*
X83675000Y71700000D01*
X69503500Y68399600D02*
X72803900Y71700000D01*
X69503500Y63757300D02*
X69503500Y68399600D01*
X70060800Y63200000D02*
X69503500Y63757300D01*
X71620300Y63200000D02*
X70060800Y63200000D01*
X82175000Y61700000D02*
X71620300Y61700000D01*
X83675000Y63200000D02*
X82175000Y61700000D01*
X78175000Y60200000D02*
X71620300Y60200000D01*
X83675000Y54700000D02*
X78175000Y60200000D01*
X74576900Y59700000D02*
X71620300Y59700000D01*
X83675000Y50601900D02*
X74576900Y59700000D01*
X83675000Y46200000D02*
X83675000Y50601900D01*
X74166200Y58200000D02*
X71620300Y58200000D01*
X77286800Y55079400D02*
X74166200Y58200000D01*
X77286800Y44088200D02*
X77286800Y55079400D01*
X83675000Y37700000D02*
X77286800Y44088200D01*
X74029300Y57700000D02*
X71620300Y57700000D01*
X76836500Y54892800D02*
X74029300Y57700000D01*
X76836500Y31363500D02*
X76836500Y54892800D01*
X81550000Y26650000D02*
X76836500Y31363500D01*
X73892400Y57200000D02*
X71620300Y57200000D01*
X76386200Y54706200D02*
X73892400Y57200000D01*
X76386200Y28413800D02*
X76386200Y54706200D01*
X81550000Y23250000D02*
X76386200Y28413800D01*
X73755500Y56700000D02*
X71620300Y56700000D01*
X75935900Y54519600D02*
X73755500Y56700000D01*
X75935900Y20364100D02*
X75935900Y54519600D01*
X81550000Y14750000D02*
X75935900Y20364100D01*
X71620300Y56200000D02*
X72783800Y56200000D01*
X73618600Y56200000D02*
X72783800Y56200000D01*
X75485600Y54333000D02*
X73618600Y56200000D01*
X75485600Y47974500D02*
X75485600Y54333000D01*
X74697600Y47186500D02*
X75485600Y47974500D01*
X74697600Y13102400D02*
X74697600Y47186500D01*
X81550000Y6250000D02*
X74697600Y13102400D01*
X68735400Y63822200D02*
X68735400Y69383200D01*
X69857600Y62700000D02*
X68735400Y63822200D01*
X71620300Y62700000D02*
X69857600Y62700000D01*
X85568400Y63856600D02*
X86225000Y63200000D01*
X83306100Y63856600D02*
X85568400Y63856600D01*
X81649500Y62200000D02*
X83306100Y63856600D01*
X71620300Y62200000D02*
X81649500Y62200000D01*
X79725000Y61200000D02*
X71620300Y61200000D01*
X86225000Y54700000D02*
X79725000Y61200000D01*
X86225000Y53053600D02*
X86225000Y46200000D01*
X78578600Y60700000D02*
X86225000Y53053600D01*
X71620300Y60700000D02*
X78578600Y60700000D01*
X71620300Y59200000D02*
X72783800Y59200000D01*
X74440000Y59200000D02*
X72783800Y59200000D01*
X78187400Y55452600D02*
X74440000Y59200000D01*
X78187400Y45737600D02*
X78187400Y55452600D01*
X86225000Y37700000D02*
X78187400Y45737600D01*
X74303100Y58700000D02*
X71620300Y58700000D01*
X77737100Y55266000D02*
X74303100Y58700000D01*
X77737100Y44532900D02*
X77737100Y55266000D01*
X86225000Y36045000D02*
X77737100Y44532900D01*
X86225000Y29200000D02*
X86225000Y36045000D01*
X89561300Y24036300D02*
X86225000Y20700000D01*
X89561300Y29431300D02*
X89561300Y24036300D01*
X94830000Y34700000D02*
X89561300Y29431300D01*
X98279700Y34700000D02*
X94830000Y34700000D01*
X90011600Y15986600D02*
X86225000Y12200000D01*
X90011600Y29199100D02*
X90011600Y15986600D01*
X95012500Y34200000D02*
X90011600Y29199100D01*
X98279700Y34200000D02*
X95012500Y34200000D01*
X91262300Y8737300D02*
X86225000Y3700000D01*
X91262300Y29804800D02*
X91262300Y8737300D01*
X95157500Y33700000D02*
X91262300Y29804800D01*
X98279700Y33700000D02*
X95157500Y33700000D01*
X96027800Y35200000D02*
X98279700Y35200000D01*
X93508200Y37719600D02*
X96027800Y35200000D01*
X93508200Y64443200D02*
X93508200Y37719600D01*
X98393000Y69328000D02*
X93508200Y64443200D01*
X96342400Y36200000D02*
X98279700Y36200000D01*
X94408800Y38133600D02*
X96342400Y36200000D01*
X94408800Y56933800D02*
X94408800Y38133600D01*
X100675000Y63200000D02*
X94408800Y56933800D01*
X98279700Y37700000D02*
X97116200Y37700000D01*
X96797800Y37700000D02*
X97116200Y37700000D01*
X95759700Y38738100D02*
X96797800Y37700000D01*
X95759700Y49784700D02*
X95759700Y38738100D01*
X100675000Y54700000D02*
X95759700Y49784700D01*
X96664700Y39151500D02*
X97116200Y38700000D01*
X96664700Y42189700D02*
X96664700Y39151500D01*
X100675000Y46200000D02*
X96664700Y42189700D01*
X98279700Y38700000D02*
X97116200Y38700000D01*
X97116200Y40516200D02*
X97116200Y39700000D01*
X98550000Y41950000D02*
X97116200Y40516200D01*
X98279700Y39700000D02*
X97116200Y39700000D01*
X98540300Y24940300D02*
X98550000Y24950000D01*
X97374600Y24940300D02*
X98540300Y24940300D01*
X96665900Y25649000D02*
X97374600Y24940300D01*
X96665900Y27963700D02*
X96665900Y25649000D01*
X96902200Y28200000D02*
X96665900Y27963700D01*
X98279700Y28200000D02*
X96902200Y28200000D01*
X97793500Y20700000D02*
X100675000Y20700000D01*
X93877600Y24615900D02*
X97793500Y20700000D01*
X93877600Y29235600D02*
X93877600Y24615900D01*
X95842000Y31200000D02*
X93877600Y29235600D01*
X98279700Y31200000D02*
X95842000Y31200000D01*
X92890200Y19984800D02*
X100675000Y12200000D01*
X92890200Y29522000D02*
X92890200Y19984800D01*
X95568200Y32200000D02*
X92890200Y29522000D01*
X98279700Y32200000D02*
X95568200Y32200000D01*
X91936500Y12438500D02*
X100675000Y3700000D01*
X91936500Y29842100D02*
X91936500Y12438500D01*
X95294400Y33200000D02*
X91936500Y29842100D01*
X98279700Y33200000D02*
X95294400Y33200000D01*
X98279700Y35700000D02*
X97116200Y35700000D01*
X96205500Y35700000D02*
X97116200Y35700000D01*
X93958500Y37947000D02*
X96205500Y35700000D01*
X93958500Y61337500D02*
X93958500Y37947000D01*
X100679000Y68058000D02*
X93958500Y61337500D01*
X96491400Y36700000D02*
X98279700Y36700000D01*
X94859100Y38332300D02*
X96491400Y36700000D01*
X94859100Y54745100D02*
X94859100Y38332300D01*
X100679000Y60565000D02*
X94859100Y54745100D01*
X98279700Y37200000D02*
X97116200Y37200000D01*
X96649700Y37200000D02*
X97116200Y37200000D01*
X95309400Y38540300D02*
X96649700Y37200000D01*
X95309400Y52274400D02*
X95309400Y38540300D01*
X100679000Y57644000D02*
X95309400Y52274400D01*
X96978900Y38200000D02*
X98279700Y38200000D01*
X96210000Y38968900D02*
X96978900Y38200000D01*
X96210000Y45047000D02*
X96210000Y38968900D01*
X100679000Y49516000D02*
X96210000Y45047000D01*
X98279700Y28700000D02*
X97116200Y28700000D01*
X101931300Y24950000D02*
X105350000Y24950000D01*
X101263600Y24282300D02*
X101931300Y24950000D01*
X97395700Y24282300D02*
X101263600Y24282300D01*
X96195100Y25482900D02*
X97395700Y24282300D01*
X96195100Y28147500D02*
X96195100Y25482900D01*
X96747600Y28700000D02*
X96195100Y28147500D01*
X97116200Y28700000D02*
X96747600Y28700000D01*
X102175600Y20085700D02*
X102175600Y19809200D01*
X100169400Y22091900D02*
X102175600Y20085700D01*
X97038500Y22091900D02*
X100169400Y22091900D01*
X94332000Y24798400D02*
X97038500Y22091900D01*
X94332000Y29053100D02*
X94332000Y24798400D01*
X95978900Y30700000D02*
X94332000Y29053100D01*
X98279700Y30700000D02*
X95978900Y30700000D01*
X98279700Y31700000D02*
X97116200Y31700000D01*
X93393700Y22031300D02*
X103225000Y12200000D01*
X93393700Y29388600D02*
X93393700Y22031300D01*
X95705100Y31700000D02*
X93393700Y29388600D01*
X97116200Y31700000D02*
X95705100Y31700000D01*
X98279700Y32700000D02*
X97116200Y32700000D01*
X92418200Y14506800D02*
X103225000Y3700000D01*
X92418200Y29686900D02*
X92418200Y14506800D01*
X95431300Y32700000D02*
X92418200Y29686900D01*
X97116200Y32700000D02*
X95431300Y32700000D01*
X106571000Y39700000D02*
X105620300Y39700000D01*
X106783800Y39912800D02*
X106571000Y39700000D01*
X106783800Y60808800D02*
X106783800Y39912800D01*
X117675000Y71700000D02*
X106783800Y60808800D01*
X108134700Y53659700D02*
X117675000Y63200000D01*
X108134700Y39210100D02*
X108134700Y53659700D01*
X107124600Y38200000D02*
X108134700Y39210100D01*
X105620300Y38200000D02*
X107124600Y38200000D01*
X109485600Y46510600D02*
X117675000Y54700000D01*
X109485600Y38640500D02*
X109485600Y46510600D01*
X107545100Y36700000D02*
X109485600Y38640500D01*
X105620300Y36700000D02*
X107545100Y36700000D01*
X105620300Y35200000D02*
X106783800Y35200000D01*
X117675000Y44919200D02*
X117675000Y46200000D01*
X107955800Y35200000D02*
X117675000Y44919200D01*
X106783800Y35200000D02*
X107955800Y35200000D01*
X113692000Y33700000D02*
X105620300Y33700000D01*
X117697000Y37705000D02*
X113692000Y33700000D01*
X114675000Y32200000D02*
X105620300Y32200000D01*
X117675000Y29200000D02*
X114675000Y32200000D01*
X101663600Y23765400D02*
X101986100Y24087900D01*
X97275700Y23765400D02*
X101663600Y23765400D01*
X95738900Y25302200D02*
X97275700Y23765400D01*
X95738900Y28431200D02*
X95738900Y25302200D01*
X96507700Y29200000D02*
X95738900Y28431200D01*
X98279700Y29200000D02*
X96507700Y29200000D01*
X98279700Y29700000D02*
X97116200Y29700000D01*
X105254200Y15402400D02*
X111318100Y9338500D01*
X105254200Y19569400D02*
X105254200Y15402400D01*
X101831100Y22992500D02*
X105254200Y19569400D01*
X97411700Y22992500D02*
X101831100Y22992500D01*
X95238700Y25165500D02*
X97411700Y22992500D01*
X95238700Y28578100D02*
X95238700Y25165500D01*
X96360600Y29700000D02*
X95238700Y28578100D01*
X97116200Y29700000D02*
X96360600Y29700000D01*
X98279700Y30200000D02*
X97116200Y30200000D01*
X116004700Y3700000D02*
X117675000Y3700000D01*
X104803900Y14900800D02*
X116004700Y3700000D01*
X104803900Y18094300D02*
X104803900Y14900800D01*
X100356000Y22542200D02*
X104803900Y18094300D01*
X97225100Y22542200D02*
X100356000Y22542200D01*
X94786600Y24980700D02*
X97225100Y22542200D01*
X94786600Y28870800D02*
X94786600Y24980700D01*
X96115800Y30200000D02*
X94786600Y28870800D01*
X97116200Y30200000D02*
X96115800Y30200000D01*
X105620300Y39200000D02*
X106783800Y39200000D01*
X107234100Y58709100D02*
X120225000Y71700000D01*
X107234100Y39650300D02*
X107234100Y58709100D01*
X106783800Y39200000D02*
X107234100Y39650300D01*
X105620300Y37700000D02*
X106783800Y37700000D01*
X108585000Y51560000D02*
X120225000Y63200000D01*
X108585000Y39023500D02*
X108585000Y51560000D01*
X107261500Y37700000D02*
X108585000Y39023500D01*
X106783800Y37700000D02*
X107261500Y37700000D01*
X109935900Y44410900D02*
X120225000Y54700000D01*
X109935900Y38453900D02*
X109935900Y44410900D01*
X107682000Y36200000D02*
X109935900Y38453900D01*
X105620300Y36200000D02*
X107682000Y36200000D01*
X108725000Y34700000D02*
X105620300Y34700000D01*
X120225000Y46200000D02*
X108725000Y34700000D01*
X115725000Y33200000D02*
X105620300Y33200000D01*
X120225000Y37700000D02*
X115725000Y33200000D01*
X119593800Y28552800D02*
X120237000Y29196000D01*
X116245300Y28552800D02*
X119593800Y28552800D01*
X113098100Y31700000D02*
X116245300Y28552800D01*
X105620300Y31700000D02*
X113098100Y31700000D01*
X110225000Y30700000D02*
X105620300Y30700000D01*
X120225000Y20700000D02*
X110225000Y30700000D01*
X105620300Y29700000D02*
X106783800Y29700000D01*
X107560400Y29700000D02*
X106783800Y29700000D01*
X120225000Y17035400D02*
X107560400Y29700000D01*
X120225000Y12200000D02*
X120225000Y17035400D01*
X105620300Y28700000D02*
X106783800Y28700000D01*
X107244100Y28700000D02*
X106783800Y28700000D01*
X108368300Y27575800D02*
X107244100Y28700000D01*
X108368300Y15556700D02*
X108368300Y27575800D01*
X120225000Y3700000D02*
X108368300Y15556700D01*
X106987700Y38700000D02*
X105620300Y38700000D01*
X107684400Y39396700D02*
X106987700Y38700000D01*
X107684400Y54139200D02*
X107684400Y39396700D01*
X125245200Y71700000D02*
X107684400Y54139200D01*
X134675000Y71700000D02*
X125245200Y71700000D01*
X107408200Y37200000D02*
X105620300Y37200000D01*
X109035300Y38827100D02*
X107408200Y37200000D01*
X109035300Y46990100D02*
X109035300Y38827100D01*
X125245200Y63200000D02*
X109035300Y46990100D01*
X134675000Y63200000D02*
X125245200Y63200000D01*
X105620300Y35700000D02*
X106783800Y35700000D01*
X125283800Y54700000D02*
X134675000Y54700000D01*
X110386200Y39802400D02*
X125283800Y54700000D01*
X110386200Y38267300D02*
X110386200Y39802400D01*
X107818900Y35700000D02*
X110386200Y38267300D01*
X106783800Y35700000D02*
X107818900Y35700000D01*
X123250500Y46200000D02*
X134675000Y46200000D01*
X111250500Y34200000D02*
X123250500Y46200000D01*
X105620300Y34200000D02*
X111250500Y34200000D01*
X129675000Y32700000D02*
X105620300Y32700000D01*
X134675000Y37700000D02*
X129675000Y32700000D01*
X133521200Y28046200D02*
X134675000Y29200000D01*
X116114900Y28046200D02*
X133521200Y28046200D01*
X112961100Y31200000D02*
X116114900Y28046200D01*
X105620300Y31200000D02*
X112961100Y31200000D01*
X134018400Y20043400D02*
X134675000Y20700000D01*
X119856100Y20043400D02*
X134018400Y20043400D01*
X109699500Y30200000D02*
X119856100Y20043400D01*
X105620300Y30200000D02*
X109699500Y30200000D01*
X107395500Y29200000D02*
X105620300Y29200000D01*
X108818700Y27776800D02*
X107395500Y29200000D01*
X108818700Y22673500D02*
X108818700Y27776800D01*
X119960000Y11532200D02*
X108818700Y22673500D01*
X134007200Y11532200D02*
X119960000Y11532200D01*
X134675000Y12200000D02*
X134007200Y11532200D01*
X107101500Y28200000D02*
X105620300Y28200000D01*
X107918000Y27383500D02*
X107101500Y28200000D01*
X107918000Y15121700D02*
X107918000Y27383500D01*
X119972600Y3067100D02*
X107918000Y15121700D01*
X134042100Y3067100D02*
X119972600Y3067100D01*
X134675000Y3700000D02*
X134042100Y3067100D01*
X38783800Y26689200D02*
X38783800Y22700000D01*
X39044300Y26949700D02*
X38783800Y26689200D01*
X37620300Y22700000D02*
X38783800Y22700000D01*
X87328400Y25482900D02*
X87485500Y25482900D01*
X85897100Y65200000D02*
X71620300Y65200000D01*
X87328400Y63768700D02*
X85897100Y65200000D01*
X87328400Y25482900D02*
X87328400Y63768700D01*
X87328400Y22879700D02*
X87328400Y25482900D01*
X85577000Y21128300D02*
X87328400Y22879700D01*
X85577000Y2389700D02*
X85577000Y21128300D01*
X84524900Y1337600D02*
X85577000Y2389700D01*
X69982400Y1337600D02*
X84524900Y1337600D01*
X68830000Y2490000D02*
X69982400Y1337600D01*
X39597300Y9700000D02*
X39644000Y9653300D01*
X37620300Y9700000D02*
X39597300Y9700000D01*
X98279700Y26475400D02*
X97820200Y26015900D01*
X98279700Y26700000D02*
X98279700Y26475400D01*
X90636900Y9032700D02*
X86674000Y5069800D01*
X90636900Y26015900D02*
X90636900Y9032700D01*
X29329000Y22700000D02*
X30279700Y22700000D01*
X29116200Y22912800D02*
X29329000Y22700000D01*
X29116200Y23662700D02*
X29116200Y22912800D01*
X29920500Y24467000D02*
X29116200Y23662700D01*
X29920500Y25634100D02*
X29920500Y24467000D01*
X105620300Y27200000D02*
X106783800Y27200000D01*
X75338100Y16201200D02*
X75338100Y18664400D01*
X83969300Y7570000D02*
X75338100Y16201200D01*
X84070000Y7570000D02*
X83969300Y7570000D01*
X31155100Y67065600D02*
X30726100Y66636600D01*
X31824300Y67065600D02*
X31155100Y67065600D01*
X32190700Y66699200D02*
X31824300Y67065600D01*
X32190700Y27904300D02*
X32190700Y66699200D01*
X29920500Y25634100D02*
X32190700Y27904300D01*
X61234100Y69957500D02*
X57749300Y66472700D01*
X64901900Y69957500D02*
X61234100Y69957500D01*
X65279400Y69580000D02*
X64901900Y69957500D01*
X65279400Y69073200D02*
X65279400Y69580000D01*
X63116200Y66910000D02*
X65279400Y69073200D01*
X63116200Y65200000D02*
X63116200Y66910000D01*
X64279700Y65200000D02*
X63116200Y65200000D01*
X106667400Y23721600D02*
X106667400Y15237200D01*
X106783800Y23838000D02*
X106667400Y23721600D01*
X106783800Y27200000D02*
X106783800Y23838000D01*
X65169300Y24087300D02*
X63533800Y24087300D01*
X67000600Y25918600D02*
X65169300Y24087300D01*
X39481900Y22760800D02*
X39481900Y24087300D01*
X38921100Y22200000D02*
X39481900Y22760800D01*
X37620300Y22200000D02*
X38921100Y22200000D01*
X86856800Y24543700D02*
X86658300Y24345200D01*
X86856800Y63506100D02*
X86856800Y24543700D01*
X85662900Y64700000D02*
X86856800Y63506100D01*
X71620300Y64700000D02*
X85662900Y64700000D01*
X82909000Y11271000D02*
X84070000Y10110000D01*
X82909000Y20711000D02*
X82909000Y11271000D01*
X83845700Y21647700D02*
X82909000Y20711000D01*
X84503000Y21647700D02*
X83845700Y21647700D01*
X86658300Y23803000D02*
X84503000Y21647700D01*
X86658300Y24345200D02*
X86658300Y23803000D01*
X106034000Y16674500D02*
X105910800Y16551300D01*
X106034000Y25189100D02*
X106034000Y16674500D01*
X105647800Y25575300D02*
X106034000Y25189100D01*
X98264000Y25575300D02*
X105647800Y25575300D01*
X98079300Y25390600D02*
X98264000Y25575300D01*
X97561200Y25390600D02*
X98079300Y25390600D01*
X97116200Y25835600D02*
X97561200Y25390600D01*
X97116200Y27700000D02*
X97116200Y25835600D01*
X98279700Y27700000D02*
X97116200Y27700000D01*
X71620300Y65700000D02*
X72783800Y65700000D01*
X77068500Y69984700D02*
X72783800Y65700000D01*
X99702100Y69984700D02*
X77068500Y69984700D01*
X101354300Y68332500D02*
X99702100Y69984700D01*
X101354300Y43739300D02*
X101354300Y68332500D01*
X98279700Y40664700D02*
X101354300Y43739300D01*
X98279700Y40200000D02*
X98279700Y40664700D01*
X71797000Y52200000D02*
X71620300Y52200000D01*
X71999500Y51820800D02*
X71620300Y52200000D01*
X71999500Y50176400D02*
X71999500Y51820800D01*
X70917000Y49093900D02*
X71999500Y50176400D01*
X41886100Y49093900D02*
X70917000Y49093900D01*
X36893200Y44101000D02*
X41886100Y49093900D01*
X36893200Y29455100D02*
X36893200Y44101000D01*
X37982200Y28366100D02*
X36893200Y29455100D01*
X37982200Y23561900D02*
X37982200Y28366100D01*
X37620300Y23200000D02*
X37982200Y23561900D01*
M02*
