G04 #@! TF.FileFunction,Legend,Top*
%FSLAX46Y46*%
G04 Gerber Fmt 4.6, Leading zero omitted, Abs format (unit mm)*
G04 Created by KiCad (PCBNEW 4.0.7-e1-6374~58~ubuntu16.04.1) date Thu Aug 31 17:04:50 2017*
%MOMM*%
%LPD*%
G01*
G04 APERTURE LIST*
%ADD10C,0.100000*%
%ADD11C,0.150000*%
G04 APERTURE END LIST*
D10*
X-50000Y-50000D02*
X-50000Y75950000D01*
X135950000Y-50000D02*
X-50000Y-50000D01*
X135950000Y75950000D02*
X135950000Y-50000D01*
X-50000Y75950000D02*
X135950000Y75950000D01*
D11*
X133300000Y4900000D02*
X133300000Y5300000D01*
X130100000Y4900000D02*
X130100000Y5300000D01*
X130100000Y2100000D02*
X130100000Y2500000D01*
X133300000Y2500000D02*
X133300000Y2100000D01*
X133300000Y5300000D02*
X130100000Y5300000D01*
X130100000Y2100000D02*
X133300000Y2100000D01*
X133300000Y13400000D02*
X133300000Y13800000D01*
X130100000Y13400000D02*
X130100000Y13800000D01*
X130100000Y10600000D02*
X130100000Y11000000D01*
X133300000Y11000000D02*
X133300000Y10600000D01*
X133300000Y13800000D02*
X130100000Y13800000D01*
X130100000Y10600000D02*
X133300000Y10600000D01*
X133300000Y21900000D02*
X133300000Y22300000D01*
X130100000Y21900000D02*
X130100000Y22300000D01*
X130100000Y19100000D02*
X130100000Y19500000D01*
X133300000Y19500000D02*
X133300000Y19100000D01*
X133300000Y22300000D02*
X130100000Y22300000D01*
X130100000Y19100000D02*
X133300000Y19100000D01*
X133300000Y30400000D02*
X133300000Y30800000D01*
X130100000Y30400000D02*
X130100000Y30800000D01*
X130100000Y27600000D02*
X130100000Y28000000D01*
X133300000Y28000000D02*
X133300000Y27600000D01*
X133300000Y30800000D02*
X130100000Y30800000D01*
X130100000Y27600000D02*
X133300000Y27600000D01*
X133300000Y38900000D02*
X133300000Y39300000D01*
X130100000Y38900000D02*
X130100000Y39300000D01*
X130100000Y36100000D02*
X130100000Y36500000D01*
X133300000Y36500000D02*
X133300000Y36100000D01*
X133300000Y39300000D02*
X130100000Y39300000D01*
X130100000Y36100000D02*
X133300000Y36100000D01*
X133300000Y47400000D02*
X133300000Y47800000D01*
X130100000Y47400000D02*
X130100000Y47800000D01*
X130100000Y44600000D02*
X130100000Y45000000D01*
X133300000Y45000000D02*
X133300000Y44600000D01*
X133300000Y47800000D02*
X130100000Y47800000D01*
X130100000Y44600000D02*
X133300000Y44600000D01*
X133300000Y55900000D02*
X133300000Y56300000D01*
X130100000Y55900000D02*
X130100000Y56300000D01*
X130100000Y53100000D02*
X130100000Y53500000D01*
X133300000Y53500000D02*
X133300000Y53100000D01*
X133300000Y56300000D02*
X130100000Y56300000D01*
X130100000Y53100000D02*
X133300000Y53100000D01*
X133300000Y64400000D02*
X133300000Y64800000D01*
X130100000Y64400000D02*
X130100000Y64800000D01*
X130100000Y61600000D02*
X130100000Y62000000D01*
X133300000Y62000000D02*
X133300000Y61600000D01*
X133300000Y64800000D02*
X130100000Y64800000D01*
X130100000Y61600000D02*
X133300000Y61600000D01*
X133300000Y72900000D02*
X133300000Y73300000D01*
X130100000Y72900000D02*
X130100000Y73300000D01*
X130100000Y70100000D02*
X130100000Y70500000D01*
X133300000Y70500000D02*
X133300000Y70100000D01*
X133300000Y73300000D02*
X130100000Y73300000D01*
X130100000Y70100000D02*
X133300000Y70100000D01*
X121600000Y2500000D02*
X121600000Y2100000D01*
X124800000Y2500000D02*
X124800000Y2100000D01*
X124800000Y5300000D02*
X124800000Y4900000D01*
X121600000Y4900000D02*
X121600000Y5300000D01*
X121600000Y2100000D02*
X124800000Y2100000D01*
X124800000Y5300000D02*
X121600000Y5300000D01*
X121600000Y11000000D02*
X121600000Y10600000D01*
X124800000Y11000000D02*
X124800000Y10600000D01*
X124800000Y13800000D02*
X124800000Y13400000D01*
X121600000Y13400000D02*
X121600000Y13800000D01*
X121600000Y10600000D02*
X124800000Y10600000D01*
X124800000Y13800000D02*
X121600000Y13800000D01*
X121600000Y19500000D02*
X121600000Y19100000D01*
X124800000Y19500000D02*
X124800000Y19100000D01*
X124800000Y22300000D02*
X124800000Y21900000D01*
X121600000Y21900000D02*
X121600000Y22300000D01*
X121600000Y19100000D02*
X124800000Y19100000D01*
X124800000Y22300000D02*
X121600000Y22300000D01*
X121600000Y28000000D02*
X121600000Y27600000D01*
X124800000Y28000000D02*
X124800000Y27600000D01*
X124800000Y30800000D02*
X124800000Y30400000D01*
X121600000Y30400000D02*
X121600000Y30800000D01*
X121600000Y27600000D02*
X124800000Y27600000D01*
X124800000Y30800000D02*
X121600000Y30800000D01*
X121600000Y36500000D02*
X121600000Y36100000D01*
X124800000Y36500000D02*
X124800000Y36100000D01*
X124800000Y39300000D02*
X124800000Y38900000D01*
X121600000Y38900000D02*
X121600000Y39300000D01*
X121600000Y36100000D02*
X124800000Y36100000D01*
X124800000Y39300000D02*
X121600000Y39300000D01*
X121600000Y45000000D02*
X121600000Y44600000D01*
X124800000Y45000000D02*
X124800000Y44600000D01*
X124800000Y47800000D02*
X124800000Y47400000D01*
X121600000Y47400000D02*
X121600000Y47800000D01*
X121600000Y44600000D02*
X124800000Y44600000D01*
X124800000Y47800000D02*
X121600000Y47800000D01*
X121600000Y53500000D02*
X121600000Y53100000D01*
X124800000Y53500000D02*
X124800000Y53100000D01*
X124800000Y56300000D02*
X124800000Y55900000D01*
X121600000Y55900000D02*
X121600000Y56300000D01*
X121600000Y53100000D02*
X124800000Y53100000D01*
X124800000Y56300000D02*
X121600000Y56300000D01*
X121600000Y62000000D02*
X121600000Y61600000D01*
X124800000Y62000000D02*
X124800000Y61600000D01*
X124800000Y64800000D02*
X124800000Y64400000D01*
X121600000Y64400000D02*
X121600000Y64800000D01*
X121600000Y61600000D02*
X124800000Y61600000D01*
X124800000Y64800000D02*
X121600000Y64800000D01*
X121600000Y70500000D02*
X121600000Y70100000D01*
X124800000Y70500000D02*
X124800000Y70100000D01*
X124800000Y73300000D02*
X124800000Y72900000D01*
X121600000Y72900000D02*
X121600000Y73300000D01*
X121600000Y70100000D02*
X124800000Y70100000D01*
X124800000Y73300000D02*
X121600000Y73300000D01*
X116300000Y4900000D02*
X116300000Y5300000D01*
X113100000Y4900000D02*
X113100000Y5300000D01*
X113100000Y2100000D02*
X113100000Y2500000D01*
X116300000Y2500000D02*
X116300000Y2100000D01*
X116300000Y5300000D02*
X113100000Y5300000D01*
X113100000Y2100000D02*
X116300000Y2100000D01*
X116300000Y13400000D02*
X116300000Y13800000D01*
X113100000Y13400000D02*
X113100000Y13800000D01*
X113100000Y10600000D02*
X113100000Y11000000D01*
X116300000Y11000000D02*
X116300000Y10600000D01*
X116300000Y13800000D02*
X113100000Y13800000D01*
X113100000Y10600000D02*
X116300000Y10600000D01*
X116300000Y21900000D02*
X116300000Y22300000D01*
X113100000Y21900000D02*
X113100000Y22300000D01*
X113100000Y19100000D02*
X113100000Y19500000D01*
X116300000Y19500000D02*
X116300000Y19100000D01*
X116300000Y22300000D02*
X113100000Y22300000D01*
X113100000Y19100000D02*
X116300000Y19100000D01*
X116300000Y30400000D02*
X116300000Y30800000D01*
X113100000Y30400000D02*
X113100000Y30800000D01*
X113100000Y27600000D02*
X113100000Y28000000D01*
X116300000Y28000000D02*
X116300000Y27600000D01*
X116300000Y30800000D02*
X113100000Y30800000D01*
X113100000Y27600000D02*
X116300000Y27600000D01*
X116300000Y38900000D02*
X116300000Y39300000D01*
X113100000Y38900000D02*
X113100000Y39300000D01*
X113100000Y36100000D02*
X113100000Y36500000D01*
X116300000Y36500000D02*
X116300000Y36100000D01*
X116300000Y39300000D02*
X113100000Y39300000D01*
X113100000Y36100000D02*
X116300000Y36100000D01*
X116300000Y47400000D02*
X116300000Y47800000D01*
X113100000Y47400000D02*
X113100000Y47800000D01*
X113100000Y44600000D02*
X113100000Y45000000D01*
X116300000Y45000000D02*
X116300000Y44600000D01*
X116300000Y47800000D02*
X113100000Y47800000D01*
X113100000Y44600000D02*
X116300000Y44600000D01*
X116300000Y55900000D02*
X116300000Y56300000D01*
X113100000Y55900000D02*
X113100000Y56300000D01*
X113100000Y53100000D02*
X113100000Y53500000D01*
X116300000Y53500000D02*
X116300000Y53100000D01*
X116300000Y56300000D02*
X113100000Y56300000D01*
X113100000Y53100000D02*
X116300000Y53100000D01*
X116300000Y64400000D02*
X116300000Y64800000D01*
X113100000Y64400000D02*
X113100000Y64800000D01*
X113100000Y61600000D02*
X113100000Y62000000D01*
X116300000Y62000000D02*
X116300000Y61600000D01*
X116300000Y64800000D02*
X113100000Y64800000D01*
X113100000Y61600000D02*
X116300000Y61600000D01*
X116300000Y72900000D02*
X116300000Y73300000D01*
X113100000Y72900000D02*
X113100000Y73300000D01*
X113100000Y70100000D02*
X113100000Y70500000D01*
X116300000Y70500000D02*
X116300000Y70100000D01*
X116300000Y73300000D02*
X113100000Y73300000D01*
X113100000Y70100000D02*
X116300000Y70100000D01*
X104600000Y2500000D02*
X104600000Y2100000D01*
X107800000Y2500000D02*
X107800000Y2100000D01*
X107800000Y5300000D02*
X107800000Y4900000D01*
X104600000Y4900000D02*
X104600000Y5300000D01*
X104600000Y2100000D02*
X107800000Y2100000D01*
X107800000Y5300000D02*
X104600000Y5300000D01*
X104600000Y11000000D02*
X104600000Y10600000D01*
X107800000Y11000000D02*
X107800000Y10600000D01*
X107800000Y13800000D02*
X107800000Y13400000D01*
X104600000Y13400000D02*
X104600000Y13800000D01*
X104600000Y10600000D02*
X107800000Y10600000D01*
X107800000Y13800000D02*
X104600000Y13800000D01*
X104600000Y19500000D02*
X104600000Y19100000D01*
X107800000Y19500000D02*
X107800000Y19100000D01*
X107800000Y22300000D02*
X107800000Y21900000D01*
X104600000Y21900000D02*
X104600000Y22300000D01*
X104600000Y19100000D02*
X107800000Y19100000D01*
X107800000Y22300000D02*
X104600000Y22300000D01*
X104600000Y28000000D02*
X104600000Y27600000D01*
X107800000Y28000000D02*
X107800000Y27600000D01*
X107800000Y30800000D02*
X107800000Y30400000D01*
X104600000Y30400000D02*
X104600000Y30800000D01*
X104600000Y27600000D02*
X107800000Y27600000D01*
X107800000Y30800000D02*
X104600000Y30800000D01*
X104600000Y36500000D02*
X104600000Y36100000D01*
X107800000Y36500000D02*
X107800000Y36100000D01*
X107800000Y39300000D02*
X107800000Y38900000D01*
X104600000Y38900000D02*
X104600000Y39300000D01*
X104600000Y36100000D02*
X107800000Y36100000D01*
X107800000Y39300000D02*
X104600000Y39300000D01*
X104600000Y45000000D02*
X104600000Y44600000D01*
X107800000Y45000000D02*
X107800000Y44600000D01*
X107800000Y47800000D02*
X107800000Y47400000D01*
X104600000Y47400000D02*
X104600000Y47800000D01*
X104600000Y44600000D02*
X107800000Y44600000D01*
X107800000Y47800000D02*
X104600000Y47800000D01*
X104600000Y53500000D02*
X104600000Y53100000D01*
X107800000Y53500000D02*
X107800000Y53100000D01*
X107800000Y56300000D02*
X107800000Y55900000D01*
X104600000Y55900000D02*
X104600000Y56300000D01*
X104600000Y53100000D02*
X107800000Y53100000D01*
X107800000Y56300000D02*
X104600000Y56300000D01*
X104600000Y62000000D02*
X104600000Y61600000D01*
X107800000Y62000000D02*
X107800000Y61600000D01*
X107800000Y64800000D02*
X107800000Y64400000D01*
X104600000Y64400000D02*
X104600000Y64800000D01*
X104600000Y61600000D02*
X107800000Y61600000D01*
X107800000Y64800000D02*
X104600000Y64800000D01*
X104600000Y70500000D02*
X104600000Y70100000D01*
X107800000Y70500000D02*
X107800000Y70100000D01*
X107800000Y73300000D02*
X107800000Y72900000D01*
X104600000Y72900000D02*
X104600000Y73300000D01*
X104600000Y70100000D02*
X107800000Y70100000D01*
X107800000Y73300000D02*
X104600000Y73300000D01*
X99300000Y4900000D02*
X99300000Y5300000D01*
X96100000Y4900000D02*
X96100000Y5300000D01*
X96100000Y2100000D02*
X96100000Y2500000D01*
X99300000Y2500000D02*
X99300000Y2100000D01*
X99300000Y5300000D02*
X96100000Y5300000D01*
X96100000Y2100000D02*
X99300000Y2100000D01*
X99300000Y13400000D02*
X99300000Y13800000D01*
X96100000Y13400000D02*
X96100000Y13800000D01*
X96100000Y10600000D02*
X96100000Y11000000D01*
X99300000Y11000000D02*
X99300000Y10600000D01*
X99300000Y13800000D02*
X96100000Y13800000D01*
X96100000Y10600000D02*
X99300000Y10600000D01*
X99300000Y21900000D02*
X99300000Y22300000D01*
X96100000Y21900000D02*
X96100000Y22300000D01*
X96100000Y19100000D02*
X96100000Y19500000D01*
X99300000Y19500000D02*
X99300000Y19100000D01*
X99300000Y22300000D02*
X96100000Y22300000D01*
X96100000Y19100000D02*
X99300000Y19100000D01*
X99300000Y30400000D02*
X99300000Y30800000D01*
X96100000Y30400000D02*
X96100000Y30800000D01*
X96100000Y27600000D02*
X96100000Y28000000D01*
X99300000Y28000000D02*
X99300000Y27600000D01*
X99300000Y30800000D02*
X96100000Y30800000D01*
X96100000Y27600000D02*
X99300000Y27600000D01*
X99300000Y38900000D02*
X99300000Y39300000D01*
X96100000Y38900000D02*
X96100000Y39300000D01*
X96100000Y36100000D02*
X96100000Y36500000D01*
X99300000Y36500000D02*
X99300000Y36100000D01*
X99300000Y39300000D02*
X96100000Y39300000D01*
X96100000Y36100000D02*
X99300000Y36100000D01*
X99300000Y47400000D02*
X99300000Y47800000D01*
X96100000Y47400000D02*
X96100000Y47800000D01*
X96100000Y44600000D02*
X96100000Y45000000D01*
X99300000Y45000000D02*
X99300000Y44600000D01*
X99300000Y47800000D02*
X96100000Y47800000D01*
X96100000Y44600000D02*
X99300000Y44600000D01*
X99300000Y55900000D02*
X99300000Y56300000D01*
X96100000Y55900000D02*
X96100000Y56300000D01*
X96100000Y53100000D02*
X96100000Y53500000D01*
X99300000Y53500000D02*
X99300000Y53100000D01*
X99300000Y56300000D02*
X96100000Y56300000D01*
X96100000Y53100000D02*
X99300000Y53100000D01*
X99300000Y64400000D02*
X99300000Y64800000D01*
X96100000Y64400000D02*
X96100000Y64800000D01*
X96100000Y61600000D02*
X96100000Y62000000D01*
X99300000Y62000000D02*
X99300000Y61600000D01*
X99300000Y64800000D02*
X96100000Y64800000D01*
X96100000Y61600000D02*
X99300000Y61600000D01*
X99300000Y72900000D02*
X99300000Y73300000D01*
X96100000Y72900000D02*
X96100000Y73300000D01*
X96100000Y70100000D02*
X96100000Y70500000D01*
X99300000Y70500000D02*
X99300000Y70100000D01*
X99300000Y73300000D02*
X96100000Y73300000D01*
X96100000Y70100000D02*
X99300000Y70100000D01*
X87600000Y2500000D02*
X87600000Y2100000D01*
X90800000Y2500000D02*
X90800000Y2100000D01*
X90800000Y5300000D02*
X90800000Y4900000D01*
X87600000Y4900000D02*
X87600000Y5300000D01*
X87600000Y2100000D02*
X90800000Y2100000D01*
X90800000Y5300000D02*
X87600000Y5300000D01*
X87600000Y11000000D02*
X87600000Y10600000D01*
X90800000Y11000000D02*
X90800000Y10600000D01*
X90800000Y13800000D02*
X90800000Y13400000D01*
X87600000Y13400000D02*
X87600000Y13800000D01*
X87600000Y10600000D02*
X90800000Y10600000D01*
X90800000Y13800000D02*
X87600000Y13800000D01*
X87600000Y19500000D02*
X87600000Y19100000D01*
X90800000Y19500000D02*
X90800000Y19100000D01*
X90800000Y22300000D02*
X90800000Y21900000D01*
X87600000Y21900000D02*
X87600000Y22300000D01*
X87600000Y19100000D02*
X90800000Y19100000D01*
X90800000Y22300000D02*
X87600000Y22300000D01*
X87600000Y28000000D02*
X87600000Y27600000D01*
X90800000Y28000000D02*
X90800000Y27600000D01*
X90800000Y30800000D02*
X90800000Y30400000D01*
X87600000Y30400000D02*
X87600000Y30800000D01*
X87600000Y27600000D02*
X90800000Y27600000D01*
X90800000Y30800000D02*
X87600000Y30800000D01*
X87600000Y36500000D02*
X87600000Y36100000D01*
X90800000Y36500000D02*
X90800000Y36100000D01*
X90800000Y39300000D02*
X90800000Y38900000D01*
X87600000Y38900000D02*
X87600000Y39300000D01*
X87600000Y36100000D02*
X90800000Y36100000D01*
X90800000Y39300000D02*
X87600000Y39300000D01*
X87600000Y45000000D02*
X87600000Y44600000D01*
X90800000Y45000000D02*
X90800000Y44600000D01*
X90800000Y47800000D02*
X90800000Y47400000D01*
X87600000Y47400000D02*
X87600000Y47800000D01*
X87600000Y44600000D02*
X90800000Y44600000D01*
X90800000Y47800000D02*
X87600000Y47800000D01*
X87600000Y53500000D02*
X87600000Y53100000D01*
X90800000Y53500000D02*
X90800000Y53100000D01*
X90800000Y56300000D02*
X90800000Y55900000D01*
X87600000Y55900000D02*
X87600000Y56300000D01*
X87600000Y53100000D02*
X90800000Y53100000D01*
X90800000Y56300000D02*
X87600000Y56300000D01*
X87600000Y62000000D02*
X87600000Y61600000D01*
X90800000Y62000000D02*
X90800000Y61600000D01*
X90800000Y64800000D02*
X90800000Y64400000D01*
X87600000Y64400000D02*
X87600000Y64800000D01*
X87600000Y61600000D02*
X90800000Y61600000D01*
X90800000Y64800000D02*
X87600000Y64800000D01*
X87600000Y70500000D02*
X87600000Y70100000D01*
X90800000Y70500000D02*
X90800000Y70100000D01*
X90800000Y73300000D02*
X90800000Y72900000D01*
X87600000Y72900000D02*
X87600000Y73300000D01*
X87600000Y70100000D02*
X90800000Y70100000D01*
X90800000Y73300000D02*
X87600000Y73300000D01*
X82300000Y4900000D02*
X82300000Y5300000D01*
X79100000Y4900000D02*
X79100000Y5300000D01*
X79100000Y2100000D02*
X79100000Y2500000D01*
X82300000Y2500000D02*
X82300000Y2100000D01*
X82300000Y5300000D02*
X79100000Y5300000D01*
X79100000Y2100000D02*
X82300000Y2100000D01*
X82300000Y13400000D02*
X82300000Y13800000D01*
X79100000Y13400000D02*
X79100000Y13800000D01*
X79100000Y10600000D02*
X79100000Y11000000D01*
X82300000Y11000000D02*
X82300000Y10600000D01*
X82300000Y13800000D02*
X79100000Y13800000D01*
X79100000Y10600000D02*
X82300000Y10600000D01*
X82300000Y21900000D02*
X82300000Y22300000D01*
X79100000Y21900000D02*
X79100000Y22300000D01*
X79100000Y19100000D02*
X79100000Y19500000D01*
X82300000Y19500000D02*
X82300000Y19100000D01*
X82300000Y22300000D02*
X79100000Y22300000D01*
X79100000Y19100000D02*
X82300000Y19100000D01*
X82300000Y30400000D02*
X82300000Y30800000D01*
X79100000Y30400000D02*
X79100000Y30800000D01*
X79100000Y27600000D02*
X79100000Y28000000D01*
X82300000Y28000000D02*
X82300000Y27600000D01*
X82300000Y30800000D02*
X79100000Y30800000D01*
X79100000Y27600000D02*
X82300000Y27600000D01*
X82300000Y38900000D02*
X82300000Y39300000D01*
X79100000Y38900000D02*
X79100000Y39300000D01*
X79100000Y36100000D02*
X79100000Y36500000D01*
X82300000Y36500000D02*
X82300000Y36100000D01*
X82300000Y39300000D02*
X79100000Y39300000D01*
X79100000Y36100000D02*
X82300000Y36100000D01*
X82300000Y47400000D02*
X82300000Y47800000D01*
X79100000Y47400000D02*
X79100000Y47800000D01*
X79100000Y44600000D02*
X79100000Y45000000D01*
X82300000Y45000000D02*
X82300000Y44600000D01*
X82300000Y47800000D02*
X79100000Y47800000D01*
X79100000Y44600000D02*
X82300000Y44600000D01*
X82300000Y55900000D02*
X82300000Y56300000D01*
X79100000Y55900000D02*
X79100000Y56300000D01*
X79100000Y53100000D02*
X79100000Y53500000D01*
X82300000Y53500000D02*
X82300000Y53100000D01*
X82300000Y56300000D02*
X79100000Y56300000D01*
X79100000Y53100000D02*
X82300000Y53100000D01*
X82300000Y64400000D02*
X82300000Y64800000D01*
X79100000Y64400000D02*
X79100000Y64800000D01*
X79100000Y61600000D02*
X79100000Y62000000D01*
X82300000Y62000000D02*
X82300000Y61600000D01*
X82300000Y64800000D02*
X79100000Y64800000D01*
X79100000Y61600000D02*
X82300000Y61600000D01*
X82300000Y72900000D02*
X82300000Y73300000D01*
X79100000Y72900000D02*
X79100000Y73300000D01*
X79100000Y70100000D02*
X79100000Y70500000D01*
X82300000Y70500000D02*
X82300000Y70100000D01*
X82300000Y73300000D02*
X79100000Y73300000D01*
X79100000Y70100000D02*
X82300000Y70100000D01*
X70600000Y2500000D02*
X70600000Y2100000D01*
X73800000Y2500000D02*
X73800000Y2100000D01*
X73800000Y5300000D02*
X73800000Y4900000D01*
X70600000Y4900000D02*
X70600000Y5300000D01*
X70600000Y2100000D02*
X73800000Y2100000D01*
X73800000Y5300000D02*
X70600000Y5300000D01*
X70600000Y11000000D02*
X70600000Y10600000D01*
X73800000Y11000000D02*
X73800000Y10600000D01*
X73800000Y13800000D02*
X73800000Y13400000D01*
X70600000Y13400000D02*
X70600000Y13800000D01*
X70600000Y10600000D02*
X73800000Y10600000D01*
X73800000Y13800000D02*
X70600000Y13800000D01*
X70600000Y19500000D02*
X70600000Y19100000D01*
X73800000Y19500000D02*
X73800000Y19100000D01*
X73800000Y22300000D02*
X73800000Y21900000D01*
X70600000Y21900000D02*
X70600000Y22300000D01*
X70600000Y19100000D02*
X73800000Y19100000D01*
X73800000Y22300000D02*
X70600000Y22300000D01*
X70600000Y28000000D02*
X70600000Y27600000D01*
X73800000Y28000000D02*
X73800000Y27600000D01*
X73800000Y30800000D02*
X73800000Y30400000D01*
X70600000Y30400000D02*
X70600000Y30800000D01*
X70600000Y27600000D02*
X73800000Y27600000D01*
X73800000Y30800000D02*
X70600000Y30800000D01*
X70600000Y36500000D02*
X70600000Y36100000D01*
X73800000Y36500000D02*
X73800000Y36100000D01*
X73800000Y39300000D02*
X73800000Y38900000D01*
X70600000Y38900000D02*
X70600000Y39300000D01*
X70600000Y36100000D02*
X73800000Y36100000D01*
X73800000Y39300000D02*
X70600000Y39300000D01*
X70600000Y45000000D02*
X70600000Y44600000D01*
X73800000Y45000000D02*
X73800000Y44600000D01*
X73800000Y47800000D02*
X73800000Y47400000D01*
X70600000Y47400000D02*
X70600000Y47800000D01*
X70600000Y44600000D02*
X73800000Y44600000D01*
X73800000Y47800000D02*
X70600000Y47800000D01*
X70600000Y53500000D02*
X70600000Y53100000D01*
X73800000Y53500000D02*
X73800000Y53100000D01*
X73800000Y56300000D02*
X73800000Y55900000D01*
X70600000Y55900000D02*
X70600000Y56300000D01*
X70600000Y53100000D02*
X73800000Y53100000D01*
X73800000Y56300000D02*
X70600000Y56300000D01*
X70600000Y62000000D02*
X70600000Y61600000D01*
X73800000Y62000000D02*
X73800000Y61600000D01*
X73800000Y64800000D02*
X73800000Y64400000D01*
X70600000Y64400000D02*
X70600000Y64800000D01*
X70600000Y61600000D02*
X73800000Y61600000D01*
X73800000Y64800000D02*
X70600000Y64800000D01*
X70600000Y70500000D02*
X70600000Y70100000D01*
X73800000Y70500000D02*
X73800000Y70100000D01*
X73800000Y73300000D02*
X73800000Y72900000D01*
X70600000Y72900000D02*
X70600000Y73300000D01*
X70600000Y70100000D02*
X73800000Y70100000D01*
X73800000Y73300000D02*
X70600000Y73300000D01*
X65300000Y4900000D02*
X65300000Y5300000D01*
X62100000Y4900000D02*
X62100000Y5300000D01*
X62100000Y2100000D02*
X62100000Y2500000D01*
X65300000Y2500000D02*
X65300000Y2100000D01*
X65300000Y5300000D02*
X62100000Y5300000D01*
X62100000Y2100000D02*
X65300000Y2100000D01*
X65300000Y13400000D02*
X65300000Y13800000D01*
X62100000Y13400000D02*
X62100000Y13800000D01*
X62100000Y10600000D02*
X62100000Y11000000D01*
X65300000Y11000000D02*
X65300000Y10600000D01*
X65300000Y13800000D02*
X62100000Y13800000D01*
X62100000Y10600000D02*
X65300000Y10600000D01*
X65300000Y21900000D02*
X65300000Y22300000D01*
X62100000Y21900000D02*
X62100000Y22300000D01*
X62100000Y19100000D02*
X62100000Y19500000D01*
X65300000Y19500000D02*
X65300000Y19100000D01*
X65300000Y22300000D02*
X62100000Y22300000D01*
X62100000Y19100000D02*
X65300000Y19100000D01*
X65300000Y30400000D02*
X65300000Y30800000D01*
X62100000Y30400000D02*
X62100000Y30800000D01*
X62100000Y27600000D02*
X62100000Y28000000D01*
X65300000Y28000000D02*
X65300000Y27600000D01*
X65300000Y30800000D02*
X62100000Y30800000D01*
X62100000Y27600000D02*
X65300000Y27600000D01*
X65300000Y38900000D02*
X65300000Y39300000D01*
X62100000Y38900000D02*
X62100000Y39300000D01*
X62100000Y36100000D02*
X62100000Y36500000D01*
X65300000Y36500000D02*
X65300000Y36100000D01*
X65300000Y39300000D02*
X62100000Y39300000D01*
X62100000Y36100000D02*
X65300000Y36100000D01*
X65300000Y47400000D02*
X65300000Y47800000D01*
X62100000Y47400000D02*
X62100000Y47800000D01*
X62100000Y44600000D02*
X62100000Y45000000D01*
X65300000Y45000000D02*
X65300000Y44600000D01*
X65300000Y47800000D02*
X62100000Y47800000D01*
X62100000Y44600000D02*
X65300000Y44600000D01*
X65300000Y55900000D02*
X65300000Y56300000D01*
X62100000Y55900000D02*
X62100000Y56300000D01*
X62100000Y53100000D02*
X62100000Y53500000D01*
X65300000Y53500000D02*
X65300000Y53100000D01*
X65300000Y56300000D02*
X62100000Y56300000D01*
X62100000Y53100000D02*
X65300000Y53100000D01*
X65300000Y64400000D02*
X65300000Y64800000D01*
X62100000Y64400000D02*
X62100000Y64800000D01*
X62100000Y61600000D02*
X62100000Y62000000D01*
X65300000Y62000000D02*
X65300000Y61600000D01*
X65300000Y64800000D02*
X62100000Y64800000D01*
X62100000Y61600000D02*
X65300000Y61600000D01*
X65300000Y72900000D02*
X65300000Y73300000D01*
X62100000Y72900000D02*
X62100000Y73300000D01*
X62100000Y70100000D02*
X62100000Y70500000D01*
X65300000Y70500000D02*
X65300000Y70100000D01*
X65300000Y73300000D02*
X62100000Y73300000D01*
X62100000Y70100000D02*
X65300000Y70100000D01*
X53600000Y2500000D02*
X53600000Y2100000D01*
X56800000Y2500000D02*
X56800000Y2100000D01*
X56800000Y5300000D02*
X56800000Y4900000D01*
X53600000Y4900000D02*
X53600000Y5300000D01*
X53600000Y2100000D02*
X56800000Y2100000D01*
X56800000Y5300000D02*
X53600000Y5300000D01*
X53600000Y11000000D02*
X53600000Y10600000D01*
X56800000Y11000000D02*
X56800000Y10600000D01*
X56800000Y13800000D02*
X56800000Y13400000D01*
X53600000Y13400000D02*
X53600000Y13800000D01*
X53600000Y10600000D02*
X56800000Y10600000D01*
X56800000Y13800000D02*
X53600000Y13800000D01*
X53600000Y19500000D02*
X53600000Y19100000D01*
X56800000Y19500000D02*
X56800000Y19100000D01*
X56800000Y22300000D02*
X56800000Y21900000D01*
X53600000Y21900000D02*
X53600000Y22300000D01*
X53600000Y19100000D02*
X56800000Y19100000D01*
X56800000Y22300000D02*
X53600000Y22300000D01*
X53600000Y28000000D02*
X53600000Y27600000D01*
X56800000Y28000000D02*
X56800000Y27600000D01*
X56800000Y30800000D02*
X56800000Y30400000D01*
X53600000Y30400000D02*
X53600000Y30800000D01*
X53600000Y27600000D02*
X56800000Y27600000D01*
X56800000Y30800000D02*
X53600000Y30800000D01*
X53600000Y36500000D02*
X53600000Y36100000D01*
X56800000Y36500000D02*
X56800000Y36100000D01*
X56800000Y39300000D02*
X56800000Y38900000D01*
X53600000Y38900000D02*
X53600000Y39300000D01*
X53600000Y36100000D02*
X56800000Y36100000D01*
X56800000Y39300000D02*
X53600000Y39300000D01*
X53600000Y45000000D02*
X53600000Y44600000D01*
X56800000Y45000000D02*
X56800000Y44600000D01*
X56800000Y47800000D02*
X56800000Y47400000D01*
X53600000Y47400000D02*
X53600000Y47800000D01*
X53600000Y44600000D02*
X56800000Y44600000D01*
X56800000Y47800000D02*
X53600000Y47800000D01*
X53600000Y53500000D02*
X53600000Y53100000D01*
X56800000Y53500000D02*
X56800000Y53100000D01*
X56800000Y56300000D02*
X56800000Y55900000D01*
X53600000Y55900000D02*
X53600000Y56300000D01*
X53600000Y53100000D02*
X56800000Y53100000D01*
X56800000Y56300000D02*
X53600000Y56300000D01*
X53600000Y62000000D02*
X53600000Y61600000D01*
X56800000Y62000000D02*
X56800000Y61600000D01*
X56800000Y64800000D02*
X56800000Y64400000D01*
X53600000Y64400000D02*
X53600000Y64800000D01*
X53600000Y61600000D02*
X56800000Y61600000D01*
X56800000Y64800000D02*
X53600000Y64800000D01*
X53600000Y70500000D02*
X53600000Y70100000D01*
X56800000Y70500000D02*
X56800000Y70100000D01*
X56800000Y73300000D02*
X56800000Y72900000D01*
X53600000Y72900000D02*
X53600000Y73300000D01*
X53600000Y70100000D02*
X56800000Y70100000D01*
X56800000Y73300000D02*
X53600000Y73300000D01*
X48300000Y4900000D02*
X48300000Y5300000D01*
X45100000Y4900000D02*
X45100000Y5300000D01*
X45100000Y2100000D02*
X45100000Y2500000D01*
X48300000Y2500000D02*
X48300000Y2100000D01*
X48300000Y5300000D02*
X45100000Y5300000D01*
X45100000Y2100000D02*
X48300000Y2100000D01*
X48300000Y13400000D02*
X48300000Y13800000D01*
X45100000Y13400000D02*
X45100000Y13800000D01*
X45100000Y10600000D02*
X45100000Y11000000D01*
X48300000Y11000000D02*
X48300000Y10600000D01*
X48300000Y13800000D02*
X45100000Y13800000D01*
X45100000Y10600000D02*
X48300000Y10600000D01*
X48300000Y21900000D02*
X48300000Y22300000D01*
X45100000Y21900000D02*
X45100000Y22300000D01*
X45100000Y19100000D02*
X45100000Y19500000D01*
X48300000Y19500000D02*
X48300000Y19100000D01*
X48300000Y22300000D02*
X45100000Y22300000D01*
X45100000Y19100000D02*
X48300000Y19100000D01*
X48300000Y30400000D02*
X48300000Y30800000D01*
X45100000Y30400000D02*
X45100000Y30800000D01*
X45100000Y27600000D02*
X45100000Y28000000D01*
X48300000Y28000000D02*
X48300000Y27600000D01*
X48300000Y30800000D02*
X45100000Y30800000D01*
X45100000Y27600000D02*
X48300000Y27600000D01*
X48300000Y38900000D02*
X48300000Y39300000D01*
X45100000Y38900000D02*
X45100000Y39300000D01*
X45100000Y36100000D02*
X45100000Y36500000D01*
X48300000Y36500000D02*
X48300000Y36100000D01*
X48300000Y39300000D02*
X45100000Y39300000D01*
X45100000Y36100000D02*
X48300000Y36100000D01*
X48300000Y47400000D02*
X48300000Y47800000D01*
X45100000Y47400000D02*
X45100000Y47800000D01*
X45100000Y44600000D02*
X45100000Y45000000D01*
X48300000Y45000000D02*
X48300000Y44600000D01*
X48300000Y47800000D02*
X45100000Y47800000D01*
X45100000Y44600000D02*
X48300000Y44600000D01*
X48300000Y55900000D02*
X48300000Y56300000D01*
X45100000Y55900000D02*
X45100000Y56300000D01*
X45100000Y53100000D02*
X45100000Y53500000D01*
X48300000Y53500000D02*
X48300000Y53100000D01*
X48300000Y56300000D02*
X45100000Y56300000D01*
X45100000Y53100000D02*
X48300000Y53100000D01*
X48300000Y64400000D02*
X48300000Y64800000D01*
X45100000Y64400000D02*
X45100000Y64800000D01*
X45100000Y61600000D02*
X45100000Y62000000D01*
X48300000Y62000000D02*
X48300000Y61600000D01*
X48300000Y64800000D02*
X45100000Y64800000D01*
X45100000Y61600000D02*
X48300000Y61600000D01*
X48300000Y72900000D02*
X48300000Y73300000D01*
X45100000Y72900000D02*
X45100000Y73300000D01*
X45100000Y70100000D02*
X45100000Y70500000D01*
X48300000Y70500000D02*
X48300000Y70100000D01*
X48300000Y73300000D02*
X45100000Y73300000D01*
X45100000Y70100000D02*
X48300000Y70100000D01*
X36600000Y2500000D02*
X36600000Y2100000D01*
X39800000Y2500000D02*
X39800000Y2100000D01*
X39800000Y5300000D02*
X39800000Y4900000D01*
X36600000Y4900000D02*
X36600000Y5300000D01*
X36600000Y2100000D02*
X39800000Y2100000D01*
X39800000Y5300000D02*
X36600000Y5300000D01*
X36600000Y11000000D02*
X36600000Y10600000D01*
X39800000Y11000000D02*
X39800000Y10600000D01*
X39800000Y13800000D02*
X39800000Y13400000D01*
X36600000Y13400000D02*
X36600000Y13800000D01*
X36600000Y10600000D02*
X39800000Y10600000D01*
X39800000Y13800000D02*
X36600000Y13800000D01*
X36600000Y19500000D02*
X36600000Y19100000D01*
X39800000Y19500000D02*
X39800000Y19100000D01*
X39800000Y22300000D02*
X39800000Y21900000D01*
X36600000Y21900000D02*
X36600000Y22300000D01*
X36600000Y19100000D02*
X39800000Y19100000D01*
X39800000Y22300000D02*
X36600000Y22300000D01*
X36600000Y28000000D02*
X36600000Y27600000D01*
X39800000Y28000000D02*
X39800000Y27600000D01*
X39800000Y30800000D02*
X39800000Y30400000D01*
X36600000Y30400000D02*
X36600000Y30800000D01*
X36600000Y27600000D02*
X39800000Y27600000D01*
X39800000Y30800000D02*
X36600000Y30800000D01*
X36600000Y36500000D02*
X36600000Y36100000D01*
X39800000Y36500000D02*
X39800000Y36100000D01*
X39800000Y39300000D02*
X39800000Y38900000D01*
X36600000Y38900000D02*
X36600000Y39300000D01*
X36600000Y36100000D02*
X39800000Y36100000D01*
X39800000Y39300000D02*
X36600000Y39300000D01*
X36600000Y53500000D02*
X36600000Y53100000D01*
X39800000Y53500000D02*
X39800000Y53100000D01*
X39800000Y56300000D02*
X39800000Y55900000D01*
X36600000Y55900000D02*
X36600000Y56300000D01*
X36600000Y53100000D02*
X39800000Y53100000D01*
X39800000Y56300000D02*
X36600000Y56300000D01*
X36600000Y62000000D02*
X36600000Y61600000D01*
X39800000Y62000000D02*
X39800000Y61600000D01*
X39800000Y64800000D02*
X39800000Y64400000D01*
X36600000Y64400000D02*
X36600000Y64800000D01*
X36600000Y61600000D02*
X39800000Y61600000D01*
X39800000Y64800000D02*
X36600000Y64800000D01*
X36600000Y70500000D02*
X36600000Y70100000D01*
X39800000Y70500000D02*
X39800000Y70100000D01*
X39800000Y73300000D02*
X39800000Y72900000D01*
X36600000Y72900000D02*
X36600000Y73300000D01*
X36600000Y70100000D02*
X39800000Y70100000D01*
X39800000Y73300000D02*
X36600000Y73300000D01*
X31300000Y4900000D02*
X31300000Y5300000D01*
X28100000Y4900000D02*
X28100000Y5300000D01*
X28100000Y2100000D02*
X28100000Y2500000D01*
X31300000Y2500000D02*
X31300000Y2100000D01*
X31300000Y5300000D02*
X28100000Y5300000D01*
X28100000Y2100000D02*
X31300000Y2100000D01*
X31300000Y13400000D02*
X31300000Y13800000D01*
X28100000Y13400000D02*
X28100000Y13800000D01*
X28100000Y10600000D02*
X28100000Y11000000D01*
X31300000Y11000000D02*
X31300000Y10600000D01*
X31300000Y13800000D02*
X28100000Y13800000D01*
X28100000Y10600000D02*
X31300000Y10600000D01*
X31300000Y21900000D02*
X31300000Y22300000D01*
X28100000Y21900000D02*
X28100000Y22300000D01*
X28100000Y19100000D02*
X28100000Y19500000D01*
X31300000Y19500000D02*
X31300000Y19100000D01*
X31300000Y22300000D02*
X28100000Y22300000D01*
X28100000Y19100000D02*
X31300000Y19100000D01*
X31300000Y30400000D02*
X31300000Y30800000D01*
X28100000Y30400000D02*
X28100000Y30800000D01*
X28100000Y27600000D02*
X28100000Y28000000D01*
X31300000Y28000000D02*
X31300000Y27600000D01*
X31300000Y30800000D02*
X28100000Y30800000D01*
X28100000Y27600000D02*
X31300000Y27600000D01*
X31300000Y38900000D02*
X31300000Y39300000D01*
X28100000Y38900000D02*
X28100000Y39300000D01*
X28100000Y36100000D02*
X28100000Y36500000D01*
X31300000Y36500000D02*
X31300000Y36100000D01*
X31300000Y39300000D02*
X28100000Y39300000D01*
X28100000Y36100000D02*
X31300000Y36100000D01*
X31300000Y47400000D02*
X31300000Y47800000D01*
X28100000Y47400000D02*
X28100000Y47800000D01*
X28100000Y44600000D02*
X28100000Y45000000D01*
X31300000Y45000000D02*
X31300000Y44600000D01*
X31300000Y47800000D02*
X28100000Y47800000D01*
X28100000Y44600000D02*
X31300000Y44600000D01*
X31300000Y55900000D02*
X31300000Y56300000D01*
X28100000Y55900000D02*
X28100000Y56300000D01*
X28100000Y53100000D02*
X28100000Y53500000D01*
X31300000Y53500000D02*
X31300000Y53100000D01*
X31300000Y56300000D02*
X28100000Y56300000D01*
X28100000Y53100000D02*
X31300000Y53100000D01*
X31300000Y64400000D02*
X31300000Y64800000D01*
X28100000Y64400000D02*
X28100000Y64800000D01*
X28100000Y61600000D02*
X28100000Y62000000D01*
X31300000Y62000000D02*
X31300000Y61600000D01*
X31300000Y64800000D02*
X28100000Y64800000D01*
X28100000Y61600000D02*
X31300000Y61600000D01*
X31300000Y72900000D02*
X31300000Y73300000D01*
X28100000Y72900000D02*
X28100000Y73300000D01*
X28100000Y70100000D02*
X28100000Y70500000D01*
X31300000Y70500000D02*
X31300000Y70100000D01*
X31300000Y73300000D02*
X28100000Y73300000D01*
X28100000Y70100000D02*
X31300000Y70100000D01*
X19600000Y2500000D02*
X19600000Y2100000D01*
X22800000Y2500000D02*
X22800000Y2100000D01*
X22800000Y5300000D02*
X22800000Y4900000D01*
X19600000Y4900000D02*
X19600000Y5300000D01*
X19600000Y2100000D02*
X22800000Y2100000D01*
X22800000Y5300000D02*
X19600000Y5300000D01*
X19600000Y11000000D02*
X19600000Y10600000D01*
X22800000Y11000000D02*
X22800000Y10600000D01*
X22800000Y13800000D02*
X22800000Y13400000D01*
X19600000Y13400000D02*
X19600000Y13800000D01*
X19600000Y10600000D02*
X22800000Y10600000D01*
X22800000Y13800000D02*
X19600000Y13800000D01*
X19600000Y19500000D02*
X19600000Y19100000D01*
X22800000Y19500000D02*
X22800000Y19100000D01*
X22800000Y22300000D02*
X22800000Y21900000D01*
X19600000Y21900000D02*
X19600000Y22300000D01*
X19600000Y19100000D02*
X22800000Y19100000D01*
X22800000Y22300000D02*
X19600000Y22300000D01*
X19600000Y28000000D02*
X19600000Y27600000D01*
X22800000Y28000000D02*
X22800000Y27600000D01*
X22800000Y30800000D02*
X22800000Y30400000D01*
X19600000Y30400000D02*
X19600000Y30800000D01*
X19600000Y27600000D02*
X22800000Y27600000D01*
X22800000Y30800000D02*
X19600000Y30800000D01*
X19600000Y36500000D02*
X19600000Y36100000D01*
X22800000Y36500000D02*
X22800000Y36100000D01*
X22800000Y39300000D02*
X22800000Y38900000D01*
X19600000Y38900000D02*
X19600000Y39300000D01*
X19600000Y36100000D02*
X22800000Y36100000D01*
X22800000Y39300000D02*
X19600000Y39300000D01*
X19600000Y45000000D02*
X19600000Y44600000D01*
X22800000Y45000000D02*
X22800000Y44600000D01*
X22800000Y47800000D02*
X22800000Y47400000D01*
X19600000Y47400000D02*
X19600000Y47800000D01*
X19600000Y44600000D02*
X22800000Y44600000D01*
X22800000Y47800000D02*
X19600000Y47800000D01*
X19600000Y53500000D02*
X19600000Y53100000D01*
X22800000Y53500000D02*
X22800000Y53100000D01*
X22800000Y56300000D02*
X22800000Y55900000D01*
X19600000Y55900000D02*
X19600000Y56300000D01*
X19600000Y53100000D02*
X22800000Y53100000D01*
X22800000Y56300000D02*
X19600000Y56300000D01*
X19600000Y62000000D02*
X19600000Y61600000D01*
X22800000Y62000000D02*
X22800000Y61600000D01*
X22800000Y64800000D02*
X22800000Y64400000D01*
X19600000Y64400000D02*
X19600000Y64800000D01*
X19600000Y61600000D02*
X22800000Y61600000D01*
X22800000Y64800000D02*
X19600000Y64800000D01*
X19600000Y70500000D02*
X19600000Y70100000D01*
X22800000Y70500000D02*
X22800000Y70100000D01*
X22800000Y73300000D02*
X22800000Y72900000D01*
X19600000Y72900000D02*
X19600000Y73300000D01*
X19600000Y70100000D02*
X22800000Y70100000D01*
X22800000Y73300000D02*
X19600000Y73300000D01*
X14300000Y4900000D02*
X14300000Y5300000D01*
X11100000Y4900000D02*
X11100000Y5300000D01*
X11100000Y2100000D02*
X11100000Y2500000D01*
X14300000Y2500000D02*
X14300000Y2100000D01*
X14300000Y5300000D02*
X11100000Y5300000D01*
X11100000Y2100000D02*
X14300000Y2100000D01*
X14300000Y13400000D02*
X14300000Y13800000D01*
X11100000Y13400000D02*
X11100000Y13800000D01*
X11100000Y10600000D02*
X11100000Y11000000D01*
X14300000Y11000000D02*
X14300000Y10600000D01*
X14300000Y13800000D02*
X11100000Y13800000D01*
X11100000Y10600000D02*
X14300000Y10600000D01*
X14300000Y21900000D02*
X14300000Y22300000D01*
X11100000Y21900000D02*
X11100000Y22300000D01*
X11100000Y19100000D02*
X11100000Y19500000D01*
X14300000Y19500000D02*
X14300000Y19100000D01*
X14300000Y22300000D02*
X11100000Y22300000D01*
X11100000Y19100000D02*
X14300000Y19100000D01*
X14300000Y30400000D02*
X14300000Y30800000D01*
X11100000Y30400000D02*
X11100000Y30800000D01*
X11100000Y27600000D02*
X11100000Y28000000D01*
X14300000Y28000000D02*
X14300000Y27600000D01*
X14300000Y30800000D02*
X11100000Y30800000D01*
X11100000Y27600000D02*
X14300000Y27600000D01*
X14300000Y38900000D02*
X14300000Y39300000D01*
X11100000Y38900000D02*
X11100000Y39300000D01*
X11100000Y36100000D02*
X11100000Y36500000D01*
X14300000Y36500000D02*
X14300000Y36100000D01*
X14300000Y39300000D02*
X11100000Y39300000D01*
X11100000Y36100000D02*
X14300000Y36100000D01*
X14300000Y47400000D02*
X14300000Y47800000D01*
X11100000Y47400000D02*
X11100000Y47800000D01*
X11100000Y44600000D02*
X11100000Y45000000D01*
X14300000Y45000000D02*
X14300000Y44600000D01*
X14300000Y47800000D02*
X11100000Y47800000D01*
X11100000Y44600000D02*
X14300000Y44600000D01*
X14300000Y55900000D02*
X14300000Y56300000D01*
X11100000Y55900000D02*
X11100000Y56300000D01*
X11100000Y53100000D02*
X11100000Y53500000D01*
X14300000Y53500000D02*
X14300000Y53100000D01*
X14300000Y56300000D02*
X11100000Y56300000D01*
X11100000Y53100000D02*
X14300000Y53100000D01*
X14300000Y64400000D02*
X14300000Y64800000D01*
X11100000Y64400000D02*
X11100000Y64800000D01*
X11100000Y61600000D02*
X11100000Y62000000D01*
X14300000Y62000000D02*
X14300000Y61600000D01*
X14300000Y64800000D02*
X11100000Y64800000D01*
X11100000Y61600000D02*
X14300000Y61600000D01*
X14300000Y72900000D02*
X14300000Y73300000D01*
X11100000Y72900000D02*
X11100000Y73300000D01*
X11100000Y70100000D02*
X11100000Y70500000D01*
X14300000Y70500000D02*
X14300000Y70100000D01*
X14300000Y73300000D02*
X11100000Y73300000D01*
X11100000Y70100000D02*
X14300000Y70100000D01*
X2600000Y2500000D02*
X2600000Y2100000D01*
X5800000Y2500000D02*
X5800000Y2100000D01*
X5800000Y5300000D02*
X5800000Y4900000D01*
X2600000Y4900000D02*
X2600000Y5300000D01*
X2600000Y2100000D02*
X5800000Y2100000D01*
X5800000Y5300000D02*
X2600000Y5300000D01*
X2600000Y11000000D02*
X2600000Y10600000D01*
X5800000Y11000000D02*
X5800000Y10600000D01*
X5800000Y13800000D02*
X5800000Y13400000D01*
X2600000Y13400000D02*
X2600000Y13800000D01*
X2600000Y10600000D02*
X5800000Y10600000D01*
X5800000Y13800000D02*
X2600000Y13800000D01*
X2600000Y19500000D02*
X2600000Y19100000D01*
X5800000Y19500000D02*
X5800000Y19100000D01*
X5800000Y22300000D02*
X5800000Y21900000D01*
X2600000Y21900000D02*
X2600000Y22300000D01*
X2600000Y19100000D02*
X5800000Y19100000D01*
X5800000Y22300000D02*
X2600000Y22300000D01*
X2600000Y28000000D02*
X2600000Y27600000D01*
X5800000Y28000000D02*
X5800000Y27600000D01*
X5800000Y30800000D02*
X5800000Y30400000D01*
X2600000Y30400000D02*
X2600000Y30800000D01*
X2600000Y27600000D02*
X5800000Y27600000D01*
X5800000Y30800000D02*
X2600000Y30800000D01*
X2600000Y36500000D02*
X2600000Y36100000D01*
X5800000Y36500000D02*
X5800000Y36100000D01*
X5800000Y39300000D02*
X5800000Y38900000D01*
X2600000Y38900000D02*
X2600000Y39300000D01*
X2600000Y36100000D02*
X5800000Y36100000D01*
X5800000Y39300000D02*
X2600000Y39300000D01*
X2600000Y45000000D02*
X2600000Y44600000D01*
X5800000Y45000000D02*
X5800000Y44600000D01*
X5800000Y47800000D02*
X5800000Y47400000D01*
X2600000Y47400000D02*
X2600000Y47800000D01*
X2600000Y44600000D02*
X5800000Y44600000D01*
X5800000Y47800000D02*
X2600000Y47800000D01*
X2600000Y53500000D02*
X2600000Y53100000D01*
X5800000Y53500000D02*
X5800000Y53100000D01*
X5800000Y56300000D02*
X5800000Y55900000D01*
X2600000Y55900000D02*
X2600000Y56300000D01*
X2600000Y53100000D02*
X5800000Y53100000D01*
X5800000Y56300000D02*
X2600000Y56300000D01*
X2600000Y62000000D02*
X2600000Y61600000D01*
X5800000Y62000000D02*
X5800000Y61600000D01*
X5800000Y64800000D02*
X5800000Y64400000D01*
X2600000Y64400000D02*
X2600000Y64800000D01*
X2600000Y61600000D02*
X5800000Y61600000D01*
X5800000Y64800000D02*
X2600000Y64800000D01*
X2600000Y70500000D02*
X2600000Y70100000D01*
X5800000Y70500000D02*
X5800000Y70100000D01*
X5800000Y73300000D02*
X5800000Y72900000D01*
X2600000Y72900000D02*
X2600000Y73300000D01*
X2600000Y70100000D02*
X5800000Y70100000D01*
X5800000Y73300000D02*
X2600000Y73300000D01*
X36600000Y45000000D02*
X36600000Y44600000D01*
X39800000Y45000000D02*
X39800000Y44600000D01*
X39800000Y47800000D02*
X39800000Y47400000D01*
X36600000Y47400000D02*
X36600000Y47800000D01*
X36600000Y44600000D02*
X39800000Y44600000D01*
X39800000Y47800000D02*
X36600000Y47800000D01*
X4963572Y7231429D02*
X4630238Y7231429D01*
X4630238Y6707619D02*
X4630238Y7707619D01*
X5106429Y7707619D01*
X5487381Y6707619D02*
X5487381Y7707619D01*
X5963571Y6707619D02*
X5963571Y7707619D01*
X6201666Y7707619D01*
X6344524Y7660000D01*
X6439762Y7564762D01*
X6487381Y7469524D01*
X6535000Y7279048D01*
X6535000Y7136190D01*
X6487381Y6945714D01*
X6439762Y6850476D01*
X6344524Y6755238D01*
X6201666Y6707619D01*
X5963571Y6707619D01*
X7487381Y6707619D02*
X6915952Y6707619D01*
X7201666Y6707619D02*
X7201666Y7707619D01*
X7106428Y7564762D01*
X7011190Y7469524D01*
X6915952Y7421905D01*
X132098572Y6351429D02*
X131765238Y6351429D01*
X131765238Y5827619D02*
X131765238Y6827619D01*
X132241429Y6827619D01*
X132622381Y5827619D02*
X132622381Y6827619D01*
X133098571Y5827619D02*
X133098571Y6827619D01*
X133336666Y6827619D01*
X133479524Y6780000D01*
X133574762Y6684762D01*
X133622381Y6589524D01*
X133670000Y6399048D01*
X133670000Y6256190D01*
X133622381Y6065714D01*
X133574762Y5970476D01*
X133479524Y5875238D01*
X133336666Y5827619D01*
X133098571Y5827619D01*
X134050952Y6732381D02*
X134098571Y6780000D01*
X134193809Y6827619D01*
X134431905Y6827619D01*
X134527143Y6780000D01*
X134574762Y6732381D01*
X134622381Y6637143D01*
X134622381Y6541905D01*
X134574762Y6399048D01*
X134003333Y5827619D01*
X134622381Y5827619D01*
X132008572Y65891429D02*
X131675238Y65891429D01*
X131675238Y65367619D02*
X131675238Y66367619D01*
X132151429Y66367619D01*
X132532381Y65367619D02*
X132532381Y66367619D01*
X133008571Y65367619D02*
X133008571Y66367619D01*
X133246666Y66367619D01*
X133389524Y66320000D01*
X133484762Y66224762D01*
X133532381Y66129524D01*
X133580000Y65939048D01*
X133580000Y65796190D01*
X133532381Y65605714D01*
X133484762Y65510476D01*
X133389524Y65415238D01*
X133246666Y65367619D01*
X133008571Y65367619D01*
X133913333Y66367619D02*
X134532381Y66367619D01*
X134199047Y65986667D01*
X134341905Y65986667D01*
X134437143Y65939048D01*
X134484762Y65891429D01*
X134532381Y65796190D01*
X134532381Y65558095D01*
X134484762Y65462857D01*
X134437143Y65415238D01*
X134341905Y65367619D01*
X134056190Y65367619D01*
X133960952Y65415238D01*
X133913333Y65462857D01*
X4709572Y67302429D02*
X4376238Y67302429D01*
X4376238Y66778619D02*
X4376238Y67778619D01*
X4852429Y67778619D01*
X5233381Y66778619D02*
X5233381Y67778619D01*
X5709571Y66778619D02*
X5709571Y67778619D01*
X5947666Y67778619D01*
X6090524Y67731000D01*
X6185762Y67635762D01*
X6233381Y67540524D01*
X6281000Y67350048D01*
X6281000Y67207190D01*
X6233381Y67016714D01*
X6185762Y66921476D01*
X6090524Y66826238D01*
X5947666Y66778619D01*
X5709571Y66778619D01*
X7138143Y67445286D02*
X7138143Y66778619D01*
X6900047Y67826238D02*
X6661952Y67111952D01*
X7281000Y67111952D01*
X4963572Y7231429D02*
X4630238Y7231429D01*
X4630238Y6707619D02*
X4630238Y7707619D01*
X5106429Y7707619D01*
X5487381Y6707619D02*
X5487381Y7707619D01*
X5963571Y6707619D02*
X5963571Y7707619D01*
X6201666Y7707619D01*
X6344524Y7660000D01*
X6439762Y7564762D01*
X6487381Y7469524D01*
X6535000Y7279048D01*
X6535000Y7136190D01*
X6487381Y6945714D01*
X6439762Y6850476D01*
X6344524Y6755238D01*
X6201666Y6707619D01*
X5963571Y6707619D01*
X7439762Y7707619D02*
X6963571Y7707619D01*
X6915952Y7231429D01*
X6963571Y7279048D01*
X7058809Y7326667D01*
X7296905Y7326667D01*
X7392143Y7279048D01*
X7439762Y7231429D01*
X7487381Y7136190D01*
X7487381Y6898095D01*
X7439762Y6802857D01*
X7392143Y6755238D01*
X7296905Y6707619D01*
X7058809Y6707619D01*
X6963571Y6755238D01*
X6915952Y6802857D01*
X132088572Y9751429D02*
X131755238Y9751429D01*
X131755238Y9227619D02*
X131755238Y10227619D01*
X132231429Y10227619D01*
X132612381Y9227619D02*
X132612381Y10227619D01*
X133088571Y9227619D02*
X133088571Y10227619D01*
X133326666Y10227619D01*
X133469524Y10180000D01*
X133564762Y10084762D01*
X133612381Y9989524D01*
X133660000Y9799048D01*
X133660000Y9656190D01*
X133612381Y9465714D01*
X133564762Y9370476D01*
X133469524Y9275238D01*
X133326666Y9227619D01*
X133088571Y9227619D01*
X134517143Y10227619D02*
X134326666Y10227619D01*
X134231428Y10180000D01*
X134183809Y10132381D01*
X134088571Y9989524D01*
X134040952Y9799048D01*
X134040952Y9418095D01*
X134088571Y9322857D01*
X134136190Y9275238D01*
X134231428Y9227619D01*
X134421905Y9227619D01*
X134517143Y9275238D01*
X134564762Y9322857D01*
X134612381Y9418095D01*
X134612381Y9656190D01*
X134564762Y9751429D01*
X134517143Y9799048D01*
X134421905Y9846667D01*
X134231428Y9846667D01*
X134136190Y9799048D01*
X134088571Y9751429D01*
X134040952Y9656190D01*
X132388572Y69861429D02*
X132055238Y69861429D01*
X132055238Y69337619D02*
X132055238Y70337619D01*
X132531429Y70337619D01*
X132912381Y69337619D02*
X132912381Y70337619D01*
X133388571Y69337619D02*
X133388571Y70337619D01*
X133626666Y70337619D01*
X133769524Y70290000D01*
X133864762Y70194762D01*
X133912381Y70099524D01*
X133960000Y69909048D01*
X133960000Y69766190D01*
X133912381Y69575714D01*
X133864762Y69480476D01*
X133769524Y69385238D01*
X133626666Y69337619D01*
X133388571Y69337619D01*
X134293333Y70337619D02*
X134960000Y70337619D01*
X134531428Y69337619D01*
X4709572Y67302429D02*
X4376238Y67302429D01*
X4376238Y66778619D02*
X4376238Y67778619D01*
X4852429Y67778619D01*
X5233381Y66778619D02*
X5233381Y67778619D01*
X5709571Y66778619D02*
X5709571Y67778619D01*
X5947666Y67778619D01*
X6090524Y67731000D01*
X6185762Y67635762D01*
X6233381Y67540524D01*
X6281000Y67350048D01*
X6281000Y67207190D01*
X6233381Y67016714D01*
X6185762Y66921476D01*
X6090524Y66826238D01*
X5947666Y66778619D01*
X5709571Y66778619D01*
X6852428Y67350048D02*
X6757190Y67397667D01*
X6709571Y67445286D01*
X6661952Y67540524D01*
X6661952Y67588143D01*
X6709571Y67683381D01*
X6757190Y67731000D01*
X6852428Y67778619D01*
X7042905Y67778619D01*
X7138143Y67731000D01*
X7185762Y67683381D01*
X7233381Y67588143D01*
X7233381Y67540524D01*
X7185762Y67445286D01*
X7138143Y67397667D01*
X7042905Y67350048D01*
X6852428Y67350048D01*
X6757190Y67302429D01*
X6709571Y67254810D01*
X6661952Y67159571D01*
X6661952Y66969095D01*
X6709571Y66873857D01*
X6757190Y66826238D01*
X6852428Y66778619D01*
X7042905Y66778619D01*
X7138143Y66826238D01*
X7185762Y66873857D01*
X7233381Y66969095D01*
X7233381Y67159571D01*
X7185762Y67254810D01*
X7138143Y67302429D01*
X7042905Y67350048D01*
M02*
