M48
;DRILL file {KiCad 4.0.7-e1-6374~58~ubuntu16.04.1} date Thu Aug 31 17:04:54 2017
;FORMAT={-:-/ absolute / metric / decimal}
FMAT,2
METRIC,TZ
T1C0.400
T2C1.100
T3C1.200
%
G90
G05
M71
T1
X1.225Y71.7
X1.225Y46.2
X1.225Y37.7
X1.225Y29.2
X1.225Y20.7
X1.225Y12.2
X1.225Y3.7
X1.238Y63.232
X1.238Y54.723
X14.192Y69.201
X15.675Y71.7
X15.675Y63.2
X15.675Y46.2
X15.675Y37.7
X15.675Y29.2
X15.675Y20.7
X15.675Y12.2
X15.675Y3.7
X16.478Y61.073
X18.225Y71.7
X18.225Y63.2
X18.225Y46.2
X18.225Y37.7
X18.225Y29.2
X18.225Y20.7
X18.225Y12.2
X18.225Y3.7
X18.256Y54.723
X18.764Y69.201
X19.907Y59.549
X20.288Y60.819
X28.543Y67.169
X28.543Y57.517
X28.67Y26.783
X29.178Y69.328
X29.305Y68.058
X29.432Y60.565
X29.432Y58.152
X29.749Y27.037
X30.067Y24.497
X30.321Y59.93
X30.448Y69.328
X30.448Y43.801
X30.448Y35.292
X30.448Y31.736
X30.55Y7.95
X30.575Y6.082
X30.956Y66.407
X32.203Y60.185
X33.1Y17.3
X33.1Y16.45
X33.1Y15.6
X33.95Y17.3
X33.95Y16.45
X33.95Y15.6
X34.8Y17.3
X34.8Y16.45
X34.8Y15.6
X35.963Y26.061
X37.35Y24.95
X37.56Y69.328
X37.56Y52.31
X37.56Y43.801
X37.56Y35.292
X37.56Y31.736
X38.592Y24.206
X38.892Y66.416
X39.03Y25.121
X39.655Y6.082
X39.846Y7.923
X41.497Y65.518
X42.132Y61.708
X42.894Y66.153
X43.21Y58.074
X45.243Y6.78
X46.208Y58.722
X47.466Y6.59
X48.903Y59.99
X49.675Y71.7
X49.675Y63.2
X49.675Y54.7
X49.675Y46.2
X49.675Y29.2
X49.675Y20.7
X49.675Y12.2
X50.568Y67.425
X50.895Y6.209
X51.03Y36.919
X51.104Y57.222
X51.911Y22.909
X52.225Y71.7
X52.225Y63.2
X52.225Y54.7
X52.225Y46.2
X52.225Y37.7
X52.225Y29.2
X52.225Y20.7
X52.61Y57.369
X52.673Y9.003
X52.673Y6.209
X52.748Y68.066
X53.054Y24.243
X53.435Y25.132
X53.447Y56.79
X53.924Y66.005
X54.197Y26.084
X54.197Y5.955
X56.885Y65.415
X58.029Y66.27
X58.32Y69.776
X58.996Y61.949
X61.563Y66.253
X61.69Y6.336
X64.484Y31.799
X64.547Y18.21
X64.55Y67.45
X64.55Y50.45
X64.558Y68.389
X64.611Y69.328
X65.309Y25.195
X65.309Y23.481
X65.309Y7.098
X65.563Y26.465
X66.675Y46.2
X66.675Y37.7
X66.675Y12.2
X66.675Y3.7
X67.1Y59.8
X67.1Y58.95
X67.1Y58.1
X67.95Y59.8
X67.95Y58.95
X67.95Y58.1
X68.704Y69.402
X68.8Y59.8
X68.8Y58.95
X68.8Y58.1
X69.225Y46.2
X69.225Y37.7
X70.326Y26.402
X71.342Y69.328
X71.35Y67.45
X71.35Y50.45
X72.421Y17.385
X73.755Y26.656
X73.755Y23.227
X73.882Y14.718
X73.882Y6.209
X77.444Y68.389
X79.089Y26.656
X79.089Y23.227
X79.089Y14.718
X79.089Y6.209
X83.675Y71.7
X83.675Y63.2
X83.675Y54.7
X83.675Y46.2
X83.675Y37.7
X84.791Y53.14
X85.185Y40.245
X86.178Y67.113
X86.225Y71.7
X86.225Y63.2
X86.225Y54.7
X86.225Y46.2
X86.225Y37.7
X86.225Y29.2
X86.225Y20.7
X86.225Y12.2
X86.225Y3.7
X87.227Y23.989
X87.878Y25.642
X88.487Y26.72
X90.178Y24.079
X94.708Y21.995
X96.343Y68.932
X96.854Y24.807
X97.309Y25.642
X98.393Y69.328
X98.55Y41.95
X98.55Y24.95
X98.713Y17.911
X99.496Y43.568
X100.675Y63.2
X100.675Y54.7
X100.675Y46.2
X100.675Y20.7
X100.675Y12.2
X100.675Y3.7
X100.679Y68.058
X100.679Y60.565
X100.679Y57.644
X100.679Y49.516
X101.1Y34.3
X101.1Y33.45
X101.1Y32.6
X101.95Y34.3
X101.95Y33.45
X101.95Y32.6
X102.8Y34.3
X102.8Y33.45
X102.8Y32.6
X103.225Y20.7
X103.225Y12.2
X103.225Y3.7
X105.35Y24.95
X105.46Y68.766
X107.618Y17.911
X107.81Y26.63
X107.923Y16.765
X109.27Y26.29
X111.022Y24.029
X111.104Y15.969
X117.675Y71.7
X117.675Y63.2
X117.675Y54.7
X117.675Y46.2
X117.675Y29.2
X117.675Y20.7
X117.675Y12.2
X117.675Y3.7
X117.697Y37.705
X120.225Y71.7
X120.225Y63.2
X120.225Y54.7
X120.225Y46.2
X120.225Y37.7
X120.225Y20.7
X120.225Y12.2
X120.225Y3.7
X120.237Y29.196
X121.287Y16.414
X134.675Y71.7
X134.675Y63.2
X134.675Y54.7
X134.675Y46.2
X134.675Y37.7
X134.675Y29.2
X134.675Y20.7
X134.675Y12.2
X134.675Y3.7
T2
X68.83Y35.51
X68.83Y32.97
X68.83Y30.43
X68.83Y27.89
X68.83Y25.35
X68.83Y22.81
X68.83Y20.27
X68.83Y17.73
X68.83Y15.19
X68.83Y12.65
X68.83Y10.11
X68.83Y7.57
X68.83Y5.03
X68.83Y2.49
X84.07Y35.51
X84.07Y32.97
X84.07Y30.43
X84.07Y27.89
X84.07Y25.35
X84.07Y22.81
X84.07Y20.27
X84.07Y17.73
X84.07Y15.19
X84.07Y12.65
X84.07Y10.11
X84.07Y7.57
X84.07Y5.03
X84.07Y2.49
T3
X49.705Y16.45
X52.245Y16.45
X54.785Y16.45
X57.325Y16.45
T0
M30
