M48
;DRILL file {KiCad 4.0.7-e1-6374~58~ubuntu16.04.1} date Wed Aug 30 15:11:13 2017
;FORMAT={-:-/ absolute / metric / decimal}
FMAT,2
METRIC,TZ
T1C0.400
T2C1.100
T3C1.200
%
G90
G05
M71
T1
X1.225Y71.7
X1.225Y63.2
X1.225Y54.7
X1.225Y46.2
X1.225Y37.7
X1.225Y29.2
X1.225Y20.7
X1.225Y12.2
X1.225Y3.7
X15.675Y71.7
X15.675Y63.2
X15.675Y54.7
X15.675Y46.2
X15.675Y37.7
X15.675Y29.2
X15.675Y20.7
X15.675Y12.2
X15.675Y3.7
X18.225Y71.7
X18.225Y63.2
X18.225Y54.7
X18.225Y46.2
X18.225Y37.7
X18.225Y29.2
X18.225Y20.7
X18.225Y12.2
X18.225Y3.7
X23.669Y59.3
X28.403Y24.723
X29.127Y26.274
X29.92Y25.634
X30.448Y69.328
X30.448Y60.819
X30.448Y52.31
X30.448Y43.801
X30.448Y35.292
X30.448Y31.736
X30.55Y24.95
X30.55Y7.95
X30.575Y6.082
X30.726Y66.637
X31.543Y66.42
X33.1Y17.3
X33.1Y16.45
X33.1Y15.6
X33.95Y17.3
X33.95Y16.45
X33.95Y15.6
X34.8Y17.3
X34.8Y16.45
X34.8Y15.6
X36.861Y50.584
X37.35Y24.95
X37.35Y7.95
X37.433Y6.082
X37.56Y69.328
X37.56Y60.819
X37.56Y52.31
X37.56Y43.801
X37.56Y35.292
X37.56Y31.736
X38.283Y59.3
X39.044Y26.95
X39.482Y24.087
X39.577Y24.948
X39.644Y9.653
X43.83Y9.657
X45.325Y57.233
X47.466Y6.59
X47.728Y65.717
X49.675Y71.7
X49.675Y63.2
X49.675Y54.7
X49.675Y46.2
X49.675Y37.7
X49.675Y29.2
X49.675Y20.7
X49.675Y12.2
X50.518Y68.629
X51.03Y36.919
X51.197Y67.338
X51.225Y66.376
X51.403Y8.241
X52.225Y71.7
X52.225Y63.2
X52.225Y54.7
X52.225Y46.2
X52.225Y37.7
X52.225Y29.2
X52.225Y20.7
X52.225Y12.2
X57.066Y51.85
X57.189Y58.545
X57.749Y66.473
X58.592Y52.52
X59.727Y51.647
X59.864Y58.566
X60.255Y65.276
X60.378Y56.751
X62.466Y65.455
X63.534Y24.087
X64.55Y67.45
X64.55Y50.45
X64.611Y69.328
X65.406Y26.274
X66.675Y46.2
X66.675Y37.7
X66.675Y29.2
X66.675Y20.7
X66.675Y12.2
X66.675Y3.7
X67.001Y25.919
X67.1Y59.8
X67.1Y58.95
X67.1Y58.1
X67.95Y59.8
X67.95Y58.95
X67.95Y58.1
X68.735Y69.383
X68.8Y59.8
X68.8Y58.95
X68.8Y58.1
X69.225Y46.2
X69.225Y37.7
X71.342Y69.328
X71.35Y67.45
X71.35Y50.45
X71.35Y26.65
X71.35Y23.25
X71.35Y14.75
X71.35Y6.25
X72.582Y26.299
X75.338Y18.664
X81.55Y26.65
X81.55Y23.25
X81.55Y14.75
X81.55Y6.25
X83.675Y71.7
X83.675Y63.2
X83.675Y54.7
X83.675Y46.2
X83.675Y37.7
X86.225Y71.7
X86.225Y63.2
X86.225Y54.7
X86.225Y46.2
X86.225Y37.7
X86.225Y29.2
X86.225Y20.7
X86.225Y12.2
X86.225Y3.7
X86.658Y24.345
X86.674Y5.07
X87.486Y25.483
X90.637Y26.016
X97.82Y26.016
X98.393Y69.328
X98.55Y41.95
X98.55Y24.95
X100.675Y63.2
X100.675Y54.7
X100.675Y46.2
X100.675Y20.7
X100.675Y12.2
X100.675Y3.7
X100.679Y68.058
X100.679Y60.565
X100.679Y57.644
X100.679Y49.516
X101.1Y34.3
X101.1Y33.45
X101.1Y32.6
X101.95Y34.3
X101.95Y33.45
X101.95Y32.6
X101.986Y24.088
X102.176Y19.809
X102.8Y34.3
X102.8Y33.45
X102.8Y32.6
X103.225Y20.7
X103.225Y12.2
X103.225Y3.7
X105.35Y41.95
X105.35Y24.95
X105.911Y16.551
X106.667Y15.237
X107.293Y23.463
X111.318Y9.338
X117.675Y71.7
X117.675Y63.2
X117.675Y54.7
X117.675Y46.2
X117.675Y29.2
X117.675Y20.7
X117.675Y12.2
X117.675Y3.7
X117.697Y37.705
X120.225Y71.7
X120.225Y63.2
X120.225Y54.7
X120.225Y46.2
X120.225Y37.7
X120.225Y20.7
X120.225Y12.2
X120.225Y3.7
X120.237Y29.196
X134.675Y71.7
X134.675Y63.2
X134.675Y54.7
X134.675Y46.2
X134.675Y37.7
X134.675Y29.2
X134.675Y20.7
X134.675Y12.2
X134.675Y3.7
T2
X68.83Y35.51
X68.83Y32.97
X68.83Y30.43
X68.83Y27.89
X68.83Y25.35
X68.83Y22.81
X68.83Y20.27
X68.83Y17.73
X68.83Y15.19
X68.83Y12.65
X68.83Y10.11
X68.83Y7.57
X68.83Y5.03
X68.83Y2.49
X84.07Y35.51
X84.07Y32.97
X84.07Y30.43
X84.07Y27.89
X84.07Y25.35
X84.07Y22.81
X84.07Y20.27
X84.07Y17.73
X84.07Y15.19
X84.07Y12.65
X84.07Y10.11
X84.07Y7.57
X84.07Y5.03
X84.07Y2.49
T3
X49.705Y16.45
X52.245Y16.45
X54.785Y16.45
X57.325Y16.45
T0
M30
