G04 #@! TF.FileFunction,Copper,L2,Bot,Signal*
%FSLAX46Y46*%
G04 Gerber Fmt 4.6, Leading zero omitted, Abs format (unit mm)*
G04 Created by KiCad (PCBNEW 4.0.7-e1-6374~58~ubuntu16.04.1) date Thu Aug 31 17:04:50 2017*
%MOMM*%
%LPD*%
G01*
G04 APERTURE LIST*
%ADD10C,0.100000*%
%ADD11C,0.700000*%
%ADD12C,1.600000*%
%ADD13R,1.600000X1.600000*%
%ADD14R,2.000000X2.600000*%
%ADD15O,2.000000X2.600000*%
%ADD16R,1.676400X0.304800*%
%ADD17R,3.610000X4.700001*%
%ADD18R,1.200000X0.750000*%
%ADD19R,0.750000X1.200000*%
%ADD20C,1.000000*%
%ADD21R,1.450000X0.450000*%
%ADD22R,3.000000X4.200000*%
%ADD23R,0.406400X1.270000*%
%ADD24R,1.560000X0.650000*%
%ADD25C,0.600000*%
%ADD26C,0.250000*%
%ADD27C,0.254000*%
G04 APERTURE END LIST*
D10*
D11*
X134142857Y15575476D02*
X134142857Y18242143D01*
X134142857Y17861190D02*
X133952381Y18051667D01*
X133571428Y18242143D01*
X133000000Y18242143D01*
X132619048Y18051667D01*
X132428571Y17670714D01*
X132428571Y15575476D01*
X132428571Y17670714D02*
X132238095Y18051667D01*
X131857143Y18242143D01*
X131285714Y18242143D01*
X130904762Y18051667D01*
X130714286Y17670714D01*
X130714286Y15575476D01*
X127095238Y15575476D02*
X127095238Y17670714D01*
X127285715Y18051667D01*
X127666667Y18242143D01*
X128428572Y18242143D01*
X128809524Y18051667D01*
X127095238Y15765952D02*
X127476191Y15575476D01*
X128428572Y15575476D01*
X128809524Y15765952D01*
X129000000Y16146905D01*
X129000000Y16527857D01*
X128809524Y16908810D01*
X128428572Y17099286D01*
X127476191Y17099286D01*
X127095238Y17289762D01*
X125571428Y15575476D02*
X123476190Y18242143D01*
X125571428Y18242143D02*
X123476190Y15575476D01*
X132682523Y24846143D02*
X132682523Y22179476D01*
X133634904Y26369952D02*
X134587285Y23512810D01*
X132111095Y23512810D01*
X130587285Y22560429D02*
X130396809Y22369952D01*
X130587285Y22179476D01*
X130777761Y22369952D01*
X130587285Y22560429D01*
X130587285Y22179476D01*
X126777761Y26179476D02*
X128682523Y26179476D01*
X128872999Y24274714D01*
X128682523Y24465190D01*
X128301571Y24655667D01*
X127349190Y24655667D01*
X126968237Y24465190D01*
X126777761Y24274714D01*
X126587285Y23893762D01*
X126587285Y22941381D01*
X126777761Y22560429D01*
X126968237Y22369952D01*
X127349190Y22179476D01*
X128301571Y22179476D01*
X128682523Y22369952D01*
X128872999Y22560429D01*
X125063475Y23322333D02*
X123158713Y23322333D01*
X125444428Y22179476D02*
X124111094Y26179476D01*
X122777761Y22179476D01*
D10*
X-50000Y-50000D02*
X-50000Y75950000D01*
X135950000Y-50000D02*
X-50000Y-50000D01*
X135950000Y75950000D02*
X135950000Y-50000D01*
X-50000Y75950000D02*
X135950000Y75950000D01*
D12*
X68830000Y2490000D03*
X84070000Y2490000D03*
X68830000Y5030000D03*
X68830000Y7570000D03*
X68830000Y10110000D03*
X68830000Y12650000D03*
X68830000Y15190000D03*
X68830000Y17730000D03*
X68830000Y20270000D03*
X68830000Y22810000D03*
X68830000Y25350000D03*
X68830000Y27890000D03*
X68830000Y30430000D03*
X68830000Y32970000D03*
X68830000Y35510000D03*
X84070000Y5030000D03*
X84070000Y7570000D03*
X84070000Y10110000D03*
X84070000Y12650000D03*
X84070000Y15190000D03*
X84070000Y17730000D03*
X84070000Y20270000D03*
X84070000Y22810000D03*
X84070000Y25350000D03*
X84070000Y27890000D03*
X84070000Y30430000D03*
X84070000Y32970000D03*
D13*
X84070000Y35510000D03*
D14*
X57325000Y16450000D03*
D15*
X54785000Y16450000D03*
X52245000Y16450000D03*
X49705000Y16450000D03*
D16*
X37620300Y23199986D03*
X37620300Y22699988D03*
X37620300Y22199988D03*
X37620300Y21699990D03*
X37620300Y21199990D03*
X37620300Y20699991D03*
X37620300Y20199992D03*
X37620300Y19699994D03*
X37620300Y19199994D03*
X37620300Y18699996D03*
X37620300Y18199996D03*
X37620300Y17699997D03*
X37620300Y17199998D03*
X37620300Y16700000D03*
X37620300Y16200000D03*
X37620300Y15700002D03*
X37620300Y15200003D03*
X37620300Y14700004D03*
X37620300Y14200004D03*
X37620300Y13700006D03*
X37620300Y13200006D03*
X37620300Y12700008D03*
X37620300Y12200009D03*
X37620300Y11700010D03*
X37620300Y11200010D03*
X37620300Y10700012D03*
X37620300Y10200012D03*
X37620300Y9700014D03*
X30279700Y9700014D03*
X30279700Y10200012D03*
X30279700Y10700012D03*
X30279700Y11200010D03*
X30279700Y11700010D03*
X30279700Y12200009D03*
X30279700Y12700008D03*
X30279700Y13200006D03*
X30279700Y13700006D03*
X30279700Y14200004D03*
X30279700Y14700004D03*
X30279700Y15200003D03*
X30279700Y15700002D03*
X30279700Y16200000D03*
X30279700Y16700000D03*
X30279700Y17199998D03*
X30279700Y17699997D03*
X30279700Y18199996D03*
X30279700Y18699996D03*
X30279700Y19199994D03*
X30279700Y19699994D03*
X30279700Y20199992D03*
X30279700Y20699991D03*
X30279700Y21199990D03*
X30279700Y21699990D03*
X30279700Y22199988D03*
X30279700Y22699988D03*
X30279700Y23199986D03*
D17*
X33950000Y16450000D03*
D16*
X98279700Y26700014D03*
X98279700Y27200012D03*
X98279700Y27700012D03*
X98279700Y28200010D03*
X98279700Y28700010D03*
X98279700Y29200009D03*
X98279700Y29700008D03*
X98279700Y30200006D03*
X98279700Y30700006D03*
X98279700Y31200004D03*
X98279700Y31700004D03*
X98279700Y32200003D03*
X98279700Y32700002D03*
X98279700Y33200000D03*
X98279700Y33700000D03*
X98279700Y34199998D03*
X98279700Y34699997D03*
X98279700Y35199996D03*
X98279700Y35699996D03*
X98279700Y36199994D03*
X98279700Y36699994D03*
X98279700Y37199992D03*
X98279700Y37699991D03*
X98279700Y38199990D03*
X98279700Y38699990D03*
X98279700Y39199988D03*
X98279700Y39699988D03*
X98279700Y40199986D03*
X105620300Y40199986D03*
X105620300Y39699988D03*
X105620300Y39199988D03*
X105620300Y38699990D03*
X105620300Y38199990D03*
X105620300Y37699991D03*
X105620300Y37199992D03*
X105620300Y36699994D03*
X105620300Y36199994D03*
X105620300Y35699996D03*
X105620300Y35199996D03*
X105620300Y34699997D03*
X105620300Y34199998D03*
X105620300Y33700000D03*
X105620300Y33200000D03*
X105620300Y32700002D03*
X105620300Y32200003D03*
X105620300Y31700004D03*
X105620300Y31200004D03*
X105620300Y30700006D03*
X105620300Y30200006D03*
X105620300Y29700008D03*
X105620300Y29200009D03*
X105620300Y28700010D03*
X105620300Y28200010D03*
X105620300Y27700012D03*
X105620300Y27200012D03*
X105620300Y26700014D03*
D17*
X101950000Y33450000D03*
D18*
X63275000Y16369000D03*
X61375000Y16369000D03*
D19*
X54578000Y8561000D03*
X54578000Y10461000D03*
D16*
X71620300Y65699986D03*
X71620300Y65199988D03*
X71620300Y64699988D03*
X71620300Y64199990D03*
X71620300Y63699990D03*
X71620300Y63199991D03*
X71620300Y62699992D03*
X71620300Y62199994D03*
X71620300Y61699994D03*
X71620300Y61199996D03*
X71620300Y60699996D03*
X71620300Y60199997D03*
X71620300Y59699998D03*
X71620300Y59200000D03*
X71620300Y58700000D03*
X71620300Y58200002D03*
X71620300Y57700003D03*
X71620300Y57200004D03*
X71620300Y56700004D03*
X71620300Y56200006D03*
X71620300Y55700006D03*
X71620300Y55200008D03*
X71620300Y54700009D03*
X71620300Y54200010D03*
X71620300Y53700010D03*
X71620300Y53200012D03*
X71620300Y52700012D03*
X71620300Y52200014D03*
X64279700Y52200014D03*
X64279700Y52700012D03*
X64279700Y53200012D03*
X64279700Y53700010D03*
X64279700Y54200010D03*
X64279700Y54700009D03*
X64279700Y55200008D03*
X64279700Y55700006D03*
X64279700Y56200006D03*
X64279700Y56700004D03*
X64279700Y57200004D03*
X64279700Y57700003D03*
X64279700Y58200002D03*
X64279700Y58700000D03*
X64279700Y59200000D03*
X64279700Y59699998D03*
X64279700Y60199997D03*
X64279700Y60699996D03*
X64279700Y61199996D03*
X64279700Y61699994D03*
X64279700Y62199994D03*
X64279700Y62699992D03*
X64279700Y63199991D03*
X64279700Y63699990D03*
X64279700Y64199990D03*
X64279700Y64699988D03*
X64279700Y65199988D03*
X64279700Y65699986D03*
D17*
X67950000Y58950000D03*
D18*
X109122000Y25005000D03*
X107222000Y25005000D03*
X64418000Y71233000D03*
X62518000Y71233000D03*
D19*
X31591000Y26087000D03*
X31591000Y27987000D03*
D20*
X2635000Y7860000D03*
X133191000Y8114000D03*
X133318000Y67677000D03*
X2381000Y67931000D03*
D18*
X5114000Y51167000D03*
X7014000Y51167000D03*
X9559000Y51167000D03*
X11459000Y51167000D03*
X13623000Y51167000D03*
X15523000Y51167000D03*
X17687000Y51294000D03*
X19587000Y51294000D03*
X5114000Y49008000D03*
X7014000Y49008000D03*
X9559000Y48881000D03*
X11459000Y48881000D03*
X13623000Y48881000D03*
X15523000Y48881000D03*
X17687000Y48881000D03*
X19587000Y48881000D03*
D21*
X6289000Y20175000D03*
X6289000Y20825000D03*
X6289000Y21475000D03*
X6289000Y22125000D03*
X6289000Y22775000D03*
X6289000Y23425000D03*
X6289000Y24075000D03*
X6289000Y24725000D03*
X6289000Y25375000D03*
X6289000Y26025000D03*
X12189000Y26025000D03*
X12189000Y25375000D03*
X12189000Y24725000D03*
X12189000Y24075000D03*
X12189000Y23425000D03*
X12189000Y22775000D03*
X12189000Y22125000D03*
X12189000Y21475000D03*
X12189000Y20825000D03*
X12189000Y20175000D03*
D22*
X9239000Y23100000D03*
D23*
X123793000Y42150000D03*
X124428000Y42150000D03*
X125088400Y42150000D03*
X125748800Y42150000D03*
X126383800Y42150000D03*
X127044200Y42150000D03*
X127704600Y42150000D03*
X128339600Y42150000D03*
X129000000Y42150000D03*
X129635000Y42150000D03*
X129635000Y36816000D03*
X129000000Y36816000D03*
X128339600Y36816000D03*
X127704600Y36816000D03*
X127044200Y36816000D03*
X126383800Y36816000D03*
X125748800Y36816000D03*
X125088400Y36816000D03*
X124428000Y36816000D03*
X123793000Y36816000D03*
D24*
X6492000Y32437000D03*
X6492000Y33387000D03*
X6492000Y34337000D03*
X9192000Y34337000D03*
X9192000Y32437000D03*
X9192000Y33387000D03*
D25*
X85185000Y40245000D03*
X105460500Y68766300D03*
X96342500Y68932400D03*
X86177800Y67113100D03*
X84791000Y53140500D03*
X101950000Y33450000D03*
X101100000Y33450000D03*
X101950000Y34300000D03*
X101100000Y34300000D03*
X101950000Y32600000D03*
X101100000Y32600000D03*
X102800000Y32600000D03*
X102800000Y33450000D03*
X102800000Y34300000D03*
X67950000Y58100000D03*
X68800000Y58100000D03*
X67100000Y58100000D03*
X67100000Y58950000D03*
X67950000Y58950000D03*
X67950000Y59800000D03*
X67100000Y59800000D03*
X68800000Y59800000D03*
X68800000Y58950000D03*
X33950000Y17300000D03*
X34800000Y17300000D03*
X33100000Y17300000D03*
X34800000Y15600000D03*
X33100000Y15600000D03*
X33950000Y16450000D03*
X33950000Y15600000D03*
X33100000Y16450000D03*
X34800000Y16450000D03*
X87227000Y23989400D03*
X109270000Y26290000D03*
X54197000Y26084500D03*
X29749500Y27037000D03*
X70326000Y26402000D03*
X88487000Y26719500D03*
X64558000Y68389000D03*
X77443500Y68389000D03*
X61563300Y66253000D03*
X50568300Y67425500D03*
X1225000Y71700000D03*
X29178000Y69328000D03*
X18764000Y69201000D03*
X14192000Y69201000D03*
X1238000Y63232000D03*
X28543000Y67169000D03*
X42894000Y66153000D03*
X29432000Y60565000D03*
X20288000Y60819000D03*
X16478000Y61073000D03*
X1238000Y54723000D03*
X43210300Y58074400D03*
X1225000Y46200000D03*
X1225000Y37700000D03*
X1225000Y29200000D03*
X1225000Y20700000D03*
X1225000Y12200000D03*
X1225000Y3700000D03*
X53924000Y66004800D03*
X15675000Y71700000D03*
X29305000Y68058000D03*
X38891600Y66415900D03*
X30956000Y66407000D03*
X15675000Y63200000D03*
X51104100Y57221900D03*
X19907000Y59549000D03*
X29432000Y58152000D03*
X15675000Y46200000D03*
X15675000Y37700000D03*
X15675000Y29200000D03*
X15675000Y20700000D03*
X15675000Y12200000D03*
X15675000Y3700000D03*
X58996500Y61948700D03*
X32203200Y60184800D03*
X18225000Y71700000D03*
X30321000Y59930000D03*
X18225000Y63200000D03*
X46207900Y58721800D03*
X52610300Y57369000D03*
X18256000Y54723000D03*
X28543000Y57517000D03*
X18225000Y46200000D03*
X18225000Y37700000D03*
X18225000Y29200000D03*
X18225000Y20700000D03*
X18225000Y12200000D03*
X18225000Y3700000D03*
X30448000Y69328000D03*
X52747600Y68065600D03*
X48902600Y59990200D03*
X53447500Y56790300D03*
X30448000Y43801000D03*
X30448000Y35292000D03*
X30448000Y31736000D03*
X28670000Y26783000D03*
X30550000Y7950000D03*
X30575000Y6082000D03*
X37560000Y69328000D03*
X42132000Y61708000D03*
X37560000Y52310000D03*
X37560000Y43801000D03*
X37560000Y35292000D03*
X37560000Y31736000D03*
X37350000Y24950000D03*
X39846000Y7923500D03*
X39655500Y6082000D03*
X49675000Y71700000D03*
X49675000Y63200000D03*
X49675000Y54700000D03*
X49675000Y46200000D03*
X51030300Y36918600D03*
X49675000Y29200000D03*
X49675000Y20700000D03*
X49675000Y12200000D03*
X47466000Y6590000D03*
X52225000Y71700000D03*
X52225000Y63200000D03*
X52225000Y54700000D03*
X52225000Y46200000D03*
X52225000Y37700000D03*
X52225000Y29200000D03*
X52225000Y20700000D03*
X52673000Y9003000D03*
X50895000Y6209000D03*
X64611000Y69328000D03*
X56885100Y65415000D03*
X64550000Y67450000D03*
X58029500Y66270400D03*
X64550000Y50450000D03*
X66675000Y46200000D03*
X66675000Y37700000D03*
X64484000Y31799500D03*
X64547500Y18210500D03*
X54197000Y5955000D03*
X61690000Y6336000D03*
X66675000Y12200000D03*
X66675000Y3700000D03*
X52673000Y6209000D03*
X71342000Y69328000D03*
X71350000Y67450000D03*
X71350000Y50450000D03*
X69225000Y46200000D03*
X69225000Y37700000D03*
X73755000Y26656000D03*
X73755000Y23227000D03*
X73882000Y14718000D03*
X73882000Y6209000D03*
X83675000Y71700000D03*
X83675000Y63200000D03*
X83675000Y54700000D03*
X83675000Y46200000D03*
X83675000Y37700000D03*
X79089000Y26656000D03*
X79089000Y23227000D03*
X79089000Y14718000D03*
X79089000Y6209000D03*
X86225000Y71700000D03*
X68704100Y69401800D03*
X86225000Y63200000D03*
X86225000Y54700000D03*
X86225000Y46200000D03*
X86225000Y37700000D03*
X86225000Y29200000D03*
X86225000Y20700000D03*
X86225000Y12200000D03*
X86225000Y3700000D03*
X98393000Y69328000D03*
X100675000Y63200000D03*
X100675000Y54700000D03*
X100675000Y46200000D03*
X98550000Y41950000D03*
X98550000Y24950000D03*
X100675000Y20700000D03*
X94708300Y21995400D03*
X100675000Y12200000D03*
X100675000Y3700000D03*
X100679000Y68058000D03*
X100679000Y60565000D03*
X100679000Y57644000D03*
X100679000Y49516000D03*
X99495800Y43568200D03*
X105350000Y24950000D03*
X103225000Y20700000D03*
X107618500Y17911300D03*
X98712600Y17911300D03*
X103225000Y12200000D03*
X103225000Y3700000D03*
X117675000Y71700000D03*
X117675000Y63200000D03*
X117675000Y54700000D03*
X117675000Y46200000D03*
X117697000Y37705000D03*
X117675000Y29200000D03*
X117675000Y20700000D03*
X111022300Y24029300D03*
X117675000Y12200000D03*
X111103600Y15969400D03*
X117675000Y3700000D03*
X120225000Y71700000D03*
X120225000Y63200000D03*
X120225000Y54700000D03*
X120225000Y46200000D03*
X120225000Y37700000D03*
X120237000Y29196000D03*
X120225000Y20700000D03*
X120225000Y12200000D03*
X121287500Y16414100D03*
X120225000Y3700000D03*
X134675000Y71700000D03*
X134675000Y63200000D03*
X134675000Y54700000D03*
X134675000Y46200000D03*
X134675000Y37700000D03*
X134675000Y29200000D03*
X134675000Y20700000D03*
X134675000Y12200000D03*
X134675000Y3700000D03*
X53054000Y24243000D03*
X38592000Y24205900D03*
X65309500Y25195500D03*
X87878100Y25642500D03*
X97309100Y25642500D03*
X65309500Y7098000D03*
X45243500Y6780500D03*
X107922900Y16764600D03*
X90178500Y24079000D03*
X107810000Y26630000D03*
X35963000Y26061500D03*
X41497000Y65518000D03*
X65309500Y23481000D03*
X51911000Y22909500D03*
X30067000Y24497000D03*
X72421500Y17385000D03*
X58319900Y69776500D03*
X39030500Y25121200D03*
X53435000Y25132000D03*
X65563500Y26465500D03*
X96854000Y24807300D03*
D26*
X52245000Y16450000D02*
X49705000Y16450000D01*
X54578000Y8561000D02*
X54578000Y8528000D01*
X54578000Y8528000D02*
X54578000Y8495000D01*
X53330800Y15364200D02*
X52245000Y16450000D01*
X53330800Y9775200D02*
X53330800Y15364200D01*
X54578000Y8528000D02*
X53330800Y9775200D01*
X84791000Y40639000D02*
X85185000Y40245000D01*
X84791000Y53140500D02*
X84791000Y40639000D01*
X105460500Y68766300D02*
X104372100Y68766300D01*
X104235000Y68903400D02*
X104372100Y68766300D01*
X86177800Y67113100D02*
X94523200Y67113100D01*
X94523200Y67113100D02*
X96342500Y68932400D01*
X107222000Y25098300D02*
X107222000Y25005000D01*
X101950000Y38468000D02*
X101950000Y33450000D01*
X68040000Y74789000D02*
X66008000Y74789000D01*
X59851000Y14845000D02*
X61375000Y16369000D01*
X59150000Y14845000D02*
X59851000Y14845000D01*
X59150000Y2145000D02*
X59150000Y14845000D01*
X31718000Y2145000D02*
X59150000Y2145000D01*
X31718000Y9700000D02*
X31718000Y2145000D01*
X67950000Y52855000D02*
X67950000Y58950000D01*
X67295000Y52200000D02*
X67950000Y52855000D01*
X64279700Y52200000D02*
X67295000Y52200000D01*
X69564000Y60564000D02*
X67950000Y58950000D01*
X66262000Y60638000D02*
X67950000Y58950000D01*
X67950000Y59639000D02*
X67950000Y58950000D01*
X57406000Y16369000D02*
X57325000Y16450000D01*
X56356000Y15481000D02*
X57325000Y16450000D01*
X54578000Y10461000D02*
X54578000Y10577000D01*
X54785000Y16450000D02*
X57325000Y16450000D01*
X57406000Y16369000D02*
X57325000Y16450000D01*
X58195000Y15580000D02*
X57406000Y16369000D01*
X57406000Y16369000D02*
X57325000Y16450000D01*
X53943000Y11096000D02*
X54578000Y10461000D01*
X53943000Y15353000D02*
X53943000Y11096000D01*
X55040000Y16450000D02*
X53943000Y15353000D01*
X57325000Y16450000D02*
X55040000Y16450000D01*
X67950000Y59967000D02*
X67950000Y59639000D01*
X67950000Y59639000D02*
X67950000Y58950000D01*
X67950000Y59639000D02*
X67950000Y58950000D01*
X67950000Y59967000D02*
X67950000Y59639000D01*
X33950000Y22900000D02*
X33650000Y23200000D01*
X30279700Y23200000D02*
X33650000Y23200000D01*
X33650000Y23200000D02*
X33950000Y22900000D01*
X33950000Y22900000D02*
X33950000Y16450000D01*
X33950000Y16450000D02*
X33950000Y22900000D01*
X30279700Y9700000D02*
X31718000Y9700000D01*
X36163000Y9892000D02*
X33950000Y12105000D01*
X36163000Y5193000D02*
X36163000Y9892000D01*
X56229000Y5193000D02*
X36163000Y5193000D01*
X56229000Y9765000D02*
X56229000Y5193000D01*
X55274000Y9765000D02*
X56229000Y9765000D01*
X54578000Y10461000D02*
X55274000Y9765000D01*
X33950000Y12105000D02*
X33950000Y16450000D01*
X33950000Y10724000D02*
X33950000Y12105000D01*
X32926000Y9700000D02*
X33950000Y10724000D01*
X31718000Y9700000D02*
X32926000Y9700000D01*
X33950000Y12105000D02*
X33950000Y16450000D01*
X101950000Y33450000D02*
X101886000Y33450000D01*
X61563000Y16369000D02*
X61375000Y16369000D01*
X61375000Y16369000D02*
X57406000Y16369000D01*
X68040000Y74789000D02*
X68040000Y72757000D01*
X68040000Y64174000D02*
X67950000Y64084000D01*
X68040000Y72757000D02*
X68040000Y64174000D01*
X67950000Y64084000D02*
X67950000Y59967000D01*
X64279700Y65700000D02*
X66008000Y65700000D01*
X66334000Y65700000D02*
X67950000Y64084000D01*
X66008000Y65700000D02*
X66334000Y65700000D01*
X68040000Y72757000D02*
X66008000Y72757000D01*
X66008000Y65700000D02*
X66008000Y72757000D01*
X66008000Y72757000D02*
X66008000Y74789000D01*
X101950000Y70470000D02*
X101950000Y38468000D01*
X99663000Y72757000D02*
X101950000Y70470000D01*
X68040000Y72757000D02*
X99663000Y72757000D01*
X101950000Y38468000D02*
X101950000Y33450000D01*
X103682000Y40200000D02*
X101950000Y38468000D01*
X104235000Y40200000D02*
X103682000Y40200000D01*
X101950000Y26909000D02*
X101950000Y33450000D01*
X102159000Y26700000D02*
X101950000Y26909000D01*
X105620000Y26700000D02*
X102159000Y26700000D01*
X105620000Y26700000D02*
X105620300Y26700000D01*
X106783800Y25536500D02*
X107222000Y25098300D01*
X106783800Y26700000D02*
X106783800Y25536500D01*
X105620300Y26700000D02*
X106783800Y26700000D01*
X35020000Y72757000D02*
X60994000Y72757000D01*
X35020000Y23989000D02*
X35020000Y72757000D01*
X33950000Y22919000D02*
X35020000Y23989000D01*
X33950000Y22900000D02*
X33950000Y22919000D01*
X60994000Y72757000D02*
X66008000Y72757000D01*
X61817700Y71933300D02*
X62518000Y71933300D01*
X60994000Y72757000D02*
X61817700Y71933300D01*
X62518000Y71233000D02*
X62518000Y71933300D01*
X105620000Y40200000D02*
X104235000Y40200000D01*
X105620000Y40200000D02*
X105620300Y40200000D01*
X32861000Y23989000D02*
X32861000Y29286700D01*
X33650000Y23200000D02*
X32861000Y23989000D01*
X32861000Y74789000D02*
X66008000Y74789000D01*
X32861000Y29286700D02*
X32861000Y74789000D01*
X32486600Y28912300D02*
X31591000Y28912300D01*
X32861000Y29286700D02*
X32486600Y28912300D01*
X31591000Y27987000D02*
X31591000Y28912300D01*
X104235000Y40200000D02*
X104235000Y68903400D01*
X101187000Y74789000D02*
X68040000Y74789000D01*
X104235000Y71741000D02*
X101187000Y74789000D01*
X104235000Y68903400D02*
X104235000Y71741000D01*
X109122000Y25005000D02*
X109122000Y26142000D01*
X109122000Y26142000D02*
X109270000Y26290000D01*
X105620300Y27700012D02*
X107859988Y27700012D01*
X88511900Y25274300D02*
X88511900Y26719500D01*
X87227000Y23989400D02*
X88511900Y25274300D01*
X107859988Y27700012D02*
X109270000Y26290000D01*
X54197000Y26084500D02*
X55149500Y26084500D01*
X29749500Y27037000D02*
X29688500Y26976000D01*
X29688500Y26087000D02*
X29688500Y26976000D01*
X56419500Y27354500D02*
X66325500Y27354500D01*
X55149500Y26084500D02*
X56419500Y27354500D01*
X68830000Y30430000D02*
X69536500Y30430000D01*
X69536500Y30430000D02*
X70326000Y29640500D01*
X70326000Y29640500D02*
X70326000Y26402000D01*
X88487000Y26719500D02*
X88511900Y26719500D01*
X68830000Y30430000D02*
X67432500Y30430000D01*
X67432500Y30430000D02*
X66325500Y29323000D01*
X66325500Y29323000D02*
X66325500Y27354500D01*
X65436500Y16369000D02*
X63275000Y16369000D01*
X66325500Y26084500D02*
X66325500Y25385500D01*
X66325500Y27354500D02*
X66325500Y26084500D01*
X65436500Y16369000D02*
X66325500Y17258000D01*
X66325500Y17258000D02*
X66325500Y25385500D01*
X31591000Y26087000D02*
X29688500Y26087000D01*
X28665304Y22650300D02*
X28665304Y22650896D01*
X29688500Y26087000D02*
X28665304Y25063804D01*
X28665304Y25063804D02*
X28665304Y22650300D01*
X88511900Y26719500D02*
X88511900Y63330700D01*
X88511900Y63330700D02*
X83453600Y68389000D01*
X83453600Y68389000D02*
X77443500Y68389000D01*
X64418000Y71233000D02*
X64418000Y70532700D01*
X30279700Y22200000D02*
X29116200Y22200000D01*
X29116200Y22200000D02*
X28665304Y22650896D01*
X28665304Y22650896D02*
X28665900Y22650300D01*
X63985600Y68961400D02*
X64558000Y68389000D01*
X63985600Y70100300D02*
X63985600Y68961400D01*
X64418000Y70532700D02*
X63985600Y70100300D01*
X62978900Y64700000D02*
X64279700Y64700000D01*
X61563300Y66115600D02*
X62978900Y64700000D01*
X61563300Y66253000D02*
X61563300Y66115600D01*
X1225000Y71700000D02*
X11693000Y71700000D01*
X50568300Y67425500D02*
X55455600Y62538200D01*
X55455600Y62538200D02*
X56028400Y62538200D01*
X56028400Y62538200D02*
X58366600Y60200000D01*
X58366600Y60200000D02*
X63116200Y60200000D01*
X64279700Y60200000D02*
X63116200Y60200000D01*
X18891000Y69328000D02*
X29178000Y69328000D01*
X18764000Y69201000D02*
X18891000Y69328000D01*
X11693000Y71700000D02*
X14192000Y69201000D01*
X43402000Y66153000D02*
X42894000Y66153000D01*
X43783000Y65772000D02*
X43402000Y66153000D01*
X43783000Y65391000D02*
X43783000Y65772000D01*
X42908000Y64516000D02*
X43783000Y65391000D01*
X41243000Y64516000D02*
X42908000Y64516000D01*
X41243000Y64516000D02*
X41257000Y64516000D01*
X12541000Y63232000D02*
X1238000Y63232000D01*
X16478000Y67169000D02*
X12541000Y63232000D01*
X28543000Y67169000D02*
X16478000Y67169000D01*
X39645200Y64516000D02*
X41243000Y64516000D01*
X39645200Y64516000D02*
X36482000Y61352800D01*
X36482000Y61352800D02*
X36482000Y60359200D01*
X36482000Y60359200D02*
X38141300Y58699900D01*
X38141300Y58699900D02*
X43509800Y58699900D01*
X43509800Y58699900D02*
X44578100Y57631600D01*
X44578100Y57631600D02*
X49992600Y57631600D01*
X49992600Y57631600D02*
X50658500Y58297500D01*
X50658500Y58297500D02*
X51203900Y58297500D01*
X51203900Y58297500D02*
X51929800Y59023400D01*
X51929800Y59023400D02*
X55084900Y59023400D01*
X55084900Y59023400D02*
X57408300Y56700000D01*
X57408300Y56700000D02*
X63116200Y56700000D01*
X63116200Y56700000D02*
X64279700Y56700000D01*
X29432000Y60565000D02*
X29178000Y60819000D01*
X29178000Y60819000D02*
X20288000Y60819000D01*
X16478000Y61073000D02*
X10128000Y54723000D01*
X10128000Y54723000D02*
X1238000Y54723000D01*
X43210300Y58074400D02*
X44103500Y57181200D01*
X44103500Y57181200D02*
X50179100Y57181200D01*
X50179100Y57181200D02*
X50845100Y57847200D01*
X50845100Y57847200D02*
X51390500Y57847200D01*
X51390500Y57847200D02*
X52116400Y58573100D01*
X52116400Y58573100D02*
X54898300Y58573100D01*
X54898300Y58573100D02*
X57271400Y56200000D01*
X64279700Y56200000D02*
X57271400Y56200000D01*
X28018600Y18700000D02*
X30279700Y18700000D01*
X25513800Y21204800D02*
X28018600Y18700000D01*
X25513800Y31341000D02*
X25513800Y21204800D01*
X10654800Y46200000D02*
X25513800Y31341000D01*
X1225000Y46200000D02*
X10654800Y46200000D01*
X27474600Y17200000D02*
X30279700Y17200000D01*
X24162900Y20511700D02*
X27474600Y17200000D01*
X24162900Y24149200D02*
X24162900Y20511700D01*
X10612100Y37700000D02*
X24162900Y24149200D01*
X1225000Y37700000D02*
X10612100Y37700000D01*
X26973400Y15700000D02*
X30279700Y15700000D01*
X13473400Y29200000D02*
X26973400Y15700000D01*
X1225000Y29200000D02*
X13473400Y29200000D01*
X7725000Y14200000D02*
X30279700Y14200000D01*
X1225000Y20700000D02*
X7725000Y14200000D01*
X15335000Y11101600D02*
X14633400Y11101600D01*
X15335000Y11101600D02*
X23713400Y11101600D01*
X23713400Y11101600D02*
X25311800Y12700000D01*
X30279700Y12700000D02*
X25311800Y12700000D01*
X2346000Y13321000D02*
X1225000Y12200000D01*
X12414000Y13321000D02*
X2346000Y13321000D01*
X14633400Y11101600D02*
X12414000Y13321000D01*
X3161000Y1764000D02*
X1225000Y3700000D01*
X10128000Y1764000D02*
X3161000Y1764000D01*
X14827000Y6463000D02*
X10128000Y1764000D01*
X14827000Y10485400D02*
X14827000Y6463000D01*
X25448700Y12200000D02*
X30279700Y12200000D01*
X23734100Y10485400D02*
X25448700Y12200000D01*
X14827000Y10485400D02*
X23734100Y10485400D01*
X15675000Y71700000D02*
X15675000Y70004000D01*
X53924000Y66004800D02*
X53924000Y64944200D01*
X53924000Y64944200D02*
X55879700Y62988500D01*
X55879700Y62988500D02*
X56221600Y62988500D01*
X56221600Y62988500D02*
X58510100Y60700000D01*
X58510100Y60700000D02*
X63116200Y60700000D01*
X64279700Y60700000D02*
X63116200Y60700000D01*
X17621000Y68058000D02*
X29305000Y68058000D01*
X15675000Y70004000D02*
X17621000Y68058000D01*
X18886500Y66411500D02*
X30951500Y66411500D01*
X38891600Y66415900D02*
X40158400Y67682700D01*
X40158400Y67682700D02*
X42735200Y67682700D01*
X42735200Y67682700D02*
X44380000Y66037900D01*
X44380000Y66037900D02*
X44380000Y65221500D01*
X44380000Y65221500D02*
X43198600Y64040100D01*
X43198600Y64040100D02*
X39883700Y64040100D01*
X39883700Y64040100D02*
X36932300Y61088700D01*
X36932300Y61088700D02*
X36932300Y60545800D01*
X36932300Y60545800D02*
X38327900Y59150200D01*
X38327900Y59150200D02*
X43696500Y59150200D01*
X43696500Y59150200D02*
X44764700Y58082000D01*
X44764700Y58082000D02*
X49806100Y58082000D01*
X49806100Y58082000D02*
X50471900Y58747800D01*
X50471900Y58747800D02*
X51017300Y58747800D01*
X51017300Y58747800D02*
X51743200Y59473700D01*
X51743200Y59473700D02*
X55271500Y59473700D01*
X55271500Y59473700D02*
X57545200Y57200000D01*
X57545200Y57200000D02*
X64279700Y57200000D01*
X30951500Y66411500D02*
X30956000Y66407000D01*
X15675000Y63200000D02*
X18886500Y66411500D01*
X18886500Y66411500D02*
X18890900Y66415900D01*
X51104100Y57221900D02*
X51402200Y57221900D01*
X51402200Y57221900D02*
X52217400Y58037100D01*
X52217400Y58037100D02*
X54797400Y58037100D01*
X54797400Y58037100D02*
X57134500Y55700000D01*
X64279700Y55700000D02*
X57134500Y55700000D01*
X28035000Y59549000D02*
X19907000Y59549000D01*
X29432000Y58152000D02*
X28035000Y59549000D01*
X28156500Y19200000D02*
X30279700Y19200000D01*
X25964100Y21392400D02*
X28156500Y19200000D01*
X25964100Y35910900D02*
X25964100Y21392400D01*
X15675000Y46200000D02*
X25964100Y35910900D01*
X27693400Y17700000D02*
X30279700Y17700000D01*
X24613200Y20780200D02*
X27693400Y17700000D01*
X24613200Y28761800D02*
X24613200Y20780200D01*
X15675000Y37700000D02*
X24613200Y28761800D01*
X27110300Y16200000D02*
X30279700Y16200000D01*
X15675000Y27635300D02*
X27110300Y16200000D01*
X15675000Y29200000D02*
X15675000Y27635300D01*
X21675000Y14700000D02*
X30279700Y14700000D01*
X15675000Y20700000D02*
X21675000Y14700000D01*
X24856700Y13200000D02*
X30279700Y13200000D01*
X23227900Y11571200D02*
X24856700Y13200000D01*
X16303800Y11571200D02*
X23227900Y11571200D01*
X15675000Y12200000D02*
X16303800Y11571200D01*
X25585600Y11700000D02*
X30279700Y11700000D01*
X23695800Y9810200D02*
X25585600Y11700000D01*
X21785200Y9810200D02*
X23695800Y9810200D01*
X15675000Y3700000D02*
X21785200Y9810200D01*
X32203200Y60184800D02*
X32203200Y70620800D01*
X64279700Y61200000D02*
X59745200Y61200000D01*
X59745200Y61200000D02*
X58996500Y61948700D01*
X31124000Y71700000D02*
X18225000Y71700000D01*
X32203200Y70620800D02*
X31124000Y71700000D01*
X28956000Y63200000D02*
X18225000Y63200000D01*
X30321000Y61835000D02*
X28956000Y63200000D01*
X30321000Y59930000D02*
X30321000Y61835000D01*
X63116200Y57700000D02*
X64279700Y57700000D01*
X57682100Y57700000D02*
X63116200Y57700000D01*
X55458100Y59924000D02*
X57682100Y57700000D01*
X51556600Y59924000D02*
X55458100Y59924000D01*
X50830700Y59198100D02*
X51556600Y59924000D01*
X46684200Y59198100D02*
X50830700Y59198100D01*
X46207900Y58721800D02*
X46684200Y59198100D01*
X52610300Y57369000D02*
X52709900Y57468600D01*
X52709900Y57468600D02*
X54729000Y57468600D01*
X54729000Y57468600D02*
X56997600Y55200000D01*
X56997600Y55200000D02*
X63116200Y55200000D01*
X64279700Y55200000D02*
X63116200Y55200000D01*
X18256000Y57009000D02*
X18256000Y54723000D01*
X19653000Y58406000D02*
X18256000Y57009000D01*
X27654000Y58406000D02*
X19653000Y58406000D01*
X28543000Y57517000D02*
X27654000Y58406000D01*
X28344800Y19700000D02*
X30279700Y19700000D01*
X26414400Y21630400D02*
X28344800Y19700000D01*
X26414400Y38010600D02*
X26414400Y21630400D01*
X18225000Y46200000D02*
X26414400Y38010600D01*
X30279700Y18200000D02*
X29116200Y18200000D01*
X27848900Y18200000D02*
X29116200Y18200000D01*
X25063500Y20985400D02*
X27848900Y18200000D01*
X25063500Y30861500D02*
X25063500Y20985400D01*
X18225000Y37700000D02*
X25063500Y30861500D01*
X30279700Y16700000D02*
X29116200Y16700000D01*
X27247200Y16700000D02*
X29116200Y16700000D01*
X18225000Y25722200D02*
X27247200Y16700000D01*
X18225000Y29200000D02*
X18225000Y25722200D01*
X23725000Y15200000D02*
X30279700Y15200000D01*
X18225000Y20700000D02*
X23725000Y15200000D01*
X19725000Y13700000D02*
X30279700Y13700000D01*
X18225000Y12200000D02*
X19725000Y13700000D01*
X25725000Y11200000D02*
X30279700Y11200000D01*
X18225000Y3700000D02*
X25725000Y11200000D01*
X64279700Y61700000D02*
X63116200Y61700000D01*
X60611800Y61700000D02*
X63116200Y61700000D01*
X58873000Y63438800D02*
X60611800Y61700000D01*
X56066300Y63438800D02*
X58873000Y63438800D01*
X54908900Y64596200D02*
X56066300Y63438800D01*
X54908900Y65904300D02*
X54908900Y64596200D01*
X52747600Y68065600D02*
X54908900Y65904300D01*
X48902600Y59990200D02*
X49309900Y60397500D01*
X49309900Y60397500D02*
X55621500Y60397500D01*
X55621500Y60397500D02*
X57819000Y58200000D01*
X64279700Y58200000D02*
X57819000Y58200000D01*
X64279700Y54700000D02*
X55537800Y54700000D01*
X55537800Y54700000D02*
X53447500Y56790300D01*
X28482600Y20200000D02*
X30279700Y20200000D01*
X26864700Y21817900D02*
X28482600Y20200000D01*
X26864700Y40217700D02*
X26864700Y21817900D01*
X30448000Y43801000D02*
X26864700Y40217700D01*
X30279700Y20700000D02*
X29116200Y20700000D01*
X28623900Y20700000D02*
X29116200Y20700000D01*
X27315000Y22008900D02*
X28623900Y20700000D01*
X27315000Y32159000D02*
X27315000Y22008900D01*
X30448000Y35292000D02*
X27315000Y32159000D01*
X30279700Y21200000D02*
X29116200Y21200000D01*
X28797800Y21200000D02*
X29116200Y21200000D01*
X27765300Y22232500D02*
X28797800Y21200000D01*
X27765300Y29053300D02*
X27765300Y22232500D01*
X30448000Y31736000D02*
X27765300Y29053300D01*
X28670000Y26783000D02*
X28215302Y26328302D01*
X28215302Y26328302D02*
X28215302Y22463300D01*
X28215302Y22463598D02*
X28215302Y22463300D01*
X28978900Y21700000D02*
X28215302Y22463598D01*
X30279700Y21700000D02*
X28978900Y21700000D01*
X28215302Y22463598D02*
X28215600Y22463300D01*
X29329000Y10200000D02*
X30279700Y10200000D01*
X29116200Y9987200D02*
X29329000Y10200000D01*
X29116200Y9383800D02*
X29116200Y9987200D01*
X30550000Y7950000D02*
X29116200Y9383800D01*
X30279700Y10700000D02*
X29116200Y10700000D01*
X28665900Y7991100D02*
X30575000Y6082000D01*
X28665900Y10249700D02*
X28665900Y7991100D01*
X29116200Y10700000D02*
X28665900Y10249700D01*
X64279700Y62200000D02*
X63116200Y62200000D01*
X60748700Y62200000D02*
X63116200Y62200000D01*
X59059600Y63889100D02*
X60748700Y62200000D01*
X56252900Y63889100D02*
X59059600Y63889100D01*
X55359200Y64782800D02*
X56252900Y63889100D01*
X55359200Y66359100D02*
X55359200Y64782800D01*
X52390300Y69328000D02*
X55359200Y66359100D01*
X37560000Y69328000D02*
X52390300Y69328000D01*
X43656000Y60855100D02*
X55800800Y60855100D01*
X55800800Y60855100D02*
X57955900Y58700000D01*
X64279700Y58700000D02*
X57955900Y58700000D01*
X42984900Y60855100D02*
X43656000Y60855100D01*
X42132000Y61708000D02*
X42984900Y60855100D01*
X64279700Y54200000D02*
X63116200Y54200000D01*
X54396600Y54200000D02*
X63116200Y54200000D01*
X52812300Y55784300D02*
X54396600Y54200000D01*
X41034300Y55784300D02*
X52812300Y55784300D01*
X37560000Y52310000D02*
X41034300Y55784300D01*
X45734300Y41515000D02*
X45734300Y42167200D01*
X44100500Y43801000D02*
X37560000Y43801000D01*
X45734300Y42167200D02*
X44100500Y43801000D01*
X45734300Y25559300D02*
X45734300Y41515000D01*
X45734300Y41515000D02*
X45734300Y41532200D01*
X40375000Y20200000D02*
X45734300Y25559300D01*
X37620300Y20200000D02*
X40375000Y20200000D01*
X45180000Y32815500D02*
X45180000Y33831500D01*
X43719500Y35292000D02*
X37560000Y35292000D01*
X45180000Y33831500D02*
X43719500Y35292000D01*
X45180000Y25767000D02*
X45180000Y32815500D01*
X45180000Y32815500D02*
X45180000Y32902000D01*
X40113000Y20700000D02*
X45180000Y25767000D01*
X37620300Y20700000D02*
X40113000Y20700000D01*
X44608500Y28434000D02*
X44608500Y30085000D01*
X37620300Y21200000D02*
X39914500Y21200000D01*
X39914500Y21200000D02*
X44608500Y25894000D01*
X44608500Y25894000D02*
X44608500Y28434000D01*
X42957500Y31736000D02*
X37560000Y31736000D01*
X44608500Y30085000D02*
X42957500Y31736000D01*
X37329600Y31037500D02*
X37329600Y24970400D01*
X37620300Y21700000D02*
X39716000Y21700000D01*
X39716000Y21700000D02*
X44100500Y26084500D01*
X44100500Y26084500D02*
X44100500Y29831000D01*
X44100500Y29831000D02*
X42894000Y31037500D01*
X42894000Y31037500D02*
X37329600Y31037500D01*
X37329600Y24970400D02*
X37350000Y24950000D01*
X39537988Y10200012D02*
X37620300Y10200012D01*
X40100000Y9638000D02*
X39537988Y10200012D01*
X40100000Y8177500D02*
X40100000Y9638000D01*
X39846000Y7923500D02*
X40100000Y8177500D01*
X37620300Y10700012D02*
X42276488Y10700012D01*
X45624500Y6082000D02*
X39655500Y6082000D01*
X46069000Y6526500D02*
X45624500Y6082000D01*
X46069000Y6907500D02*
X46069000Y6526500D01*
X42276488Y10700012D02*
X46069000Y6907500D01*
X60885600Y62700000D02*
X64279700Y62700000D01*
X59246200Y64339400D02*
X60885600Y62700000D01*
X56439500Y64339400D02*
X59246200Y64339400D01*
X55809500Y64969400D02*
X56439500Y64339400D01*
X55809500Y66545800D02*
X55809500Y64969400D01*
X50655300Y71700000D02*
X55809500Y66545800D01*
X49675000Y71700000D02*
X50655300Y71700000D01*
X64279700Y59200000D02*
X63116200Y59200000D01*
X58092800Y59200000D02*
X63116200Y59200000D01*
X55910700Y61382100D02*
X58092800Y59200000D01*
X51492900Y61382100D02*
X55910700Y61382100D01*
X49675000Y63200000D02*
X51492900Y61382100D01*
X54146900Y53700000D02*
X64279700Y53700000D01*
X52512900Y55334000D02*
X54146900Y53700000D01*
X50309000Y55334000D02*
X52512900Y55334000D01*
X49675000Y54700000D02*
X50309000Y55334000D01*
X46239800Y42764800D02*
X49675000Y46200000D01*
X46239800Y25302800D02*
X46239800Y42764800D01*
X40637000Y19700000D02*
X46239800Y25302800D01*
X37620300Y19700000D02*
X40637000Y19700000D01*
X47847000Y33735300D02*
X51030300Y36918600D01*
X47847000Y24687500D02*
X47847000Y33735300D01*
X41359500Y18200000D02*
X47847000Y24687500D01*
X37620300Y18200000D02*
X41359500Y18200000D01*
X37620300Y16700000D02*
X38783800Y16700000D01*
X49675000Y24229500D02*
X49675000Y29200000D01*
X42145500Y16700000D02*
X49675000Y24229500D01*
X38783800Y16700000D02*
X42145500Y16700000D01*
X48622000Y20700000D02*
X49675000Y20700000D01*
X43122000Y15200000D02*
X48622000Y20700000D01*
X37620300Y15200000D02*
X43122000Y15200000D01*
X48175000Y13700000D02*
X37620300Y13700000D01*
X49675000Y12200000D02*
X48175000Y13700000D01*
X42856000Y11200000D02*
X37620300Y11200000D01*
X47466000Y6590000D02*
X42856000Y11200000D01*
X64279700Y63200000D02*
X63116200Y63200000D01*
X61022500Y63200000D02*
X63116200Y63200000D01*
X59432800Y64789700D02*
X61022500Y63200000D01*
X56626100Y64789700D02*
X59432800Y64789700D01*
X56259800Y65156000D02*
X56626100Y64789700D01*
X56259800Y67665200D02*
X56259800Y65156000D01*
X52225000Y71700000D02*
X56259800Y67665200D01*
X58229700Y59700000D02*
X64279700Y59700000D01*
X55841800Y62087900D02*
X58229700Y59700000D01*
X53337100Y62087900D02*
X55841800Y62087900D01*
X52225000Y63200000D02*
X53337100Y62087900D01*
X64279700Y53200000D02*
X63116200Y53200000D01*
X53725000Y53200000D02*
X63116200Y53200000D01*
X52225000Y54700000D02*
X53725000Y53200000D01*
X37620300Y19200000D02*
X38783800Y19200000D01*
X46753600Y40728600D02*
X52225000Y46200000D01*
X46753600Y25118100D02*
X46753600Y40728600D01*
X40835500Y19200000D02*
X46753600Y25118100D01*
X38783800Y19200000D02*
X40835500Y19200000D01*
X37620300Y17700000D02*
X38783800Y17700000D01*
X52225000Y37063100D02*
X52225000Y37700000D01*
X48418500Y33256600D02*
X52225000Y37063100D01*
X48418500Y24370000D02*
X48418500Y33256600D01*
X41748500Y17700000D02*
X48418500Y24370000D01*
X38783800Y17700000D02*
X41748500Y17700000D01*
X52225000Y26081000D02*
X52225000Y29200000D01*
X42344000Y16200000D02*
X52225000Y26081000D01*
X37620300Y16200000D02*
X42344000Y16200000D01*
X43447500Y14700000D02*
X37620300Y14700000D01*
X43447500Y14700000D02*
X48822100Y20074600D01*
X48822100Y20074600D02*
X51599600Y20074600D01*
X51599600Y20074600D02*
X52225000Y20700000D01*
X52673000Y8368000D02*
X52673000Y9003000D01*
X37620300Y13200000D02*
X45682000Y13200000D01*
X45682000Y13200000D02*
X50514000Y8368000D01*
X50514000Y8368000D02*
X52673000Y8368000D01*
X48238050Y7722950D02*
X49752000Y6209000D01*
X49752000Y6209000D02*
X50895000Y6209000D01*
X43753000Y11700000D02*
X47730050Y7722950D01*
X43753000Y11700000D02*
X37620300Y11700000D01*
X47730050Y7722950D02*
X48238050Y7722950D01*
X59472300Y65415000D02*
X56885100Y65415000D01*
X61187300Y63700000D02*
X59472300Y65415000D01*
X64279700Y63700000D02*
X61187300Y63700000D01*
X64279700Y64200000D02*
X63116200Y64200000D01*
X62479400Y64200000D02*
X63116200Y64200000D01*
X60409000Y66270400D02*
X62479400Y64200000D01*
X58029500Y66270400D02*
X60409000Y66270400D01*
X63116200Y51883800D02*
X63116200Y52700000D01*
X64550000Y50450000D02*
X63116200Y51883800D01*
X64279700Y52700000D02*
X63116200Y52700000D01*
X59427400Y46200000D02*
X66675000Y46200000D01*
X47339000Y34111600D02*
X59427400Y46200000D01*
X47339000Y25005000D02*
X47339000Y34111600D01*
X41034000Y18700000D02*
X47339000Y25005000D01*
X37620300Y18700000D02*
X41034000Y18700000D01*
X54132900Y37700000D02*
X66675000Y37700000D01*
X48926500Y32493600D02*
X54132900Y37700000D01*
X48926500Y24179500D02*
X48926500Y32493600D01*
X41947000Y17200000D02*
X48926500Y24179500D01*
X37620300Y17200000D02*
X41947000Y17200000D01*
X37620300Y15700000D02*
X42860000Y15700000D01*
X42860000Y15700000D02*
X56360000Y29200000D01*
X61884500Y29200000D02*
X56360000Y29200000D01*
X64484000Y31799500D02*
X61884500Y29200000D01*
X64547500Y18210500D02*
X63468000Y18210500D01*
X63468000Y18210500D02*
X62896500Y18782000D01*
X48213600Y18782000D02*
X62896500Y18782000D01*
X62896500Y18782000D02*
X62915500Y18782000D01*
X43631600Y14200000D02*
X48213600Y18782000D01*
X37620300Y14200000D02*
X43631600Y14200000D01*
X50232800Y7798900D02*
X52353100Y7798900D01*
X50232800Y7798900D02*
X45331700Y12700000D01*
X45331700Y12700000D02*
X37620300Y12700000D01*
X52800000Y7352000D02*
X54197000Y5955000D01*
X52353100Y7798900D02*
X52800000Y7352000D01*
X66675000Y11321000D02*
X61690000Y6336000D01*
X61690000Y6336000D02*
X61626500Y6272500D01*
X66675000Y12200000D02*
X66675000Y11321000D01*
X51765600Y7116400D02*
X52673000Y6209000D01*
X44813800Y12200000D02*
X49897400Y7116400D01*
X44813800Y12200000D02*
X37620300Y12200000D01*
X49897400Y7116400D02*
X51765600Y7116400D01*
X70275100Y63700000D02*
X71620300Y63700000D01*
X69970900Y64004200D02*
X70275100Y63700000D01*
X69970900Y67956900D02*
X69970900Y64004200D01*
X71342000Y69328000D02*
X69970900Y67956900D01*
X70456800Y66556800D02*
X70456800Y64200000D01*
X71350000Y67450000D02*
X70456800Y66556800D01*
X71620300Y64200000D02*
X70456800Y64200000D01*
X70456800Y51343200D02*
X70456800Y52700000D01*
X71350000Y50450000D02*
X70456800Y51343200D01*
X71620300Y52700000D02*
X70456800Y52700000D01*
X72571000Y53200000D02*
X71620300Y53200000D01*
X72783800Y52987200D02*
X72571000Y53200000D01*
X72783800Y49758800D02*
X72783800Y52987200D01*
X69225000Y46200000D02*
X72783800Y49758800D01*
X71620300Y53700000D02*
X72783800Y53700000D01*
X73234100Y53249700D02*
X72783800Y53700000D01*
X73234100Y41709100D02*
X73234100Y53249700D01*
X69225000Y37700000D02*
X73234100Y41709100D01*
X71620300Y54200000D02*
X72783800Y54200000D01*
X72783800Y54199900D02*
X72783800Y54200000D01*
X72920800Y54199900D02*
X72783800Y54199900D01*
X73684400Y53436300D02*
X72920800Y54199900D01*
X73684400Y26726600D02*
X73684400Y53436300D01*
X73755000Y26656000D02*
X73684400Y26726600D01*
X73124600Y54700000D02*
X71620300Y54700000D01*
X74134700Y53689900D02*
X73124600Y54700000D01*
X74134700Y27189200D02*
X74134700Y53689900D01*
X74380400Y26943500D02*
X74134700Y27189200D01*
X74380400Y23852400D02*
X74380400Y26943500D01*
X73755000Y23227000D02*
X74380400Y23852400D01*
X71620300Y55200000D02*
X72783800Y55200000D01*
X73261500Y55200000D02*
X72783800Y55200000D01*
X74585000Y53876500D02*
X73261500Y55200000D01*
X74585000Y27488600D02*
X74585000Y53876500D01*
X74830700Y27242900D02*
X74585000Y27488600D01*
X74830700Y15666700D02*
X74830700Y27242900D01*
X73882000Y14718000D02*
X74830700Y15666700D01*
X73403900Y55700000D02*
X71620300Y55700000D01*
X75035300Y54068600D02*
X73403900Y55700000D01*
X75035300Y43087400D02*
X75035300Y54068600D01*
X75281000Y42841700D02*
X75035300Y43087400D01*
X75281000Y7608000D02*
X75281000Y42841700D01*
X73882000Y6209000D02*
X75281000Y7608000D01*
X72803900Y71700000D02*
X83675000Y71700000D01*
X69503500Y68399600D02*
X72803900Y71700000D01*
X69503500Y63757300D02*
X69503500Y68399600D01*
X70060800Y63200000D02*
X69503500Y63757300D01*
X71620300Y63200000D02*
X70060800Y63200000D01*
X82175000Y61700000D02*
X71620300Y61700000D01*
X83675000Y63200000D02*
X82175000Y61700000D01*
X78175000Y60200000D02*
X71620300Y60200000D01*
X83675000Y54700000D02*
X78175000Y60200000D01*
X74558000Y59700000D02*
X71620300Y59700000D01*
X83675000Y50583000D02*
X74558000Y59700000D01*
X83675000Y46200000D02*
X83675000Y50583000D01*
X83675000Y37700000D02*
X82410000Y37700000D01*
X79611000Y43587600D02*
X77286800Y45911800D01*
X77286800Y45911800D02*
X77286800Y55007100D01*
X77286800Y55007100D02*
X74093900Y58200000D01*
X71620300Y58200000D02*
X74093900Y58200000D01*
X79611000Y40499000D02*
X79611000Y43587600D01*
X82410000Y37700000D02*
X79611000Y40499000D01*
X73957000Y57700000D02*
X71620300Y57700000D01*
X76836500Y54820500D02*
X73957000Y57700000D01*
X76836500Y45725200D02*
X76836500Y54820500D01*
X79089000Y43472700D02*
X76836500Y45725200D01*
X79089000Y26656000D02*
X79089000Y43472700D01*
X71620300Y57200000D02*
X72783800Y57200000D01*
X73820100Y57200000D02*
X72783800Y57200000D01*
X76386200Y54633900D02*
X73820100Y57200000D01*
X76386200Y45538600D02*
X76386200Y54633900D01*
X77509300Y44415500D02*
X76386200Y45538600D01*
X77509300Y24806700D02*
X77509300Y44415500D01*
X79089000Y23227000D02*
X77509300Y24806700D01*
X73683200Y56700000D02*
X71620300Y56700000D01*
X75935900Y54447300D02*
X73683200Y56700000D01*
X75935900Y45352000D02*
X75935900Y54447300D01*
X77059000Y44228900D02*
X75935900Y45352000D01*
X77059000Y16748000D02*
X77059000Y44228900D01*
X79089000Y14718000D02*
X77059000Y16748000D01*
X73546300Y56200000D02*
X71620300Y56200000D01*
X75485600Y54260700D02*
X73546300Y56200000D01*
X75485600Y45165400D02*
X75485600Y54260700D01*
X76608700Y44042300D02*
X75485600Y45165400D01*
X76608700Y8689300D02*
X76608700Y44042300D01*
X79089000Y6209000D02*
X76608700Y8689300D01*
X68704100Y63853500D02*
X68704100Y69401800D01*
X69857600Y62700000D02*
X68704100Y63853500D01*
X71620300Y62700000D02*
X69857600Y62700000D01*
X85568400Y63856600D02*
X86225000Y63200000D01*
X83306100Y63856600D02*
X85568400Y63856600D01*
X81649500Y62200000D02*
X83306100Y63856600D01*
X71620300Y62200000D02*
X81649500Y62200000D01*
X79725000Y61200000D02*
X71620300Y61200000D01*
X86225000Y54700000D02*
X79725000Y61200000D01*
X86225000Y53434600D02*
X86225000Y46200000D01*
X78959600Y60700000D02*
X86225000Y53434600D01*
X71620300Y60700000D02*
X78959600Y60700000D01*
X81121000Y43801000D02*
X81121000Y42531000D01*
X81121000Y43801000D02*
X78187400Y46734600D01*
X78187400Y46734600D02*
X78187400Y55380300D01*
X78187400Y55380300D02*
X74367700Y59200000D01*
X74367700Y59200000D02*
X72783800Y59200000D01*
X71620300Y59200000D02*
X72783800Y59200000D01*
X85952000Y37700000D02*
X86225000Y37700000D01*
X81121000Y42531000D02*
X85952000Y37700000D01*
X74230800Y58700000D02*
X71620300Y58700000D01*
X77737100Y55193700D02*
X74230800Y58700000D01*
X77737100Y46187900D02*
X77737100Y55193700D01*
X80105000Y43820000D02*
X77737100Y46187900D01*
X80105000Y42404000D02*
X80105000Y43820000D01*
X86225000Y36284000D02*
X80105000Y42404000D01*
X86225000Y29200000D02*
X86225000Y36284000D01*
X86225000Y21009800D02*
X86225000Y20700000D01*
X89779000Y24563800D02*
X86225000Y21009800D01*
X89779000Y29426000D02*
X89779000Y24563800D01*
X95053000Y34700000D02*
X89779000Y29426000D01*
X98279700Y34700000D02*
X95053000Y34700000D01*
X90812000Y16787000D02*
X86225000Y12200000D01*
X90812000Y29822100D02*
X90812000Y16787000D01*
X95189900Y34200000D02*
X90812000Y29822100D01*
X98279700Y34200000D02*
X95189900Y34200000D01*
X91262300Y8737300D02*
X86225000Y3700000D01*
X91262300Y29635500D02*
X91262300Y8737300D01*
X95326800Y33700000D02*
X91262300Y29635500D01*
X98279700Y33700000D02*
X95326800Y33700000D01*
X95569600Y35200000D02*
X98279700Y35200000D01*
X92843000Y37926600D02*
X95569600Y35200000D01*
X92843000Y63778000D02*
X92843000Y37926600D01*
X98393000Y69328000D02*
X92843000Y63778000D01*
X95903000Y36200000D02*
X98279700Y36200000D01*
X93806800Y38296200D02*
X95903000Y36200000D01*
X93806800Y56331800D02*
X93806800Y38296200D01*
X100675000Y63200000D02*
X93806800Y56331800D01*
X98279700Y37700000D02*
X97116200Y37700000D01*
X96417600Y37700000D02*
X97116200Y37700000D01*
X95253900Y38863700D02*
X96417600Y37700000D01*
X95253900Y49278900D02*
X95253900Y38863700D01*
X100675000Y54700000D02*
X95253900Y49278900D01*
X98279700Y38700000D02*
X97116200Y38700000D01*
X96729800Y38700000D02*
X97116200Y38700000D01*
X96166300Y39263500D02*
X96729800Y38700000D01*
X96166300Y41691300D02*
X96166300Y39263500D01*
X100675000Y46200000D02*
X96166300Y41691300D01*
X97116200Y40516200D02*
X97116200Y39700000D01*
X98550000Y41950000D02*
X97116200Y40516200D01*
X98279700Y39700000D02*
X97116200Y39700000D01*
X96943900Y28200000D02*
X98279700Y28200000D01*
X96215600Y27471700D02*
X96943900Y28200000D01*
X96215600Y24561200D02*
X96215600Y27471700D01*
X96612100Y24164700D02*
X96215600Y24561200D01*
X97764700Y24164700D02*
X96612100Y24164700D01*
X98550000Y24950000D02*
X97764700Y24164700D01*
X93513800Y23189900D02*
X94708300Y21995400D01*
X93513800Y28702500D02*
X93513800Y23189900D01*
X96011300Y31200000D02*
X93513800Y28702500D01*
X98279700Y31200000D02*
X96011300Y31200000D01*
X92613200Y20261800D02*
X100675000Y12200000D01*
X92613200Y29075700D02*
X92613200Y20261800D01*
X95737500Y32200000D02*
X92613200Y29075700D01*
X98279700Y32200000D02*
X95737500Y32200000D01*
X91712600Y12662400D02*
X100675000Y3700000D01*
X91712600Y29448900D02*
X91712600Y12662400D01*
X95463700Y33200000D02*
X91712600Y29448900D01*
X98279700Y33200000D02*
X95463700Y33200000D01*
X98279700Y35700000D02*
X97116200Y35700000D01*
X95724600Y35700000D02*
X97116200Y35700000D01*
X93301800Y38122800D02*
X95724600Y35700000D01*
X93301800Y60680800D02*
X93301800Y38122800D01*
X100679000Y68058000D02*
X93301800Y60680800D01*
X96099900Y36700000D02*
X98279700Y36700000D01*
X94275900Y38524000D02*
X96099900Y36700000D01*
X94275900Y54161900D02*
X94275900Y38524000D01*
X100679000Y60565000D02*
X94275900Y54161900D01*
X98279700Y37200000D02*
X97116200Y37200000D01*
X96277500Y37200000D02*
X97116200Y37200000D01*
X94747900Y38729600D02*
X96277500Y37200000D01*
X94747900Y51712900D02*
X94747900Y38729600D01*
X100679000Y57644000D02*
X94747900Y51712900D01*
X96574600Y38200000D02*
X98279700Y38200000D01*
X95707300Y39067300D02*
X96574600Y38200000D01*
X95707300Y44544300D02*
X95707300Y39067300D01*
X100679000Y49516000D02*
X95707300Y44544300D01*
X96912500Y39200000D02*
X98279700Y39200000D01*
X96649600Y39462900D02*
X96912500Y39200000D01*
X96649600Y40955500D02*
X96649600Y39462900D01*
X99262300Y43568200D02*
X96649600Y40955500D01*
X99495800Y43568200D02*
X99262300Y43568200D01*
X96720200Y28700000D02*
X98279700Y28700000D01*
X95765300Y27745100D02*
X96720200Y28700000D01*
X95765300Y24374600D02*
X95765300Y27745100D01*
X96429800Y23710100D02*
X95765300Y24374600D01*
X104110100Y23710100D02*
X96429800Y23710100D01*
X105350000Y24950000D02*
X104110100Y23710100D01*
X96148200Y30700000D02*
X98279700Y30700000D01*
X93964100Y28515900D02*
X96148200Y30700000D01*
X93964100Y23628200D02*
X93964100Y28515900D01*
X98712600Y18879700D02*
X93964100Y23628200D01*
X98712600Y17911300D02*
X98712600Y18879700D01*
X107618500Y17911400D02*
X107618500Y17911300D01*
X106013600Y17911400D02*
X107618500Y17911400D01*
X103225000Y20700000D02*
X106013600Y17911400D01*
X98279700Y31700000D02*
X97116200Y31700000D01*
X93063500Y22361500D02*
X103225000Y12200000D01*
X93063500Y28889100D02*
X93063500Y22361500D01*
X95874400Y31700000D02*
X93063500Y28889100D01*
X97116200Y31700000D02*
X95874400Y31700000D01*
X98279700Y32700000D02*
X97116200Y32700000D01*
X92162900Y14762100D02*
X103225000Y3700000D01*
X92162900Y29262300D02*
X92162900Y14762100D01*
X95600600Y32700000D02*
X92162900Y29262300D01*
X97116200Y32700000D02*
X95600600Y32700000D01*
X106571000Y39700000D02*
X105620300Y39700000D01*
X106783800Y39912800D02*
X106571000Y39700000D01*
X106783800Y60808800D02*
X106783800Y39912800D01*
X117675000Y71700000D02*
X106783800Y60808800D01*
X108134700Y53659700D02*
X117675000Y63200000D01*
X108134700Y39210100D02*
X108134700Y53659700D01*
X107124600Y38200000D02*
X108134700Y39210100D01*
X105620300Y38200000D02*
X107124600Y38200000D01*
X109485600Y46510600D02*
X117675000Y54700000D01*
X109485600Y38640500D02*
X109485600Y46510600D01*
X107545100Y36700000D02*
X109485600Y38640500D01*
X105620300Y36700000D02*
X107545100Y36700000D01*
X105620300Y35200000D02*
X106783800Y35200000D01*
X117675000Y44919200D02*
X117675000Y46200000D01*
X107955800Y35200000D02*
X117675000Y44919200D01*
X106783800Y35200000D02*
X107955800Y35200000D01*
X113692000Y33700000D02*
X105620300Y33700000D01*
X117697000Y37705000D02*
X113692000Y33700000D01*
X114675000Y32200000D02*
X105620300Y32200000D01*
X117675000Y29200000D02*
X114675000Y32200000D01*
X96558900Y29200000D02*
X98279700Y29200000D01*
X95315000Y27956100D02*
X96558900Y29200000D01*
X95315000Y24188000D02*
X95315000Y27956100D01*
X96281900Y23221100D02*
X95315000Y24188000D01*
X110214100Y23221100D02*
X96281900Y23221100D01*
X111022300Y24029300D02*
X110214100Y23221100D01*
X96422000Y29700000D02*
X98279700Y29700000D01*
X94864700Y28142700D02*
X96422000Y29700000D01*
X94864700Y24001400D02*
X94864700Y28142700D01*
X102896700Y15969400D02*
X94864700Y24001400D01*
X111103600Y15969400D02*
X102896700Y15969400D01*
X96285100Y30200000D02*
X98279700Y30200000D01*
X94414400Y28329300D02*
X96285100Y30200000D01*
X94414400Y23814800D02*
X94414400Y28329300D01*
X114529200Y3700000D02*
X94414400Y23814800D01*
X117675000Y3700000D02*
X114529200Y3700000D01*
X105620300Y39200000D02*
X106783800Y39200000D01*
X107234100Y58709100D02*
X120225000Y71700000D01*
X107234100Y39650300D02*
X107234100Y58709100D01*
X106783800Y39200000D02*
X107234100Y39650300D01*
X105620300Y37700000D02*
X106783800Y37700000D01*
X108585000Y51560000D02*
X120225000Y63200000D01*
X108585000Y39023500D02*
X108585000Y51560000D01*
X107261500Y37700000D02*
X108585000Y39023500D01*
X106783800Y37700000D02*
X107261500Y37700000D01*
X109935900Y44410900D02*
X120225000Y54700000D01*
X109935900Y38453900D02*
X109935900Y44410900D01*
X107682000Y36200000D02*
X109935900Y38453900D01*
X105620300Y36200000D02*
X107682000Y36200000D01*
X108725000Y34700000D02*
X105620300Y34700000D01*
X120225000Y46200000D02*
X108725000Y34700000D01*
X115725000Y33200000D02*
X105620300Y33200000D01*
X120225000Y37700000D02*
X115725000Y33200000D01*
X119593800Y28552800D02*
X120237000Y29196000D01*
X116245300Y28552800D02*
X119593800Y28552800D01*
X113098100Y31700000D02*
X116245300Y28552800D01*
X105620300Y31700000D02*
X113098100Y31700000D01*
X110225000Y30700000D02*
X105620300Y30700000D01*
X120225000Y20700000D02*
X110225000Y30700000D01*
X121034500Y16414100D02*
X121287500Y16414100D01*
X116538000Y20910600D02*
X121034500Y16414100D01*
X116538000Y21977500D02*
X116538000Y20910600D01*
X108815500Y29700000D02*
X116538000Y21977500D01*
X105620300Y29700000D02*
X108815500Y29700000D01*
X108509800Y28700000D02*
X105620300Y28700000D01*
X112793300Y24416500D02*
X108509800Y28700000D01*
X112793300Y11131700D02*
X112793300Y24416500D01*
X120225000Y3700000D02*
X112793300Y11131700D01*
X106987700Y38700000D02*
X105620300Y38700000D01*
X107684400Y39396700D02*
X106987700Y38700000D01*
X107684400Y54139200D02*
X107684400Y39396700D01*
X125245200Y71700000D02*
X107684400Y54139200D01*
X134675000Y71700000D02*
X125245200Y71700000D01*
X107408200Y37200000D02*
X105620300Y37200000D01*
X109035300Y38827100D02*
X107408200Y37200000D01*
X109035300Y46990100D02*
X109035300Y38827100D01*
X125245200Y63200000D02*
X109035300Y46990100D01*
X134675000Y63200000D02*
X125245200Y63200000D01*
X105620300Y35700000D02*
X106783800Y35700000D01*
X125283800Y54700000D02*
X134675000Y54700000D01*
X110386200Y39802400D02*
X125283800Y54700000D01*
X110386200Y38267300D02*
X110386200Y39802400D01*
X107818900Y35700000D02*
X110386200Y38267300D01*
X106783800Y35700000D02*
X107818900Y35700000D01*
X123250500Y46200000D02*
X134675000Y46200000D01*
X111250500Y34200000D02*
X123250500Y46200000D01*
X105620300Y34200000D02*
X111250500Y34200000D01*
X129675000Y32700000D02*
X105620300Y32700000D01*
X134675000Y37700000D02*
X129675000Y32700000D01*
X133521200Y28046200D02*
X134675000Y29200000D01*
X116114900Y28046200D02*
X133521200Y28046200D01*
X112961100Y31200000D02*
X116114900Y28046200D01*
X105620300Y31200000D02*
X112961100Y31200000D01*
X109759100Y30200000D02*
X105620300Y30200000D01*
X119915700Y20043400D02*
X109759100Y30200000D01*
X134018400Y20043400D02*
X119915700Y20043400D01*
X134675000Y20700000D02*
X134018400Y20043400D01*
X124611700Y12200000D02*
X134675000Y12200000D01*
X115928400Y20883300D02*
X124611700Y12200000D01*
X115928400Y21918300D02*
X115928400Y20883300D01*
X108646700Y29200000D02*
X115928400Y21918300D01*
X105620300Y29200000D02*
X108646700Y29200000D01*
X108372900Y28200000D02*
X105620300Y28200000D01*
X112164400Y24408500D02*
X108372900Y28200000D01*
X112164400Y10852800D02*
X112164400Y24408500D01*
X119973800Y3043400D02*
X112164400Y10852800D01*
X134018400Y3043400D02*
X119973800Y3043400D01*
X134675000Y3700000D02*
X134018400Y3043400D01*
X53054000Y24243000D02*
X55213000Y24243000D01*
X37620300Y22700000D02*
X38571000Y22700000D01*
X38571000Y22700000D02*
X38783800Y22912800D01*
X38783800Y22912800D02*
X38783800Y24014100D01*
X38783800Y24014100D02*
X38592000Y24205900D01*
X64484000Y26021000D02*
X65309500Y25195500D01*
X56991000Y26021000D02*
X64484000Y26021000D01*
X55213000Y24243000D02*
X56991000Y26021000D01*
X70707000Y4367000D02*
X68830000Y2490000D01*
X70707000Y20933000D02*
X70707000Y4367000D01*
X68830000Y22810000D02*
X70707000Y20933000D01*
X87390300Y26130300D02*
X87878100Y25642500D01*
X87390300Y63759500D02*
X87390300Y26130300D01*
X85949800Y65200000D02*
X87390300Y63759500D01*
X71620300Y65200000D02*
X85949800Y65200000D01*
X87390300Y26130300D02*
X84070000Y22810000D01*
X97116200Y25835400D02*
X97309100Y25642500D01*
X97116200Y26987200D02*
X97116200Y25835400D01*
X97329000Y27200000D02*
X97116200Y26987200D01*
X98279700Y27200000D02*
X97329000Y27200000D01*
X65309500Y7098000D02*
X65309500Y2589500D01*
X65309500Y2589500D02*
X67024000Y875000D01*
X67024000Y875000D02*
X82455000Y875000D01*
X84070000Y2490000D02*
X82455000Y875000D01*
X38449000Y7161500D02*
X38830000Y6780500D01*
X38830000Y6780500D02*
X45243500Y6780500D01*
X38449000Y8876000D02*
X37624986Y9700014D01*
X38449000Y8876000D02*
X38449000Y7161500D01*
X37620300Y9700014D02*
X37624986Y9700014D01*
X98279700Y26599800D02*
X98279700Y26700000D01*
X99130100Y25749400D02*
X98279700Y26599800D01*
X105474700Y25749400D02*
X99130100Y25749400D01*
X106018900Y25205200D02*
X105474700Y25749400D01*
X106018900Y24705600D02*
X106018900Y25205200D01*
X106419900Y24304600D02*
X106018900Y24705600D01*
X110264000Y24304600D02*
X106419900Y24304600D01*
X110627300Y24667900D02*
X110264000Y24304600D01*
X111268100Y24667900D02*
X110627300Y24667900D01*
X111676700Y24259300D02*
X111268100Y24667900D01*
X111676700Y20518400D02*
X111676700Y24259300D01*
X107922900Y16764600D02*
X111676700Y20518400D01*
X105620300Y27200012D02*
X107239988Y27200012D01*
X85439000Y8939000D02*
X84070000Y7570000D01*
X85439000Y8939000D02*
X85439000Y13323600D01*
X85439000Y13323600D02*
X90178500Y18063100D01*
X90178500Y18063100D02*
X90178500Y24079000D01*
X107239988Y27200012D02*
X107810000Y26630000D01*
X39789600Y65545100D02*
X35963000Y61718500D01*
X35963000Y61718500D02*
X35963000Y26061500D01*
X41469900Y65545100D02*
X39789600Y65545100D01*
X41497000Y65518000D02*
X41469900Y65545100D01*
X51911000Y22909500D02*
X55213000Y22909500D01*
X55213000Y22909500D02*
X57499000Y25195500D01*
X57499000Y25195500D02*
X63595000Y25195500D01*
X63595000Y25195500D02*
X65309500Y23481000D01*
X29116200Y23775400D02*
X29116200Y24117700D01*
X29116200Y24117700D02*
X29495500Y24497000D01*
X29495500Y24497000D02*
X30067000Y24497000D01*
X29116200Y22845400D02*
X29116200Y23775400D01*
X29261600Y22700000D02*
X29116200Y22845400D01*
X29261600Y22700000D02*
X30279700Y22700000D01*
X72485000Y5447000D02*
X73183500Y4748500D01*
X73183500Y4748500D02*
X81248500Y4748500D01*
X84070000Y7570000D02*
X81248500Y4748500D01*
X72485000Y17448500D02*
X72485000Y5447000D01*
X72421500Y17385000D02*
X72485000Y17448500D01*
X64279700Y65200000D02*
X63116200Y65200000D01*
X58924200Y69776500D02*
X58319900Y69776500D01*
X63116200Y65584500D02*
X58924200Y69776500D01*
X63116200Y65200000D02*
X63116200Y65584500D01*
X56673500Y26783000D02*
X65246000Y26783000D01*
X37620300Y22200000D02*
X38783800Y22200000D01*
X39234100Y24917600D02*
X39030500Y25121200D01*
X39234100Y22650300D02*
X39234100Y24917600D01*
X38783800Y22200000D02*
X39234100Y22650300D01*
X53689000Y24878000D02*
X53435000Y25132000D01*
X54768500Y24878000D02*
X53689000Y24878000D01*
X56673500Y26783000D02*
X54768500Y24878000D01*
X65246000Y26783000D02*
X65563500Y26465500D01*
X86894100Y28174100D02*
X84070000Y25350000D01*
X86894100Y63509500D02*
X86894100Y28174100D01*
X85703600Y64700000D02*
X86894100Y63509500D01*
X71620300Y64700000D02*
X85703600Y64700000D01*
X82031600Y22308400D02*
X84070000Y20270000D01*
X82031600Y23311600D02*
X82031600Y22308400D01*
X84070000Y25350000D02*
X82031600Y23311600D01*
X82917900Y11262100D02*
X84070000Y10110000D01*
X82917900Y19117900D02*
X82917900Y11262100D01*
X84070000Y20270000D02*
X82917900Y19117900D01*
X98279700Y27700000D02*
X97116200Y27700000D01*
X96665900Y27249700D02*
X97116200Y27700000D01*
X96665900Y24995400D02*
X96665900Y27249700D01*
X96854000Y24807300D02*
X96665900Y24995400D01*
X98279700Y40664700D02*
X98279700Y40200000D01*
X101354300Y43739300D02*
X98279700Y40664700D01*
X101354300Y68332500D02*
X101354300Y43739300D01*
X99702100Y69984700D02*
X101354300Y68332500D01*
X77068500Y69984700D02*
X99702100Y69984700D01*
X72783800Y65700000D02*
X77068500Y69984700D01*
X71620300Y65700000D02*
X72783800Y65700000D01*
X71797000Y52200000D02*
X71620300Y52200000D01*
X37620300Y23396200D02*
X37620300Y23200000D01*
X36670100Y24346400D02*
X37620300Y23396200D01*
X36670100Y43855200D02*
X36670100Y24346400D01*
X41908800Y49093900D02*
X36670100Y43855200D01*
X70917000Y49093900D02*
X41908800Y49093900D01*
X71999500Y50176400D02*
X70917000Y49093900D01*
X71999500Y51820800D02*
X71999500Y50176400D01*
X71620300Y52200000D02*
X71999500Y51820800D01*
D27*
G36*
X134588000Y72635076D02*
X134489833Y72635162D01*
X134146057Y72493117D01*
X134112882Y72460000D01*
X125245200Y72460000D01*
X124954361Y72402148D01*
X124707799Y72237401D01*
X107994100Y55523702D01*
X107994100Y58394298D01*
X120364680Y70764878D01*
X120410167Y70764838D01*
X120753943Y70906883D01*
X121017192Y71169673D01*
X121159838Y71513201D01*
X121160162Y71885167D01*
X121018117Y72228943D01*
X120755327Y72492192D01*
X120411799Y72634838D01*
X120039833Y72635162D01*
X119696057Y72493117D01*
X119432808Y72230327D01*
X119290162Y71886799D01*
X119290121Y71839923D01*
X107543800Y60093602D01*
X107543800Y60493998D01*
X117814680Y70764878D01*
X117860167Y70764838D01*
X118203943Y70906883D01*
X118467192Y71169673D01*
X118609838Y71513201D01*
X118610162Y71885167D01*
X118468117Y72228943D01*
X118205327Y72492192D01*
X117861799Y72634838D01*
X117489833Y72635162D01*
X117146057Y72493117D01*
X116882808Y72230327D01*
X116740162Y71886799D01*
X116740121Y71839923D01*
X106246399Y61346201D01*
X106081652Y61099639D01*
X106023800Y60808800D01*
X106023800Y40987386D01*
X105906050Y40987386D01*
X105747300Y40828636D01*
X105747300Y40499828D01*
X105493300Y40499828D01*
X105493300Y40828636D01*
X105334550Y40987386D01*
X104655791Y40987386D01*
X104422402Y40890713D01*
X104243773Y40712085D01*
X104147100Y40478696D01*
X104147100Y40434936D01*
X104304233Y40277803D01*
X104185669Y40104278D01*
X104160105Y39978041D01*
X104147100Y39965036D01*
X104147100Y39921276D01*
X104148114Y39918827D01*
X104134660Y39852388D01*
X104134660Y39547588D01*
X104153699Y39446405D01*
X104134660Y39352388D01*
X104134660Y39047588D01*
X104153699Y38946406D01*
X104134660Y38852390D01*
X104134660Y38547590D01*
X104153699Y38446407D01*
X104134660Y38352390D01*
X104134660Y38047590D01*
X104153699Y37946408D01*
X104134660Y37852391D01*
X104134660Y37547591D01*
X104153699Y37446409D01*
X104134660Y37352392D01*
X104134660Y37047592D01*
X104153699Y36946410D01*
X104134660Y36852394D01*
X104134660Y36547594D01*
X104153699Y36446411D01*
X104134660Y36352394D01*
X104134660Y36047594D01*
X104153699Y35946412D01*
X104134660Y35852396D01*
X104134660Y35547596D01*
X104153699Y35446413D01*
X104134660Y35352396D01*
X104134660Y35047596D01*
X104153699Y34946414D01*
X104134660Y34852397D01*
X104134660Y34547597D01*
X104153699Y34446415D01*
X104134660Y34352398D01*
X104134660Y34047598D01*
X104153699Y33946416D01*
X104134660Y33852400D01*
X104134660Y33547600D01*
X104153699Y33446417D01*
X104134660Y33352400D01*
X104134660Y33047600D01*
X104153699Y32946418D01*
X104134660Y32852402D01*
X104134660Y32547602D01*
X104153699Y32446420D01*
X104134660Y32352403D01*
X104134660Y32047603D01*
X104153699Y31946421D01*
X104134660Y31852404D01*
X104134660Y31547604D01*
X104153699Y31446421D01*
X104134660Y31352404D01*
X104134660Y31047604D01*
X104153699Y30946422D01*
X104134660Y30852406D01*
X104134660Y30547606D01*
X104153699Y30446423D01*
X104134660Y30352406D01*
X104134660Y30047606D01*
X104153699Y29946424D01*
X104134660Y29852408D01*
X104134660Y29547608D01*
X104153699Y29446426D01*
X104134660Y29352409D01*
X104134660Y29047609D01*
X104153699Y28946427D01*
X104134660Y28852410D01*
X104134660Y28547610D01*
X104153699Y28446427D01*
X104134660Y28352410D01*
X104134660Y28047610D01*
X104153699Y27946428D01*
X104134660Y27852412D01*
X104134660Y27547612D01*
X104153699Y27446429D01*
X104134660Y27352412D01*
X104134660Y27047612D01*
X104147459Y26979591D01*
X104147100Y26978724D01*
X104147100Y26934964D01*
X104157886Y26924178D01*
X104178938Y26812295D01*
X104302426Y26620390D01*
X104191436Y26509400D01*
X99757601Y26509400D01*
X99765340Y26547614D01*
X99765340Y26852414D01*
X99746301Y26953596D01*
X99765340Y27047612D01*
X99765340Y27352412D01*
X99746301Y27453595D01*
X99765340Y27547612D01*
X99765340Y27852412D01*
X99746301Y27953594D01*
X99765340Y28047610D01*
X99765340Y28352410D01*
X99746301Y28453593D01*
X99765340Y28547610D01*
X99765340Y28852410D01*
X99746301Y28953592D01*
X99765340Y29047609D01*
X99765340Y29352409D01*
X99746301Y29453591D01*
X99765340Y29547608D01*
X99765340Y29852408D01*
X99746301Y29953590D01*
X99765340Y30047606D01*
X99765340Y30352406D01*
X99746301Y30453589D01*
X99765340Y30547606D01*
X99765340Y30852406D01*
X99746301Y30953588D01*
X99765340Y31047604D01*
X99765340Y31352404D01*
X99746301Y31453587D01*
X99765340Y31547604D01*
X99765340Y31852404D01*
X99746301Y31953586D01*
X99765340Y32047603D01*
X99765340Y32352403D01*
X99746301Y32453585D01*
X99765340Y32547602D01*
X99765340Y32852402D01*
X99746301Y32953584D01*
X99765340Y33047600D01*
X99765340Y33352400D01*
X99746301Y33453583D01*
X99765340Y33547600D01*
X99765340Y33852400D01*
X99746301Y33953582D01*
X99765340Y34047598D01*
X99765340Y34352398D01*
X99746301Y34453580D01*
X99765340Y34547597D01*
X99765340Y34852397D01*
X99746301Y34953579D01*
X99765340Y35047596D01*
X99765340Y35352396D01*
X99746301Y35453579D01*
X99765340Y35547596D01*
X99765340Y35852396D01*
X99746301Y35953578D01*
X99765340Y36047594D01*
X99765340Y36352394D01*
X99746301Y36453577D01*
X99765340Y36547594D01*
X99765340Y36852394D01*
X99746301Y36953576D01*
X99765340Y37047592D01*
X99765340Y37352392D01*
X99746301Y37453574D01*
X99765340Y37547591D01*
X99765340Y37852391D01*
X99746301Y37953573D01*
X99765340Y38047590D01*
X99765340Y38352390D01*
X99746301Y38453573D01*
X99765340Y38547590D01*
X99765340Y38852390D01*
X99746301Y38953572D01*
X99765340Y39047588D01*
X99765340Y39352388D01*
X99746301Y39453571D01*
X99765340Y39547588D01*
X99765340Y39852388D01*
X99746301Y39953570D01*
X99765340Y40047586D01*
X99765340Y40352386D01*
X99721062Y40587703D01*
X99581990Y40803827D01*
X99529496Y40839694D01*
X101891701Y43201899D01*
X102056448Y43448461D01*
X102114300Y43739300D01*
X102114300Y68332500D01*
X102056448Y68623339D01*
X101891701Y68869901D01*
X100239501Y70522101D01*
X99992939Y70686848D01*
X99702100Y70744700D01*
X77068500Y70744700D01*
X76777661Y70686848D01*
X76531099Y70522101D01*
X72500349Y66491351D01*
X72458500Y66499826D01*
X71474628Y66499826D01*
X71489680Y66514878D01*
X71535167Y66514838D01*
X71878943Y66656883D01*
X72142192Y66919673D01*
X72284838Y67263201D01*
X72285162Y67635167D01*
X72143117Y67978943D01*
X71880327Y68242192D01*
X71536799Y68384838D01*
X71473695Y68384893D01*
X71481680Y68392878D01*
X71527167Y68392838D01*
X71870943Y68534883D01*
X72134192Y68797673D01*
X72276838Y69141201D01*
X72277162Y69513167D01*
X72135117Y69856943D01*
X72085424Y69906722D01*
X73118702Y70940000D01*
X83112537Y70940000D01*
X83144673Y70907808D01*
X83488201Y70765162D01*
X83860167Y70764838D01*
X84203943Y70906883D01*
X84467192Y71169673D01*
X84609838Y71513201D01*
X84609839Y71514833D01*
X85289838Y71514833D01*
X85431883Y71171057D01*
X85694673Y70907808D01*
X86038201Y70765162D01*
X86410167Y70764838D01*
X86753943Y70906883D01*
X87017192Y71169673D01*
X87159838Y71513201D01*
X87160162Y71885167D01*
X87018117Y72228943D01*
X86755327Y72492192D01*
X86411799Y72634838D01*
X86039833Y72635162D01*
X85696057Y72493117D01*
X85432808Y72230327D01*
X85290162Y71886799D01*
X85289838Y71514833D01*
X84609839Y71514833D01*
X84610162Y71885167D01*
X84468117Y72228943D01*
X84205327Y72492192D01*
X83861799Y72634838D01*
X83489833Y72635162D01*
X83146057Y72493117D01*
X83112882Y72460000D01*
X72803900Y72460000D01*
X72561314Y72411746D01*
X72513060Y72402148D01*
X72266499Y72237401D01*
X69632480Y69603382D01*
X69497217Y69930743D01*
X69234427Y70193992D01*
X68890899Y70336638D01*
X68518933Y70336962D01*
X68175157Y70194917D01*
X67911908Y69932127D01*
X67769262Y69588599D01*
X67768938Y69216633D01*
X67910983Y68872857D01*
X67944100Y68839682D01*
X67944100Y63853500D01*
X68001952Y63562661D01*
X68166699Y63316099D01*
X69320199Y62162599D01*
X69566760Y61997852D01*
X69857600Y61940000D01*
X70152401Y61940000D01*
X70134660Y61852394D01*
X70134660Y61547594D01*
X70153699Y61446412D01*
X70134660Y61352396D01*
X70134660Y61047596D01*
X70153699Y60946413D01*
X70134660Y60852396D01*
X70134660Y60547596D01*
X70153699Y60446414D01*
X70134660Y60352397D01*
X70134660Y60047597D01*
X70153699Y59946415D01*
X70134660Y59852398D01*
X70134660Y59547598D01*
X70153699Y59446416D01*
X70134660Y59352400D01*
X70134660Y59047600D01*
X70153699Y58946417D01*
X70134660Y58852400D01*
X70134660Y58547600D01*
X70153699Y58446418D01*
X70134660Y58352402D01*
X70134660Y58047602D01*
X70153699Y57946420D01*
X70134660Y57852403D01*
X70134660Y57547603D01*
X70153699Y57446421D01*
X70134660Y57352404D01*
X70134660Y57047604D01*
X70153699Y56946421D01*
X70134660Y56852404D01*
X70134660Y56547604D01*
X70153699Y56446422D01*
X70134660Y56352406D01*
X70134660Y56047606D01*
X70153699Y55946423D01*
X70134660Y55852406D01*
X70134660Y55547606D01*
X70153699Y55446424D01*
X70134660Y55352408D01*
X70134660Y55047608D01*
X70153699Y54946426D01*
X70134660Y54852409D01*
X70134660Y54547609D01*
X70153699Y54446427D01*
X70134660Y54352410D01*
X70134660Y54047610D01*
X70153699Y53946427D01*
X70134660Y53852410D01*
X70134660Y53547610D01*
X70153699Y53446428D01*
X70141410Y53385743D01*
X69919399Y53237401D01*
X69754652Y52990839D01*
X69696800Y52700000D01*
X69696800Y51343200D01*
X69754652Y51052361D01*
X69919399Y50805799D01*
X70414878Y50310320D01*
X70414838Y50264833D01*
X70556883Y49921057D01*
X70613070Y49864772D01*
X70602198Y49853900D01*
X65276304Y49853900D01*
X65342192Y49919673D01*
X65484838Y50263201D01*
X65485162Y50635167D01*
X65343117Y50978943D01*
X65080327Y51242192D01*
X64736799Y51384838D01*
X64689923Y51384879D01*
X64662188Y51412614D01*
X65244209Y51412614D01*
X65477598Y51509287D01*
X65656227Y51687915D01*
X65752900Y51921304D01*
X65752900Y51965064D01*
X65595767Y52122197D01*
X65714331Y52295722D01*
X65739895Y52421959D01*
X65752900Y52434964D01*
X65752900Y52478724D01*
X65751886Y52481173D01*
X65765340Y52547612D01*
X65765340Y52852412D01*
X65746301Y52953595D01*
X65765340Y53047612D01*
X65765340Y53352412D01*
X65746301Y53453594D01*
X65765340Y53547610D01*
X65765340Y53852410D01*
X65746301Y53953593D01*
X65765340Y54047610D01*
X65765340Y54352410D01*
X65746301Y54453592D01*
X65765340Y54547609D01*
X65765340Y54852409D01*
X65746301Y54953591D01*
X65765340Y55047608D01*
X65765340Y55352408D01*
X65746301Y55453590D01*
X65765340Y55547606D01*
X65765340Y55852406D01*
X65746301Y55953589D01*
X65765340Y56047606D01*
X65765340Y56352406D01*
X65746301Y56453588D01*
X65765340Y56547604D01*
X65765340Y56852404D01*
X65746301Y56953587D01*
X65765340Y57047604D01*
X65765340Y57352404D01*
X65746301Y57453586D01*
X65765340Y57547603D01*
X65765340Y57852403D01*
X65746301Y57953585D01*
X65765340Y58047602D01*
X65765340Y58352402D01*
X65746301Y58453584D01*
X65765340Y58547600D01*
X65765340Y58852400D01*
X65746301Y58953583D01*
X65765340Y59047600D01*
X65765340Y59352400D01*
X65746301Y59453582D01*
X65765340Y59547598D01*
X65765340Y59852398D01*
X65746301Y59953580D01*
X65765340Y60047597D01*
X65765340Y60352397D01*
X65746301Y60453579D01*
X65765340Y60547596D01*
X65765340Y60852396D01*
X65746301Y60953579D01*
X65765340Y61047596D01*
X65765340Y61352396D01*
X65746301Y61453578D01*
X65765340Y61547594D01*
X65765340Y61852394D01*
X65746301Y61953577D01*
X65765340Y62047594D01*
X65765340Y62352394D01*
X65746301Y62453576D01*
X65765340Y62547592D01*
X65765340Y62852392D01*
X65746301Y62953574D01*
X65765340Y63047591D01*
X65765340Y63352391D01*
X65746301Y63453573D01*
X65765340Y63547590D01*
X65765340Y63852390D01*
X65746301Y63953573D01*
X65765340Y64047590D01*
X65765340Y64352390D01*
X65746301Y64453572D01*
X65765340Y64547588D01*
X65765340Y64852388D01*
X65746301Y64953571D01*
X65765340Y65047588D01*
X65765340Y65352388D01*
X65752541Y65420409D01*
X65752900Y65421276D01*
X65752900Y65465036D01*
X65742114Y65475822D01*
X65721062Y65587705D01*
X65597574Y65779610D01*
X65752900Y65934936D01*
X65752900Y65978696D01*
X65656227Y66212085D01*
X65477598Y66390713D01*
X65244209Y66487386D01*
X64565450Y66487386D01*
X64406700Y66328636D01*
X64406700Y65999828D01*
X64152700Y65999828D01*
X64152700Y66328636D01*
X63993950Y66487386D01*
X63315191Y66487386D01*
X63296046Y66479456D01*
X59461601Y70313901D01*
X59215039Y70478648D01*
X58924200Y70536500D01*
X58882363Y70536500D01*
X58850227Y70568692D01*
X58506699Y70711338D01*
X58134733Y70711662D01*
X57790957Y70569617D01*
X57527708Y70306827D01*
X57385062Y69963299D01*
X57384738Y69591333D01*
X57526783Y69247557D01*
X57789573Y68984308D01*
X58133101Y68841662D01*
X58505067Y68841338D01*
X58702841Y68923057D01*
X60641807Y66984091D01*
X60409000Y67030400D01*
X58591963Y67030400D01*
X58559827Y67062592D01*
X58216299Y67205238D01*
X57844333Y67205562D01*
X57500557Y67063517D01*
X57237308Y66800727D01*
X57094662Y66457199D01*
X57094560Y66340428D01*
X57071899Y66349838D01*
X57019800Y66349883D01*
X57019800Y67665200D01*
X56961948Y67956039D01*
X56797201Y68202601D01*
X54052552Y70947250D01*
X61283000Y70947250D01*
X61283000Y70731690D01*
X61379673Y70498301D01*
X61558302Y70319673D01*
X61791691Y70223000D01*
X62232250Y70223000D01*
X62391000Y70381750D01*
X62391000Y71106000D01*
X61441750Y71106000D01*
X61283000Y70947250D01*
X54052552Y70947250D01*
X53265492Y71734310D01*
X61283000Y71734310D01*
X61283000Y71518750D01*
X61441750Y71360000D01*
X62391000Y71360000D01*
X62391000Y72084250D01*
X62645000Y72084250D01*
X62645000Y71360000D01*
X62665000Y71360000D01*
X62665000Y71106000D01*
X62645000Y71106000D01*
X62645000Y70381750D01*
X62803750Y70223000D01*
X63244309Y70223000D01*
X63250518Y70225572D01*
X63225600Y70100300D01*
X63225600Y68961400D01*
X63283452Y68670561D01*
X63448199Y68423999D01*
X63622878Y68249320D01*
X63622838Y68203833D01*
X63736446Y67928881D01*
X63615162Y67636799D01*
X63614838Y67264833D01*
X63756883Y66921057D01*
X64019673Y66657808D01*
X64363201Y66515162D01*
X64735167Y66514838D01*
X65078943Y66656883D01*
X65342192Y66919673D01*
X65484838Y67263201D01*
X65485162Y67635167D01*
X65371554Y67910119D01*
X65492838Y68202201D01*
X65493162Y68574167D01*
X65401507Y68795991D01*
X65403192Y68797673D01*
X65545838Y69141201D01*
X65546162Y69513167D01*
X65404117Y69856943D01*
X65141327Y70120192D01*
X65061108Y70153502D01*
X65110915Y70228043D01*
X65253317Y70254838D01*
X65469441Y70393910D01*
X65614431Y70606110D01*
X65665440Y70858000D01*
X65665440Y71608000D01*
X65621162Y71843317D01*
X65482090Y72059441D01*
X65269890Y72204431D01*
X65018000Y72255440D01*
X63818000Y72255440D01*
X63582683Y72211162D01*
X63479354Y72144671D01*
X63477698Y72146327D01*
X63244309Y72243000D01*
X62803750Y72243000D01*
X62645000Y72084250D01*
X62391000Y72084250D01*
X62232250Y72243000D01*
X61791691Y72243000D01*
X61558302Y72146327D01*
X61379673Y71967699D01*
X61283000Y71734310D01*
X53265492Y71734310D01*
X53160122Y71839680D01*
X53160162Y71885167D01*
X53018117Y72228943D01*
X52755327Y72492192D01*
X52411799Y72634838D01*
X52039833Y72635162D01*
X51696057Y72493117D01*
X51432808Y72230327D01*
X51364435Y72065667D01*
X51192701Y72237401D01*
X50946139Y72402148D01*
X50655300Y72460000D01*
X50237463Y72460000D01*
X50205327Y72492192D01*
X49861799Y72634838D01*
X49489833Y72635162D01*
X49146057Y72493117D01*
X48882808Y72230327D01*
X48740162Y71886799D01*
X48739838Y71514833D01*
X48881883Y71171057D01*
X49144673Y70907808D01*
X49488201Y70765162D01*
X49860167Y70764838D01*
X50203943Y70906883D01*
X50237118Y70940000D01*
X50340498Y70940000D01*
X51192498Y70088000D01*
X38122463Y70088000D01*
X38090327Y70120192D01*
X37746799Y70262838D01*
X37374833Y70263162D01*
X37031057Y70121117D01*
X36767808Y69858327D01*
X36625162Y69514799D01*
X36624838Y69142833D01*
X36766883Y68799057D01*
X37029673Y68535808D01*
X37373201Y68393162D01*
X37745167Y68392838D01*
X38088943Y68534883D01*
X38122118Y68568000D01*
X51943812Y68568000D01*
X51812762Y68252399D01*
X51812438Y67880433D01*
X51954483Y67536657D01*
X52217273Y67273408D01*
X52560801Y67130762D01*
X52607677Y67130721D01*
X53167571Y66570827D01*
X53131808Y66535127D01*
X52989162Y66191599D01*
X52989064Y66079538D01*
X51503422Y67565180D01*
X51503462Y67610667D01*
X51361417Y67954443D01*
X51098627Y68217692D01*
X50755099Y68360338D01*
X50383133Y68360662D01*
X50039357Y68218617D01*
X49776108Y67955827D01*
X49633462Y67612299D01*
X49633138Y67240333D01*
X49775183Y66896557D01*
X50037973Y66633308D01*
X50381501Y66490662D01*
X50428377Y66490621D01*
X54071098Y62847900D01*
X53651902Y62847900D01*
X53160122Y63339680D01*
X53160162Y63385167D01*
X53018117Y63728943D01*
X52755327Y63992192D01*
X52411799Y64134838D01*
X52039833Y64135162D01*
X51696057Y63993117D01*
X51432808Y63730327D01*
X51290162Y63386799D01*
X51289838Y63014833D01*
X51431883Y62671057D01*
X51694673Y62407808D01*
X52038201Y62265162D01*
X52085077Y62265121D01*
X52208098Y62142100D01*
X51807702Y62142100D01*
X50610122Y63339680D01*
X50610162Y63385167D01*
X50468117Y63728943D01*
X50205327Y63992192D01*
X49861799Y64134838D01*
X49489833Y64135162D01*
X49146057Y63993117D01*
X48882808Y63730327D01*
X48740162Y63386799D01*
X48739838Y63014833D01*
X48881883Y62671057D01*
X49144673Y62407808D01*
X49488201Y62265162D01*
X49535077Y62265121D01*
X50185098Y61615100D01*
X43299702Y61615100D01*
X43067122Y61847680D01*
X43067162Y61893167D01*
X42925117Y62236943D01*
X42662327Y62500192D01*
X42318799Y62642838D01*
X41946833Y62643162D01*
X41603057Y62501117D01*
X41339808Y62238327D01*
X41197162Y61894799D01*
X41196838Y61522833D01*
X41338883Y61179057D01*
X41601673Y60915808D01*
X41945201Y60773162D01*
X41992077Y60773121D01*
X42447499Y60317699D01*
X42694061Y60152952D01*
X42984900Y60095100D01*
X47967691Y60095100D01*
X47967571Y59958100D01*
X46684200Y59958100D01*
X46393361Y59900248D01*
X46146799Y59735501D01*
X46068220Y59656922D01*
X46022733Y59656962D01*
X45678957Y59514917D01*
X45415708Y59252127D01*
X45273062Y58908599D01*
X45273004Y58842000D01*
X45079502Y58842000D01*
X44233901Y59687601D01*
X43987339Y59852348D01*
X43696500Y59910200D01*
X38642702Y59910200D01*
X37735652Y60817250D01*
X40198502Y63280100D01*
X43198600Y63280100D01*
X43489439Y63337952D01*
X43736001Y63502699D01*
X44917401Y64684099D01*
X45082148Y64930661D01*
X45140000Y65221500D01*
X45140000Y66037900D01*
X45091746Y66280486D01*
X45082148Y66328740D01*
X44917401Y66575301D01*
X43272601Y68220101D01*
X43026039Y68384848D01*
X42735200Y68442700D01*
X40158400Y68442700D01*
X39867561Y68384848D01*
X39620999Y68220101D01*
X38751920Y67351022D01*
X38706433Y67351062D01*
X38362657Y67209017D01*
X38099408Y66946227D01*
X37956762Y66602699D01*
X37956438Y66230733D01*
X38098483Y65886957D01*
X38361273Y65623708D01*
X38666616Y65496918D01*
X35425599Y62255901D01*
X35260852Y62009339D01*
X35203000Y61718500D01*
X35203000Y26623963D01*
X35170808Y26591827D01*
X35028162Y26248299D01*
X35027838Y25876333D01*
X35169883Y25532557D01*
X35432673Y25269308D01*
X35776201Y25126662D01*
X35910100Y25126545D01*
X35910100Y24346400D01*
X35967952Y24055561D01*
X36132699Y23808999D01*
X36247268Y23694430D01*
X36185669Y23604276D01*
X36134660Y23352386D01*
X36134660Y23047586D01*
X36153699Y22946404D01*
X36134660Y22852388D01*
X36134660Y22547588D01*
X36153699Y22446405D01*
X36134660Y22352388D01*
X36134660Y22047588D01*
X36153699Y21946406D01*
X36134660Y21852390D01*
X36134660Y21547590D01*
X36153699Y21446407D01*
X36134660Y21352390D01*
X36134660Y21047590D01*
X36153699Y20946408D01*
X36134660Y20852391D01*
X36134660Y20547591D01*
X36153699Y20446409D01*
X36134660Y20352392D01*
X36134660Y20047592D01*
X36153699Y19946410D01*
X36134660Y19852394D01*
X36134660Y19547594D01*
X36153699Y19446411D01*
X36134660Y19352394D01*
X36134660Y19047594D01*
X36153699Y18946412D01*
X36134660Y18852396D01*
X36134660Y18547596D01*
X36153699Y18446413D01*
X36134660Y18352396D01*
X36134660Y18047596D01*
X36153699Y17946414D01*
X36134660Y17852397D01*
X36134660Y17547597D01*
X36153699Y17446415D01*
X36134660Y17352398D01*
X36134660Y17047598D01*
X36153699Y16946416D01*
X36134660Y16852400D01*
X36134660Y16547600D01*
X36153699Y16446417D01*
X36134660Y16352400D01*
X36134660Y16047600D01*
X36153699Y15946418D01*
X36134660Y15852402D01*
X36134660Y15547602D01*
X36153699Y15446420D01*
X36134660Y15352403D01*
X36134660Y15047603D01*
X36153699Y14946421D01*
X36134660Y14852404D01*
X36134660Y14547604D01*
X36153699Y14446421D01*
X36134660Y14352404D01*
X36134660Y14047604D01*
X36153699Y13946422D01*
X36134660Y13852406D01*
X36134660Y13547606D01*
X36153699Y13446423D01*
X36134660Y13352406D01*
X36134660Y13047606D01*
X36153699Y12946424D01*
X36134660Y12852408D01*
X36134660Y12547608D01*
X36153699Y12446426D01*
X36134660Y12352409D01*
X36134660Y12047609D01*
X36153699Y11946427D01*
X36134660Y11852410D01*
X36134660Y11547610D01*
X36153699Y11446427D01*
X36134660Y11352410D01*
X36134660Y11047610D01*
X36153699Y10946428D01*
X36134660Y10852412D01*
X36134660Y10547612D01*
X36153699Y10446429D01*
X36134660Y10352412D01*
X36134660Y10047612D01*
X36153699Y9946430D01*
X36134660Y9852414D01*
X36134660Y9547614D01*
X36178938Y9312297D01*
X36318010Y9096173D01*
X36530210Y8951183D01*
X36782100Y8900174D01*
X37350024Y8900174D01*
X37689000Y8561198D01*
X37689000Y7161500D01*
X37746852Y6870661D01*
X37911599Y6624099D01*
X38292599Y6243099D01*
X38539160Y6078352D01*
X38720465Y6042288D01*
X38720338Y5896833D01*
X38862383Y5553057D01*
X39125173Y5289808D01*
X39468701Y5147162D01*
X39840667Y5146838D01*
X40184443Y5288883D01*
X40217618Y5322000D01*
X45624500Y5322000D01*
X45915339Y5379852D01*
X46161901Y5544599D01*
X46606401Y5989099D01*
X46665852Y6078074D01*
X46672883Y6061057D01*
X46935673Y5797808D01*
X47279201Y5655162D01*
X47651167Y5654838D01*
X47994943Y5796883D01*
X48258192Y6059673D01*
X48400838Y6403201D01*
X48400910Y6485288D01*
X49214599Y5671599D01*
X49461161Y5506852D01*
X49752000Y5449000D01*
X50332537Y5449000D01*
X50364673Y5416808D01*
X50708201Y5274162D01*
X51080167Y5273838D01*
X51423943Y5415883D01*
X51687192Y5678673D01*
X51784062Y5911961D01*
X51879883Y5680057D01*
X52142673Y5416808D01*
X52486201Y5274162D01*
X52858167Y5273838D01*
X53201943Y5415883D01*
X53347889Y5561574D01*
X53403883Y5426057D01*
X53666673Y5162808D01*
X54010201Y5020162D01*
X54382167Y5019838D01*
X54725943Y5161883D01*
X54989192Y5424673D01*
X55131838Y5768201D01*
X55132162Y6140167D01*
X54990117Y6483943D01*
X54727327Y6747192D01*
X54383799Y6889838D01*
X54336923Y6889879D01*
X53284823Y7941979D01*
X53375148Y8077161D01*
X53433000Y8368000D01*
X53433000Y8440537D01*
X53465192Y8472673D01*
X53492576Y8538622D01*
X53555560Y8475638D01*
X53555560Y7961000D01*
X53599838Y7725683D01*
X53738910Y7509559D01*
X53951110Y7364569D01*
X54203000Y7313560D01*
X54953000Y7313560D01*
X55188317Y7357838D01*
X55404441Y7496910D01*
X55549431Y7709110D01*
X55600440Y7961000D01*
X55600440Y9161000D01*
X55556162Y9396317D01*
X55489671Y9499646D01*
X55491327Y9501302D01*
X55588000Y9734691D01*
X55588000Y10175250D01*
X55429250Y10334000D01*
X54705000Y10334000D01*
X54705000Y10314000D01*
X54451000Y10314000D01*
X54451000Y10334000D01*
X54431000Y10334000D01*
X54431000Y10588000D01*
X54451000Y10588000D01*
X54451000Y11537250D01*
X54705000Y11537250D01*
X54705000Y10588000D01*
X55429250Y10588000D01*
X55588000Y10746750D01*
X55588000Y11187309D01*
X55491327Y11420698D01*
X55312699Y11599327D01*
X55079310Y11696000D01*
X54863750Y11696000D01*
X54705000Y11537250D01*
X54451000Y11537250D01*
X54292250Y11696000D01*
X54090800Y11696000D01*
X54090800Y14695183D01*
X54276645Y14590856D01*
X54404566Y14559876D01*
X54658000Y14679223D01*
X54658000Y16323000D01*
X54912000Y16323000D01*
X54912000Y14679223D01*
X55165434Y14559876D01*
X55293355Y14590856D01*
X55760632Y14853170D01*
X55786673Y14790301D01*
X55965302Y14611673D01*
X56198691Y14515000D01*
X57039250Y14515000D01*
X57198000Y14673750D01*
X57198000Y16323000D01*
X57452000Y16323000D01*
X57452000Y14673750D01*
X57610750Y14515000D01*
X58451309Y14515000D01*
X58684698Y14611673D01*
X58863327Y14790301D01*
X58960000Y15023690D01*
X58960000Y16083250D01*
X60140000Y16083250D01*
X60140000Y15867690D01*
X60236673Y15634301D01*
X60415302Y15455673D01*
X60648691Y15359000D01*
X61089250Y15359000D01*
X61248000Y15517750D01*
X61248000Y16242000D01*
X60298750Y16242000D01*
X60140000Y16083250D01*
X58960000Y16083250D01*
X58960000Y16164250D01*
X58801250Y16323000D01*
X57452000Y16323000D01*
X57198000Y16323000D01*
X54912000Y16323000D01*
X54658000Y16323000D01*
X54638000Y16323000D01*
X54638000Y16577000D01*
X54658000Y16577000D01*
X54658000Y16597000D01*
X54912000Y16597000D01*
X54912000Y16577000D01*
X57198000Y16577000D01*
X57198000Y16597000D01*
X57452000Y16597000D01*
X57452000Y16577000D01*
X58801250Y16577000D01*
X58960000Y16735750D01*
X58960000Y16870310D01*
X60140000Y16870310D01*
X60140000Y16654750D01*
X60298750Y16496000D01*
X61248000Y16496000D01*
X61248000Y17220250D01*
X61089250Y17379000D01*
X60648691Y17379000D01*
X60415302Y17282327D01*
X60236673Y17103699D01*
X60140000Y16870310D01*
X58960000Y16870310D01*
X58960000Y17876310D01*
X58899653Y18022000D01*
X62581698Y18022000D01*
X62930599Y17673099D01*
X63177161Y17508352D01*
X63468000Y17450500D01*
X63985037Y17450500D01*
X64017173Y17418308D01*
X64360701Y17275662D01*
X64732667Y17275338D01*
X65076443Y17417383D01*
X65339692Y17680173D01*
X65482338Y18023701D01*
X65482662Y18395667D01*
X65340617Y18739443D01*
X65077827Y19002692D01*
X64734299Y19145338D01*
X64362333Y19145662D01*
X64018557Y19003617D01*
X63985382Y18970500D01*
X63782802Y18970500D01*
X63491160Y19262142D01*
X63452901Y19319401D01*
X63206339Y19484148D01*
X62915500Y19542000D01*
X52141802Y19542000D01*
X52364680Y19764878D01*
X52410167Y19764838D01*
X52753943Y19906883D01*
X53017192Y20169673D01*
X53159838Y20513201D01*
X53160162Y20885167D01*
X53018117Y21228943D01*
X52755327Y21492192D01*
X52411799Y21634838D01*
X52039833Y21635162D01*
X51696057Y21493117D01*
X51432808Y21230327D01*
X51290162Y20886799D01*
X51290121Y20839923D01*
X51284798Y20834600D01*
X50610118Y20834600D01*
X50610162Y20885167D01*
X50468117Y21228943D01*
X50205327Y21492192D01*
X49867339Y21632537D01*
X50975853Y22741051D01*
X50975838Y22724333D01*
X51117883Y22380557D01*
X51380673Y22117308D01*
X51724201Y21974662D01*
X52096167Y21974338D01*
X52439943Y22116383D01*
X52473118Y22149500D01*
X55213000Y22149500D01*
X55503839Y22207352D01*
X55750401Y22372099D01*
X57813802Y24435500D01*
X63280198Y24435500D01*
X64374378Y23341320D01*
X64374338Y23295833D01*
X64516383Y22952057D01*
X64779173Y22688808D01*
X65122701Y22546162D01*
X65494667Y22545838D01*
X65565500Y22575106D01*
X65565500Y17572802D01*
X65121698Y17129000D01*
X64381844Y17129000D01*
X64339090Y17195441D01*
X64126890Y17340431D01*
X63875000Y17391440D01*
X62675000Y17391440D01*
X62439683Y17347162D01*
X62336354Y17280671D01*
X62334698Y17282327D01*
X62101309Y17379000D01*
X61660750Y17379000D01*
X61502000Y17220250D01*
X61502000Y16496000D01*
X61522000Y16496000D01*
X61522000Y16242000D01*
X61502000Y16242000D01*
X61502000Y15517750D01*
X61660750Y15359000D01*
X62101309Y15359000D01*
X62334698Y15455673D01*
X62336068Y15457043D01*
X62423110Y15397569D01*
X62675000Y15346560D01*
X63875000Y15346560D01*
X64110317Y15390838D01*
X64326441Y15529910D01*
X64380481Y15609000D01*
X65436500Y15609000D01*
X65727339Y15666852D01*
X65973901Y15831599D01*
X66862901Y16720599D01*
X67027648Y16967161D01*
X67085500Y17258000D01*
X67085500Y29008198D01*
X67654093Y29576791D01*
X68016077Y29214176D01*
X68146215Y29160138D01*
X68018200Y29107243D01*
X67614176Y28703923D01*
X67395250Y28176691D01*
X67394752Y27605813D01*
X67612757Y27078200D01*
X68016077Y26674176D01*
X68146215Y26620138D01*
X68018200Y26567243D01*
X67614176Y26163923D01*
X67395250Y25636691D01*
X67394752Y25065813D01*
X67612757Y24538200D01*
X68016077Y24134176D01*
X68146215Y24080138D01*
X68018200Y24027243D01*
X67614176Y23623923D01*
X67395250Y23096691D01*
X67394752Y22525813D01*
X67612757Y21998200D01*
X68016077Y21594176D01*
X68146215Y21540138D01*
X68018200Y21487243D01*
X67614176Y21083923D01*
X67395250Y20556691D01*
X67394752Y19985813D01*
X67612757Y19458200D01*
X68016077Y19054176D01*
X68146215Y19000138D01*
X68018200Y18947243D01*
X67614176Y18543923D01*
X67395250Y18016691D01*
X67394752Y17445813D01*
X67612757Y16918200D01*
X68016077Y16514176D01*
X68146215Y16460138D01*
X68018200Y16407243D01*
X67614176Y16003923D01*
X67395250Y15476691D01*
X67394752Y14905813D01*
X67612757Y14378200D01*
X68016077Y13974176D01*
X68146215Y13920138D01*
X68018200Y13867243D01*
X67614176Y13463923D01*
X67395250Y12936691D01*
X67395133Y12802055D01*
X67205327Y12992192D01*
X66861799Y13134838D01*
X66489833Y13135162D01*
X66146057Y12993117D01*
X65882808Y12730327D01*
X65740162Y12386799D01*
X65739838Y12014833D01*
X65881883Y11671057D01*
X65915000Y11637882D01*
X65915000Y11635802D01*
X61550320Y7271122D01*
X61504833Y7271162D01*
X61161057Y7129117D01*
X60897808Y6866327D01*
X60755162Y6522799D01*
X60754838Y6150833D01*
X60896883Y5807057D01*
X61159673Y5543808D01*
X61503201Y5401162D01*
X61875167Y5400838D01*
X62218943Y5542883D01*
X62482192Y5805673D01*
X62624838Y6149201D01*
X62624879Y6196077D01*
X67212401Y10783599D01*
X67377148Y11030161D01*
X67435000Y11321000D01*
X67435000Y11637537D01*
X67467192Y11669673D01*
X67575057Y11929440D01*
X67612757Y11838200D01*
X68016077Y11434176D01*
X68146215Y11380138D01*
X68018200Y11327243D01*
X67614176Y10923923D01*
X67395250Y10396691D01*
X67394752Y9825813D01*
X67612757Y9298200D01*
X68016077Y8894176D01*
X68146215Y8840138D01*
X68018200Y8787243D01*
X67614176Y8383923D01*
X67395250Y7856691D01*
X67394752Y7285813D01*
X67612757Y6758200D01*
X68016077Y6354176D01*
X68146215Y6300138D01*
X68018200Y6247243D01*
X67614176Y5843923D01*
X67395250Y5316691D01*
X67394752Y4745813D01*
X67612757Y4218200D01*
X68016077Y3814176D01*
X68146215Y3760138D01*
X68018200Y3707243D01*
X67614176Y3303923D01*
X67395250Y2776691D01*
X67394752Y2205813D01*
X67612757Y1678200D01*
X67655882Y1635000D01*
X67338802Y1635000D01*
X66069500Y2904302D01*
X66069500Y2983112D01*
X66144673Y2907808D01*
X66488201Y2765162D01*
X66860167Y2764838D01*
X67203943Y2906883D01*
X67467192Y3169673D01*
X67609838Y3513201D01*
X67610162Y3885167D01*
X67468117Y4228943D01*
X67205327Y4492192D01*
X66861799Y4634838D01*
X66489833Y4635162D01*
X66146057Y4493117D01*
X66069500Y4416693D01*
X66069500Y6535537D01*
X66101692Y6567673D01*
X66244338Y6911201D01*
X66244662Y7283167D01*
X66102617Y7626943D01*
X65839827Y7890192D01*
X65496299Y8032838D01*
X65124333Y8033162D01*
X64780557Y7891117D01*
X64517308Y7628327D01*
X64374662Y7284799D01*
X64374338Y6912833D01*
X64516383Y6569057D01*
X64549500Y6535882D01*
X64549500Y2589500D01*
X64607352Y2298661D01*
X64772099Y2052099D01*
X65822198Y1002000D01*
X15081000Y1002000D01*
X15081000Y2653000D01*
X15070994Y2702410D01*
X15042553Y2744035D01*
X15000159Y2771315D01*
X14954000Y2780000D01*
X12218802Y2780000D01*
X15364401Y5925599D01*
X15529148Y6172161D01*
X15587000Y6463000D01*
X15587000Y9725400D01*
X20625598Y9725400D01*
X15535320Y4635122D01*
X15489833Y4635162D01*
X15146057Y4493117D01*
X14882808Y4230327D01*
X14740162Y3886799D01*
X14739838Y3514833D01*
X14881883Y3171057D01*
X15144673Y2907808D01*
X15488201Y2765162D01*
X15860167Y2764838D01*
X16203943Y2906883D01*
X16467192Y3169673D01*
X16609838Y3513201D01*
X16609879Y3560077D01*
X22100002Y9050200D01*
X22500398Y9050200D01*
X18085320Y4635122D01*
X18039833Y4635162D01*
X17696057Y4493117D01*
X17432808Y4230327D01*
X17290162Y3886799D01*
X17289838Y3514833D01*
X17431883Y3171057D01*
X17694673Y2907808D01*
X18038201Y2765162D01*
X18410167Y2764838D01*
X18753943Y2906883D01*
X19017192Y3169673D01*
X19159838Y3513201D01*
X19159879Y3560077D01*
X26039802Y10440000D01*
X27943753Y10440000D01*
X27905900Y10249700D01*
X27905900Y7991100D01*
X27963752Y7700261D01*
X28128499Y7453699D01*
X29639878Y5942320D01*
X29639838Y5896833D01*
X29781883Y5553057D01*
X30044673Y5289808D01*
X30388201Y5147162D01*
X30760167Y5146838D01*
X31103943Y5288883D01*
X31367192Y5551673D01*
X31509838Y5895201D01*
X31510162Y6267167D01*
X31368117Y6610943D01*
X31105327Y6874192D01*
X30761799Y7016838D01*
X30740053Y7016857D01*
X31078943Y7156883D01*
X31342192Y7419673D01*
X31484838Y7763201D01*
X31485162Y8135167D01*
X31343117Y8478943D01*
X31080327Y8742192D01*
X30736799Y8884838D01*
X30689923Y8884879D01*
X30662188Y8912614D01*
X31244209Y8912614D01*
X31477598Y9009287D01*
X31656227Y9187915D01*
X31752900Y9421304D01*
X31752900Y9465064D01*
X31595767Y9622197D01*
X31714331Y9795722D01*
X31739895Y9921959D01*
X31752900Y9934964D01*
X31752900Y9978724D01*
X31751886Y9981173D01*
X31765340Y10047612D01*
X31765340Y10352412D01*
X31746301Y10453595D01*
X31765340Y10547612D01*
X31765340Y10852412D01*
X31746301Y10953594D01*
X31765340Y11047610D01*
X31765340Y11352410D01*
X31746301Y11453593D01*
X31765340Y11547610D01*
X31765340Y11852410D01*
X31746301Y11953592D01*
X31765340Y12047609D01*
X31765340Y12352409D01*
X31746301Y12453591D01*
X31765340Y12547608D01*
X31765340Y12852408D01*
X31746301Y12953590D01*
X31765340Y13047606D01*
X31765340Y13352406D01*
X31746301Y13453589D01*
X31765340Y13547606D01*
X31765340Y13852406D01*
X31746301Y13953588D01*
X31765340Y14047604D01*
X31765340Y14352404D01*
X31746301Y14453587D01*
X31765340Y14547604D01*
X31765340Y14852404D01*
X31746301Y14953586D01*
X31765340Y15047603D01*
X31765340Y15352403D01*
X31746301Y15453585D01*
X31765340Y15547602D01*
X31765340Y15852402D01*
X31746301Y15953584D01*
X31765340Y16047600D01*
X31765340Y16352400D01*
X31746301Y16453583D01*
X31765340Y16547600D01*
X31765340Y16852400D01*
X31746301Y16953582D01*
X31765340Y17047598D01*
X31765340Y17352398D01*
X31746301Y17453580D01*
X31765340Y17547597D01*
X31765340Y17852397D01*
X31746301Y17953579D01*
X31765340Y18047596D01*
X31765340Y18352396D01*
X31746301Y18453579D01*
X31765340Y18547596D01*
X31765340Y18852396D01*
X31746301Y18953578D01*
X31765340Y19047594D01*
X31765340Y19352394D01*
X31746301Y19453577D01*
X31765340Y19547594D01*
X31765340Y19852394D01*
X31746301Y19953576D01*
X31765340Y20047592D01*
X31765340Y20352392D01*
X31746301Y20453574D01*
X31765340Y20547591D01*
X31765340Y20852391D01*
X31746301Y20953573D01*
X31765340Y21047590D01*
X31765340Y21352390D01*
X31746301Y21453573D01*
X31765340Y21547590D01*
X31765340Y21852390D01*
X31746301Y21953572D01*
X31765340Y22047588D01*
X31765340Y22352388D01*
X31746301Y22453571D01*
X31765340Y22547588D01*
X31765340Y22852388D01*
X31752541Y22920409D01*
X31752900Y22921276D01*
X31752900Y22965036D01*
X31742114Y22975822D01*
X31721062Y23087705D01*
X31597574Y23279610D01*
X31752900Y23434936D01*
X31752900Y23478696D01*
X31656227Y23712085D01*
X31477598Y23890713D01*
X31244209Y23987386D01*
X30867793Y23987386D01*
X31001838Y24310201D01*
X31002162Y24682167D01*
X30897147Y24936323D01*
X30964110Y24890569D01*
X31216000Y24839560D01*
X31966000Y24839560D01*
X32201317Y24883838D01*
X32417441Y25022910D01*
X32562431Y25235110D01*
X32613440Y25487000D01*
X32613440Y26687000D01*
X32569162Y26922317D01*
X32502671Y27025646D01*
X32504327Y27027302D01*
X32601000Y27260691D01*
X32601000Y27701250D01*
X32442250Y27860000D01*
X31718000Y27860000D01*
X31718000Y27840000D01*
X31464000Y27840000D01*
X31464000Y27860000D01*
X30739750Y27860000D01*
X30581000Y27701250D01*
X30581000Y27473049D01*
X30542617Y27565943D01*
X30279827Y27829192D01*
X29936299Y27971838D01*
X29564333Y27972162D01*
X29220557Y27830117D01*
X29034263Y27644148D01*
X28856799Y27717838D01*
X28525300Y27718127D01*
X28525300Y28713309D01*
X30581000Y28713309D01*
X30581000Y28272750D01*
X30739750Y28114000D01*
X31464000Y28114000D01*
X31464000Y29063250D01*
X31718000Y29063250D01*
X31718000Y28114000D01*
X32442250Y28114000D01*
X32601000Y28272750D01*
X32601000Y28713309D01*
X32504327Y28946698D01*
X32325699Y29125327D01*
X32092310Y29222000D01*
X31876750Y29222000D01*
X31718000Y29063250D01*
X31464000Y29063250D01*
X31305250Y29222000D01*
X31089690Y29222000D01*
X30856301Y29125327D01*
X30677673Y28946698D01*
X30581000Y28713309D01*
X28525300Y28713309D01*
X28525300Y28738498D01*
X30587680Y30800878D01*
X30633167Y30800838D01*
X30976943Y30942883D01*
X31240192Y31205673D01*
X31382838Y31549201D01*
X31383162Y31921167D01*
X31241117Y32264943D01*
X30978327Y32528192D01*
X30634799Y32670838D01*
X30262833Y32671162D01*
X29919057Y32529117D01*
X29655808Y32266327D01*
X29513162Y31922799D01*
X29513121Y31875923D01*
X28075000Y30437802D01*
X28075000Y31844198D01*
X30587680Y34356878D01*
X30633167Y34356838D01*
X30976943Y34498883D01*
X31240192Y34761673D01*
X31382838Y35105201D01*
X31383162Y35477167D01*
X31241117Y35820943D01*
X30978327Y36084192D01*
X30634799Y36226838D01*
X30262833Y36227162D01*
X29919057Y36085117D01*
X29655808Y35822327D01*
X29513162Y35478799D01*
X29513121Y35431923D01*
X27624700Y33543502D01*
X27624700Y39902898D01*
X30587680Y42865878D01*
X30633167Y42865838D01*
X30976943Y43007883D01*
X31240192Y43270673D01*
X31382838Y43614201D01*
X31383162Y43986167D01*
X31241117Y44329943D01*
X30978327Y44593192D01*
X30634799Y44735838D01*
X30262833Y44736162D01*
X29919057Y44594117D01*
X29655808Y44331327D01*
X29513162Y43987799D01*
X29513121Y43940923D01*
X26327299Y40755101D01*
X26162552Y40508539D01*
X26104700Y40217700D01*
X26104700Y39395102D01*
X19793802Y45706000D01*
X29051000Y45706000D01*
X29100410Y45716006D01*
X29142035Y45744447D01*
X29169315Y45786841D01*
X29178000Y45833000D01*
X29178000Y56829755D01*
X29335192Y56986673D01*
X29430833Y57217000D01*
X29617167Y57216838D01*
X29960943Y57358883D01*
X30224192Y57621673D01*
X30366838Y57965201D01*
X30367162Y58337167D01*
X30225117Y58680943D01*
X29962327Y58944192D01*
X29618799Y59086838D01*
X29571923Y59086879D01*
X29178000Y59480802D01*
X29178000Y59658066D01*
X29245201Y59630162D01*
X29433287Y59629998D01*
X29527883Y59401057D01*
X29790673Y59137808D01*
X30134201Y58995162D01*
X30506167Y58994838D01*
X30849943Y59136883D01*
X31113192Y59399673D01*
X31255838Y59743201D01*
X31256162Y60115167D01*
X31114117Y60458943D01*
X31081000Y60492118D01*
X31081000Y61835000D01*
X31023148Y62125839D01*
X30858401Y62372401D01*
X29493401Y63737401D01*
X29246839Y63902148D01*
X29178000Y63915841D01*
X29178000Y65651500D01*
X30389045Y65651500D01*
X30425673Y65614808D01*
X30769201Y65472162D01*
X31141167Y65471838D01*
X31443200Y65596635D01*
X31443200Y60747263D01*
X31411008Y60715127D01*
X31268362Y60371599D01*
X31268038Y59999633D01*
X31410083Y59655857D01*
X31672873Y59392608D01*
X32016401Y59249962D01*
X32388367Y59249638D01*
X32732143Y59391683D01*
X32995392Y59654473D01*
X33138038Y59998001D01*
X33138362Y60369967D01*
X32996317Y60713743D01*
X32963200Y60746918D01*
X32963200Y70620800D01*
X32938555Y70744700D01*
X32905348Y70911640D01*
X32740601Y71158201D01*
X31661401Y72237401D01*
X31414839Y72402148D01*
X31124000Y72460000D01*
X29178000Y72460000D01*
X29178000Y75265000D01*
X134588000Y75265000D01*
X134588000Y72635076D01*
X134588000Y72635076D01*
G37*
X134588000Y72635076D02*
X134489833Y72635162D01*
X134146057Y72493117D01*
X134112882Y72460000D01*
X125245200Y72460000D01*
X124954361Y72402148D01*
X124707799Y72237401D01*
X107994100Y55523702D01*
X107994100Y58394298D01*
X120364680Y70764878D01*
X120410167Y70764838D01*
X120753943Y70906883D01*
X121017192Y71169673D01*
X121159838Y71513201D01*
X121160162Y71885167D01*
X121018117Y72228943D01*
X120755327Y72492192D01*
X120411799Y72634838D01*
X120039833Y72635162D01*
X119696057Y72493117D01*
X119432808Y72230327D01*
X119290162Y71886799D01*
X119290121Y71839923D01*
X107543800Y60093602D01*
X107543800Y60493998D01*
X117814680Y70764878D01*
X117860167Y70764838D01*
X118203943Y70906883D01*
X118467192Y71169673D01*
X118609838Y71513201D01*
X118610162Y71885167D01*
X118468117Y72228943D01*
X118205327Y72492192D01*
X117861799Y72634838D01*
X117489833Y72635162D01*
X117146057Y72493117D01*
X116882808Y72230327D01*
X116740162Y71886799D01*
X116740121Y71839923D01*
X106246399Y61346201D01*
X106081652Y61099639D01*
X106023800Y60808800D01*
X106023800Y40987386D01*
X105906050Y40987386D01*
X105747300Y40828636D01*
X105747300Y40499828D01*
X105493300Y40499828D01*
X105493300Y40828636D01*
X105334550Y40987386D01*
X104655791Y40987386D01*
X104422402Y40890713D01*
X104243773Y40712085D01*
X104147100Y40478696D01*
X104147100Y40434936D01*
X104304233Y40277803D01*
X104185669Y40104278D01*
X104160105Y39978041D01*
X104147100Y39965036D01*
X104147100Y39921276D01*
X104148114Y39918827D01*
X104134660Y39852388D01*
X104134660Y39547588D01*
X104153699Y39446405D01*
X104134660Y39352388D01*
X104134660Y39047588D01*
X104153699Y38946406D01*
X104134660Y38852390D01*
X104134660Y38547590D01*
X104153699Y38446407D01*
X104134660Y38352390D01*
X104134660Y38047590D01*
X104153699Y37946408D01*
X104134660Y37852391D01*
X104134660Y37547591D01*
X104153699Y37446409D01*
X104134660Y37352392D01*
X104134660Y37047592D01*
X104153699Y36946410D01*
X104134660Y36852394D01*
X104134660Y36547594D01*
X104153699Y36446411D01*
X104134660Y36352394D01*
X104134660Y36047594D01*
X104153699Y35946412D01*
X104134660Y35852396D01*
X104134660Y35547596D01*
X104153699Y35446413D01*
X104134660Y35352396D01*
X104134660Y35047596D01*
X104153699Y34946414D01*
X104134660Y34852397D01*
X104134660Y34547597D01*
X104153699Y34446415D01*
X104134660Y34352398D01*
X104134660Y34047598D01*
X104153699Y33946416D01*
X104134660Y33852400D01*
X104134660Y33547600D01*
X104153699Y33446417D01*
X104134660Y33352400D01*
X104134660Y33047600D01*
X104153699Y32946418D01*
X104134660Y32852402D01*
X104134660Y32547602D01*
X104153699Y32446420D01*
X104134660Y32352403D01*
X104134660Y32047603D01*
X104153699Y31946421D01*
X104134660Y31852404D01*
X104134660Y31547604D01*
X104153699Y31446421D01*
X104134660Y31352404D01*
X104134660Y31047604D01*
X104153699Y30946422D01*
X104134660Y30852406D01*
X104134660Y30547606D01*
X104153699Y30446423D01*
X104134660Y30352406D01*
X104134660Y30047606D01*
X104153699Y29946424D01*
X104134660Y29852408D01*
X104134660Y29547608D01*
X104153699Y29446426D01*
X104134660Y29352409D01*
X104134660Y29047609D01*
X104153699Y28946427D01*
X104134660Y28852410D01*
X104134660Y28547610D01*
X104153699Y28446427D01*
X104134660Y28352410D01*
X104134660Y28047610D01*
X104153699Y27946428D01*
X104134660Y27852412D01*
X104134660Y27547612D01*
X104153699Y27446429D01*
X104134660Y27352412D01*
X104134660Y27047612D01*
X104147459Y26979591D01*
X104147100Y26978724D01*
X104147100Y26934964D01*
X104157886Y26924178D01*
X104178938Y26812295D01*
X104302426Y26620390D01*
X104191436Y26509400D01*
X99757601Y26509400D01*
X99765340Y26547614D01*
X99765340Y26852414D01*
X99746301Y26953596D01*
X99765340Y27047612D01*
X99765340Y27352412D01*
X99746301Y27453595D01*
X99765340Y27547612D01*
X99765340Y27852412D01*
X99746301Y27953594D01*
X99765340Y28047610D01*
X99765340Y28352410D01*
X99746301Y28453593D01*
X99765340Y28547610D01*
X99765340Y28852410D01*
X99746301Y28953592D01*
X99765340Y29047609D01*
X99765340Y29352409D01*
X99746301Y29453591D01*
X99765340Y29547608D01*
X99765340Y29852408D01*
X99746301Y29953590D01*
X99765340Y30047606D01*
X99765340Y30352406D01*
X99746301Y30453589D01*
X99765340Y30547606D01*
X99765340Y30852406D01*
X99746301Y30953588D01*
X99765340Y31047604D01*
X99765340Y31352404D01*
X99746301Y31453587D01*
X99765340Y31547604D01*
X99765340Y31852404D01*
X99746301Y31953586D01*
X99765340Y32047603D01*
X99765340Y32352403D01*
X99746301Y32453585D01*
X99765340Y32547602D01*
X99765340Y32852402D01*
X99746301Y32953584D01*
X99765340Y33047600D01*
X99765340Y33352400D01*
X99746301Y33453583D01*
X99765340Y33547600D01*
X99765340Y33852400D01*
X99746301Y33953582D01*
X99765340Y34047598D01*
X99765340Y34352398D01*
X99746301Y34453580D01*
X99765340Y34547597D01*
X99765340Y34852397D01*
X99746301Y34953579D01*
X99765340Y35047596D01*
X99765340Y35352396D01*
X99746301Y35453579D01*
X99765340Y35547596D01*
X99765340Y35852396D01*
X99746301Y35953578D01*
X99765340Y36047594D01*
X99765340Y36352394D01*
X99746301Y36453577D01*
X99765340Y36547594D01*
X99765340Y36852394D01*
X99746301Y36953576D01*
X99765340Y37047592D01*
X99765340Y37352392D01*
X99746301Y37453574D01*
X99765340Y37547591D01*
X99765340Y37852391D01*
X99746301Y37953573D01*
X99765340Y38047590D01*
X99765340Y38352390D01*
X99746301Y38453573D01*
X99765340Y38547590D01*
X99765340Y38852390D01*
X99746301Y38953572D01*
X99765340Y39047588D01*
X99765340Y39352388D01*
X99746301Y39453571D01*
X99765340Y39547588D01*
X99765340Y39852388D01*
X99746301Y39953570D01*
X99765340Y40047586D01*
X99765340Y40352386D01*
X99721062Y40587703D01*
X99581990Y40803827D01*
X99529496Y40839694D01*
X101891701Y43201899D01*
X102056448Y43448461D01*
X102114300Y43739300D01*
X102114300Y68332500D01*
X102056448Y68623339D01*
X101891701Y68869901D01*
X100239501Y70522101D01*
X99992939Y70686848D01*
X99702100Y70744700D01*
X77068500Y70744700D01*
X76777661Y70686848D01*
X76531099Y70522101D01*
X72500349Y66491351D01*
X72458500Y66499826D01*
X71474628Y66499826D01*
X71489680Y66514878D01*
X71535167Y66514838D01*
X71878943Y66656883D01*
X72142192Y66919673D01*
X72284838Y67263201D01*
X72285162Y67635167D01*
X72143117Y67978943D01*
X71880327Y68242192D01*
X71536799Y68384838D01*
X71473695Y68384893D01*
X71481680Y68392878D01*
X71527167Y68392838D01*
X71870943Y68534883D01*
X72134192Y68797673D01*
X72276838Y69141201D01*
X72277162Y69513167D01*
X72135117Y69856943D01*
X72085424Y69906722D01*
X73118702Y70940000D01*
X83112537Y70940000D01*
X83144673Y70907808D01*
X83488201Y70765162D01*
X83860167Y70764838D01*
X84203943Y70906883D01*
X84467192Y71169673D01*
X84609838Y71513201D01*
X84609839Y71514833D01*
X85289838Y71514833D01*
X85431883Y71171057D01*
X85694673Y70907808D01*
X86038201Y70765162D01*
X86410167Y70764838D01*
X86753943Y70906883D01*
X87017192Y71169673D01*
X87159838Y71513201D01*
X87160162Y71885167D01*
X87018117Y72228943D01*
X86755327Y72492192D01*
X86411799Y72634838D01*
X86039833Y72635162D01*
X85696057Y72493117D01*
X85432808Y72230327D01*
X85290162Y71886799D01*
X85289838Y71514833D01*
X84609839Y71514833D01*
X84610162Y71885167D01*
X84468117Y72228943D01*
X84205327Y72492192D01*
X83861799Y72634838D01*
X83489833Y72635162D01*
X83146057Y72493117D01*
X83112882Y72460000D01*
X72803900Y72460000D01*
X72561314Y72411746D01*
X72513060Y72402148D01*
X72266499Y72237401D01*
X69632480Y69603382D01*
X69497217Y69930743D01*
X69234427Y70193992D01*
X68890899Y70336638D01*
X68518933Y70336962D01*
X68175157Y70194917D01*
X67911908Y69932127D01*
X67769262Y69588599D01*
X67768938Y69216633D01*
X67910983Y68872857D01*
X67944100Y68839682D01*
X67944100Y63853500D01*
X68001952Y63562661D01*
X68166699Y63316099D01*
X69320199Y62162599D01*
X69566760Y61997852D01*
X69857600Y61940000D01*
X70152401Y61940000D01*
X70134660Y61852394D01*
X70134660Y61547594D01*
X70153699Y61446412D01*
X70134660Y61352396D01*
X70134660Y61047596D01*
X70153699Y60946413D01*
X70134660Y60852396D01*
X70134660Y60547596D01*
X70153699Y60446414D01*
X70134660Y60352397D01*
X70134660Y60047597D01*
X70153699Y59946415D01*
X70134660Y59852398D01*
X70134660Y59547598D01*
X70153699Y59446416D01*
X70134660Y59352400D01*
X70134660Y59047600D01*
X70153699Y58946417D01*
X70134660Y58852400D01*
X70134660Y58547600D01*
X70153699Y58446418D01*
X70134660Y58352402D01*
X70134660Y58047602D01*
X70153699Y57946420D01*
X70134660Y57852403D01*
X70134660Y57547603D01*
X70153699Y57446421D01*
X70134660Y57352404D01*
X70134660Y57047604D01*
X70153699Y56946421D01*
X70134660Y56852404D01*
X70134660Y56547604D01*
X70153699Y56446422D01*
X70134660Y56352406D01*
X70134660Y56047606D01*
X70153699Y55946423D01*
X70134660Y55852406D01*
X70134660Y55547606D01*
X70153699Y55446424D01*
X70134660Y55352408D01*
X70134660Y55047608D01*
X70153699Y54946426D01*
X70134660Y54852409D01*
X70134660Y54547609D01*
X70153699Y54446427D01*
X70134660Y54352410D01*
X70134660Y54047610D01*
X70153699Y53946427D01*
X70134660Y53852410D01*
X70134660Y53547610D01*
X70153699Y53446428D01*
X70141410Y53385743D01*
X69919399Y53237401D01*
X69754652Y52990839D01*
X69696800Y52700000D01*
X69696800Y51343200D01*
X69754652Y51052361D01*
X69919399Y50805799D01*
X70414878Y50310320D01*
X70414838Y50264833D01*
X70556883Y49921057D01*
X70613070Y49864772D01*
X70602198Y49853900D01*
X65276304Y49853900D01*
X65342192Y49919673D01*
X65484838Y50263201D01*
X65485162Y50635167D01*
X65343117Y50978943D01*
X65080327Y51242192D01*
X64736799Y51384838D01*
X64689923Y51384879D01*
X64662188Y51412614D01*
X65244209Y51412614D01*
X65477598Y51509287D01*
X65656227Y51687915D01*
X65752900Y51921304D01*
X65752900Y51965064D01*
X65595767Y52122197D01*
X65714331Y52295722D01*
X65739895Y52421959D01*
X65752900Y52434964D01*
X65752900Y52478724D01*
X65751886Y52481173D01*
X65765340Y52547612D01*
X65765340Y52852412D01*
X65746301Y52953595D01*
X65765340Y53047612D01*
X65765340Y53352412D01*
X65746301Y53453594D01*
X65765340Y53547610D01*
X65765340Y53852410D01*
X65746301Y53953593D01*
X65765340Y54047610D01*
X65765340Y54352410D01*
X65746301Y54453592D01*
X65765340Y54547609D01*
X65765340Y54852409D01*
X65746301Y54953591D01*
X65765340Y55047608D01*
X65765340Y55352408D01*
X65746301Y55453590D01*
X65765340Y55547606D01*
X65765340Y55852406D01*
X65746301Y55953589D01*
X65765340Y56047606D01*
X65765340Y56352406D01*
X65746301Y56453588D01*
X65765340Y56547604D01*
X65765340Y56852404D01*
X65746301Y56953587D01*
X65765340Y57047604D01*
X65765340Y57352404D01*
X65746301Y57453586D01*
X65765340Y57547603D01*
X65765340Y57852403D01*
X65746301Y57953585D01*
X65765340Y58047602D01*
X65765340Y58352402D01*
X65746301Y58453584D01*
X65765340Y58547600D01*
X65765340Y58852400D01*
X65746301Y58953583D01*
X65765340Y59047600D01*
X65765340Y59352400D01*
X65746301Y59453582D01*
X65765340Y59547598D01*
X65765340Y59852398D01*
X65746301Y59953580D01*
X65765340Y60047597D01*
X65765340Y60352397D01*
X65746301Y60453579D01*
X65765340Y60547596D01*
X65765340Y60852396D01*
X65746301Y60953579D01*
X65765340Y61047596D01*
X65765340Y61352396D01*
X65746301Y61453578D01*
X65765340Y61547594D01*
X65765340Y61852394D01*
X65746301Y61953577D01*
X65765340Y62047594D01*
X65765340Y62352394D01*
X65746301Y62453576D01*
X65765340Y62547592D01*
X65765340Y62852392D01*
X65746301Y62953574D01*
X65765340Y63047591D01*
X65765340Y63352391D01*
X65746301Y63453573D01*
X65765340Y63547590D01*
X65765340Y63852390D01*
X65746301Y63953573D01*
X65765340Y64047590D01*
X65765340Y64352390D01*
X65746301Y64453572D01*
X65765340Y64547588D01*
X65765340Y64852388D01*
X65746301Y64953571D01*
X65765340Y65047588D01*
X65765340Y65352388D01*
X65752541Y65420409D01*
X65752900Y65421276D01*
X65752900Y65465036D01*
X65742114Y65475822D01*
X65721062Y65587705D01*
X65597574Y65779610D01*
X65752900Y65934936D01*
X65752900Y65978696D01*
X65656227Y66212085D01*
X65477598Y66390713D01*
X65244209Y66487386D01*
X64565450Y66487386D01*
X64406700Y66328636D01*
X64406700Y65999828D01*
X64152700Y65999828D01*
X64152700Y66328636D01*
X63993950Y66487386D01*
X63315191Y66487386D01*
X63296046Y66479456D01*
X59461601Y70313901D01*
X59215039Y70478648D01*
X58924200Y70536500D01*
X58882363Y70536500D01*
X58850227Y70568692D01*
X58506699Y70711338D01*
X58134733Y70711662D01*
X57790957Y70569617D01*
X57527708Y70306827D01*
X57385062Y69963299D01*
X57384738Y69591333D01*
X57526783Y69247557D01*
X57789573Y68984308D01*
X58133101Y68841662D01*
X58505067Y68841338D01*
X58702841Y68923057D01*
X60641807Y66984091D01*
X60409000Y67030400D01*
X58591963Y67030400D01*
X58559827Y67062592D01*
X58216299Y67205238D01*
X57844333Y67205562D01*
X57500557Y67063517D01*
X57237308Y66800727D01*
X57094662Y66457199D01*
X57094560Y66340428D01*
X57071899Y66349838D01*
X57019800Y66349883D01*
X57019800Y67665200D01*
X56961948Y67956039D01*
X56797201Y68202601D01*
X54052552Y70947250D01*
X61283000Y70947250D01*
X61283000Y70731690D01*
X61379673Y70498301D01*
X61558302Y70319673D01*
X61791691Y70223000D01*
X62232250Y70223000D01*
X62391000Y70381750D01*
X62391000Y71106000D01*
X61441750Y71106000D01*
X61283000Y70947250D01*
X54052552Y70947250D01*
X53265492Y71734310D01*
X61283000Y71734310D01*
X61283000Y71518750D01*
X61441750Y71360000D01*
X62391000Y71360000D01*
X62391000Y72084250D01*
X62645000Y72084250D01*
X62645000Y71360000D01*
X62665000Y71360000D01*
X62665000Y71106000D01*
X62645000Y71106000D01*
X62645000Y70381750D01*
X62803750Y70223000D01*
X63244309Y70223000D01*
X63250518Y70225572D01*
X63225600Y70100300D01*
X63225600Y68961400D01*
X63283452Y68670561D01*
X63448199Y68423999D01*
X63622878Y68249320D01*
X63622838Y68203833D01*
X63736446Y67928881D01*
X63615162Y67636799D01*
X63614838Y67264833D01*
X63756883Y66921057D01*
X64019673Y66657808D01*
X64363201Y66515162D01*
X64735167Y66514838D01*
X65078943Y66656883D01*
X65342192Y66919673D01*
X65484838Y67263201D01*
X65485162Y67635167D01*
X65371554Y67910119D01*
X65492838Y68202201D01*
X65493162Y68574167D01*
X65401507Y68795991D01*
X65403192Y68797673D01*
X65545838Y69141201D01*
X65546162Y69513167D01*
X65404117Y69856943D01*
X65141327Y70120192D01*
X65061108Y70153502D01*
X65110915Y70228043D01*
X65253317Y70254838D01*
X65469441Y70393910D01*
X65614431Y70606110D01*
X65665440Y70858000D01*
X65665440Y71608000D01*
X65621162Y71843317D01*
X65482090Y72059441D01*
X65269890Y72204431D01*
X65018000Y72255440D01*
X63818000Y72255440D01*
X63582683Y72211162D01*
X63479354Y72144671D01*
X63477698Y72146327D01*
X63244309Y72243000D01*
X62803750Y72243000D01*
X62645000Y72084250D01*
X62391000Y72084250D01*
X62232250Y72243000D01*
X61791691Y72243000D01*
X61558302Y72146327D01*
X61379673Y71967699D01*
X61283000Y71734310D01*
X53265492Y71734310D01*
X53160122Y71839680D01*
X53160162Y71885167D01*
X53018117Y72228943D01*
X52755327Y72492192D01*
X52411799Y72634838D01*
X52039833Y72635162D01*
X51696057Y72493117D01*
X51432808Y72230327D01*
X51364435Y72065667D01*
X51192701Y72237401D01*
X50946139Y72402148D01*
X50655300Y72460000D01*
X50237463Y72460000D01*
X50205327Y72492192D01*
X49861799Y72634838D01*
X49489833Y72635162D01*
X49146057Y72493117D01*
X48882808Y72230327D01*
X48740162Y71886799D01*
X48739838Y71514833D01*
X48881883Y71171057D01*
X49144673Y70907808D01*
X49488201Y70765162D01*
X49860167Y70764838D01*
X50203943Y70906883D01*
X50237118Y70940000D01*
X50340498Y70940000D01*
X51192498Y70088000D01*
X38122463Y70088000D01*
X38090327Y70120192D01*
X37746799Y70262838D01*
X37374833Y70263162D01*
X37031057Y70121117D01*
X36767808Y69858327D01*
X36625162Y69514799D01*
X36624838Y69142833D01*
X36766883Y68799057D01*
X37029673Y68535808D01*
X37373201Y68393162D01*
X37745167Y68392838D01*
X38088943Y68534883D01*
X38122118Y68568000D01*
X51943812Y68568000D01*
X51812762Y68252399D01*
X51812438Y67880433D01*
X51954483Y67536657D01*
X52217273Y67273408D01*
X52560801Y67130762D01*
X52607677Y67130721D01*
X53167571Y66570827D01*
X53131808Y66535127D01*
X52989162Y66191599D01*
X52989064Y66079538D01*
X51503422Y67565180D01*
X51503462Y67610667D01*
X51361417Y67954443D01*
X51098627Y68217692D01*
X50755099Y68360338D01*
X50383133Y68360662D01*
X50039357Y68218617D01*
X49776108Y67955827D01*
X49633462Y67612299D01*
X49633138Y67240333D01*
X49775183Y66896557D01*
X50037973Y66633308D01*
X50381501Y66490662D01*
X50428377Y66490621D01*
X54071098Y62847900D01*
X53651902Y62847900D01*
X53160122Y63339680D01*
X53160162Y63385167D01*
X53018117Y63728943D01*
X52755327Y63992192D01*
X52411799Y64134838D01*
X52039833Y64135162D01*
X51696057Y63993117D01*
X51432808Y63730327D01*
X51290162Y63386799D01*
X51289838Y63014833D01*
X51431883Y62671057D01*
X51694673Y62407808D01*
X52038201Y62265162D01*
X52085077Y62265121D01*
X52208098Y62142100D01*
X51807702Y62142100D01*
X50610122Y63339680D01*
X50610162Y63385167D01*
X50468117Y63728943D01*
X50205327Y63992192D01*
X49861799Y64134838D01*
X49489833Y64135162D01*
X49146057Y63993117D01*
X48882808Y63730327D01*
X48740162Y63386799D01*
X48739838Y63014833D01*
X48881883Y62671057D01*
X49144673Y62407808D01*
X49488201Y62265162D01*
X49535077Y62265121D01*
X50185098Y61615100D01*
X43299702Y61615100D01*
X43067122Y61847680D01*
X43067162Y61893167D01*
X42925117Y62236943D01*
X42662327Y62500192D01*
X42318799Y62642838D01*
X41946833Y62643162D01*
X41603057Y62501117D01*
X41339808Y62238327D01*
X41197162Y61894799D01*
X41196838Y61522833D01*
X41338883Y61179057D01*
X41601673Y60915808D01*
X41945201Y60773162D01*
X41992077Y60773121D01*
X42447499Y60317699D01*
X42694061Y60152952D01*
X42984900Y60095100D01*
X47967691Y60095100D01*
X47967571Y59958100D01*
X46684200Y59958100D01*
X46393361Y59900248D01*
X46146799Y59735501D01*
X46068220Y59656922D01*
X46022733Y59656962D01*
X45678957Y59514917D01*
X45415708Y59252127D01*
X45273062Y58908599D01*
X45273004Y58842000D01*
X45079502Y58842000D01*
X44233901Y59687601D01*
X43987339Y59852348D01*
X43696500Y59910200D01*
X38642702Y59910200D01*
X37735652Y60817250D01*
X40198502Y63280100D01*
X43198600Y63280100D01*
X43489439Y63337952D01*
X43736001Y63502699D01*
X44917401Y64684099D01*
X45082148Y64930661D01*
X45140000Y65221500D01*
X45140000Y66037900D01*
X45091746Y66280486D01*
X45082148Y66328740D01*
X44917401Y66575301D01*
X43272601Y68220101D01*
X43026039Y68384848D01*
X42735200Y68442700D01*
X40158400Y68442700D01*
X39867561Y68384848D01*
X39620999Y68220101D01*
X38751920Y67351022D01*
X38706433Y67351062D01*
X38362657Y67209017D01*
X38099408Y66946227D01*
X37956762Y66602699D01*
X37956438Y66230733D01*
X38098483Y65886957D01*
X38361273Y65623708D01*
X38666616Y65496918D01*
X35425599Y62255901D01*
X35260852Y62009339D01*
X35203000Y61718500D01*
X35203000Y26623963D01*
X35170808Y26591827D01*
X35028162Y26248299D01*
X35027838Y25876333D01*
X35169883Y25532557D01*
X35432673Y25269308D01*
X35776201Y25126662D01*
X35910100Y25126545D01*
X35910100Y24346400D01*
X35967952Y24055561D01*
X36132699Y23808999D01*
X36247268Y23694430D01*
X36185669Y23604276D01*
X36134660Y23352386D01*
X36134660Y23047586D01*
X36153699Y22946404D01*
X36134660Y22852388D01*
X36134660Y22547588D01*
X36153699Y22446405D01*
X36134660Y22352388D01*
X36134660Y22047588D01*
X36153699Y21946406D01*
X36134660Y21852390D01*
X36134660Y21547590D01*
X36153699Y21446407D01*
X36134660Y21352390D01*
X36134660Y21047590D01*
X36153699Y20946408D01*
X36134660Y20852391D01*
X36134660Y20547591D01*
X36153699Y20446409D01*
X36134660Y20352392D01*
X36134660Y20047592D01*
X36153699Y19946410D01*
X36134660Y19852394D01*
X36134660Y19547594D01*
X36153699Y19446411D01*
X36134660Y19352394D01*
X36134660Y19047594D01*
X36153699Y18946412D01*
X36134660Y18852396D01*
X36134660Y18547596D01*
X36153699Y18446413D01*
X36134660Y18352396D01*
X36134660Y18047596D01*
X36153699Y17946414D01*
X36134660Y17852397D01*
X36134660Y17547597D01*
X36153699Y17446415D01*
X36134660Y17352398D01*
X36134660Y17047598D01*
X36153699Y16946416D01*
X36134660Y16852400D01*
X36134660Y16547600D01*
X36153699Y16446417D01*
X36134660Y16352400D01*
X36134660Y16047600D01*
X36153699Y15946418D01*
X36134660Y15852402D01*
X36134660Y15547602D01*
X36153699Y15446420D01*
X36134660Y15352403D01*
X36134660Y15047603D01*
X36153699Y14946421D01*
X36134660Y14852404D01*
X36134660Y14547604D01*
X36153699Y14446421D01*
X36134660Y14352404D01*
X36134660Y14047604D01*
X36153699Y13946422D01*
X36134660Y13852406D01*
X36134660Y13547606D01*
X36153699Y13446423D01*
X36134660Y13352406D01*
X36134660Y13047606D01*
X36153699Y12946424D01*
X36134660Y12852408D01*
X36134660Y12547608D01*
X36153699Y12446426D01*
X36134660Y12352409D01*
X36134660Y12047609D01*
X36153699Y11946427D01*
X36134660Y11852410D01*
X36134660Y11547610D01*
X36153699Y11446427D01*
X36134660Y11352410D01*
X36134660Y11047610D01*
X36153699Y10946428D01*
X36134660Y10852412D01*
X36134660Y10547612D01*
X36153699Y10446429D01*
X36134660Y10352412D01*
X36134660Y10047612D01*
X36153699Y9946430D01*
X36134660Y9852414D01*
X36134660Y9547614D01*
X36178938Y9312297D01*
X36318010Y9096173D01*
X36530210Y8951183D01*
X36782100Y8900174D01*
X37350024Y8900174D01*
X37689000Y8561198D01*
X37689000Y7161500D01*
X37746852Y6870661D01*
X37911599Y6624099D01*
X38292599Y6243099D01*
X38539160Y6078352D01*
X38720465Y6042288D01*
X38720338Y5896833D01*
X38862383Y5553057D01*
X39125173Y5289808D01*
X39468701Y5147162D01*
X39840667Y5146838D01*
X40184443Y5288883D01*
X40217618Y5322000D01*
X45624500Y5322000D01*
X45915339Y5379852D01*
X46161901Y5544599D01*
X46606401Y5989099D01*
X46665852Y6078074D01*
X46672883Y6061057D01*
X46935673Y5797808D01*
X47279201Y5655162D01*
X47651167Y5654838D01*
X47994943Y5796883D01*
X48258192Y6059673D01*
X48400838Y6403201D01*
X48400910Y6485288D01*
X49214599Y5671599D01*
X49461161Y5506852D01*
X49752000Y5449000D01*
X50332537Y5449000D01*
X50364673Y5416808D01*
X50708201Y5274162D01*
X51080167Y5273838D01*
X51423943Y5415883D01*
X51687192Y5678673D01*
X51784062Y5911961D01*
X51879883Y5680057D01*
X52142673Y5416808D01*
X52486201Y5274162D01*
X52858167Y5273838D01*
X53201943Y5415883D01*
X53347889Y5561574D01*
X53403883Y5426057D01*
X53666673Y5162808D01*
X54010201Y5020162D01*
X54382167Y5019838D01*
X54725943Y5161883D01*
X54989192Y5424673D01*
X55131838Y5768201D01*
X55132162Y6140167D01*
X54990117Y6483943D01*
X54727327Y6747192D01*
X54383799Y6889838D01*
X54336923Y6889879D01*
X53284823Y7941979D01*
X53375148Y8077161D01*
X53433000Y8368000D01*
X53433000Y8440537D01*
X53465192Y8472673D01*
X53492576Y8538622D01*
X53555560Y8475638D01*
X53555560Y7961000D01*
X53599838Y7725683D01*
X53738910Y7509559D01*
X53951110Y7364569D01*
X54203000Y7313560D01*
X54953000Y7313560D01*
X55188317Y7357838D01*
X55404441Y7496910D01*
X55549431Y7709110D01*
X55600440Y7961000D01*
X55600440Y9161000D01*
X55556162Y9396317D01*
X55489671Y9499646D01*
X55491327Y9501302D01*
X55588000Y9734691D01*
X55588000Y10175250D01*
X55429250Y10334000D01*
X54705000Y10334000D01*
X54705000Y10314000D01*
X54451000Y10314000D01*
X54451000Y10334000D01*
X54431000Y10334000D01*
X54431000Y10588000D01*
X54451000Y10588000D01*
X54451000Y11537250D01*
X54705000Y11537250D01*
X54705000Y10588000D01*
X55429250Y10588000D01*
X55588000Y10746750D01*
X55588000Y11187309D01*
X55491327Y11420698D01*
X55312699Y11599327D01*
X55079310Y11696000D01*
X54863750Y11696000D01*
X54705000Y11537250D01*
X54451000Y11537250D01*
X54292250Y11696000D01*
X54090800Y11696000D01*
X54090800Y14695183D01*
X54276645Y14590856D01*
X54404566Y14559876D01*
X54658000Y14679223D01*
X54658000Y16323000D01*
X54912000Y16323000D01*
X54912000Y14679223D01*
X55165434Y14559876D01*
X55293355Y14590856D01*
X55760632Y14853170D01*
X55786673Y14790301D01*
X55965302Y14611673D01*
X56198691Y14515000D01*
X57039250Y14515000D01*
X57198000Y14673750D01*
X57198000Y16323000D01*
X57452000Y16323000D01*
X57452000Y14673750D01*
X57610750Y14515000D01*
X58451309Y14515000D01*
X58684698Y14611673D01*
X58863327Y14790301D01*
X58960000Y15023690D01*
X58960000Y16083250D01*
X60140000Y16083250D01*
X60140000Y15867690D01*
X60236673Y15634301D01*
X60415302Y15455673D01*
X60648691Y15359000D01*
X61089250Y15359000D01*
X61248000Y15517750D01*
X61248000Y16242000D01*
X60298750Y16242000D01*
X60140000Y16083250D01*
X58960000Y16083250D01*
X58960000Y16164250D01*
X58801250Y16323000D01*
X57452000Y16323000D01*
X57198000Y16323000D01*
X54912000Y16323000D01*
X54658000Y16323000D01*
X54638000Y16323000D01*
X54638000Y16577000D01*
X54658000Y16577000D01*
X54658000Y16597000D01*
X54912000Y16597000D01*
X54912000Y16577000D01*
X57198000Y16577000D01*
X57198000Y16597000D01*
X57452000Y16597000D01*
X57452000Y16577000D01*
X58801250Y16577000D01*
X58960000Y16735750D01*
X58960000Y16870310D01*
X60140000Y16870310D01*
X60140000Y16654750D01*
X60298750Y16496000D01*
X61248000Y16496000D01*
X61248000Y17220250D01*
X61089250Y17379000D01*
X60648691Y17379000D01*
X60415302Y17282327D01*
X60236673Y17103699D01*
X60140000Y16870310D01*
X58960000Y16870310D01*
X58960000Y17876310D01*
X58899653Y18022000D01*
X62581698Y18022000D01*
X62930599Y17673099D01*
X63177161Y17508352D01*
X63468000Y17450500D01*
X63985037Y17450500D01*
X64017173Y17418308D01*
X64360701Y17275662D01*
X64732667Y17275338D01*
X65076443Y17417383D01*
X65339692Y17680173D01*
X65482338Y18023701D01*
X65482662Y18395667D01*
X65340617Y18739443D01*
X65077827Y19002692D01*
X64734299Y19145338D01*
X64362333Y19145662D01*
X64018557Y19003617D01*
X63985382Y18970500D01*
X63782802Y18970500D01*
X63491160Y19262142D01*
X63452901Y19319401D01*
X63206339Y19484148D01*
X62915500Y19542000D01*
X52141802Y19542000D01*
X52364680Y19764878D01*
X52410167Y19764838D01*
X52753943Y19906883D01*
X53017192Y20169673D01*
X53159838Y20513201D01*
X53160162Y20885167D01*
X53018117Y21228943D01*
X52755327Y21492192D01*
X52411799Y21634838D01*
X52039833Y21635162D01*
X51696057Y21493117D01*
X51432808Y21230327D01*
X51290162Y20886799D01*
X51290121Y20839923D01*
X51284798Y20834600D01*
X50610118Y20834600D01*
X50610162Y20885167D01*
X50468117Y21228943D01*
X50205327Y21492192D01*
X49867339Y21632537D01*
X50975853Y22741051D01*
X50975838Y22724333D01*
X51117883Y22380557D01*
X51380673Y22117308D01*
X51724201Y21974662D01*
X52096167Y21974338D01*
X52439943Y22116383D01*
X52473118Y22149500D01*
X55213000Y22149500D01*
X55503839Y22207352D01*
X55750401Y22372099D01*
X57813802Y24435500D01*
X63280198Y24435500D01*
X64374378Y23341320D01*
X64374338Y23295833D01*
X64516383Y22952057D01*
X64779173Y22688808D01*
X65122701Y22546162D01*
X65494667Y22545838D01*
X65565500Y22575106D01*
X65565500Y17572802D01*
X65121698Y17129000D01*
X64381844Y17129000D01*
X64339090Y17195441D01*
X64126890Y17340431D01*
X63875000Y17391440D01*
X62675000Y17391440D01*
X62439683Y17347162D01*
X62336354Y17280671D01*
X62334698Y17282327D01*
X62101309Y17379000D01*
X61660750Y17379000D01*
X61502000Y17220250D01*
X61502000Y16496000D01*
X61522000Y16496000D01*
X61522000Y16242000D01*
X61502000Y16242000D01*
X61502000Y15517750D01*
X61660750Y15359000D01*
X62101309Y15359000D01*
X62334698Y15455673D01*
X62336068Y15457043D01*
X62423110Y15397569D01*
X62675000Y15346560D01*
X63875000Y15346560D01*
X64110317Y15390838D01*
X64326441Y15529910D01*
X64380481Y15609000D01*
X65436500Y15609000D01*
X65727339Y15666852D01*
X65973901Y15831599D01*
X66862901Y16720599D01*
X67027648Y16967161D01*
X67085500Y17258000D01*
X67085500Y29008198D01*
X67654093Y29576791D01*
X68016077Y29214176D01*
X68146215Y29160138D01*
X68018200Y29107243D01*
X67614176Y28703923D01*
X67395250Y28176691D01*
X67394752Y27605813D01*
X67612757Y27078200D01*
X68016077Y26674176D01*
X68146215Y26620138D01*
X68018200Y26567243D01*
X67614176Y26163923D01*
X67395250Y25636691D01*
X67394752Y25065813D01*
X67612757Y24538200D01*
X68016077Y24134176D01*
X68146215Y24080138D01*
X68018200Y24027243D01*
X67614176Y23623923D01*
X67395250Y23096691D01*
X67394752Y22525813D01*
X67612757Y21998200D01*
X68016077Y21594176D01*
X68146215Y21540138D01*
X68018200Y21487243D01*
X67614176Y21083923D01*
X67395250Y20556691D01*
X67394752Y19985813D01*
X67612757Y19458200D01*
X68016077Y19054176D01*
X68146215Y19000138D01*
X68018200Y18947243D01*
X67614176Y18543923D01*
X67395250Y18016691D01*
X67394752Y17445813D01*
X67612757Y16918200D01*
X68016077Y16514176D01*
X68146215Y16460138D01*
X68018200Y16407243D01*
X67614176Y16003923D01*
X67395250Y15476691D01*
X67394752Y14905813D01*
X67612757Y14378200D01*
X68016077Y13974176D01*
X68146215Y13920138D01*
X68018200Y13867243D01*
X67614176Y13463923D01*
X67395250Y12936691D01*
X67395133Y12802055D01*
X67205327Y12992192D01*
X66861799Y13134838D01*
X66489833Y13135162D01*
X66146057Y12993117D01*
X65882808Y12730327D01*
X65740162Y12386799D01*
X65739838Y12014833D01*
X65881883Y11671057D01*
X65915000Y11637882D01*
X65915000Y11635802D01*
X61550320Y7271122D01*
X61504833Y7271162D01*
X61161057Y7129117D01*
X60897808Y6866327D01*
X60755162Y6522799D01*
X60754838Y6150833D01*
X60896883Y5807057D01*
X61159673Y5543808D01*
X61503201Y5401162D01*
X61875167Y5400838D01*
X62218943Y5542883D01*
X62482192Y5805673D01*
X62624838Y6149201D01*
X62624879Y6196077D01*
X67212401Y10783599D01*
X67377148Y11030161D01*
X67435000Y11321000D01*
X67435000Y11637537D01*
X67467192Y11669673D01*
X67575057Y11929440D01*
X67612757Y11838200D01*
X68016077Y11434176D01*
X68146215Y11380138D01*
X68018200Y11327243D01*
X67614176Y10923923D01*
X67395250Y10396691D01*
X67394752Y9825813D01*
X67612757Y9298200D01*
X68016077Y8894176D01*
X68146215Y8840138D01*
X68018200Y8787243D01*
X67614176Y8383923D01*
X67395250Y7856691D01*
X67394752Y7285813D01*
X67612757Y6758200D01*
X68016077Y6354176D01*
X68146215Y6300138D01*
X68018200Y6247243D01*
X67614176Y5843923D01*
X67395250Y5316691D01*
X67394752Y4745813D01*
X67612757Y4218200D01*
X68016077Y3814176D01*
X68146215Y3760138D01*
X68018200Y3707243D01*
X67614176Y3303923D01*
X67395250Y2776691D01*
X67394752Y2205813D01*
X67612757Y1678200D01*
X67655882Y1635000D01*
X67338802Y1635000D01*
X66069500Y2904302D01*
X66069500Y2983112D01*
X66144673Y2907808D01*
X66488201Y2765162D01*
X66860167Y2764838D01*
X67203943Y2906883D01*
X67467192Y3169673D01*
X67609838Y3513201D01*
X67610162Y3885167D01*
X67468117Y4228943D01*
X67205327Y4492192D01*
X66861799Y4634838D01*
X66489833Y4635162D01*
X66146057Y4493117D01*
X66069500Y4416693D01*
X66069500Y6535537D01*
X66101692Y6567673D01*
X66244338Y6911201D01*
X66244662Y7283167D01*
X66102617Y7626943D01*
X65839827Y7890192D01*
X65496299Y8032838D01*
X65124333Y8033162D01*
X64780557Y7891117D01*
X64517308Y7628327D01*
X64374662Y7284799D01*
X64374338Y6912833D01*
X64516383Y6569057D01*
X64549500Y6535882D01*
X64549500Y2589500D01*
X64607352Y2298661D01*
X64772099Y2052099D01*
X65822198Y1002000D01*
X15081000Y1002000D01*
X15081000Y2653000D01*
X15070994Y2702410D01*
X15042553Y2744035D01*
X15000159Y2771315D01*
X14954000Y2780000D01*
X12218802Y2780000D01*
X15364401Y5925599D01*
X15529148Y6172161D01*
X15587000Y6463000D01*
X15587000Y9725400D01*
X20625598Y9725400D01*
X15535320Y4635122D01*
X15489833Y4635162D01*
X15146057Y4493117D01*
X14882808Y4230327D01*
X14740162Y3886799D01*
X14739838Y3514833D01*
X14881883Y3171057D01*
X15144673Y2907808D01*
X15488201Y2765162D01*
X15860167Y2764838D01*
X16203943Y2906883D01*
X16467192Y3169673D01*
X16609838Y3513201D01*
X16609879Y3560077D01*
X22100002Y9050200D01*
X22500398Y9050200D01*
X18085320Y4635122D01*
X18039833Y4635162D01*
X17696057Y4493117D01*
X17432808Y4230327D01*
X17290162Y3886799D01*
X17289838Y3514833D01*
X17431883Y3171057D01*
X17694673Y2907808D01*
X18038201Y2765162D01*
X18410167Y2764838D01*
X18753943Y2906883D01*
X19017192Y3169673D01*
X19159838Y3513201D01*
X19159879Y3560077D01*
X26039802Y10440000D01*
X27943753Y10440000D01*
X27905900Y10249700D01*
X27905900Y7991100D01*
X27963752Y7700261D01*
X28128499Y7453699D01*
X29639878Y5942320D01*
X29639838Y5896833D01*
X29781883Y5553057D01*
X30044673Y5289808D01*
X30388201Y5147162D01*
X30760167Y5146838D01*
X31103943Y5288883D01*
X31367192Y5551673D01*
X31509838Y5895201D01*
X31510162Y6267167D01*
X31368117Y6610943D01*
X31105327Y6874192D01*
X30761799Y7016838D01*
X30740053Y7016857D01*
X31078943Y7156883D01*
X31342192Y7419673D01*
X31484838Y7763201D01*
X31485162Y8135167D01*
X31343117Y8478943D01*
X31080327Y8742192D01*
X30736799Y8884838D01*
X30689923Y8884879D01*
X30662188Y8912614D01*
X31244209Y8912614D01*
X31477598Y9009287D01*
X31656227Y9187915D01*
X31752900Y9421304D01*
X31752900Y9465064D01*
X31595767Y9622197D01*
X31714331Y9795722D01*
X31739895Y9921959D01*
X31752900Y9934964D01*
X31752900Y9978724D01*
X31751886Y9981173D01*
X31765340Y10047612D01*
X31765340Y10352412D01*
X31746301Y10453595D01*
X31765340Y10547612D01*
X31765340Y10852412D01*
X31746301Y10953594D01*
X31765340Y11047610D01*
X31765340Y11352410D01*
X31746301Y11453593D01*
X31765340Y11547610D01*
X31765340Y11852410D01*
X31746301Y11953592D01*
X31765340Y12047609D01*
X31765340Y12352409D01*
X31746301Y12453591D01*
X31765340Y12547608D01*
X31765340Y12852408D01*
X31746301Y12953590D01*
X31765340Y13047606D01*
X31765340Y13352406D01*
X31746301Y13453589D01*
X31765340Y13547606D01*
X31765340Y13852406D01*
X31746301Y13953588D01*
X31765340Y14047604D01*
X31765340Y14352404D01*
X31746301Y14453587D01*
X31765340Y14547604D01*
X31765340Y14852404D01*
X31746301Y14953586D01*
X31765340Y15047603D01*
X31765340Y15352403D01*
X31746301Y15453585D01*
X31765340Y15547602D01*
X31765340Y15852402D01*
X31746301Y15953584D01*
X31765340Y16047600D01*
X31765340Y16352400D01*
X31746301Y16453583D01*
X31765340Y16547600D01*
X31765340Y16852400D01*
X31746301Y16953582D01*
X31765340Y17047598D01*
X31765340Y17352398D01*
X31746301Y17453580D01*
X31765340Y17547597D01*
X31765340Y17852397D01*
X31746301Y17953579D01*
X31765340Y18047596D01*
X31765340Y18352396D01*
X31746301Y18453579D01*
X31765340Y18547596D01*
X31765340Y18852396D01*
X31746301Y18953578D01*
X31765340Y19047594D01*
X31765340Y19352394D01*
X31746301Y19453577D01*
X31765340Y19547594D01*
X31765340Y19852394D01*
X31746301Y19953576D01*
X31765340Y20047592D01*
X31765340Y20352392D01*
X31746301Y20453574D01*
X31765340Y20547591D01*
X31765340Y20852391D01*
X31746301Y20953573D01*
X31765340Y21047590D01*
X31765340Y21352390D01*
X31746301Y21453573D01*
X31765340Y21547590D01*
X31765340Y21852390D01*
X31746301Y21953572D01*
X31765340Y22047588D01*
X31765340Y22352388D01*
X31746301Y22453571D01*
X31765340Y22547588D01*
X31765340Y22852388D01*
X31752541Y22920409D01*
X31752900Y22921276D01*
X31752900Y22965036D01*
X31742114Y22975822D01*
X31721062Y23087705D01*
X31597574Y23279610D01*
X31752900Y23434936D01*
X31752900Y23478696D01*
X31656227Y23712085D01*
X31477598Y23890713D01*
X31244209Y23987386D01*
X30867793Y23987386D01*
X31001838Y24310201D01*
X31002162Y24682167D01*
X30897147Y24936323D01*
X30964110Y24890569D01*
X31216000Y24839560D01*
X31966000Y24839560D01*
X32201317Y24883838D01*
X32417441Y25022910D01*
X32562431Y25235110D01*
X32613440Y25487000D01*
X32613440Y26687000D01*
X32569162Y26922317D01*
X32502671Y27025646D01*
X32504327Y27027302D01*
X32601000Y27260691D01*
X32601000Y27701250D01*
X32442250Y27860000D01*
X31718000Y27860000D01*
X31718000Y27840000D01*
X31464000Y27840000D01*
X31464000Y27860000D01*
X30739750Y27860000D01*
X30581000Y27701250D01*
X30581000Y27473049D01*
X30542617Y27565943D01*
X30279827Y27829192D01*
X29936299Y27971838D01*
X29564333Y27972162D01*
X29220557Y27830117D01*
X29034263Y27644148D01*
X28856799Y27717838D01*
X28525300Y27718127D01*
X28525300Y28713309D01*
X30581000Y28713309D01*
X30581000Y28272750D01*
X30739750Y28114000D01*
X31464000Y28114000D01*
X31464000Y29063250D01*
X31718000Y29063250D01*
X31718000Y28114000D01*
X32442250Y28114000D01*
X32601000Y28272750D01*
X32601000Y28713309D01*
X32504327Y28946698D01*
X32325699Y29125327D01*
X32092310Y29222000D01*
X31876750Y29222000D01*
X31718000Y29063250D01*
X31464000Y29063250D01*
X31305250Y29222000D01*
X31089690Y29222000D01*
X30856301Y29125327D01*
X30677673Y28946698D01*
X30581000Y28713309D01*
X28525300Y28713309D01*
X28525300Y28738498D01*
X30587680Y30800878D01*
X30633167Y30800838D01*
X30976943Y30942883D01*
X31240192Y31205673D01*
X31382838Y31549201D01*
X31383162Y31921167D01*
X31241117Y32264943D01*
X30978327Y32528192D01*
X30634799Y32670838D01*
X30262833Y32671162D01*
X29919057Y32529117D01*
X29655808Y32266327D01*
X29513162Y31922799D01*
X29513121Y31875923D01*
X28075000Y30437802D01*
X28075000Y31844198D01*
X30587680Y34356878D01*
X30633167Y34356838D01*
X30976943Y34498883D01*
X31240192Y34761673D01*
X31382838Y35105201D01*
X31383162Y35477167D01*
X31241117Y35820943D01*
X30978327Y36084192D01*
X30634799Y36226838D01*
X30262833Y36227162D01*
X29919057Y36085117D01*
X29655808Y35822327D01*
X29513162Y35478799D01*
X29513121Y35431923D01*
X27624700Y33543502D01*
X27624700Y39902898D01*
X30587680Y42865878D01*
X30633167Y42865838D01*
X30976943Y43007883D01*
X31240192Y43270673D01*
X31382838Y43614201D01*
X31383162Y43986167D01*
X31241117Y44329943D01*
X30978327Y44593192D01*
X30634799Y44735838D01*
X30262833Y44736162D01*
X29919057Y44594117D01*
X29655808Y44331327D01*
X29513162Y43987799D01*
X29513121Y43940923D01*
X26327299Y40755101D01*
X26162552Y40508539D01*
X26104700Y40217700D01*
X26104700Y39395102D01*
X19793802Y45706000D01*
X29051000Y45706000D01*
X29100410Y45716006D01*
X29142035Y45744447D01*
X29169315Y45786841D01*
X29178000Y45833000D01*
X29178000Y56829755D01*
X29335192Y56986673D01*
X29430833Y57217000D01*
X29617167Y57216838D01*
X29960943Y57358883D01*
X30224192Y57621673D01*
X30366838Y57965201D01*
X30367162Y58337167D01*
X30225117Y58680943D01*
X29962327Y58944192D01*
X29618799Y59086838D01*
X29571923Y59086879D01*
X29178000Y59480802D01*
X29178000Y59658066D01*
X29245201Y59630162D01*
X29433287Y59629998D01*
X29527883Y59401057D01*
X29790673Y59137808D01*
X30134201Y58995162D01*
X30506167Y58994838D01*
X30849943Y59136883D01*
X31113192Y59399673D01*
X31255838Y59743201D01*
X31256162Y60115167D01*
X31114117Y60458943D01*
X31081000Y60492118D01*
X31081000Y61835000D01*
X31023148Y62125839D01*
X30858401Y62372401D01*
X29493401Y63737401D01*
X29246839Y63902148D01*
X29178000Y63915841D01*
X29178000Y65651500D01*
X30389045Y65651500D01*
X30425673Y65614808D01*
X30769201Y65472162D01*
X31141167Y65471838D01*
X31443200Y65596635D01*
X31443200Y60747263D01*
X31411008Y60715127D01*
X31268362Y60371599D01*
X31268038Y59999633D01*
X31410083Y59655857D01*
X31672873Y59392608D01*
X32016401Y59249962D01*
X32388367Y59249638D01*
X32732143Y59391683D01*
X32995392Y59654473D01*
X33138038Y59998001D01*
X33138362Y60369967D01*
X32996317Y60713743D01*
X32963200Y60746918D01*
X32963200Y70620800D01*
X32938555Y70744700D01*
X32905348Y70911640D01*
X32740601Y71158201D01*
X31661401Y72237401D01*
X31414839Y72402148D01*
X31124000Y72460000D01*
X29178000Y72460000D01*
X29178000Y75265000D01*
X134588000Y75265000D01*
X134588000Y72635076D01*
G36*
X81872599Y37162599D02*
X82119161Y36997852D01*
X82410000Y36940000D01*
X83112537Y36940000D01*
X83118119Y36934408D01*
X82910301Y36848327D01*
X82731673Y36669698D01*
X82635000Y36436309D01*
X82635000Y35795750D01*
X82793750Y35637000D01*
X83943000Y35637000D01*
X83943000Y35657000D01*
X84197000Y35657000D01*
X84197000Y35637000D01*
X84217000Y35637000D01*
X84217000Y35383000D01*
X84197000Y35383000D01*
X84197000Y35363000D01*
X83943000Y35363000D01*
X83943000Y35383000D01*
X82793750Y35383000D01*
X82635000Y35224250D01*
X82635000Y34583691D01*
X82731673Y34350302D01*
X82910301Y34171673D01*
X83143690Y34075000D01*
X83145761Y34075000D01*
X82854176Y33783923D01*
X82635250Y33256691D01*
X82634752Y32685813D01*
X82852757Y32158200D01*
X83256077Y31754176D01*
X83386215Y31700138D01*
X83258200Y31647243D01*
X82854176Y31243923D01*
X82635250Y30716691D01*
X82634752Y30145813D01*
X82852757Y29618200D01*
X83256077Y29214176D01*
X83386215Y29160138D01*
X83258200Y29107243D01*
X82854176Y28703923D01*
X82635250Y28176691D01*
X82634752Y27605813D01*
X82852757Y27078200D01*
X83256077Y26674176D01*
X83386215Y26620138D01*
X83258200Y26567243D01*
X82854176Y26163923D01*
X82635250Y25636691D01*
X82634752Y25065813D01*
X82657049Y25011851D01*
X81494199Y23849001D01*
X81329452Y23602439D01*
X81271600Y23311600D01*
X81271600Y22308400D01*
X81329452Y22017561D01*
X81494199Y21770999D01*
X82656744Y20608454D01*
X82635250Y20556691D01*
X82634752Y19985813D01*
X82657049Y19931851D01*
X82380499Y19655301D01*
X82215752Y19408739D01*
X82157900Y19117900D01*
X82157900Y11262100D01*
X82215752Y10971261D01*
X82380499Y10724699D01*
X82656744Y10448454D01*
X82635250Y10396691D01*
X82634752Y9825813D01*
X82852757Y9298200D01*
X83256077Y8894176D01*
X83386215Y8840138D01*
X83258200Y8787243D01*
X82854176Y8383923D01*
X82635250Y7856691D01*
X82634752Y7285813D01*
X82657049Y7231851D01*
X80933698Y5508500D01*
X79710722Y5508500D01*
X79881192Y5678673D01*
X80023838Y6022201D01*
X80024162Y6394167D01*
X79882117Y6737943D01*
X79619327Y7001192D01*
X79275799Y7143838D01*
X79228923Y7143879D01*
X77368700Y9004102D01*
X77368700Y15363498D01*
X78153878Y14578320D01*
X78153838Y14532833D01*
X78295883Y14189057D01*
X78558673Y13925808D01*
X78902201Y13783162D01*
X79274167Y13782838D01*
X79617943Y13924883D01*
X79881192Y14187673D01*
X80023838Y14531201D01*
X80024162Y14903167D01*
X79882117Y15246943D01*
X79619327Y15510192D01*
X79275799Y15652838D01*
X79228923Y15652879D01*
X77819000Y17062802D01*
X77819000Y23422198D01*
X78153878Y23087320D01*
X78153838Y23041833D01*
X78295883Y22698057D01*
X78558673Y22434808D01*
X78902201Y22292162D01*
X79274167Y22291838D01*
X79617943Y22433883D01*
X79881192Y22696673D01*
X80023838Y23040201D01*
X80024162Y23412167D01*
X79882117Y23755943D01*
X79619327Y24019192D01*
X79275799Y24161838D01*
X79228923Y24161879D01*
X78269300Y25121502D01*
X78269300Y26191393D01*
X78295883Y26127057D01*
X78558673Y25863808D01*
X78902201Y25721162D01*
X79274167Y25720838D01*
X79617943Y25862883D01*
X79881192Y26125673D01*
X80023838Y26469201D01*
X80024162Y26841167D01*
X79882117Y27184943D01*
X79849000Y27218118D01*
X79849000Y39186198D01*
X81872599Y37162599D01*
X81872599Y37162599D01*
G37*
X81872599Y37162599D02*
X82119161Y36997852D01*
X82410000Y36940000D01*
X83112537Y36940000D01*
X83118119Y36934408D01*
X82910301Y36848327D01*
X82731673Y36669698D01*
X82635000Y36436309D01*
X82635000Y35795750D01*
X82793750Y35637000D01*
X83943000Y35637000D01*
X83943000Y35657000D01*
X84197000Y35657000D01*
X84197000Y35637000D01*
X84217000Y35637000D01*
X84217000Y35383000D01*
X84197000Y35383000D01*
X84197000Y35363000D01*
X83943000Y35363000D01*
X83943000Y35383000D01*
X82793750Y35383000D01*
X82635000Y35224250D01*
X82635000Y34583691D01*
X82731673Y34350302D01*
X82910301Y34171673D01*
X83143690Y34075000D01*
X83145761Y34075000D01*
X82854176Y33783923D01*
X82635250Y33256691D01*
X82634752Y32685813D01*
X82852757Y32158200D01*
X83256077Y31754176D01*
X83386215Y31700138D01*
X83258200Y31647243D01*
X82854176Y31243923D01*
X82635250Y30716691D01*
X82634752Y30145813D01*
X82852757Y29618200D01*
X83256077Y29214176D01*
X83386215Y29160138D01*
X83258200Y29107243D01*
X82854176Y28703923D01*
X82635250Y28176691D01*
X82634752Y27605813D01*
X82852757Y27078200D01*
X83256077Y26674176D01*
X83386215Y26620138D01*
X83258200Y26567243D01*
X82854176Y26163923D01*
X82635250Y25636691D01*
X82634752Y25065813D01*
X82657049Y25011851D01*
X81494199Y23849001D01*
X81329452Y23602439D01*
X81271600Y23311600D01*
X81271600Y22308400D01*
X81329452Y22017561D01*
X81494199Y21770999D01*
X82656744Y20608454D01*
X82635250Y20556691D01*
X82634752Y19985813D01*
X82657049Y19931851D01*
X82380499Y19655301D01*
X82215752Y19408739D01*
X82157900Y19117900D01*
X82157900Y11262100D01*
X82215752Y10971261D01*
X82380499Y10724699D01*
X82656744Y10448454D01*
X82635250Y10396691D01*
X82634752Y9825813D01*
X82852757Y9298200D01*
X83256077Y8894176D01*
X83386215Y8840138D01*
X83258200Y8787243D01*
X82854176Y8383923D01*
X82635250Y7856691D01*
X82634752Y7285813D01*
X82657049Y7231851D01*
X80933698Y5508500D01*
X79710722Y5508500D01*
X79881192Y5678673D01*
X80023838Y6022201D01*
X80024162Y6394167D01*
X79882117Y6737943D01*
X79619327Y7001192D01*
X79275799Y7143838D01*
X79228923Y7143879D01*
X77368700Y9004102D01*
X77368700Y15363498D01*
X78153878Y14578320D01*
X78153838Y14532833D01*
X78295883Y14189057D01*
X78558673Y13925808D01*
X78902201Y13783162D01*
X79274167Y13782838D01*
X79617943Y13924883D01*
X79881192Y14187673D01*
X80023838Y14531201D01*
X80024162Y14903167D01*
X79882117Y15246943D01*
X79619327Y15510192D01*
X79275799Y15652838D01*
X79228923Y15652879D01*
X77819000Y17062802D01*
X77819000Y23422198D01*
X78153878Y23087320D01*
X78153838Y23041833D01*
X78295883Y22698057D01*
X78558673Y22434808D01*
X78902201Y22292162D01*
X79274167Y22291838D01*
X79617943Y22433883D01*
X79881192Y22696673D01*
X80023838Y23040201D01*
X80024162Y23412167D01*
X79882117Y23755943D01*
X79619327Y24019192D01*
X79275799Y24161838D01*
X79228923Y24161879D01*
X78269300Y25121502D01*
X78269300Y26191393D01*
X78295883Y26127057D01*
X78558673Y25863808D01*
X78902201Y25721162D01*
X79274167Y25720838D01*
X79617943Y25862883D01*
X79881192Y26125673D01*
X80023838Y26469201D01*
X80024162Y26841167D01*
X79882117Y27184943D01*
X79849000Y27218118D01*
X79849000Y39186198D01*
X81872599Y37162599D01*
G36*
X107349000Y25132000D02*
X107369000Y25132000D01*
X107369000Y25064600D01*
X107075000Y25064600D01*
X107075000Y25132000D01*
X107095000Y25132000D01*
X107095000Y25152000D01*
X107349000Y25152000D01*
X107349000Y25132000D01*
X107349000Y25132000D01*
G37*
X107349000Y25132000D02*
X107369000Y25132000D01*
X107369000Y25064600D01*
X107075000Y25064600D01*
X107075000Y25132000D01*
X107095000Y25132000D01*
X107095000Y25152000D01*
X107349000Y25152000D01*
X107349000Y25132000D01*
G36*
X92305599Y64315401D02*
X92140852Y64068839D01*
X92083000Y63778000D01*
X92083000Y37926600D01*
X92140852Y37635761D01*
X92305599Y37389199D01*
X94486498Y35208300D01*
X89271900Y29993702D01*
X89271900Y63330700D01*
X89222430Y63579400D01*
X89214048Y63621540D01*
X89049301Y63868101D01*
X83991001Y68926401D01*
X83744439Y69091148D01*
X83453600Y69149000D01*
X78005963Y69149000D01*
X77973827Y69181192D01*
X77869049Y69224700D01*
X97214898Y69224700D01*
X92305599Y64315401D01*
X92305599Y64315401D01*
G37*
X92305599Y64315401D02*
X92140852Y64068839D01*
X92083000Y63778000D01*
X92083000Y37926600D01*
X92140852Y37635761D01*
X92305599Y37389199D01*
X94486498Y35208300D01*
X89271900Y29993702D01*
X89271900Y63330700D01*
X89222430Y63579400D01*
X89214048Y63621540D01*
X89049301Y63868101D01*
X83991001Y68926401D01*
X83744439Y69091148D01*
X83453600Y69149000D01*
X78005963Y69149000D01*
X77973827Y69181192D01*
X77869049Y69224700D01*
X97214898Y69224700D01*
X92305599Y64315401D01*
G36*
X82739878Y54560320D02*
X82739838Y54514833D01*
X82881883Y54171057D01*
X83144673Y53907808D01*
X83488201Y53765162D01*
X83860167Y53764838D01*
X84203943Y53906883D01*
X84441136Y54143662D01*
X85465000Y53119798D01*
X85465000Y46762463D01*
X85432808Y46730327D01*
X85290162Y46386799D01*
X85289838Y46014833D01*
X85431883Y45671057D01*
X85694673Y45407808D01*
X86038201Y45265162D01*
X86134100Y45265078D01*
X86134100Y38635080D01*
X86091685Y38635117D01*
X81881000Y42845802D01*
X81881000Y43801000D01*
X81823148Y44091839D01*
X81658401Y44338401D01*
X78947400Y47049402D01*
X78947400Y54235798D01*
X82915000Y50268198D01*
X82915000Y46762463D01*
X82882808Y46730327D01*
X82740162Y46386799D01*
X82739838Y46014833D01*
X82881883Y45671057D01*
X83144673Y45407808D01*
X83488201Y45265162D01*
X83860167Y45264838D01*
X84203943Y45406883D01*
X84467192Y45669673D01*
X84609838Y46013201D01*
X84610162Y46385167D01*
X84468117Y46728943D01*
X84435000Y46762118D01*
X84435000Y50583000D01*
X84377148Y50873839D01*
X84212401Y51120401D01*
X75892802Y59440000D01*
X77860198Y59440000D01*
X82739878Y54560320D01*
X82739878Y54560320D01*
G37*
X82739878Y54560320D02*
X82739838Y54514833D01*
X82881883Y54171057D01*
X83144673Y53907808D01*
X83488201Y53765162D01*
X83860167Y53764838D01*
X84203943Y53906883D01*
X84441136Y54143662D01*
X85465000Y53119798D01*
X85465000Y46762463D01*
X85432808Y46730327D01*
X85290162Y46386799D01*
X85289838Y46014833D01*
X85431883Y45671057D01*
X85694673Y45407808D01*
X86038201Y45265162D01*
X86134100Y45265078D01*
X86134100Y38635080D01*
X86091685Y38635117D01*
X81881000Y42845802D01*
X81881000Y43801000D01*
X81823148Y44091839D01*
X81658401Y44338401D01*
X78947400Y47049402D01*
X78947400Y54235798D01*
X82915000Y50268198D01*
X82915000Y46762463D01*
X82882808Y46730327D01*
X82740162Y46386799D01*
X82739838Y46014833D01*
X82881883Y45671057D01*
X83144673Y45407808D01*
X83488201Y45265162D01*
X83860167Y45264838D01*
X84203943Y45406883D01*
X84467192Y45669673D01*
X84609838Y46013201D01*
X84610162Y46385167D01*
X84468117Y46728943D01*
X84435000Y46762118D01*
X84435000Y50583000D01*
X84377148Y50873839D01*
X84212401Y51120401D01*
X75892802Y59440000D01*
X77860198Y59440000D01*
X82739878Y54560320D01*
M02*
