G04 #@! TF.FileFunction,Soldermask,Top*
%FSLAX46Y46*%
G04 Gerber Fmt 4.6, Leading zero omitted, Abs format (unit mm)*
G04 Created by KiCad (PCBNEW 4.0.7-e1-6374~58~ubuntu16.04.1) date Thu Aug 31 17:04:50 2017*
%MOMM*%
%LPD*%
G01*
G04 APERTURE LIST*
%ADD10C,0.100000*%
%ADD11C,2.000000*%
%ADD12R,2.000000X2.000000*%
%ADD13R,2.400000X3.000000*%
%ADD14O,2.400000X3.000000*%
%ADD15R,2.400000X2.700000*%
%ADD16R,1.400000X2.700000*%
%ADD17C,2.540000*%
%ADD18C,3.100000*%
%ADD19C,1.000000*%
G04 APERTURE END LIST*
D10*
X-50000Y-50000D02*
X-50000Y75950000D01*
X135950000Y-50000D02*
X-50000Y-50000D01*
X135950000Y75950000D02*
X135950000Y-50000D01*
X-50000Y75950000D02*
X135950000Y75950000D01*
D11*
X68830000Y2490000D03*
X84070000Y2490000D03*
X68830000Y5030000D03*
X68830000Y7570000D03*
X68830000Y10110000D03*
X68830000Y12650000D03*
X68830000Y15190000D03*
X68830000Y17730000D03*
X68830000Y20270000D03*
X68830000Y22810000D03*
X68830000Y25350000D03*
X68830000Y27890000D03*
X68830000Y30430000D03*
X68830000Y32970000D03*
X68830000Y35510000D03*
X84070000Y5030000D03*
X84070000Y7570000D03*
X84070000Y10110000D03*
X84070000Y12650000D03*
X84070000Y15190000D03*
X84070000Y17730000D03*
X84070000Y20270000D03*
X84070000Y22810000D03*
X84070000Y25350000D03*
X84070000Y27890000D03*
X84070000Y30430000D03*
X84070000Y32970000D03*
D12*
X84070000Y35510000D03*
D13*
X57325000Y16450000D03*
D14*
X54785000Y16450000D03*
X52245000Y16450000D03*
X49705000Y16450000D03*
D15*
X132550000Y3700000D03*
D16*
X130350000Y3700000D03*
D15*
X132550000Y12200000D03*
D16*
X130350000Y12200000D03*
D15*
X132550000Y20700000D03*
D16*
X130350000Y20700000D03*
D15*
X132550000Y29200000D03*
D16*
X130350000Y29200000D03*
D15*
X132550000Y37700000D03*
D16*
X130350000Y37700000D03*
D15*
X132550000Y46200000D03*
D16*
X130350000Y46200000D03*
D15*
X132550000Y54700000D03*
D16*
X130350000Y54700000D03*
D15*
X132550000Y63200000D03*
D16*
X130350000Y63200000D03*
D15*
X132550000Y71700000D03*
D16*
X130350000Y71700000D03*
D15*
X122350000Y3700000D03*
D16*
X124550000Y3700000D03*
D15*
X122350000Y12200000D03*
D16*
X124550000Y12200000D03*
D15*
X122350000Y20700000D03*
D16*
X124550000Y20700000D03*
D15*
X122350000Y29200000D03*
D16*
X124550000Y29200000D03*
D15*
X122350000Y37700000D03*
D16*
X124550000Y37700000D03*
D15*
X122350000Y46200000D03*
D16*
X124550000Y46200000D03*
D15*
X122350000Y54700000D03*
D16*
X124550000Y54700000D03*
D15*
X122350000Y63200000D03*
D16*
X124550000Y63200000D03*
D15*
X122350000Y71700000D03*
D16*
X124550000Y71700000D03*
D15*
X115550000Y3700000D03*
D16*
X113350000Y3700000D03*
D15*
X115550000Y12200000D03*
D16*
X113350000Y12200000D03*
D15*
X115550000Y20700000D03*
D16*
X113350000Y20700000D03*
D15*
X115550000Y29200000D03*
D16*
X113350000Y29200000D03*
D15*
X115550000Y37700000D03*
D16*
X113350000Y37700000D03*
D15*
X115550000Y46200000D03*
D16*
X113350000Y46200000D03*
D15*
X115550000Y54700000D03*
D16*
X113350000Y54700000D03*
D15*
X115550000Y63200000D03*
D16*
X113350000Y63200000D03*
D15*
X115550000Y71700000D03*
D16*
X113350000Y71700000D03*
D15*
X105350000Y3700000D03*
D16*
X107550000Y3700000D03*
D15*
X105350000Y12200000D03*
D16*
X107550000Y12200000D03*
D15*
X105350000Y20700000D03*
D16*
X107550000Y20700000D03*
D15*
X105350000Y29200000D03*
D16*
X107550000Y29200000D03*
D15*
X105350000Y37700000D03*
D16*
X107550000Y37700000D03*
D15*
X105350000Y46200000D03*
D16*
X107550000Y46200000D03*
D15*
X105350000Y54700000D03*
D16*
X107550000Y54700000D03*
D15*
X105350000Y63200000D03*
D16*
X107550000Y63200000D03*
D15*
X105350000Y71700000D03*
D16*
X107550000Y71700000D03*
D15*
X98550000Y3700000D03*
D16*
X96350000Y3700000D03*
D15*
X98550000Y12200000D03*
D16*
X96350000Y12200000D03*
D15*
X98550000Y20700000D03*
D16*
X96350000Y20700000D03*
D15*
X98550000Y29200000D03*
D16*
X96350000Y29200000D03*
D15*
X98550000Y37700000D03*
D16*
X96350000Y37700000D03*
D15*
X98550000Y46200000D03*
D16*
X96350000Y46200000D03*
D15*
X98550000Y54700000D03*
D16*
X96350000Y54700000D03*
D15*
X98550000Y63200000D03*
D16*
X96350000Y63200000D03*
D15*
X98550000Y71700000D03*
D16*
X96350000Y71700000D03*
D15*
X88350000Y3700000D03*
D16*
X90550000Y3700000D03*
D15*
X88350000Y12200000D03*
D16*
X90550000Y12200000D03*
D15*
X88350000Y20700000D03*
D16*
X90550000Y20700000D03*
D15*
X88350000Y29200000D03*
D16*
X90550000Y29200000D03*
D15*
X88350000Y37700000D03*
D16*
X90550000Y37700000D03*
D15*
X88350000Y46200000D03*
D16*
X90550000Y46200000D03*
D15*
X88350000Y54700000D03*
D16*
X90550000Y54700000D03*
D15*
X88350000Y63200000D03*
D16*
X90550000Y63200000D03*
D15*
X88350000Y71700000D03*
D16*
X90550000Y71700000D03*
D15*
X81550000Y3700000D03*
D16*
X79350000Y3700000D03*
D15*
X81550000Y12200000D03*
D16*
X79350000Y12200000D03*
D15*
X81550000Y20700000D03*
D16*
X79350000Y20700000D03*
D15*
X81550000Y29200000D03*
D16*
X79350000Y29200000D03*
D15*
X81550000Y37700000D03*
D16*
X79350000Y37700000D03*
D15*
X81550000Y46200000D03*
D16*
X79350000Y46200000D03*
D15*
X81550000Y54700000D03*
D16*
X79350000Y54700000D03*
D15*
X81550000Y63200000D03*
D16*
X79350000Y63200000D03*
D15*
X81550000Y71700000D03*
D16*
X79350000Y71700000D03*
D15*
X71350000Y3700000D03*
D16*
X73550000Y3700000D03*
D15*
X71350000Y12200000D03*
D16*
X73550000Y12200000D03*
D15*
X71350000Y20700000D03*
D16*
X73550000Y20700000D03*
D15*
X71350000Y29200000D03*
D16*
X73550000Y29200000D03*
D15*
X71350000Y37700000D03*
D16*
X73550000Y37700000D03*
D15*
X71350000Y46200000D03*
D16*
X73550000Y46200000D03*
D15*
X71350000Y54700000D03*
D16*
X73550000Y54700000D03*
D15*
X71350000Y63200000D03*
D16*
X73550000Y63200000D03*
D15*
X71350000Y71700000D03*
D16*
X73550000Y71700000D03*
D15*
X64550000Y3700000D03*
D16*
X62350000Y3700000D03*
D15*
X64550000Y12200000D03*
D16*
X62350000Y12200000D03*
D15*
X64550000Y20700000D03*
D16*
X62350000Y20700000D03*
D15*
X64550000Y29200000D03*
D16*
X62350000Y29200000D03*
D15*
X64550000Y37700000D03*
D16*
X62350000Y37700000D03*
D15*
X64550000Y46200000D03*
D16*
X62350000Y46200000D03*
D15*
X64550000Y54700000D03*
D16*
X62350000Y54700000D03*
D15*
X64550000Y63200000D03*
D16*
X62350000Y63200000D03*
D15*
X64550000Y71700000D03*
D16*
X62350000Y71700000D03*
D15*
X54350000Y3700000D03*
D16*
X56550000Y3700000D03*
D15*
X54350000Y12200000D03*
D16*
X56550000Y12200000D03*
D15*
X54350000Y20700000D03*
D16*
X56550000Y20700000D03*
D15*
X54350000Y29200000D03*
D16*
X56550000Y29200000D03*
D15*
X54350000Y37700000D03*
D16*
X56550000Y37700000D03*
D15*
X54350000Y46200000D03*
D16*
X56550000Y46200000D03*
D15*
X54350000Y54700000D03*
D16*
X56550000Y54700000D03*
D15*
X54350000Y63200000D03*
D16*
X56550000Y63200000D03*
D15*
X54350000Y71700000D03*
D16*
X56550000Y71700000D03*
D15*
X47550000Y3700000D03*
D16*
X45350000Y3700000D03*
D15*
X47550000Y12200000D03*
D16*
X45350000Y12200000D03*
D15*
X47550000Y20700000D03*
D16*
X45350000Y20700000D03*
D15*
X47550000Y29200000D03*
D16*
X45350000Y29200000D03*
D15*
X47550000Y37700000D03*
D16*
X45350000Y37700000D03*
D15*
X47550000Y46200000D03*
D16*
X45350000Y46200000D03*
D15*
X47550000Y54700000D03*
D16*
X45350000Y54700000D03*
D15*
X47550000Y63200000D03*
D16*
X45350000Y63200000D03*
D15*
X47550000Y71700000D03*
D16*
X45350000Y71700000D03*
D15*
X37350000Y3700000D03*
D16*
X39550000Y3700000D03*
D15*
X37350000Y12200000D03*
D16*
X39550000Y12200000D03*
D15*
X37350000Y20700000D03*
D16*
X39550000Y20700000D03*
D15*
X37350000Y29200000D03*
D16*
X39550000Y29200000D03*
D15*
X37350000Y37700000D03*
D16*
X39550000Y37700000D03*
D15*
X37350000Y54700000D03*
D16*
X39550000Y54700000D03*
D15*
X37350000Y63200000D03*
D16*
X39550000Y63200000D03*
D15*
X37350000Y71700000D03*
D16*
X39550000Y71700000D03*
D15*
X30550000Y3700000D03*
D16*
X28350000Y3700000D03*
D15*
X30550000Y12200000D03*
D16*
X28350000Y12200000D03*
D15*
X30550000Y20700000D03*
D16*
X28350000Y20700000D03*
D15*
X30550000Y29200000D03*
D16*
X28350000Y29200000D03*
D15*
X30550000Y37700000D03*
D16*
X28350000Y37700000D03*
D15*
X30550000Y46200000D03*
D16*
X28350000Y46200000D03*
D15*
X30550000Y54700000D03*
D16*
X28350000Y54700000D03*
D15*
X30550000Y63200000D03*
D16*
X28350000Y63200000D03*
D15*
X30550000Y71700000D03*
D16*
X28350000Y71700000D03*
D15*
X20350000Y3700000D03*
D16*
X22550000Y3700000D03*
D15*
X20350000Y12200000D03*
D16*
X22550000Y12200000D03*
D15*
X20350000Y20700000D03*
D16*
X22550000Y20700000D03*
D15*
X20350000Y29200000D03*
D16*
X22550000Y29200000D03*
D15*
X20350000Y37700000D03*
D16*
X22550000Y37700000D03*
D15*
X20350000Y46200000D03*
D16*
X22550000Y46200000D03*
D15*
X20350000Y54700000D03*
D16*
X22550000Y54700000D03*
D15*
X20350000Y63200000D03*
D16*
X22550000Y63200000D03*
D15*
X20350000Y71700000D03*
D16*
X22550000Y71700000D03*
D15*
X13550000Y3700000D03*
D16*
X11350000Y3700000D03*
D15*
X13550000Y12200000D03*
D16*
X11350000Y12200000D03*
D15*
X13550000Y20700000D03*
D16*
X11350000Y20700000D03*
D15*
X13550000Y29200000D03*
D16*
X11350000Y29200000D03*
D15*
X13550000Y37700000D03*
D16*
X11350000Y37700000D03*
D15*
X13550000Y46200000D03*
D16*
X11350000Y46200000D03*
D15*
X13550000Y54700000D03*
D16*
X11350000Y54700000D03*
D15*
X13550000Y63200000D03*
D16*
X11350000Y63200000D03*
D15*
X13550000Y71700000D03*
D16*
X11350000Y71700000D03*
D15*
X3350000Y3700000D03*
D16*
X5550000Y3700000D03*
D15*
X3350000Y12200000D03*
D16*
X5550000Y12200000D03*
D15*
X3350000Y20700000D03*
D16*
X5550000Y20700000D03*
D15*
X3350000Y29200000D03*
D16*
X5550000Y29200000D03*
D15*
X3350000Y37700000D03*
D16*
X5550000Y37700000D03*
D15*
X3350000Y46200000D03*
D16*
X5550000Y46200000D03*
D15*
X3350000Y54700000D03*
D16*
X5550000Y54700000D03*
D15*
X3350000Y63200000D03*
D16*
X5550000Y63200000D03*
D15*
X3350000Y71700000D03*
D16*
X5550000Y71700000D03*
D15*
X37350000Y46200000D03*
D16*
X39550000Y46200000D03*
D17*
X2635000Y7860000D03*
X133191000Y8114000D03*
X133318000Y67677000D03*
X2381000Y67931000D03*
D18*
X8450000Y7950000D03*
X127200000Y7950000D03*
X127200000Y67450000D03*
X8450000Y67450000D03*
D19*
X85185000Y40245000D03*
X105460500Y68766300D03*
X96342500Y68932400D03*
X86177800Y67113100D03*
X84791000Y53140500D03*
X101950000Y33450000D03*
X101100000Y33450000D03*
X101950000Y34300000D03*
X101100000Y34300000D03*
X101950000Y32600000D03*
X101100000Y32600000D03*
X102800000Y32600000D03*
X102800000Y33450000D03*
X102800000Y34300000D03*
X67950000Y58100000D03*
X68800000Y58100000D03*
X67100000Y58100000D03*
X67100000Y58950000D03*
X67950000Y58950000D03*
X67950000Y59800000D03*
X67100000Y59800000D03*
X68800000Y59800000D03*
X68800000Y58950000D03*
X33950000Y17300000D03*
X34800000Y17300000D03*
X33100000Y17300000D03*
X34800000Y15600000D03*
X33100000Y15600000D03*
X33950000Y16450000D03*
X33950000Y15600000D03*
X33100000Y16450000D03*
X34800000Y16450000D03*
X87227000Y23989400D03*
X109270000Y26290000D03*
X54197000Y26084500D03*
X29749500Y27037000D03*
X70326000Y26402000D03*
X88487000Y26719500D03*
X64558000Y68389000D03*
X77443500Y68389000D03*
X61563300Y66253000D03*
X50568300Y67425500D03*
X1225000Y71700000D03*
X29178000Y69328000D03*
X18764000Y69201000D03*
X14192000Y69201000D03*
X1238000Y63232000D03*
X28543000Y67169000D03*
X42894000Y66153000D03*
X29432000Y60565000D03*
X20288000Y60819000D03*
X16478000Y61073000D03*
X1238000Y54723000D03*
X43210300Y58074400D03*
X1225000Y46200000D03*
X1225000Y37700000D03*
X1225000Y29200000D03*
X1225000Y20700000D03*
X1225000Y12200000D03*
X1225000Y3700000D03*
X53924000Y66004800D03*
X15675000Y71700000D03*
X29305000Y68058000D03*
X38891600Y66415900D03*
X30956000Y66407000D03*
X15675000Y63200000D03*
X51104100Y57221900D03*
X19907000Y59549000D03*
X29432000Y58152000D03*
X15675000Y46200000D03*
X15675000Y37700000D03*
X15675000Y29200000D03*
X15675000Y20700000D03*
X15675000Y12200000D03*
X15675000Y3700000D03*
X58996500Y61948700D03*
X32203200Y60184800D03*
X18225000Y71700000D03*
X30321000Y59930000D03*
X18225000Y63200000D03*
X46207900Y58721800D03*
X52610300Y57369000D03*
X18256000Y54723000D03*
X28543000Y57517000D03*
X18225000Y46200000D03*
X18225000Y37700000D03*
X18225000Y29200000D03*
X18225000Y20700000D03*
X18225000Y12200000D03*
X18225000Y3700000D03*
X30448000Y69328000D03*
X52747600Y68065600D03*
X48902600Y59990200D03*
X53447500Y56790300D03*
X30448000Y43801000D03*
X30448000Y35292000D03*
X30448000Y31736000D03*
X28670000Y26783000D03*
X30550000Y7950000D03*
X30575000Y6082000D03*
X37560000Y69328000D03*
X42132000Y61708000D03*
X37560000Y52310000D03*
X37560000Y43801000D03*
X37560000Y35292000D03*
X37560000Y31736000D03*
X37350000Y24950000D03*
X39846000Y7923500D03*
X39655500Y6082000D03*
X49675000Y71700000D03*
X49675000Y63200000D03*
X49675000Y54700000D03*
X49675000Y46200000D03*
X51030300Y36918600D03*
X49675000Y29200000D03*
X49675000Y20700000D03*
X49675000Y12200000D03*
X47466000Y6590000D03*
X52225000Y71700000D03*
X52225000Y63200000D03*
X52225000Y54700000D03*
X52225000Y46200000D03*
X52225000Y37700000D03*
X52225000Y29200000D03*
X52225000Y20700000D03*
X52673000Y9003000D03*
X50895000Y6209000D03*
X64611000Y69328000D03*
X56885100Y65415000D03*
X64550000Y67450000D03*
X58029500Y66270400D03*
X64550000Y50450000D03*
X66675000Y46200000D03*
X66675000Y37700000D03*
X64484000Y31799500D03*
X64547500Y18210500D03*
X54197000Y5955000D03*
X61690000Y6336000D03*
X66675000Y12200000D03*
X66675000Y3700000D03*
X52673000Y6209000D03*
X71342000Y69328000D03*
X71350000Y67450000D03*
X71350000Y50450000D03*
X69225000Y46200000D03*
X69225000Y37700000D03*
X73755000Y26656000D03*
X73755000Y23227000D03*
X73882000Y14718000D03*
X73882000Y6209000D03*
X83675000Y71700000D03*
X83675000Y63200000D03*
X83675000Y54700000D03*
X83675000Y46200000D03*
X83675000Y37700000D03*
X79089000Y26656000D03*
X79089000Y23227000D03*
X79089000Y14718000D03*
X79089000Y6209000D03*
X86225000Y71700000D03*
X68704100Y69401800D03*
X86225000Y63200000D03*
X86225000Y54700000D03*
X86225000Y46200000D03*
X86225000Y37700000D03*
X86225000Y29200000D03*
X86225000Y20700000D03*
X86225000Y12200000D03*
X86225000Y3700000D03*
X98393000Y69328000D03*
X100675000Y63200000D03*
X100675000Y54700000D03*
X100675000Y46200000D03*
X98550000Y41950000D03*
X98550000Y24950000D03*
X100675000Y20700000D03*
X94708300Y21995400D03*
X100675000Y12200000D03*
X100675000Y3700000D03*
X100679000Y68058000D03*
X100679000Y60565000D03*
X100679000Y57644000D03*
X100679000Y49516000D03*
X99495800Y43568200D03*
X105350000Y24950000D03*
X103225000Y20700000D03*
X107618500Y17911300D03*
X98712600Y17911300D03*
X103225000Y12200000D03*
X103225000Y3700000D03*
X117675000Y71700000D03*
X117675000Y63200000D03*
X117675000Y54700000D03*
X117675000Y46200000D03*
X117697000Y37705000D03*
X117675000Y29200000D03*
X117675000Y20700000D03*
X111022300Y24029300D03*
X117675000Y12200000D03*
X111103600Y15969400D03*
X117675000Y3700000D03*
X120225000Y71700000D03*
X120225000Y63200000D03*
X120225000Y54700000D03*
X120225000Y46200000D03*
X120225000Y37700000D03*
X120237000Y29196000D03*
X120225000Y20700000D03*
X120225000Y12200000D03*
X121287500Y16414100D03*
X120225000Y3700000D03*
X134675000Y71700000D03*
X134675000Y63200000D03*
X134675000Y54700000D03*
X134675000Y46200000D03*
X134675000Y37700000D03*
X134675000Y29200000D03*
X134675000Y20700000D03*
X134675000Y12200000D03*
X134675000Y3700000D03*
X53054000Y24243000D03*
X38592000Y24205900D03*
X65309500Y25195500D03*
X87878100Y25642500D03*
X97309100Y25642500D03*
X65309500Y7098000D03*
X45243500Y6780500D03*
X107922900Y16764600D03*
X90178500Y24079000D03*
X107810000Y26630000D03*
X35963000Y26061500D03*
X41497000Y65518000D03*
X65309500Y23481000D03*
X51911000Y22909500D03*
X30067000Y24497000D03*
X72421500Y17385000D03*
X58319900Y69776500D03*
X39030500Y25121200D03*
X53435000Y25132000D03*
X65563500Y26465500D03*
X96854000Y24807300D03*
M02*
