G04 #@! TF.FileFunction,Legend,Top*
%FSLAX46Y46*%
G04 Gerber Fmt 4.6, Leading zero omitted, Abs format (unit mm)*
G04 Created by KiCad (PCBNEW 4.0.7-e1-6374~58~ubuntu16.04.1) date Wed Aug 30 16:27:54 2017*
%MOMM*%
%LPD*%
G01*
G04 APERTURE LIST*
%ADD10C,0.100000*%
%ADD11C,0.150000*%
G04 APERTURE END LIST*
D10*
D11*
X36600000Y45000000D02*
X36600000Y44600000D01*
X39800000Y45000000D02*
X39800000Y44600000D01*
X39800000Y47800000D02*
X39800000Y47400000D01*
X36600000Y47400000D02*
X36600000Y47800000D01*
X36600000Y44600000D02*
X39800000Y44600000D01*
X39800000Y47800000D02*
X36600000Y47800000D01*
X2600000Y70500000D02*
X2600000Y70100000D01*
X5800000Y70500000D02*
X5800000Y70100000D01*
X5800000Y73300000D02*
X5800000Y72900000D01*
X2600000Y72900000D02*
X2600000Y73300000D01*
X2600000Y70100000D02*
X5800000Y70100000D01*
X5800000Y73300000D02*
X2600000Y73300000D01*
X2600000Y62000000D02*
X2600000Y61600000D01*
X5800000Y62000000D02*
X5800000Y61600000D01*
X5800000Y64800000D02*
X5800000Y64400000D01*
X2600000Y64400000D02*
X2600000Y64800000D01*
X2600000Y61600000D02*
X5800000Y61600000D01*
X5800000Y64800000D02*
X2600000Y64800000D01*
X2600000Y53500000D02*
X2600000Y53100000D01*
X5800000Y53500000D02*
X5800000Y53100000D01*
X5800000Y56300000D02*
X5800000Y55900000D01*
X2600000Y55900000D02*
X2600000Y56300000D01*
X2600000Y53100000D02*
X5800000Y53100000D01*
X5800000Y56300000D02*
X2600000Y56300000D01*
X2600000Y45000000D02*
X2600000Y44600000D01*
X5800000Y45000000D02*
X5800000Y44600000D01*
X5800000Y47800000D02*
X5800000Y47400000D01*
X2600000Y47400000D02*
X2600000Y47800000D01*
X2600000Y44600000D02*
X5800000Y44600000D01*
X5800000Y47800000D02*
X2600000Y47800000D01*
X2600000Y36500000D02*
X2600000Y36100000D01*
X5800000Y36500000D02*
X5800000Y36100000D01*
X5800000Y39300000D02*
X5800000Y38900000D01*
X2600000Y38900000D02*
X2600000Y39300000D01*
X2600000Y36100000D02*
X5800000Y36100000D01*
X5800000Y39300000D02*
X2600000Y39300000D01*
X2600000Y28000000D02*
X2600000Y27600000D01*
X5800000Y28000000D02*
X5800000Y27600000D01*
X5800000Y30800000D02*
X5800000Y30400000D01*
X2600000Y30400000D02*
X2600000Y30800000D01*
X2600000Y27600000D02*
X5800000Y27600000D01*
X5800000Y30800000D02*
X2600000Y30800000D01*
X2600000Y19500000D02*
X2600000Y19100000D01*
X5800000Y19500000D02*
X5800000Y19100000D01*
X5800000Y22300000D02*
X5800000Y21900000D01*
X2600000Y21900000D02*
X2600000Y22300000D01*
X2600000Y19100000D02*
X5800000Y19100000D01*
X5800000Y22300000D02*
X2600000Y22300000D01*
X2600000Y11000000D02*
X2600000Y10600000D01*
X5800000Y11000000D02*
X5800000Y10600000D01*
X5800000Y13800000D02*
X5800000Y13400000D01*
X2600000Y13400000D02*
X2600000Y13800000D01*
X2600000Y10600000D02*
X5800000Y10600000D01*
X5800000Y13800000D02*
X2600000Y13800000D01*
X2600000Y2500000D02*
X2600000Y2100000D01*
X5800000Y2500000D02*
X5800000Y2100000D01*
X5800000Y5300000D02*
X5800000Y4900000D01*
X2600000Y4900000D02*
X2600000Y5300000D01*
X2600000Y2100000D02*
X5800000Y2100000D01*
X5800000Y5300000D02*
X2600000Y5300000D01*
X14300000Y72900000D02*
X14300000Y73300000D01*
X11100000Y72900000D02*
X11100000Y73300000D01*
X11100000Y70100000D02*
X11100000Y70500000D01*
X14300000Y70500000D02*
X14300000Y70100000D01*
X14300000Y73300000D02*
X11100000Y73300000D01*
X11100000Y70100000D02*
X14300000Y70100000D01*
X14300000Y64400000D02*
X14300000Y64800000D01*
X11100000Y64400000D02*
X11100000Y64800000D01*
X11100000Y61600000D02*
X11100000Y62000000D01*
X14300000Y62000000D02*
X14300000Y61600000D01*
X14300000Y64800000D02*
X11100000Y64800000D01*
X11100000Y61600000D02*
X14300000Y61600000D01*
X14300000Y55900000D02*
X14300000Y56300000D01*
X11100000Y55900000D02*
X11100000Y56300000D01*
X11100000Y53100000D02*
X11100000Y53500000D01*
X14300000Y53500000D02*
X14300000Y53100000D01*
X14300000Y56300000D02*
X11100000Y56300000D01*
X11100000Y53100000D02*
X14300000Y53100000D01*
X14300000Y47400000D02*
X14300000Y47800000D01*
X11100000Y47400000D02*
X11100000Y47800000D01*
X11100000Y44600000D02*
X11100000Y45000000D01*
X14300000Y45000000D02*
X14300000Y44600000D01*
X14300000Y47800000D02*
X11100000Y47800000D01*
X11100000Y44600000D02*
X14300000Y44600000D01*
X14300000Y38900000D02*
X14300000Y39300000D01*
X11100000Y38900000D02*
X11100000Y39300000D01*
X11100000Y36100000D02*
X11100000Y36500000D01*
X14300000Y36500000D02*
X14300000Y36100000D01*
X14300000Y39300000D02*
X11100000Y39300000D01*
X11100000Y36100000D02*
X14300000Y36100000D01*
X14300000Y30400000D02*
X14300000Y30800000D01*
X11100000Y30400000D02*
X11100000Y30800000D01*
X11100000Y27600000D02*
X11100000Y28000000D01*
X14300000Y28000000D02*
X14300000Y27600000D01*
X14300000Y30800000D02*
X11100000Y30800000D01*
X11100000Y27600000D02*
X14300000Y27600000D01*
X14300000Y21900000D02*
X14300000Y22300000D01*
X11100000Y21900000D02*
X11100000Y22300000D01*
X11100000Y19100000D02*
X11100000Y19500000D01*
X14300000Y19500000D02*
X14300000Y19100000D01*
X14300000Y22300000D02*
X11100000Y22300000D01*
X11100000Y19100000D02*
X14300000Y19100000D01*
X14300000Y13400000D02*
X14300000Y13800000D01*
X11100000Y13400000D02*
X11100000Y13800000D01*
X11100000Y10600000D02*
X11100000Y11000000D01*
X14300000Y11000000D02*
X14300000Y10600000D01*
X14300000Y13800000D02*
X11100000Y13800000D01*
X11100000Y10600000D02*
X14300000Y10600000D01*
X14300000Y4900000D02*
X14300000Y5300000D01*
X11100000Y4900000D02*
X11100000Y5300000D01*
X11100000Y2100000D02*
X11100000Y2500000D01*
X14300000Y2500000D02*
X14300000Y2100000D01*
X14300000Y5300000D02*
X11100000Y5300000D01*
X11100000Y2100000D02*
X14300000Y2100000D01*
X19600000Y70500000D02*
X19600000Y70100000D01*
X22800000Y70500000D02*
X22800000Y70100000D01*
X22800000Y73300000D02*
X22800000Y72900000D01*
X19600000Y72900000D02*
X19600000Y73300000D01*
X19600000Y70100000D02*
X22800000Y70100000D01*
X22800000Y73300000D02*
X19600000Y73300000D01*
X19600000Y62000000D02*
X19600000Y61600000D01*
X22800000Y62000000D02*
X22800000Y61600000D01*
X22800000Y64800000D02*
X22800000Y64400000D01*
X19600000Y64400000D02*
X19600000Y64800000D01*
X19600000Y61600000D02*
X22800000Y61600000D01*
X22800000Y64800000D02*
X19600000Y64800000D01*
X19600000Y53500000D02*
X19600000Y53100000D01*
X22800000Y53500000D02*
X22800000Y53100000D01*
X22800000Y56300000D02*
X22800000Y55900000D01*
X19600000Y55900000D02*
X19600000Y56300000D01*
X19600000Y53100000D02*
X22800000Y53100000D01*
X22800000Y56300000D02*
X19600000Y56300000D01*
X19600000Y45000000D02*
X19600000Y44600000D01*
X22800000Y45000000D02*
X22800000Y44600000D01*
X22800000Y47800000D02*
X22800000Y47400000D01*
X19600000Y47400000D02*
X19600000Y47800000D01*
X19600000Y44600000D02*
X22800000Y44600000D01*
X22800000Y47800000D02*
X19600000Y47800000D01*
X19600000Y36500000D02*
X19600000Y36100000D01*
X22800000Y36500000D02*
X22800000Y36100000D01*
X22800000Y39300000D02*
X22800000Y38900000D01*
X19600000Y38900000D02*
X19600000Y39300000D01*
X19600000Y36100000D02*
X22800000Y36100000D01*
X22800000Y39300000D02*
X19600000Y39300000D01*
X19600000Y28000000D02*
X19600000Y27600000D01*
X22800000Y28000000D02*
X22800000Y27600000D01*
X22800000Y30800000D02*
X22800000Y30400000D01*
X19600000Y30400000D02*
X19600000Y30800000D01*
X19600000Y27600000D02*
X22800000Y27600000D01*
X22800000Y30800000D02*
X19600000Y30800000D01*
X19600000Y19500000D02*
X19600000Y19100000D01*
X22800000Y19500000D02*
X22800000Y19100000D01*
X22800000Y22300000D02*
X22800000Y21900000D01*
X19600000Y21900000D02*
X19600000Y22300000D01*
X19600000Y19100000D02*
X22800000Y19100000D01*
X22800000Y22300000D02*
X19600000Y22300000D01*
X19600000Y11000000D02*
X19600000Y10600000D01*
X22800000Y11000000D02*
X22800000Y10600000D01*
X22800000Y13800000D02*
X22800000Y13400000D01*
X19600000Y13400000D02*
X19600000Y13800000D01*
X19600000Y10600000D02*
X22800000Y10600000D01*
X22800000Y13800000D02*
X19600000Y13800000D01*
X19600000Y2500000D02*
X19600000Y2100000D01*
X22800000Y2500000D02*
X22800000Y2100000D01*
X22800000Y5300000D02*
X22800000Y4900000D01*
X19600000Y4900000D02*
X19600000Y5300000D01*
X19600000Y2100000D02*
X22800000Y2100000D01*
X22800000Y5300000D02*
X19600000Y5300000D01*
X31300000Y72900000D02*
X31300000Y73300000D01*
X28100000Y72900000D02*
X28100000Y73300000D01*
X28100000Y70100000D02*
X28100000Y70500000D01*
X31300000Y70500000D02*
X31300000Y70100000D01*
X31300000Y73300000D02*
X28100000Y73300000D01*
X28100000Y70100000D02*
X31300000Y70100000D01*
X31300000Y64400000D02*
X31300000Y64800000D01*
X28100000Y64400000D02*
X28100000Y64800000D01*
X28100000Y61600000D02*
X28100000Y62000000D01*
X31300000Y62000000D02*
X31300000Y61600000D01*
X31300000Y64800000D02*
X28100000Y64800000D01*
X28100000Y61600000D02*
X31300000Y61600000D01*
X31300000Y55900000D02*
X31300000Y56300000D01*
X28100000Y55900000D02*
X28100000Y56300000D01*
X28100000Y53100000D02*
X28100000Y53500000D01*
X31300000Y53500000D02*
X31300000Y53100000D01*
X31300000Y56300000D02*
X28100000Y56300000D01*
X28100000Y53100000D02*
X31300000Y53100000D01*
X31300000Y47400000D02*
X31300000Y47800000D01*
X28100000Y47400000D02*
X28100000Y47800000D01*
X28100000Y44600000D02*
X28100000Y45000000D01*
X31300000Y45000000D02*
X31300000Y44600000D01*
X31300000Y47800000D02*
X28100000Y47800000D01*
X28100000Y44600000D02*
X31300000Y44600000D01*
X31300000Y38900000D02*
X31300000Y39300000D01*
X28100000Y38900000D02*
X28100000Y39300000D01*
X28100000Y36100000D02*
X28100000Y36500000D01*
X31300000Y36500000D02*
X31300000Y36100000D01*
X31300000Y39300000D02*
X28100000Y39300000D01*
X28100000Y36100000D02*
X31300000Y36100000D01*
X31300000Y30400000D02*
X31300000Y30800000D01*
X28100000Y30400000D02*
X28100000Y30800000D01*
X28100000Y27600000D02*
X28100000Y28000000D01*
X31300000Y28000000D02*
X31300000Y27600000D01*
X31300000Y30800000D02*
X28100000Y30800000D01*
X28100000Y27600000D02*
X31300000Y27600000D01*
X31300000Y21900000D02*
X31300000Y22300000D01*
X28100000Y21900000D02*
X28100000Y22300000D01*
X28100000Y19100000D02*
X28100000Y19500000D01*
X31300000Y19500000D02*
X31300000Y19100000D01*
X31300000Y22300000D02*
X28100000Y22300000D01*
X28100000Y19100000D02*
X31300000Y19100000D01*
X31300000Y13400000D02*
X31300000Y13800000D01*
X28100000Y13400000D02*
X28100000Y13800000D01*
X28100000Y10600000D02*
X28100000Y11000000D01*
X31300000Y11000000D02*
X31300000Y10600000D01*
X31300000Y13800000D02*
X28100000Y13800000D01*
X28100000Y10600000D02*
X31300000Y10600000D01*
X31300000Y4900000D02*
X31300000Y5300000D01*
X28100000Y4900000D02*
X28100000Y5300000D01*
X28100000Y2100000D02*
X28100000Y2500000D01*
X31300000Y2500000D02*
X31300000Y2100000D01*
X31300000Y5300000D02*
X28100000Y5300000D01*
X28100000Y2100000D02*
X31300000Y2100000D01*
X36600000Y70500000D02*
X36600000Y70100000D01*
X39800000Y70500000D02*
X39800000Y70100000D01*
X39800000Y73300000D02*
X39800000Y72900000D01*
X36600000Y72900000D02*
X36600000Y73300000D01*
X36600000Y70100000D02*
X39800000Y70100000D01*
X39800000Y73300000D02*
X36600000Y73300000D01*
X36600000Y62000000D02*
X36600000Y61600000D01*
X39800000Y62000000D02*
X39800000Y61600000D01*
X39800000Y64800000D02*
X39800000Y64400000D01*
X36600000Y64400000D02*
X36600000Y64800000D01*
X36600000Y61600000D02*
X39800000Y61600000D01*
X39800000Y64800000D02*
X36600000Y64800000D01*
X36600000Y53500000D02*
X36600000Y53100000D01*
X39800000Y53500000D02*
X39800000Y53100000D01*
X39800000Y56300000D02*
X39800000Y55900000D01*
X36600000Y55900000D02*
X36600000Y56300000D01*
X36600000Y53100000D02*
X39800000Y53100000D01*
X39800000Y56300000D02*
X36600000Y56300000D01*
X36600000Y36500000D02*
X36600000Y36100000D01*
X39800000Y36500000D02*
X39800000Y36100000D01*
X39800000Y39300000D02*
X39800000Y38900000D01*
X36600000Y38900000D02*
X36600000Y39300000D01*
X36600000Y36100000D02*
X39800000Y36100000D01*
X39800000Y39300000D02*
X36600000Y39300000D01*
X36600000Y28000000D02*
X36600000Y27600000D01*
X39800000Y28000000D02*
X39800000Y27600000D01*
X39800000Y30800000D02*
X39800000Y30400000D01*
X36600000Y30400000D02*
X36600000Y30800000D01*
X36600000Y27600000D02*
X39800000Y27600000D01*
X39800000Y30800000D02*
X36600000Y30800000D01*
X36600000Y19500000D02*
X36600000Y19100000D01*
X39800000Y19500000D02*
X39800000Y19100000D01*
X39800000Y22300000D02*
X39800000Y21900000D01*
X36600000Y21900000D02*
X36600000Y22300000D01*
X36600000Y19100000D02*
X39800000Y19100000D01*
X39800000Y22300000D02*
X36600000Y22300000D01*
X36600000Y11000000D02*
X36600000Y10600000D01*
X39800000Y11000000D02*
X39800000Y10600000D01*
X39800000Y13800000D02*
X39800000Y13400000D01*
X36600000Y13400000D02*
X36600000Y13800000D01*
X36600000Y10600000D02*
X39800000Y10600000D01*
X39800000Y13800000D02*
X36600000Y13800000D01*
X36600000Y2500000D02*
X36600000Y2100000D01*
X39800000Y2500000D02*
X39800000Y2100000D01*
X39800000Y5300000D02*
X39800000Y4900000D01*
X36600000Y4900000D02*
X36600000Y5300000D01*
X36600000Y2100000D02*
X39800000Y2100000D01*
X39800000Y5300000D02*
X36600000Y5300000D01*
X48300000Y72900000D02*
X48300000Y73300000D01*
X45100000Y72900000D02*
X45100000Y73300000D01*
X45100000Y70100000D02*
X45100000Y70500000D01*
X48300000Y70500000D02*
X48300000Y70100000D01*
X48300000Y73300000D02*
X45100000Y73300000D01*
X45100000Y70100000D02*
X48300000Y70100000D01*
X48300000Y64400000D02*
X48300000Y64800000D01*
X45100000Y64400000D02*
X45100000Y64800000D01*
X45100000Y61600000D02*
X45100000Y62000000D01*
X48300000Y62000000D02*
X48300000Y61600000D01*
X48300000Y64800000D02*
X45100000Y64800000D01*
X45100000Y61600000D02*
X48300000Y61600000D01*
X48300000Y55900000D02*
X48300000Y56300000D01*
X45100000Y55900000D02*
X45100000Y56300000D01*
X45100000Y53100000D02*
X45100000Y53500000D01*
X48300000Y53500000D02*
X48300000Y53100000D01*
X48300000Y56300000D02*
X45100000Y56300000D01*
X45100000Y53100000D02*
X48300000Y53100000D01*
X48300000Y47400000D02*
X48300000Y47800000D01*
X45100000Y47400000D02*
X45100000Y47800000D01*
X45100000Y44600000D02*
X45100000Y45000000D01*
X48300000Y45000000D02*
X48300000Y44600000D01*
X48300000Y47800000D02*
X45100000Y47800000D01*
X45100000Y44600000D02*
X48300000Y44600000D01*
X48300000Y38900000D02*
X48300000Y39300000D01*
X45100000Y38900000D02*
X45100000Y39300000D01*
X45100000Y36100000D02*
X45100000Y36500000D01*
X48300000Y36500000D02*
X48300000Y36100000D01*
X48300000Y39300000D02*
X45100000Y39300000D01*
X45100000Y36100000D02*
X48300000Y36100000D01*
X48300000Y30400000D02*
X48300000Y30800000D01*
X45100000Y30400000D02*
X45100000Y30800000D01*
X45100000Y27600000D02*
X45100000Y28000000D01*
X48300000Y28000000D02*
X48300000Y27600000D01*
X48300000Y30800000D02*
X45100000Y30800000D01*
X45100000Y27600000D02*
X48300000Y27600000D01*
X48300000Y21900000D02*
X48300000Y22300000D01*
X45100000Y21900000D02*
X45100000Y22300000D01*
X45100000Y19100000D02*
X45100000Y19500000D01*
X48300000Y19500000D02*
X48300000Y19100000D01*
X48300000Y22300000D02*
X45100000Y22300000D01*
X45100000Y19100000D02*
X48300000Y19100000D01*
X48300000Y13400000D02*
X48300000Y13800000D01*
X45100000Y13400000D02*
X45100000Y13800000D01*
X45100000Y10600000D02*
X45100000Y11000000D01*
X48300000Y11000000D02*
X48300000Y10600000D01*
X48300000Y13800000D02*
X45100000Y13800000D01*
X45100000Y10600000D02*
X48300000Y10600000D01*
X48300000Y4900000D02*
X48300000Y5300000D01*
X45100000Y4900000D02*
X45100000Y5300000D01*
X45100000Y2100000D02*
X45100000Y2500000D01*
X48300000Y2500000D02*
X48300000Y2100000D01*
X48300000Y5300000D02*
X45100000Y5300000D01*
X45100000Y2100000D02*
X48300000Y2100000D01*
X53600000Y70500000D02*
X53600000Y70100000D01*
X56800000Y70500000D02*
X56800000Y70100000D01*
X56800000Y73300000D02*
X56800000Y72900000D01*
X53600000Y72900000D02*
X53600000Y73300000D01*
X53600000Y70100000D02*
X56800000Y70100000D01*
X56800000Y73300000D02*
X53600000Y73300000D01*
X53600000Y62000000D02*
X53600000Y61600000D01*
X56800000Y62000000D02*
X56800000Y61600000D01*
X56800000Y64800000D02*
X56800000Y64400000D01*
X53600000Y64400000D02*
X53600000Y64800000D01*
X53600000Y61600000D02*
X56800000Y61600000D01*
X56800000Y64800000D02*
X53600000Y64800000D01*
X53600000Y53500000D02*
X53600000Y53100000D01*
X56800000Y53500000D02*
X56800000Y53100000D01*
X56800000Y56300000D02*
X56800000Y55900000D01*
X53600000Y55900000D02*
X53600000Y56300000D01*
X53600000Y53100000D02*
X56800000Y53100000D01*
X56800000Y56300000D02*
X53600000Y56300000D01*
X53600000Y45000000D02*
X53600000Y44600000D01*
X56800000Y45000000D02*
X56800000Y44600000D01*
X56800000Y47800000D02*
X56800000Y47400000D01*
X53600000Y47400000D02*
X53600000Y47800000D01*
X53600000Y44600000D02*
X56800000Y44600000D01*
X56800000Y47800000D02*
X53600000Y47800000D01*
X53600000Y36500000D02*
X53600000Y36100000D01*
X56800000Y36500000D02*
X56800000Y36100000D01*
X56800000Y39300000D02*
X56800000Y38900000D01*
X53600000Y38900000D02*
X53600000Y39300000D01*
X53600000Y36100000D02*
X56800000Y36100000D01*
X56800000Y39300000D02*
X53600000Y39300000D01*
X53600000Y28000000D02*
X53600000Y27600000D01*
X56800000Y28000000D02*
X56800000Y27600000D01*
X56800000Y30800000D02*
X56800000Y30400000D01*
X53600000Y30400000D02*
X53600000Y30800000D01*
X53600000Y27600000D02*
X56800000Y27600000D01*
X56800000Y30800000D02*
X53600000Y30800000D01*
X53600000Y19500000D02*
X53600000Y19100000D01*
X56800000Y19500000D02*
X56800000Y19100000D01*
X56800000Y22300000D02*
X56800000Y21900000D01*
X53600000Y21900000D02*
X53600000Y22300000D01*
X53600000Y19100000D02*
X56800000Y19100000D01*
X56800000Y22300000D02*
X53600000Y22300000D01*
X53600000Y11000000D02*
X53600000Y10600000D01*
X56800000Y11000000D02*
X56800000Y10600000D01*
X56800000Y13800000D02*
X56800000Y13400000D01*
X53600000Y13400000D02*
X53600000Y13800000D01*
X53600000Y10600000D02*
X56800000Y10600000D01*
X56800000Y13800000D02*
X53600000Y13800000D01*
X53600000Y2500000D02*
X53600000Y2100000D01*
X56800000Y2500000D02*
X56800000Y2100000D01*
X56800000Y5300000D02*
X56800000Y4900000D01*
X53600000Y4900000D02*
X53600000Y5300000D01*
X53600000Y2100000D02*
X56800000Y2100000D01*
X56800000Y5300000D02*
X53600000Y5300000D01*
X65300000Y72900000D02*
X65300000Y73300000D01*
X62100000Y72900000D02*
X62100000Y73300000D01*
X62100000Y70100000D02*
X62100000Y70500000D01*
X65300000Y70500000D02*
X65300000Y70100000D01*
X65300000Y73300000D02*
X62100000Y73300000D01*
X62100000Y70100000D02*
X65300000Y70100000D01*
X65300000Y64400000D02*
X65300000Y64800000D01*
X62100000Y64400000D02*
X62100000Y64800000D01*
X62100000Y61600000D02*
X62100000Y62000000D01*
X65300000Y62000000D02*
X65300000Y61600000D01*
X65300000Y64800000D02*
X62100000Y64800000D01*
X62100000Y61600000D02*
X65300000Y61600000D01*
X65300000Y55900000D02*
X65300000Y56300000D01*
X62100000Y55900000D02*
X62100000Y56300000D01*
X62100000Y53100000D02*
X62100000Y53500000D01*
X65300000Y53500000D02*
X65300000Y53100000D01*
X65300000Y56300000D02*
X62100000Y56300000D01*
X62100000Y53100000D02*
X65300000Y53100000D01*
X65300000Y47400000D02*
X65300000Y47800000D01*
X62100000Y47400000D02*
X62100000Y47800000D01*
X62100000Y44600000D02*
X62100000Y45000000D01*
X65300000Y45000000D02*
X65300000Y44600000D01*
X65300000Y47800000D02*
X62100000Y47800000D01*
X62100000Y44600000D02*
X65300000Y44600000D01*
X65300000Y38900000D02*
X65300000Y39300000D01*
X62100000Y38900000D02*
X62100000Y39300000D01*
X62100000Y36100000D02*
X62100000Y36500000D01*
X65300000Y36500000D02*
X65300000Y36100000D01*
X65300000Y39300000D02*
X62100000Y39300000D01*
X62100000Y36100000D02*
X65300000Y36100000D01*
X65300000Y30400000D02*
X65300000Y30800000D01*
X62100000Y30400000D02*
X62100000Y30800000D01*
X62100000Y27600000D02*
X62100000Y28000000D01*
X65300000Y28000000D02*
X65300000Y27600000D01*
X65300000Y30800000D02*
X62100000Y30800000D01*
X62100000Y27600000D02*
X65300000Y27600000D01*
X65300000Y21900000D02*
X65300000Y22300000D01*
X62100000Y21900000D02*
X62100000Y22300000D01*
X62100000Y19100000D02*
X62100000Y19500000D01*
X65300000Y19500000D02*
X65300000Y19100000D01*
X65300000Y22300000D02*
X62100000Y22300000D01*
X62100000Y19100000D02*
X65300000Y19100000D01*
X65300000Y13400000D02*
X65300000Y13800000D01*
X62100000Y13400000D02*
X62100000Y13800000D01*
X62100000Y10600000D02*
X62100000Y11000000D01*
X65300000Y11000000D02*
X65300000Y10600000D01*
X65300000Y13800000D02*
X62100000Y13800000D01*
X62100000Y10600000D02*
X65300000Y10600000D01*
X65300000Y4900000D02*
X65300000Y5300000D01*
X62100000Y4900000D02*
X62100000Y5300000D01*
X62100000Y2100000D02*
X62100000Y2500000D01*
X65300000Y2500000D02*
X65300000Y2100000D01*
X65300000Y5300000D02*
X62100000Y5300000D01*
X62100000Y2100000D02*
X65300000Y2100000D01*
X70600000Y70500000D02*
X70600000Y70100000D01*
X73800000Y70500000D02*
X73800000Y70100000D01*
X73800000Y73300000D02*
X73800000Y72900000D01*
X70600000Y72900000D02*
X70600000Y73300000D01*
X70600000Y70100000D02*
X73800000Y70100000D01*
X73800000Y73300000D02*
X70600000Y73300000D01*
X70600000Y62000000D02*
X70600000Y61600000D01*
X73800000Y62000000D02*
X73800000Y61600000D01*
X73800000Y64800000D02*
X73800000Y64400000D01*
X70600000Y64400000D02*
X70600000Y64800000D01*
X70600000Y61600000D02*
X73800000Y61600000D01*
X73800000Y64800000D02*
X70600000Y64800000D01*
X70600000Y53500000D02*
X70600000Y53100000D01*
X73800000Y53500000D02*
X73800000Y53100000D01*
X73800000Y56300000D02*
X73800000Y55900000D01*
X70600000Y55900000D02*
X70600000Y56300000D01*
X70600000Y53100000D02*
X73800000Y53100000D01*
X73800000Y56300000D02*
X70600000Y56300000D01*
X70600000Y45000000D02*
X70600000Y44600000D01*
X73800000Y45000000D02*
X73800000Y44600000D01*
X73800000Y47800000D02*
X73800000Y47400000D01*
X70600000Y47400000D02*
X70600000Y47800000D01*
X70600000Y44600000D02*
X73800000Y44600000D01*
X73800000Y47800000D02*
X70600000Y47800000D01*
X70600000Y36500000D02*
X70600000Y36100000D01*
X73800000Y36500000D02*
X73800000Y36100000D01*
X73800000Y39300000D02*
X73800000Y38900000D01*
X70600000Y38900000D02*
X70600000Y39300000D01*
X70600000Y36100000D02*
X73800000Y36100000D01*
X73800000Y39300000D02*
X70600000Y39300000D01*
X70600000Y28000000D02*
X70600000Y27600000D01*
X73800000Y28000000D02*
X73800000Y27600000D01*
X73800000Y30800000D02*
X73800000Y30400000D01*
X70600000Y30400000D02*
X70600000Y30800000D01*
X70600000Y27600000D02*
X73800000Y27600000D01*
X73800000Y30800000D02*
X70600000Y30800000D01*
X70600000Y19500000D02*
X70600000Y19100000D01*
X73800000Y19500000D02*
X73800000Y19100000D01*
X73800000Y22300000D02*
X73800000Y21900000D01*
X70600000Y21900000D02*
X70600000Y22300000D01*
X70600000Y19100000D02*
X73800000Y19100000D01*
X73800000Y22300000D02*
X70600000Y22300000D01*
X70600000Y11000000D02*
X70600000Y10600000D01*
X73800000Y11000000D02*
X73800000Y10600000D01*
X73800000Y13800000D02*
X73800000Y13400000D01*
X70600000Y13400000D02*
X70600000Y13800000D01*
X70600000Y10600000D02*
X73800000Y10600000D01*
X73800000Y13800000D02*
X70600000Y13800000D01*
X70600000Y2500000D02*
X70600000Y2100000D01*
X73800000Y2500000D02*
X73800000Y2100000D01*
X73800000Y5300000D02*
X73800000Y4900000D01*
X70600000Y4900000D02*
X70600000Y5300000D01*
X70600000Y2100000D02*
X73800000Y2100000D01*
X73800000Y5300000D02*
X70600000Y5300000D01*
X82300000Y72900000D02*
X82300000Y73300000D01*
X79100000Y72900000D02*
X79100000Y73300000D01*
X79100000Y70100000D02*
X79100000Y70500000D01*
X82300000Y70500000D02*
X82300000Y70100000D01*
X82300000Y73300000D02*
X79100000Y73300000D01*
X79100000Y70100000D02*
X82300000Y70100000D01*
X82300000Y64400000D02*
X82300000Y64800000D01*
X79100000Y64400000D02*
X79100000Y64800000D01*
X79100000Y61600000D02*
X79100000Y62000000D01*
X82300000Y62000000D02*
X82300000Y61600000D01*
X82300000Y64800000D02*
X79100000Y64800000D01*
X79100000Y61600000D02*
X82300000Y61600000D01*
X82300000Y55900000D02*
X82300000Y56300000D01*
X79100000Y55900000D02*
X79100000Y56300000D01*
X79100000Y53100000D02*
X79100000Y53500000D01*
X82300000Y53500000D02*
X82300000Y53100000D01*
X82300000Y56300000D02*
X79100000Y56300000D01*
X79100000Y53100000D02*
X82300000Y53100000D01*
X82300000Y47400000D02*
X82300000Y47800000D01*
X79100000Y47400000D02*
X79100000Y47800000D01*
X79100000Y44600000D02*
X79100000Y45000000D01*
X82300000Y45000000D02*
X82300000Y44600000D01*
X82300000Y47800000D02*
X79100000Y47800000D01*
X79100000Y44600000D02*
X82300000Y44600000D01*
X82300000Y38900000D02*
X82300000Y39300000D01*
X79100000Y38900000D02*
X79100000Y39300000D01*
X79100000Y36100000D02*
X79100000Y36500000D01*
X82300000Y36500000D02*
X82300000Y36100000D01*
X82300000Y39300000D02*
X79100000Y39300000D01*
X79100000Y36100000D02*
X82300000Y36100000D01*
X82300000Y30400000D02*
X82300000Y30800000D01*
X79100000Y30400000D02*
X79100000Y30800000D01*
X79100000Y27600000D02*
X79100000Y28000000D01*
X82300000Y28000000D02*
X82300000Y27600000D01*
X82300000Y30800000D02*
X79100000Y30800000D01*
X79100000Y27600000D02*
X82300000Y27600000D01*
X82300000Y21900000D02*
X82300000Y22300000D01*
X79100000Y21900000D02*
X79100000Y22300000D01*
X79100000Y19100000D02*
X79100000Y19500000D01*
X82300000Y19500000D02*
X82300000Y19100000D01*
X82300000Y22300000D02*
X79100000Y22300000D01*
X79100000Y19100000D02*
X82300000Y19100000D01*
X82300000Y13400000D02*
X82300000Y13800000D01*
X79100000Y13400000D02*
X79100000Y13800000D01*
X79100000Y10600000D02*
X79100000Y11000000D01*
X82300000Y11000000D02*
X82300000Y10600000D01*
X82300000Y13800000D02*
X79100000Y13800000D01*
X79100000Y10600000D02*
X82300000Y10600000D01*
X82300000Y4900000D02*
X82300000Y5300000D01*
X79100000Y4900000D02*
X79100000Y5300000D01*
X79100000Y2100000D02*
X79100000Y2500000D01*
X82300000Y2500000D02*
X82300000Y2100000D01*
X82300000Y5300000D02*
X79100000Y5300000D01*
X79100000Y2100000D02*
X82300000Y2100000D01*
X87600000Y70500000D02*
X87600000Y70100000D01*
X90800000Y70500000D02*
X90800000Y70100000D01*
X90800000Y73300000D02*
X90800000Y72900000D01*
X87600000Y72900000D02*
X87600000Y73300000D01*
X87600000Y70100000D02*
X90800000Y70100000D01*
X90800000Y73300000D02*
X87600000Y73300000D01*
X87600000Y62000000D02*
X87600000Y61600000D01*
X90800000Y62000000D02*
X90800000Y61600000D01*
X90800000Y64800000D02*
X90800000Y64400000D01*
X87600000Y64400000D02*
X87600000Y64800000D01*
X87600000Y61600000D02*
X90800000Y61600000D01*
X90800000Y64800000D02*
X87600000Y64800000D01*
X87600000Y53500000D02*
X87600000Y53100000D01*
X90800000Y53500000D02*
X90800000Y53100000D01*
X90800000Y56300000D02*
X90800000Y55900000D01*
X87600000Y55900000D02*
X87600000Y56300000D01*
X87600000Y53100000D02*
X90800000Y53100000D01*
X90800000Y56300000D02*
X87600000Y56300000D01*
X87600000Y45000000D02*
X87600000Y44600000D01*
X90800000Y45000000D02*
X90800000Y44600000D01*
X90800000Y47800000D02*
X90800000Y47400000D01*
X87600000Y47400000D02*
X87600000Y47800000D01*
X87600000Y44600000D02*
X90800000Y44600000D01*
X90800000Y47800000D02*
X87600000Y47800000D01*
X87600000Y36500000D02*
X87600000Y36100000D01*
X90800000Y36500000D02*
X90800000Y36100000D01*
X90800000Y39300000D02*
X90800000Y38900000D01*
X87600000Y38900000D02*
X87600000Y39300000D01*
X87600000Y36100000D02*
X90800000Y36100000D01*
X90800000Y39300000D02*
X87600000Y39300000D01*
X87600000Y28000000D02*
X87600000Y27600000D01*
X90800000Y28000000D02*
X90800000Y27600000D01*
X90800000Y30800000D02*
X90800000Y30400000D01*
X87600000Y30400000D02*
X87600000Y30800000D01*
X87600000Y27600000D02*
X90800000Y27600000D01*
X90800000Y30800000D02*
X87600000Y30800000D01*
X87600000Y19500000D02*
X87600000Y19100000D01*
X90800000Y19500000D02*
X90800000Y19100000D01*
X90800000Y22300000D02*
X90800000Y21900000D01*
X87600000Y21900000D02*
X87600000Y22300000D01*
X87600000Y19100000D02*
X90800000Y19100000D01*
X90800000Y22300000D02*
X87600000Y22300000D01*
X87600000Y11000000D02*
X87600000Y10600000D01*
X90800000Y11000000D02*
X90800000Y10600000D01*
X90800000Y13800000D02*
X90800000Y13400000D01*
X87600000Y13400000D02*
X87600000Y13800000D01*
X87600000Y10600000D02*
X90800000Y10600000D01*
X90800000Y13800000D02*
X87600000Y13800000D01*
X87600000Y2500000D02*
X87600000Y2100000D01*
X90800000Y2500000D02*
X90800000Y2100000D01*
X90800000Y5300000D02*
X90800000Y4900000D01*
X87600000Y4900000D02*
X87600000Y5300000D01*
X87600000Y2100000D02*
X90800000Y2100000D01*
X90800000Y5300000D02*
X87600000Y5300000D01*
X99300000Y72900000D02*
X99300000Y73300000D01*
X96100000Y72900000D02*
X96100000Y73300000D01*
X96100000Y70100000D02*
X96100000Y70500000D01*
X99300000Y70500000D02*
X99300000Y70100000D01*
X99300000Y73300000D02*
X96100000Y73300000D01*
X96100000Y70100000D02*
X99300000Y70100000D01*
X99300000Y64400000D02*
X99300000Y64800000D01*
X96100000Y64400000D02*
X96100000Y64800000D01*
X96100000Y61600000D02*
X96100000Y62000000D01*
X99300000Y62000000D02*
X99300000Y61600000D01*
X99300000Y64800000D02*
X96100000Y64800000D01*
X96100000Y61600000D02*
X99300000Y61600000D01*
X99300000Y55900000D02*
X99300000Y56300000D01*
X96100000Y55900000D02*
X96100000Y56300000D01*
X96100000Y53100000D02*
X96100000Y53500000D01*
X99300000Y53500000D02*
X99300000Y53100000D01*
X99300000Y56300000D02*
X96100000Y56300000D01*
X96100000Y53100000D02*
X99300000Y53100000D01*
X99300000Y47400000D02*
X99300000Y47800000D01*
X96100000Y47400000D02*
X96100000Y47800000D01*
X96100000Y44600000D02*
X96100000Y45000000D01*
X99300000Y45000000D02*
X99300000Y44600000D01*
X99300000Y47800000D02*
X96100000Y47800000D01*
X96100000Y44600000D02*
X99300000Y44600000D01*
X99300000Y38900000D02*
X99300000Y39300000D01*
X96100000Y38900000D02*
X96100000Y39300000D01*
X96100000Y36100000D02*
X96100000Y36500000D01*
X99300000Y36500000D02*
X99300000Y36100000D01*
X99300000Y39300000D02*
X96100000Y39300000D01*
X96100000Y36100000D02*
X99300000Y36100000D01*
X99300000Y30400000D02*
X99300000Y30800000D01*
X96100000Y30400000D02*
X96100000Y30800000D01*
X96100000Y27600000D02*
X96100000Y28000000D01*
X99300000Y28000000D02*
X99300000Y27600000D01*
X99300000Y30800000D02*
X96100000Y30800000D01*
X96100000Y27600000D02*
X99300000Y27600000D01*
X99300000Y21900000D02*
X99300000Y22300000D01*
X96100000Y21900000D02*
X96100000Y22300000D01*
X96100000Y19100000D02*
X96100000Y19500000D01*
X99300000Y19500000D02*
X99300000Y19100000D01*
X99300000Y22300000D02*
X96100000Y22300000D01*
X96100000Y19100000D02*
X99300000Y19100000D01*
X99300000Y13400000D02*
X99300000Y13800000D01*
X96100000Y13400000D02*
X96100000Y13800000D01*
X96100000Y10600000D02*
X96100000Y11000000D01*
X99300000Y11000000D02*
X99300000Y10600000D01*
X99300000Y13800000D02*
X96100000Y13800000D01*
X96100000Y10600000D02*
X99300000Y10600000D01*
X99300000Y4900000D02*
X99300000Y5300000D01*
X96100000Y4900000D02*
X96100000Y5300000D01*
X96100000Y2100000D02*
X96100000Y2500000D01*
X99300000Y2500000D02*
X99300000Y2100000D01*
X99300000Y5300000D02*
X96100000Y5300000D01*
X96100000Y2100000D02*
X99300000Y2100000D01*
X104600000Y70500000D02*
X104600000Y70100000D01*
X107800000Y70500000D02*
X107800000Y70100000D01*
X107800000Y73300000D02*
X107800000Y72900000D01*
X104600000Y72900000D02*
X104600000Y73300000D01*
X104600000Y70100000D02*
X107800000Y70100000D01*
X107800000Y73300000D02*
X104600000Y73300000D01*
X104600000Y62000000D02*
X104600000Y61600000D01*
X107800000Y62000000D02*
X107800000Y61600000D01*
X107800000Y64800000D02*
X107800000Y64400000D01*
X104600000Y64400000D02*
X104600000Y64800000D01*
X104600000Y61600000D02*
X107800000Y61600000D01*
X107800000Y64800000D02*
X104600000Y64800000D01*
X104600000Y53500000D02*
X104600000Y53100000D01*
X107800000Y53500000D02*
X107800000Y53100000D01*
X107800000Y56300000D02*
X107800000Y55900000D01*
X104600000Y55900000D02*
X104600000Y56300000D01*
X104600000Y53100000D02*
X107800000Y53100000D01*
X107800000Y56300000D02*
X104600000Y56300000D01*
X104600000Y45000000D02*
X104600000Y44600000D01*
X107800000Y45000000D02*
X107800000Y44600000D01*
X107800000Y47800000D02*
X107800000Y47400000D01*
X104600000Y47400000D02*
X104600000Y47800000D01*
X104600000Y44600000D02*
X107800000Y44600000D01*
X107800000Y47800000D02*
X104600000Y47800000D01*
X104600000Y36500000D02*
X104600000Y36100000D01*
X107800000Y36500000D02*
X107800000Y36100000D01*
X107800000Y39300000D02*
X107800000Y38900000D01*
X104600000Y38900000D02*
X104600000Y39300000D01*
X104600000Y36100000D02*
X107800000Y36100000D01*
X107800000Y39300000D02*
X104600000Y39300000D01*
X104600000Y28000000D02*
X104600000Y27600000D01*
X107800000Y28000000D02*
X107800000Y27600000D01*
X107800000Y30800000D02*
X107800000Y30400000D01*
X104600000Y30400000D02*
X104600000Y30800000D01*
X104600000Y27600000D02*
X107800000Y27600000D01*
X107800000Y30800000D02*
X104600000Y30800000D01*
X104600000Y19500000D02*
X104600000Y19100000D01*
X107800000Y19500000D02*
X107800000Y19100000D01*
X107800000Y22300000D02*
X107800000Y21900000D01*
X104600000Y21900000D02*
X104600000Y22300000D01*
X104600000Y19100000D02*
X107800000Y19100000D01*
X107800000Y22300000D02*
X104600000Y22300000D01*
X104600000Y11000000D02*
X104600000Y10600000D01*
X107800000Y11000000D02*
X107800000Y10600000D01*
X107800000Y13800000D02*
X107800000Y13400000D01*
X104600000Y13400000D02*
X104600000Y13800000D01*
X104600000Y10600000D02*
X107800000Y10600000D01*
X107800000Y13800000D02*
X104600000Y13800000D01*
X104600000Y2500000D02*
X104600000Y2100000D01*
X107800000Y2500000D02*
X107800000Y2100000D01*
X107800000Y5300000D02*
X107800000Y4900000D01*
X104600000Y4900000D02*
X104600000Y5300000D01*
X104600000Y2100000D02*
X107800000Y2100000D01*
X107800000Y5300000D02*
X104600000Y5300000D01*
X116300000Y72900000D02*
X116300000Y73300000D01*
X113100000Y72900000D02*
X113100000Y73300000D01*
X113100000Y70100000D02*
X113100000Y70500000D01*
X116300000Y70500000D02*
X116300000Y70100000D01*
X116300000Y73300000D02*
X113100000Y73300000D01*
X113100000Y70100000D02*
X116300000Y70100000D01*
X116300000Y64400000D02*
X116300000Y64800000D01*
X113100000Y64400000D02*
X113100000Y64800000D01*
X113100000Y61600000D02*
X113100000Y62000000D01*
X116300000Y62000000D02*
X116300000Y61600000D01*
X116300000Y64800000D02*
X113100000Y64800000D01*
X113100000Y61600000D02*
X116300000Y61600000D01*
X116300000Y55900000D02*
X116300000Y56300000D01*
X113100000Y55900000D02*
X113100000Y56300000D01*
X113100000Y53100000D02*
X113100000Y53500000D01*
X116300000Y53500000D02*
X116300000Y53100000D01*
X116300000Y56300000D02*
X113100000Y56300000D01*
X113100000Y53100000D02*
X116300000Y53100000D01*
X116300000Y47400000D02*
X116300000Y47800000D01*
X113100000Y47400000D02*
X113100000Y47800000D01*
X113100000Y44600000D02*
X113100000Y45000000D01*
X116300000Y45000000D02*
X116300000Y44600000D01*
X116300000Y47800000D02*
X113100000Y47800000D01*
X113100000Y44600000D02*
X116300000Y44600000D01*
X116300000Y38900000D02*
X116300000Y39300000D01*
X113100000Y38900000D02*
X113100000Y39300000D01*
X113100000Y36100000D02*
X113100000Y36500000D01*
X116300000Y36500000D02*
X116300000Y36100000D01*
X116300000Y39300000D02*
X113100000Y39300000D01*
X113100000Y36100000D02*
X116300000Y36100000D01*
X116300000Y30400000D02*
X116300000Y30800000D01*
X113100000Y30400000D02*
X113100000Y30800000D01*
X113100000Y27600000D02*
X113100000Y28000000D01*
X116300000Y28000000D02*
X116300000Y27600000D01*
X116300000Y30800000D02*
X113100000Y30800000D01*
X113100000Y27600000D02*
X116300000Y27600000D01*
X116300000Y21900000D02*
X116300000Y22300000D01*
X113100000Y21900000D02*
X113100000Y22300000D01*
X113100000Y19100000D02*
X113100000Y19500000D01*
X116300000Y19500000D02*
X116300000Y19100000D01*
X116300000Y22300000D02*
X113100000Y22300000D01*
X113100000Y19100000D02*
X116300000Y19100000D01*
X116300000Y13400000D02*
X116300000Y13800000D01*
X113100000Y13400000D02*
X113100000Y13800000D01*
X113100000Y10600000D02*
X113100000Y11000000D01*
X116300000Y11000000D02*
X116300000Y10600000D01*
X116300000Y13800000D02*
X113100000Y13800000D01*
X113100000Y10600000D02*
X116300000Y10600000D01*
X116300000Y4900000D02*
X116300000Y5300000D01*
X113100000Y4900000D02*
X113100000Y5300000D01*
X113100000Y2100000D02*
X113100000Y2500000D01*
X116300000Y2500000D02*
X116300000Y2100000D01*
X116300000Y5300000D02*
X113100000Y5300000D01*
X113100000Y2100000D02*
X116300000Y2100000D01*
X121600000Y70500000D02*
X121600000Y70100000D01*
X124800000Y70500000D02*
X124800000Y70100000D01*
X124800000Y73300000D02*
X124800000Y72900000D01*
X121600000Y72900000D02*
X121600000Y73300000D01*
X121600000Y70100000D02*
X124800000Y70100000D01*
X124800000Y73300000D02*
X121600000Y73300000D01*
X121600000Y62000000D02*
X121600000Y61600000D01*
X124800000Y62000000D02*
X124800000Y61600000D01*
X124800000Y64800000D02*
X124800000Y64400000D01*
X121600000Y64400000D02*
X121600000Y64800000D01*
X121600000Y61600000D02*
X124800000Y61600000D01*
X124800000Y64800000D02*
X121600000Y64800000D01*
X121600000Y53500000D02*
X121600000Y53100000D01*
X124800000Y53500000D02*
X124800000Y53100000D01*
X124800000Y56300000D02*
X124800000Y55900000D01*
X121600000Y55900000D02*
X121600000Y56300000D01*
X121600000Y53100000D02*
X124800000Y53100000D01*
X124800000Y56300000D02*
X121600000Y56300000D01*
X121600000Y45000000D02*
X121600000Y44600000D01*
X124800000Y45000000D02*
X124800000Y44600000D01*
X124800000Y47800000D02*
X124800000Y47400000D01*
X121600000Y47400000D02*
X121600000Y47800000D01*
X121600000Y44600000D02*
X124800000Y44600000D01*
X124800000Y47800000D02*
X121600000Y47800000D01*
X121600000Y36500000D02*
X121600000Y36100000D01*
X124800000Y36500000D02*
X124800000Y36100000D01*
X124800000Y39300000D02*
X124800000Y38900000D01*
X121600000Y38900000D02*
X121600000Y39300000D01*
X121600000Y36100000D02*
X124800000Y36100000D01*
X124800000Y39300000D02*
X121600000Y39300000D01*
X121600000Y28000000D02*
X121600000Y27600000D01*
X124800000Y28000000D02*
X124800000Y27600000D01*
X124800000Y30800000D02*
X124800000Y30400000D01*
X121600000Y30400000D02*
X121600000Y30800000D01*
X121600000Y27600000D02*
X124800000Y27600000D01*
X124800000Y30800000D02*
X121600000Y30800000D01*
X121600000Y19500000D02*
X121600000Y19100000D01*
X124800000Y19500000D02*
X124800000Y19100000D01*
X124800000Y22300000D02*
X124800000Y21900000D01*
X121600000Y21900000D02*
X121600000Y22300000D01*
X121600000Y19100000D02*
X124800000Y19100000D01*
X124800000Y22300000D02*
X121600000Y22300000D01*
X121600000Y11000000D02*
X121600000Y10600000D01*
X124800000Y11000000D02*
X124800000Y10600000D01*
X124800000Y13800000D02*
X124800000Y13400000D01*
X121600000Y13400000D02*
X121600000Y13800000D01*
X121600000Y10600000D02*
X124800000Y10600000D01*
X124800000Y13800000D02*
X121600000Y13800000D01*
X121600000Y2500000D02*
X121600000Y2100000D01*
X124800000Y2500000D02*
X124800000Y2100000D01*
X124800000Y5300000D02*
X124800000Y4900000D01*
X121600000Y4900000D02*
X121600000Y5300000D01*
X121600000Y2100000D02*
X124800000Y2100000D01*
X124800000Y5300000D02*
X121600000Y5300000D01*
X133300000Y72900000D02*
X133300000Y73300000D01*
X130100000Y72900000D02*
X130100000Y73300000D01*
X130100000Y70100000D02*
X130100000Y70500000D01*
X133300000Y70500000D02*
X133300000Y70100000D01*
X133300000Y73300000D02*
X130100000Y73300000D01*
X130100000Y70100000D02*
X133300000Y70100000D01*
X133300000Y64400000D02*
X133300000Y64800000D01*
X130100000Y64400000D02*
X130100000Y64800000D01*
X130100000Y61600000D02*
X130100000Y62000000D01*
X133300000Y62000000D02*
X133300000Y61600000D01*
X133300000Y64800000D02*
X130100000Y64800000D01*
X130100000Y61600000D02*
X133300000Y61600000D01*
X133300000Y55900000D02*
X133300000Y56300000D01*
X130100000Y55900000D02*
X130100000Y56300000D01*
X130100000Y53100000D02*
X130100000Y53500000D01*
X133300000Y53500000D02*
X133300000Y53100000D01*
X133300000Y56300000D02*
X130100000Y56300000D01*
X130100000Y53100000D02*
X133300000Y53100000D01*
X133300000Y47400000D02*
X133300000Y47800000D01*
X130100000Y47400000D02*
X130100000Y47800000D01*
X130100000Y44600000D02*
X130100000Y45000000D01*
X133300000Y45000000D02*
X133300000Y44600000D01*
X133300000Y47800000D02*
X130100000Y47800000D01*
X130100000Y44600000D02*
X133300000Y44600000D01*
X133300000Y38900000D02*
X133300000Y39300000D01*
X130100000Y38900000D02*
X130100000Y39300000D01*
X130100000Y36100000D02*
X130100000Y36500000D01*
X133300000Y36500000D02*
X133300000Y36100000D01*
X133300000Y39300000D02*
X130100000Y39300000D01*
X130100000Y36100000D02*
X133300000Y36100000D01*
X133300000Y30400000D02*
X133300000Y30800000D01*
X130100000Y30400000D02*
X130100000Y30800000D01*
X130100000Y27600000D02*
X130100000Y28000000D01*
X133300000Y28000000D02*
X133300000Y27600000D01*
X133300000Y30800000D02*
X130100000Y30800000D01*
X130100000Y27600000D02*
X133300000Y27600000D01*
X133300000Y21900000D02*
X133300000Y22300000D01*
X130100000Y21900000D02*
X130100000Y22300000D01*
X130100000Y19100000D02*
X130100000Y19500000D01*
X133300000Y19500000D02*
X133300000Y19100000D01*
X133300000Y22300000D02*
X130100000Y22300000D01*
X130100000Y19100000D02*
X133300000Y19100000D01*
X133300000Y13400000D02*
X133300000Y13800000D01*
X130100000Y13400000D02*
X130100000Y13800000D01*
X130100000Y10600000D02*
X130100000Y11000000D01*
X133300000Y11000000D02*
X133300000Y10600000D01*
X133300000Y13800000D02*
X130100000Y13800000D01*
X130100000Y10600000D02*
X133300000Y10600000D01*
X133300000Y4900000D02*
X133300000Y5300000D01*
X130100000Y4900000D02*
X130100000Y5300000D01*
X130100000Y2100000D02*
X130100000Y2500000D01*
X133300000Y2500000D02*
X133300000Y2100000D01*
X133300000Y5300000D02*
X130100000Y5300000D01*
X130100000Y2100000D02*
X133300000Y2100000D01*
M02*
